<svg xmlns="http://www.w3.org/2000/svg" width="106.9" height="123.952" viewBox="0 0 106.9 123.952">
  <g id="_17" data-name="17" transform="translate(-18.902 -1.5)">
    <g id="Grupo_1098999" data-name="Grupo 1098999" transform="translate(18.902 1.5)">
      <path id="Trazado_874118" data-name="Trazado 874118" d="M64.262,59.138h1.386V70.682H64.262a5.772,5.772,0,1,1,0-11.544Z" transform="translate(-39.095 -30.9)" fill="#ffb69f"/>
      <path id="Trazado_874119" data-name="Trazado 874119" d="M156.066,64.91a5.77,5.77,0,0,1-5.772,5.772h-1.386V59.138h1.386A5.773,5.773,0,0,1,156.066,64.91Z" transform="translate(-85.215 -30.9)" fill="#ffb69f"/>
      <path id="Trazado_874120" data-name="Trazado 874120" d="M113.5,4l-8.013,4.182a14.413,14.413,0,0,1-6.668,1.635h-17.6a8.129,8.129,0,0,0-8.129,8.129v9.171H110.23a20.279,20.279,0,0,0,3.457-22.732Z" transform="translate(-46.54 -2.775)" fill="#12263f"/>
      <path id="Trazado_874121" data-name="Trazado 874121" d="M106.059,165.25l-5.664,5.664,8.8,8.8v5.33H21.4V143.286A22.559,22.559,0,0,1,43.961,120.73H86.639a22.554,22.554,0,0,1,22.556,22.556v25.1Z" transform="translate(-20.176 -62.316)" fill="#e6d567"/>
      <path id="Trazado_874122" data-name="Trazado 874122" d="M110.241,51.182V66.317A18.861,18.861,0,0,1,91.3,85.25,18.567,18.567,0,0,1,73.1,66.683v-15.5Z" transform="translate(-46.547 -26.841)" fill="#ffb69f"/>
      <path id="Trazado_874123" data-name="Trazado 874123" d="M150.5,160.849a18.617,18.617,0,1,1-18.615-18.62A18.622,18.622,0,0,1,150.5,160.849Z" transform="translate(-67.036 -73.282)" fill="#daf2e4"/>
      <path id="Trazado_874124" data-name="Trazado 874124" d="M150.739,166.816a12.885,12.885,0,1,1-12.883-12.887A12.888,12.888,0,0,1,150.739,166.816Z" transform="translate(-73.004 -79.25)" fill="#efefef"/>
      <path id="Trazado_874125" data-name="Trazado 874125" d="M208.1,231.393H196.765l-5.325-5.33-8.8-8.8L188.3,211.6l3.136,3.14Z" transform="translate(-102.42 -108.666)" fill="#95dbb3"/>
      <path id="Trazado_874126" data-name="Trazado 874126" d="M150.968,169.511h-4.261V165.25h-6.155v4.261h-4.261v6.155h4.261v4.261h6.155v-4.261h4.261Z" transform="translate(-78.779 -85.025)" fill="#95dbb3"/>
      <g id="Grupo_1098998" data-name="Grupo 1098998">
        <g id="Grupo_1098997" data-name="Grupo 1098997" transform="translate(5.475 62.74)">
          <path id="Trazado_874127" data-name="Trazado 874127" d="M31.3,185.873a1.225,1.225,0,0,1-1.225-1.225v-1.47a1.225,1.225,0,0,1,2.45,0v1.47A1.225,1.225,0,0,1,31.3,185.873Zm0-6.369a1.225,1.225,0,0,1-1.225-1.225v-32.2a16.536,16.536,0,0,1,16.517-16.517,1.225,1.225,0,1,1,0,2.45,14.083,14.083,0,0,0-14.067,14.067v32.2A1.225,1.225,0,0,1,31.3,179.5Z" transform="translate(-30.077 -129.561)" fill="#c5e5fe"/>
        </g>
        <path id="Trazado_874128" data-name="Trazado 874128" d="M39.525,126.459s-.005,0-.005,0a1.224,1.224,0,1,0,1.7.318A1.254,1.254,0,0,0,39.525,126.459Z" transform="translate(-29.148 -65.136)"/>
        <path id="Trazado_874129" data-name="Trazado 874129" d="M25.364,133.121A23.665,23.665,0,0,0,18.9,149.416v41.757a1.225,1.225,0,1,0,2.45,0V149.416a21.24,21.24,0,0,1,5.8-14.615,1.23,1.23,0,0,0-.053-1.734A1.257,1.257,0,0,0,25.364,133.121Z" transform="translate(-18.902 -68.446)"/>
        <path id="Trazado_874130" data-name="Trazado 874130" d="M77.889,102.163a1.224,1.224,0,1,0-1.68-.422v0A1.222,1.222,0,0,0,77.889,102.163Z" transform="translate(-48.043 -51.686)"/>
        <path id="Trazado_874131" data-name="Trazado 874131" d="M95.974,87.553a1.225,1.225,0,1,0-2.45,0,8.57,8.57,0,0,0,17.14,0,1.225,1.225,0,1,0-2.45,0,6.12,6.12,0,0,1-12.24,0Z" transform="translate(-56.965 -44.769)"/>
        <path id="Trazado_874132" data-name="Trazado 874132" d="M90.937,66.9a1.225,1.225,0,0,0-1.225,1.225v1.081a1.225,1.225,0,0,0,2.45,0V68.127A1.225,1.225,0,0,0,90.937,66.9Z" transform="translate(-55.02 -34.86)"/>
        <path id="Trazado_874133" data-name="Trazado 874133" d="M128.547,70.433a1.225,1.225,0,0,0,1.225-1.225V68.127a1.225,1.225,0,1,0-2.45,0v1.081A1.225,1.225,0,0,0,128.547,70.433Z" transform="translate(-74.204 -34.86)"/>
        <circle id="Elipse_11487" data-name="Elipse 11487" cx="1.225" cy="1.225" r="1.225" transform="translate(16.599 97.005)"/>
        <path id="Trazado_874134" data-name="Trazado 874134" d="M55.232,174.744a1.225,1.225,0,0,0-2.45,0v7.83a1.225,1.225,0,0,0,2.45,0Z" transform="translate(-36.183 -89.242)"/>
        <path id="Trazado_874135" data-name="Trazado 874135" d="M54.007,209.5a1.225,1.225,0,0,0-1.225,1.225v19.6a1.225,1.225,0,1,0,2.45,0v-19.6A1.225,1.225,0,0,0,54.007,209.5Z" transform="translate(-36.183 -107.595)"/>
        <path id="Trazado_874136" data-name="Trazado 874136" d="M110.967,73.825V67.562a1.225,1.225,0,1,0-2.45,0v6.263a1.225,1.225,0,0,0,2.45,0Z" transform="translate(-64.612 -34.572)"/>
        <path id="Trazado_874137" data-name="Trazado 874137" d="M140.178,125.092a1.224,1.224,0,0,0,0-1.732l-16.3-16.3V82.47A23.776,23.776,0,0,0,100.1,58.689H88.3A19.755,19.755,0,0,0,98.52,42.507a7,7,0,1,0,.037-13.994v-2.2A21.631,21.631,0,0,0,101.7,2.19a1.226,1.226,0,0,0-1.668-.551C91.619,6.029,89.965,7.317,85.917,7.317h-17.6a9.365,9.365,0,0,0-9.354,9.354c0,1.264.007,10.578.007,11.842a7,7,0,1,0,.04,13.994,19.723,19.723,0,0,0,.719,4.281,1.244,1.244,0,0,0,1.514.843,1.231,1.231,0,0,0,.843-1.509c0-.005,0-.005,0-.01a17.352,17.352,0,0,1-.662-4.83V27.067H96.108V41.34A17.346,17.346,0,0,1,66.751,53.858a1.25,1.25,0,0,0-1.729.034,1.224,1.224,0,0,0,.034,1.734,19.865,19.865,0,0,0,4.167,3.062h-11.8a23.718,23.718,0,0,0-8.868,1.7,1.225,1.225,0,0,0,.916,2.273,21.268,21.268,0,0,1,7.952-1.529H100.1A21.318,21.318,0,0,1,121.431,82.47v22.144l-1.045-1.045a1.224,1.224,0,0,0-1.731,0l-1.97,1.969-3.34-3.34a19.826,19.826,0,1,0-8.51,5.662v16.367a1.225,1.225,0,0,0,2.45,0V106.844a19.912,19.912,0,0,0,4.328-2.915l3.34,3.34-1.962,1.961a1.224,1.224,0,0,0,0,1.732l8.441,8.444v4.82a1.225,1.225,0,1,0,2.45,0v-2.37l3.234,3.235a1.225,1.225,0,1,0,1.733-1.731L115.587,110.1l3.932-3.93,18.926,18.926A1.226,1.226,0,0,0,140.178,125.092ZM103.265,35.51a4.552,4.552,0,0,1-4.707,4.547V30.963A4.553,4.553,0,0,1,103.265,35.51ZM61.409,16.671a6.912,6.912,0,0,1,6.9-6.9h17.6c4.722,0,7.037-1.671,14.114-5.364a19.178,19.178,0,0,1-3.242,20.215H61.409ZM54.258,35.51a4.553,4.553,0,0,1,4.708-4.547v9.094A4.553,4.553,0,0,1,54.258,35.51ZM81.1,89.067a17.392,17.392,0,1,1,17.4,17.39A17.415,17.415,0,0,1,81.1,89.067Z" transform="translate(-33.637 -1.5)"/>
        <path id="Trazado_874138" data-name="Trazado 874138" d="M149.695,167.011h-3.036v-3.036a1.225,1.225,0,0,0-1.225-1.225h-6.155a1.225,1.225,0,0,0-1.225,1.225v3.036h-3.036a1.225,1.225,0,0,0-1.225,1.225v6.155a1.225,1.225,0,0,0,1.225,1.225h3.036v3.036a1.225,1.225,0,0,0,1.225,1.225h6.155a1.225,1.225,0,0,0,1.225-1.225v-3.036h3.036a1.225,1.225,0,0,0,1.225-1.225v-6.155A1.225,1.225,0,0,0,149.695,167.011Zm-1.225,6.155h-3.036a1.225,1.225,0,0,0-1.225,1.225v3.036H140.5v-3.036a1.225,1.225,0,0,0-1.225-1.225h-3.036v-3.705h3.036a1.225,1.225,0,0,0,1.225-1.225V165.2h3.705v3.036a1.225,1.225,0,0,0,1.225,1.225h3.036Z" transform="translate(-77.505 -83.749)"/>
        <path id="Trazado_874139" data-name="Trazado 874139" d="M136.583,151.428a14.11,14.11,0,1,0,14.108,14.112A14.128,14.128,0,0,0,136.583,151.428Zm0,25.77a11.66,11.66,0,1,1,11.658-11.658A11.674,11.674,0,0,1,136.583,177.2Z" transform="translate(-71.73 -77.974)"/>
      </g>
    </g>
  </g>
</svg>
