<svg xmlns="http://www.w3.org/2000/svg" width="48" height="48" viewBox="0 0 48 48">
  <g id="_19" data-name="19" transform="translate(-317 -2132)">
    <g id="Grupo_1099018" data-name="Grupo 1099018" transform="translate(0 -18)">
      <circle id="Elipse_11488" data-name="Elipse 11488" cx="24" cy="24" r="24" transform="translate(317 2150)" fill="#e6d567"/>
    </g>
    <g id="reshot-icon-judge-CTHFSZP2YL" transform="translate(323.883 2135.316)">
      <g id="Grupo_1099027" data-name="Grupo 1099027" transform="translate(0 33.887)">
        <rect id="Rectángulo_401245" data-name="Rectángulo 401245" width="33.943" height="1.065" fill="#12263f"/>
      </g>
      <g id="Grupo_1099028" data-name="Grupo 1099028" transform="translate(18.399 29.832)">
        <path id="Trazado_874158" data-name="Trazado 874158" d="M83.352,109.857H82.287v-1.615a.271.271,0,0,0-.267-.274H70.437a.271.271,0,0,0-.267.274v1.615H69.105v-1.615a1.337,1.337,0,0,1,1.332-1.339H82.021a1.337,1.337,0,0,1,1.332,1.339Z" transform="translate(-69.105 -106.903)" fill="#12263f"/>
      </g>
      <g id="Grupo_1099029" data-name="Grupo 1099029" transform="translate(19.331 27.005)">
        <path id="Trazado_874159" data-name="Trazado 874159" d="M83.658,100.176h-9.72a1.337,1.337,0,0,1-1.332-1.34V97.625a1.337,1.337,0,0,1,1.332-1.34h9.72a1.337,1.337,0,0,1,1.331,1.34v1.211A1.337,1.337,0,0,1,83.658,100.176Zm-9.72-2.826a.271.271,0,0,0-.267.275v1.211a.271.271,0,0,0,.267.275h9.72a.271.271,0,0,0,.266-.275V97.625a.271.271,0,0,0-.266-.275Z" transform="translate(-72.607 -96.285)" fill="#12263f"/>
      </g>
      <g id="Grupo_1099041" data-name="Grupo 1099041" transform="translate(1.953 1.866)">
        <g id="Grupo_1099032" data-name="Grupo 1099032" transform="translate(10.741 0)">
          <g id="Grupo_1099030" data-name="Grupo 1099030" transform="translate(8.526 8.616)">
            <path id="Trazado_874160" data-name="Trazado 874160" d="M82.505,44.909a1.222,1.222,0,0,1-.875-.366l-1.573-1.589a1.25,1.25,0,0,1,0-1.753L86.6,34.592a1.229,1.229,0,0,1,1.749,0l1.573,1.59a1.252,1.252,0,0,1,0,1.752l-6.539,6.608A1.224,1.224,0,0,1,82.505,44.909Zm4.966-9.618a.16.16,0,0,0-.117.05l-6.54,6.609a.182.182,0,0,0,0,.255l1.573,1.589a.163.163,0,0,0,.236,0l6.539-6.608a.184.184,0,0,0,0-.255l-1.572-1.589A.162.162,0,0,0,87.471,35.291Z" transform="translate(-79.699 -34.226)" fill="#12263f"/>
          </g>
          <g id="Grupo_1099031" data-name="Grupo 1099031">
            <path id="Trazado_874161" data-name="Trazado 874161" d="M50.483,12.548a1.222,1.222,0,0,1-.875-.366l-1.573-1.589a1.251,1.251,0,0,1,0-1.753l6.538-6.608a1.23,1.23,0,0,1,1.751,0L57.9,3.821a1.251,1.251,0,0,1,0,1.753l-6.54,6.608A1.222,1.222,0,0,1,50.483,12.548ZM55.45,2.931a.163.163,0,0,0-.118.05L48.793,9.589a.182.182,0,0,0,0,.256l1.573,1.589a.164.164,0,0,0,.236,0l6.54-6.609a.182.182,0,0,0,0-.255L55.568,2.981A.163.163,0,0,0,55.45,2.931Z" transform="translate(-47.677 -1.866)" fill="#12263f"/>
          </g>
        </g>
        <g id="Grupo_1099035" data-name="Grupo 1099035" transform="translate(14.172 3.47)">
          <g id="Grupo_1099033" data-name="Grupo 1099033" transform="translate(0 5.329)">
            <rect id="Rectángulo_401246" data-name="Rectángulo 401246" width="8.835" height="1.065" transform="matrix(0.703, 0.711, -0.711, 0.703, 0.757, 0)" fill="#12263f"/>
          </g>
          <g id="Grupo_1099034" data-name="Grupo 1099034" transform="translate(5.273 0)">
            <rect id="Rectángulo_401247" data-name="Rectángulo 401247" width="8.835" height="1.065" transform="matrix(0.703, 0.711, -0.711, 0.703, 0.757, 0)" fill="#12263f"/>
          </g>
        </g>
        <g id="Grupo_1099036" data-name="Grupo 1099036" transform="translate(2.55 10.557)">
          <path id="Trazado_874162" data-name="Trazado 874162" d="M19.64,58.542l-2.726-2.755L31.032,41.518l2.727,2.755Zm-1.227-2.755,1.227,1.241L32.26,44.273l-1.228-1.241Z" transform="translate(-16.914 -41.518)" fill="#12263f"/>
        </g>
        <g id="Grupo_1099037" data-name="Grupo 1099037" transform="translate(0 23.574)">
          <path id="Trazado_874163" data-name="Trazado 874163" d="M11.041,96.992,7.335,93.247l2.809-2.839,3.705,3.745ZM8.833,93.247l2.207,2.231,1.31-1.325-2.207-2.231Z" transform="translate(-7.335 -90.408)" fill="#12263f"/>
        </g>
        <g id="Grupo_1099038" data-name="Grupo 1099038" transform="translate(13.605 13.747)">
          <rect id="Rectángulo_401248" data-name="Rectángulo 401248" width="2.678" height="1.065" transform="translate(0.757 0) rotate(45.292)" fill="#12263f"/>
        </g>
        <g id="Grupo_1099039" data-name="Grupo 1099039" transform="translate(11.629 15.745)">
          <rect id="Rectángulo_401249" data-name="Rectángulo 401249" width="2.677" height="1.065" transform="matrix(0.703, 0.711, -0.711, 0.703, 0.757, 0)" fill="#12263f"/>
        </g>
        <g id="Grupo_1099040" data-name="Grupo 1099040" transform="translate(18.499 8.065)">
          <rect id="Rectángulo_401250" data-name="Rectángulo 401250" width="3.715" height="1.065" transform="matrix(0.703, 0.711, -0.711, 0.703, 0.757, 0)" fill="#12263f"/>
        </g>
      </g>
      <g id="Grupo_1099046" data-name="Grupo 1099046" transform="translate(30.301 17.614)">
        <g id="Grupo_1099042" data-name="Grupo 1099042" transform="translate(0.747 3.845)">
          <rect id="Rectángulo_401251" data-name="Rectángulo 401251" width="3.031" height="1.065" fill="#12263f"/>
        </g>
        <g id="Grupo_1099045" data-name="Grupo 1099045" transform="translate(0 0)">
          <g id="Grupo_1099043" data-name="Grupo 1099043">
            <rect id="Rectángulo_401252" data-name="Rectángulo 401252" width="1.065" height="3.04" transform="translate(2.558) rotate(57.281)" fill="#12263f"/>
          </g>
          <g id="Grupo_1099044" data-name="Grupo 1099044" transform="translate(0.002 6.215)">
            <rect id="Rectángulo_401253" data-name="Rectángulo 401253" width="3.041" height="1.065" transform="translate(0.576) rotate(32.724)" fill="#12263f"/>
          </g>
        </g>
      </g>
      <g id="Grupo_1099050" data-name="Grupo 1099050" transform="translate(17.429 21.459)">
        <g id="Grupo_1099047" data-name="Grupo 1099047">
          <rect id="Rectángulo_401254" data-name="Rectángulo 401254" width="3.03" height="1.065" fill="#12263f"/>
        </g>
        <g id="Grupo_1099049" data-name="Grupo 1099049" transform="translate(0.643 2.368)">
          <g id="Grupo_1099048" data-name="Grupo 1099048" transform="translate(0 0)">
            <rect id="Rectángulo_401255" data-name="Rectángulo 401255" width="1.065" height="3.04" transform="translate(2.558 0) rotate(57.281)" fill="#12263f"/>
          </g>
        </g>
      </g>
    </g>
  </g>
</svg>
