<svg id="_30" data-name="30" xmlns="http://www.w3.org/2000/svg" xmlns:xlink="http://www.w3.org/1999/xlink" width="186.818" height="187.098" viewBox="0 0 186.818 187.098">
  <defs>
    <clipPath id="clip-path">
      <rect id="Rect치ngulo_401287" data-name="Rect치ngulo 401287" width="186.818" height="187.098" fill="none"/>
    </clipPath>
  </defs>
  <rect id="Rect치ngulo_401286" data-name="Rect치ngulo 401286" width="186.818" height="187.098" fill="#e6d567"/>
  <g id="Grupo_1099094" data-name="Grupo 1099094">
    <g id="Grupo_1099093" data-name="Grupo 1099093" clip-path="url(#clip-path)">
      <path id="Trazado_874249" data-name="Trazado 874249" d="M232.313,208.879a5.09,5.09,0,0,0-1.335-5.04,4.329,4.329,0,0,0-5.4-.275c-.415-3.729-5.822-6.143-9.358-4.179-.2-1.33-2.644-1.693-3.305-.492a8.968,8.968,0,0,0-9.223-3.853c-3.554.713-6.373,3.735-6.545,7.017a8.978,8.978,0,0,0-4.023-.494c-1.341.249-2.592,1.356-2.385,2.578a7.471,7.471,0,0,0-6.115,1.684,3.8,3.8,0,0,0-.175,5.439,6.7,6.7,0,0,0-6.934,2.559,5.334,5.334,0,0,0,.846,6.717,2.984,2.984,0,0,0-.888,5.268c-2.264,1.513-4.239,3.686-4.392,6.224a4.793,4.793,0,0,0,5.009,4.935,4.879,4.879,0,0,0-.034,5.567,6.134,6.134,0,0,0,5.567,2.4c-.638,1.56,1.451,3.37,3.152,2.732-.041,1.62.187,3.4,1.473,4.53s3.911,1,4.462-.545a4.81,4.81,0,0,0,5.617,1.184c-.049,2.67,3.722,4.7,6.3,3.384,1.942,1.183,4.753.272,6.188-1.4s1.847-3.857,2.209-5.946c1.167,1.029,3.135.028,4.118-1.147a9.816,9.816,0,0,0,1.949-8.989,12.847,12.847,0,0,0,5.534-13.689,3.049,3.049,0,0,1-.175-1.325,2.852,2.852,0,0,1,.552-1.071l5.037-7.108a11.5,11.5,0,0,0,2.218-4.3,3.9,3.9,0,0,0-1.768-4.2" transform="translate(-130.189 -146.59)" fill="#040504"/>
      <path id="Trazado_874250" data-name="Trazado 874250" d="M379.369,351.086c-.014-.056-.026-.111-.035-.168.006.04.012.081.018.121a1.736,1.736,0,0,1,0-.493l-.018.121a1.7,1.7,0,0,1,.135-.451l-.051.109c.015-.032.031-.064.049-.1H378.6a1.317,1.317,0,0,1,.127.214l-.051-.108a1.413,1.413,0,0,1,.112.376l-.018-.121a1.528,1.528,0,0,1,0,.43c.006-.04.012-.081.018-.121a1.483,1.483,0,0,1-.116.394l.051-.108a1.328,1.328,0,0,1-.181.284l.079-.092-.024.027.791.092a1.522,1.522,0,0,1-.135-.233l.051.109a1.629,1.629,0,0,1-.125-.425c.006.04.012.081.018.121a1.7,1.7,0,0,1,0-.483l-.018.121a1.589,1.589,0,0,1,.128-.424l-.051.109q.029-.061.063-.119l-.791.092a.5.5,0,0,1,.051.052l-.079-.092a.474.474,0,0,1,.061.1l-.051-.109a.568.568,0,0,1,.042.138l-.018-.121a.646.646,0,0,1,0,.176c.006-.04.012-.081.018-.121a.642.642,0,0,1-.049.168l.051-.108a.54.54,0,0,1-.078.12l.079-.092a.5.5,0,0,1-.074.067l.1-.071a.469.469,0,0,1-.093.049l.12-.046a.5.5,0,0,1-.094.023l.134-.016a.524.524,0,0,1-.112,0l.134.016a.6.6,0,0,1-.125-.032l.12.046a.657.657,0,0,1-.116-.061l.1.071a.645.645,0,0,1-.11-.1l.079.092a.571.571,0,0,1-.079-.123l.051.109a.523.523,0,0,1-.037-.125c.006.04.012.081.018.121a.538.538,0,0,1,0-.066.506.506,0,0,0-1.007,0,.936.936,0,0,0,.313.683,1.069,1.069,0,0,0,.733.281.953.953,0,0,0,.937-.974.932.932,0,0,0-.31-.7.542.542,0,0,0-.791.092,2,2,0,0,0,.068,2.143.544.544,0,0,0,.79.092,1.914,1.914,0,0,0,.363-.577,1.829,1.829,0,0,0,.119-.584,1.762,1.762,0,0,0-.323-1.115.529.529,0,0,0-.435-.225.51.51,0,0,0-.435.225,2.115,2.115,0,0,0-.2,1.557.516.516,0,0,0,.619.317.46.46,0,0,0,.351-.559" transform="translate(-284.014 -262.936)" fill="#fb9f62"/>
      <path id="Trazado_874251" data-name="Trazado 874251" d="M369.858,329.755a2.766,2.766,0,0,1,.194-.255l-.079.092a2.819,2.819,0,0,1,.5-.453l-.1.071a2.9,2.9,0,0,1,.612-.326l-.12.046a2.8,2.8,0,0,1,.651-.161l-.134.016a2.6,2.6,0,0,1,.608,0l-.134-.016a2.663,2.663,0,0,1,.6.148l-.12-.046a2.867,2.867,0,0,1,.614.325l-.1-.071a2.917,2.917,0,0,1,.531.482l-.079-.092a2.774,2.774,0,0,1,.392.6l-.051-.109.017.036a.511.511,0,0,0,.231.271.564.564,0,0,0,.388.046.507.507,0,0,0,.3-.209.4.4,0,0,0,.051-.35,3.321,3.321,0,0,0-.782-1.092,3.434,3.434,0,0,0-1.159-.685,3.187,3.187,0,0,0-2.576.243,3.278,3.278,0,0,0-1.121,1.025.435.435,0,0,0,.18.621.546.546,0,0,0,.689-.163" transform="translate(-277.511 -246.624)" fill="#fb9f62"/>
      <path id="Trazado_874252" data-name="Trazado 874252" d="M89.586,375.8c-.071,1.425,47.422.434,71.193.854,8.063.142,16.124.775,24.181.449,6.048-.245,17.59-.077,21.466.092.861-3.126-2.652-9.474-4.651-12-3.421-4.319-9.161-7.7-13.819-10.565-7.364-4.527-10.333-3.783-18.267-7.155-1.2-.509-8.434-2.8-8.96-4.017a5.728,5.728,0,0,1-.323-2.2q-.1-6.936-.21-13.872c5.5-.846,8.508-8.675,8.036-14.577,1.343-.581,2.594-.457,3.012-2.178s-2.842-5.577-2.963-8.684.05-6.437-1.575-9.065c-2.042-3.3-6.409-4.4-10.17-3.715-7.587,1.385-12.229,9.762-11.146,17.568-.963-3.054-5.884-3.38-8.585-1.748s-3.9,4.313-2.532,7.2,4.878,4.9,8.077,2.969c-2.928,10.023-5.283,18.45-8.211,28.473,0,0-43.544,11.819-44.553,32.167" transform="translate(-67.388 -217.372)" fill="#d75618"/>
      <path id="Trazado_874253" data-name="Trazado 874253" d="M321.907,419.932a13.62,13.62,0,0,0,2.409,2.749,12.532,12.532,0,0,0,2.7,1.783,12.934,12.934,0,0,0,2.77.974,13.454,13.454,0,0,0,2.633.33,12.071,12.071,0,0,0,2.273-.156l.232-.041a.454.454,0,0,0,.352-.559.525.525,0,0,0-.619-.317q-.33.063-.664.1l.134-.016a11.97,11.97,0,0,1-2.224.054q-.345-.023-.687-.064l.134.016a12.675,12.675,0,0,1-2.3-.5q-.336-.106-.665-.231l.12.046a12.092,12.092,0,0,1-2.033-1q-.287-.177-.561-.368l.1.071a12.3,12.3,0,0,1-1.841-1.578q-.255-.266-.494-.546l.079.092a13.857,13.857,0,0,1-.983-1.3.542.542,0,0,0-.689-.163.437.437,0,0,0-.181.621" transform="translate(-242.093 -315.367)" fill="#26140d"/>
      <path id="Trazado_874254" data-name="Trazado 874254" d="M375.667,352.717a1.49,1.49,0,1,1-1.482-1.338,1.416,1.416,0,0,1,1.482,1.338" transform="translate(-280.354 -264.315)" fill="#040504"/>
      <path id="Trazado_874255" data-name="Trazado 874255" d="M365.664,333.284a4.3,4.3,0,0,0-1.4-.32,4.052,4.052,0,0,0-3.272,1.386,3.942,3.942,0,0,0-.726,1.159.418.418,0,0,0,.051.35.509.509,0,0,0,.3.209.557.557,0,0,0,.388-.046.531.531,0,0,0,.231-.272q.024-.055.049-.11l-.051.109a3.747,3.747,0,0,1,.541-.841L361.7,335a3.806,3.806,0,0,1,.692-.63l-.1.071a3.594,3.594,0,0,1,.77-.409l-.12.046a3.626,3.626,0,0,1,.832-.2l-.134.016a3.71,3.71,0,0,1,.855,0l-.134-.016a3.607,3.607,0,0,1,.831.2l-.12-.046.089.035a.6.6,0,0,0,.388.046.509.509,0,0,0,.3-.209.419.419,0,0,0,.051-.35.451.451,0,0,0-.231-.271" transform="translate(-270.984 -250.458)" fill="#26140d"/>
      <path id="Trazado_874256" data-name="Trazado 874256" d="M382.348,398.034a6.751,6.751,0,0,0,1.8,1.191,6.961,6.961,0,0,0,2.172.573,5.9,5.9,0,0,0,1.132,0,.564.564,0,0,0,.349-.13.415.415,0,0,0,0-.629.507.507,0,0,0-.349-.13,6.013,6.013,0,0,1-1.26-.017l.131.016a6.3,6.3,0,0,1-1.476-.366l.118.045a6.414,6.414,0,0,1-1.357-.719l.1.07a6.426,6.426,0,0,1-.666-.534.537.537,0,0,0-.7,0,.422.422,0,0,0,0,.629" transform="translate(-287.504 -298.839)" fill="#26140d"/>
      <path id="Trazado_874257" data-name="Trazado 874257" d="M120.695,521.426c25.3,12.763,48.839,1.049,48.839,1.049,36.344,6.821,36.012,22.688,36.336,28.557a12.7,12.7,0,0,1,.008,2.137s-84.987-.192-117.359-.2c-.433,0-.932.018-1.209-.323a1.415,1.415,0,0,1-.229-.836c-.258-5.069-4.468-20.462,33.614-30.386" transform="translate(-65.309 -392.227)" fill="#59836b"/>
      <path id="Trazado_874258" data-name="Trazado 874258" d="M282.907,354.575a3.5,3.5,0,0,0-1.257-3.345,6.709,6.709,0,0,0-7-.976,5.935,5.935,0,0,0-3.52,5.62,6.574,6.574,0,0,0,4.082,5.372,4.878,4.878,0,0,0,1.169.355,7.176,7.176,0,0,0,3.819-.836,1.635,1.635,0,0,0,.575-.344,1.375,1.375,0,0,0,.257-.492q.917-2.561,1.644-5.174" transform="translate(-203.941 -263.04)" fill="#d75618"/>
      <path id="Trazado_874259" data-name="Trazado 874259" d="M288.483,365.671a4.691,4.691,0,0,0-2.406-2.047,4.354,4.354,0,0,0-.988-.271,3.475,3.475,0,0,0-1.094.012,2.94,2.94,0,0,0-1.429.718,2.614,2.614,0,0,0-.539.676,2.414,2.414,0,0,0-.281.9.432.432,0,0,0,.147.321.542.542,0,0,0,.712,0,.5.5,0,0,0,.148-.321c0-.024.005-.047.009-.07l-.018.121a1.877,1.877,0,0,1,.155-.5l-.051.109a2.2,2.2,0,0,1,.3-.468l-.079.092a2.457,2.457,0,0,1,.452-.41l-.1.071a2.534,2.534,0,0,1,.534-.284l-.12.046a2.434,2.434,0,0,1,.56-.139l-.134.016a2.82,2.82,0,0,1,.654,0l-.134-.016a3.954,3.954,0,0,1,.905.23l-.12-.046a4.578,4.578,0,0,1,.968.509l-.1-.071a4.339,4.339,0,0,1,.808.728l-.079-.092a3.93,3.93,0,0,1,.449.647.506.506,0,0,0,.3.209.564.564,0,0,0,.388-.046.441.441,0,0,0,.181-.621" transform="translate(-211.935 -273.294)" fill="#26140d"/>
      <path id="Trazado_874260" data-name="Trazado 874260" d="M295.394,372a3.217,3.217,0,0,0-2.331-.28,2.811,2.811,0,0,0-1.734,1.3,2.463,2.463,0,0,0-.327,1.143.485.485,0,0,0,.5.454.49.49,0,0,0,.5-.454,1.976,1.976,0,0,1,.019-.223c-.006.04-.012.081-.018.121a2.043,2.043,0,0,1,.169-.555l-.051.108a2.272,2.272,0,0,1,.324-.5l-.079.092a2.387,2.387,0,0,1,.422-.382l-.1.071a2.387,2.387,0,0,1,.509-.269l-.12.046a2.653,2.653,0,0,1,.591-.144l-.134.016a2.826,2.826,0,0,1,.657,0l-.134-.016a2.7,2.7,0,0,1,.612.148l-.12-.046a2.469,2.469,0,0,1,.331.154.54.54,0,0,0,.689-.163.439.439,0,0,0-.181-.621" transform="translate(-218.898 -279.54)" fill="#26140d"/>
      <path id="Trazado_874261" data-name="Trazado 874261" d="M275.8,359.214a5.091,5.091,0,0,1-.493.219l.122-.046a5.556,5.556,0,0,1-1.285.314l.136-.016a6.336,6.336,0,0,1-1.5,0l.136.016a6.424,6.424,0,0,1-1.507-.371l.122.046a5.651,5.651,0,0,1-1.2-.627l.1.072a4.67,4.67,0,0,1-.87-.781l.08.093a4.879,4.879,0,0,1-.7-1.105l.051.11a7.217,7.217,0,0,1-.582-1.95l.018.122a6.588,6.588,0,0,1-.007-1.938l-.018.122a5.786,5.786,0,0,1,.472-1.575l-.051.11a5.352,5.352,0,0,1,.769-1.194l-.08.093a5.916,5.916,0,0,1,1.1-.992l-.1.072a6.169,6.169,0,0,1,1.308-.691l-.122.046a5.967,5.967,0,0,1,1.383-.344l-.136.017a7.33,7.33,0,0,1,1.73.011l-.136-.017a6.894,6.894,0,0,1,1.615.394l-.122-.046a6.234,6.234,0,0,1,1.333.7l-.1-.072a5.734,5.734,0,0,1,1.061.956l-.08-.093a4.462,4.462,0,0,1,.658,1l-.051-.11a2.333,2.333,0,0,1,.2.625c-.006-.041-.012-.082-.018-.122a.982.982,0,0,1,.006.285l.018-.122c0,.02-.007.041-.012.061a.442.442,0,0,0,.051.355.516.516,0,0,0,.3.211.527.527,0,0,0,.627-.321,2.128,2.128,0,0,0-.313-1.46,5.354,5.354,0,0,0-1.284-1.566,6.788,6.788,0,0,0-2.383-1.3,7.952,7.952,0,0,0-3.381-.255,6.53,6.53,0,0,0-3.189,1.451,5.9,5.9,0,0,0-1.9,2.917,6.98,6.98,0,0,0,.017,3.712,5.71,5.71,0,0,0,1.82,3.02,6.327,6.327,0,0,0,2.892,1.288,6.588,6.588,0,0,0,3.236-.209,5.965,5.965,0,0,0,.768-.321.441.441,0,0,0,.183-.63.552.552,0,0,0-.7-.165" transform="translate(-201.101 -261.826)" fill="#26140d"/>
      <path id="Trazado_874262" data-name="Trazado 874262" d="M347.968,380.542q1.385.15,2.781.187.4.01.8.011a.457.457,0,1,0,0-.908q-1.395,0-2.785-.121-.4-.034-.8-.078a.531.531,0,0,0-.356.133.424.424,0,0,0,0,.643l.1.071a.543.543,0,0,0,.254.062" transform="translate(-261.37 -285.567)" fill="#26140d"/>
      <path id="Trazado_874263" data-name="Trazado 874263" d="M349.513,386.088l2.233.1a.484.484,0,0,0,.5-.454.491.491,0,0,0-.5-.454l-2.233-.1a.484.484,0,0,0-.5.454.491.491,0,0,0,.5.454" transform="translate(-262.532 -289.74)" fill="#26140d"/>
      <path id="Trazado_874264" data-name="Trazado 874264" d="M314.988,227.957a6.329,6.329,0,0,1,3.364-5.875,7.861,7.861,0,0,1,7.328.015c2.165,1.2,3.316,4.342,1.277,5.708a3.574,3.574,0,0,1,4.8-2.029,2.784,2.784,0,0,1,.486,4.662,3.644,3.644,0,0,1,2.651,3.5,3.735,3.735,0,0,1-3,3.254c.868-1.259,3.21-1.112,4.177.087a3.275,3.275,0,0,1-.335,4.133,8.141,8.141,0,0,1-4.154,2.253c-.4-.642.73-1.358,1.438-.995a1.727,1.727,0,0,1,.71,1.961,4.329,4.329,0,0,1-4.226,3.122c-.856-.005-1.871-.961-1.141-1.364a.991.991,0,0,1,.341,1.536,2.767,2.767,0,0,1-1.717.832,9.48,9.48,0,0,1-5.063-.456c-.445-.17-.928-.442-.982-.876s.718-.785.914-.386c-1.8,1.84-5.7,1.254-6.741-1.012a6.052,6.052,0,0,1-5.472,1.029c-.592-.183-1.142-1-.549-1.178.845-.209.687,1.2-.029,1.655a6.721,6.721,0,0,1-5.751.6,5.419,5.419,0,0,1-6.609-.222,4.2,4.2,0,0,1-.168-5.966.838.838,0,0,1,.712-.32c.272.055.336.5.058.521-2.219-2.064-1.981-5.64-.016-7.9s5.233-3.345,8.413-3.528c.374-2.43,4.226-3.7,6.252-2.067a2.977,2.977,0,0,1,3.361-1.077c.22.077.464.244.409.451s-.522.048-.342-.09" transform="translate(-222.184 -166.378)" fill="#040504"/>
      <path id="Trazado_874265" data-name="Trazado 874265" d="M379.79,396.7a7.41,7.41,0,0,0,1.806.12,7.867,7.867,0,0,0,.953-.116c.279-.052.552-.125.824-.2a6.47,6.47,0,0,1,.915-.206l-.134.016a2.64,2.64,0,0,1,.617-.006l-.134-.016a1.836,1.836,0,0,1,.414.1l-.12-.046a1.368,1.368,0,0,1,.279.145l-.1-.071a1.175,1.175,0,0,1,.21.192l-.079-.092a1.068,1.068,0,0,1,.14.216l-.051-.109a.886.886,0,0,1,.073.237c-.006-.04-.012-.081-.018-.121a.747.747,0,0,1,0,.191c.006-.04.012-.081.018-.121a.723.723,0,0,1-.057.19l.051-.109a.92.92,0,0,1-.126.193l.079-.092a1.751,1.751,0,0,1-.32.278l.1-.071c-.074.051-.149.1-.225.147a.487.487,0,0,0-.231.272.426.426,0,0,0,.051.35,2.651,2.651,0,0,1,.2.351l-.051-.109a1.807,1.807,0,0,1,.153.483l-.018-.121a1.338,1.338,0,0,1,0,.371l.018-.121a1.216,1.216,0,0,1-.094.318l.051-.109a1.176,1.176,0,0,1-.171.266l.079-.092a1.116,1.116,0,0,1-.182.165l.1-.071a1.106,1.106,0,0,1-.234.124l.12-.046a1.542,1.542,0,0,1-.326.077l.134-.016a4.251,4.251,0,0,1-.969-.01l.134.016a2.485,2.485,0,0,1-.577-.135l.12.046a2.347,2.347,0,0,1-.481-.259l.1.071a4.581,4.581,0,0,1-.82-.783l.079.092a8.249,8.249,0,0,1-1.2-1.855l.051.108q-.094-.2-.176-.405a.5.5,0,0,0-.231-.271.562.562,0,0,0-.388-.046.5.5,0,0,0-.3.209.411.411,0,0,0-.051.35,8.57,8.57,0,0,0,.872,1.645,8.345,8.345,0,0,0,.541.707,6.341,6.341,0,0,0,.665.7,2.925,2.925,0,0,0,.81.516,2.725,2.725,0,0,0,.568.168,4.807,4.807,0,0,0,.612.062,3.059,3.059,0,0,0,1.055-.092,1.55,1.55,0,0,0,1.1-1.654,2.466,2.466,0,0,0-.432-1.107l-.181.621a2.018,2.018,0,0,0,.929-.952,1.109,1.109,0,0,0,.011-.656,1.46,1.46,0,0,0-.347-.587,1.966,1.966,0,0,0-1.291-.547,3.956,3.956,0,0,0-1.362.167c-.24.064-.477.135-.719.194a6.762,6.762,0,0,1-.76.138l.134-.016a6.925,6.925,0,0,1-1.65,0l.134.016q-.218-.027-.433-.067a.584.584,0,0,0-.388.046.471.471,0,0,0-.231.271.457.457,0,0,0,.352.559" transform="translate(-285.411 -297.417)" fill="#26140d"/>
      <path id="Trazado_874266" data-name="Trazado 874266" d="M290.855,391.116a3.555,3.555,0,1,1-3.536-3.191,3.377,3.377,0,0,1,3.536,3.191" transform="translate(-213.467 -291.805)" fill="#e42d18"/>
      <path id="Trazado_874267" data-name="Trazado 874267" d="M262.33,499.748a2.8,2.8,0,1,1-2.788-2.516,2.662,2.662,0,0,1,2.788,2.516" transform="translate(-193.136 -374.028)" fill="#e42d18"/>
      <path id="Trazado_874268" data-name="Trazado 874268" d="M283.275,504.176a2.8,2.8,0,1,1-2.788-2.516,2.663,2.663,0,0,1,2.788,2.516" transform="translate(-208.891 -377.359)" fill="#e42d18"/>
      <path id="Trazado_874269" data-name="Trazado 874269" d="M304.674,505.847a2.8,2.8,0,1,1-2.788-2.516,2.663,2.663,0,0,1,2.788,2.516" transform="translate(-224.988 -378.616)" fill="#e42d18"/>
      <path id="Trazado_874270" data-name="Trazado 874270" d="M327.178,506.961a2.8,2.8,0,1,1-2.788-2.516,2.663,2.663,0,0,1,2.788,2.516" transform="translate(-241.916 -379.454)" fill="#e42d18"/>
      <path id="Trazado_874271" data-name="Trazado 874271" d="M350.117,506.961a2.8,2.8,0,1,1-2.788-2.516,2.663,2.663,0,0,1,2.788,2.516" transform="translate(-259.171 -379.454)" fill="#e42d18"/>
      <path id="Trazado_874272" data-name="Trazado 874272" d="M372.943,504.026a2.489,2.489,0,0,1-1.9,3.119,2.843,2.843,0,0,1-3.456-1.712,2.49,2.49,0,0,1,1.9-3.119,2.843,2.843,0,0,1,3.456,1.712" transform="translate(-276.424 -377.775)" fill="#e42d18"/>
      <path id="Trazado_874273" data-name="Trazado 874273" d="M229.541,275.087a2.222,2.222,0,0,1-.321-.5l.051.109a2.312,2.312,0,0,1-.187-.63l.018.121a2.478,2.478,0,0,1,0-.7c-.006.04-.012.08-.018.121a2.567,2.567,0,0,1,.208-.7l-.051.108a2.521,2.521,0,0,1,.363-.565l-.079.092a2.445,2.445,0,0,1,.449-.405l-.1.071a3.9,3.9,0,0,1,.821-.408l-.12.046c.25-.095.5-.179.755-.273a4.792,4.792,0,0,0,.8-.36A2.318,2.318,0,0,0,233.178,270a1.291,1.291,0,0,0-.025-.884.5.5,0,0,0-.231-.272.564.564,0,0,0-.388-.046.507.507,0,0,0-.3.209.406.406,0,0,0-.051.35.916.916,0,0,1,.064.226l-.018-.121a.954.954,0,0,1,0,.262l.018-.121a1.174,1.174,0,0,1-.1.307l.051-.109a1.659,1.659,0,0,1-.231.35l.079-.092a2.219,2.219,0,0,1-.4.362l.1-.071a3.657,3.657,0,0,1-.769.38l.12-.046a12.168,12.168,0,0,0-1.474.584,3.006,3.006,0,0,0-1,.866,2.914,2.914,0,0,0-.495,2.269,2.485,2.485,0,0,0,.543,1.141.551.551,0,0,0,.3.209.563.563,0,0,0,.388-.046.468.468,0,0,0,.231-.271.4.4,0,0,0-.051-.35" transform="translate(-171.563 -202.185)" fill="#5a5b5e"/>
      <path id="Trazado_874274" data-name="Trazado 874274" d="M295.467,256.245l-.027-.03.079.092a2.291,2.291,0,0,1-.323-.5l.051.109a2.285,2.285,0,0,1-.186-.614c.006.04.012.081.018.121a2.21,2.21,0,0,1,0-.637c-.006.04-.012.08-.018.121a2.116,2.116,0,0,1,.172-.571l-.051.108a2.285,2.285,0,0,1,.325-.5l-.079.092a2.622,2.622,0,0,1,.484-.436l-.1.071a2.8,2.8,0,0,1,.59-.31l-.12.046a2.809,2.809,0,0,1,.646-.156l-.134.016a7.4,7.4,0,0,1,1.222,0,5.347,5.347,0,0,0,1.3-.056,2.2,2.2,0,0,0,.962-.471,1.774,1.774,0,0,0,.565-.8,1.178,1.178,0,0,0,.031-.6,1.136,1.136,0,0,0-.3-.535.533.533,0,0,0-.356-.133.54.54,0,0,0-.356.133.435.435,0,0,0-.148.321.5.5,0,0,0,.148.321l.022.025-.079-.092a.754.754,0,0,1,.1.157l-.051-.109a.683.683,0,0,1,.05.166l-.018-.121a.727.727,0,0,1,0,.2l.018-.121a.947.947,0,0,1-.08.259l.051-.109a1.346,1.346,0,0,1-.19.286l.079-.092a1.734,1.734,0,0,1-.314.28l.1-.071a1.8,1.8,0,0,1-.367.194l.12-.046a1.959,1.959,0,0,1-.459.1l.134-.016a17,17,0,0,1-1.769-.02,3.514,3.514,0,0,0-1.658.4,3.021,3.021,0,0,0-1.119,1.032,2.505,2.505,0,0,0-.38,1.465,2.581,2.581,0,0,0,.181.829,2.9,2.9,0,0,0,.523.83.533.533,0,0,0,.356.133.541.541,0,0,0,.356-.133.436.436,0,0,0,.147-.321c-.006-.04-.012-.081-.018-.121a.445.445,0,0,0-.129-.2" transform="translate(-221.188 -188.566)" fill="#5a5b5e"/>
      <path id="Trazado_874275" data-name="Trazado 874275" d="M250.08,313.9c-.035-.033-.068-.067-.1-.1l.079.092a1.319,1.319,0,0,1-.186-.286l.051.109a1.384,1.384,0,0,1-.11-.368l.018.121a1.637,1.637,0,0,1,0-.476c-.006.04-.012.081-.018.121a1.98,1.98,0,0,1,.16-.521l-.051.109a2.107,2.107,0,0,1,.3-.469l-.079.092a2.865,2.865,0,0,1,.52-.46l-.1.071a5.569,5.569,0,0,1,1.2-.6l-.12.046c.262-.1.529-.189.8-.277a.549.549,0,0,0,.261-.163.424.424,0,0,0,.108-.275l.01-1.028a.506.506,0,0,0-1.007,0l-.01,1.028.369-.438a7.639,7.639,0,0,0-2.363,1.106,2.6,2.6,0,0,0-.737.873,2.288,2.288,0,0,0-.265,1.124,1.77,1.77,0,0,0,.557,1.221.548.548,0,0,0,.712,0,.431.431,0,0,0,0-.642" transform="translate(-187.159 -232.57)" fill="#5a5b5e"/>
      <path id="Trazado_874276" data-name="Trazado 874276" d="M241.731,369.883a2.764,2.764,0,0,1-.444-.414l.079.092a2.811,2.811,0,0,1-.4-.623l.051.109a2.9,2.9,0,0,1-.235-.779c.006.04.012.081.018.121a2.866,2.866,0,0,1,0-.841l-.018.121a2.7,2.7,0,0,1,.219-.728l-.051.108a2.6,2.6,0,0,1,.365-.568l-.079.092a10.657,10.657,0,0,0,.836-.916,1.353,1.353,0,0,0,.221-.53,1.245,1.245,0,0,0-.037-.639,1.081,1.081,0,0,0-.523-.6.543.543,0,0,0-.689.163.438.438,0,0,0,.181.621.737.737,0,0,1,.073.042l-.1-.071a.608.608,0,0,1,.108.1l-.079-.092a.641.641,0,0,1,.092.144l-.051-.109a.781.781,0,0,1,.057.2l-.018-.121a.93.93,0,0,1,0,.243l.018-.121a.973.973,0,0,1-.074.252l.051-.108a1.609,1.609,0,0,1-.238.353l.079-.092a10.055,10.055,0,0,0-.879.977,2.941,2.941,0,0,0-.427,1.029,3.3,3.3,0,0,0,.348,2.265,3.053,3.053,0,0,0,.84.964.572.572,0,0,0,.356.133.541.541,0,0,0,.356-.133.435.435,0,0,0,.148-.321.425.425,0,0,0-.148-.321" transform="translate(-180.356 -273.682)" fill="#5a5b5e"/>
      <path id="Trazado_874277" data-name="Trazado 874277" d="M204.338,341.84a8.767,8.767,0,0,1-.888-1.418l.051.109a3.4,3.4,0,0,1-.293-.917l.018.121a2.2,2.2,0,0,1,0-.636c-.006.04-.012.081-.018.121a1.988,1.988,0,0,1,.159-.521l-.051.109a17.015,17.015,0,0,1,1.012-1.438,1.918,1.918,0,0,0,.239-1.6,1.35,1.35,0,0,0-.675-.771.543.543,0,0,0-.689.163.437.437,0,0,0,.181.621,1.019,1.019,0,0,1,.128.075l-.1-.071a.891.891,0,0,1,.15.136l-.079-.092a.917.917,0,0,1,.131.2l-.051-.109a1.119,1.119,0,0,1,.085.295l-.018-.121a1.453,1.453,0,0,1,0,.4l.018-.121a1.7,1.7,0,0,1-.136.455l.051-.109a4.808,4.808,0,0,1-.63.9,3.492,3.492,0,0,0-.616,1.042,3.15,3.15,0,0,0,.4,2.479,9.977,9.977,0,0,0,.756,1.158.53.53,0,0,0,.3.209.563.563,0,0,0,.388-.046.436.436,0,0,0,.181-.621" transform="translate(-152.096 -251.947)" fill="#5a5b5e"/>
      <path id="Trazado_874278" data-name="Trazado 874278" d="M331.364,286.272a1.917,1.917,0,0,1-.147-.258l.051.109a1.924,1.924,0,0,1-.153-.509l.018.121a2.125,2.125,0,0,1,0-.621l-.018.121a2.4,2.4,0,0,1,.2-.648l-.051.109a2.512,2.512,0,0,1,.358-.554l-.079.092a2.453,2.453,0,0,1,.449-.407l-.1.071a2.334,2.334,0,0,1,.491-.259l-.12.046a4.6,4.6,0,0,1,.8-.185,2.451,2.451,0,0,0,.974-.359,1.676,1.676,0,0,0,.582-.723,2.29,2.29,0,0,0,.167-.78,4.62,4.62,0,0,0-.03-.8.467.467,0,0,0-.147-.321.543.543,0,0,0-.712,0,.421.421,0,0,0-.147.321,3.984,3.984,0,0,1,.007,1.006l.018-.121a1.731,1.731,0,0,1-.138.473l.051-.108a1.263,1.263,0,0,1-.171.266l.079-.092a1.2,1.2,0,0,1-.22.2l.1-.071a1.422,1.422,0,0,1-.284.146l.12-.046c-.417.155-.882.157-1.3.311a2.876,2.876,0,0,0-1.053.654,2.807,2.807,0,0,0-.85,2.051,2.335,2.335,0,0,0,.39,1.223.542.542,0,0,0,.689.163.438.438,0,0,0,.181-.621" transform="translate(-248.311 -210.912)" fill="#5a5b5e"/>
      <path id="Trazado_874279" data-name="Trazado 874279" d="M376.937,238.089c.017-.187.036-.373.063-.558l-.018.121a3.413,3.413,0,0,1,.259-.934l-.051.109a1.98,1.98,0,0,1,.276-.432l-.079.092a1.743,1.743,0,0,1,.312-.283l-.1.071a2.045,2.045,0,0,1,.419-.219l-.12.046a3.888,3.888,0,0,1,.912-.2l-.134.016a8.329,8.329,0,0,0,2.013-.328,2.048,2.048,0,0,0,.814-.518,1.641,1.641,0,0,0,.419-.793,1.336,1.336,0,0,0-.012-.575,1.235,1.235,0,0,0-.293-.508.531.531,0,0,0-.356-.133.541.541,0,0,0-.356.133.436.436,0,0,0-.147.321l.018.121a.445.445,0,0,0,.129.2l.011.013-.079-.092a.794.794,0,0,1,.107.167l-.051-.109a.8.8,0,0,1,.059.2l-.018-.12a.9.9,0,0,1,0,.255l.018-.121a1.137,1.137,0,0,1-.094.3l.051-.109a1.341,1.341,0,0,1-.191.291l.079-.092a1.379,1.379,0,0,1-.237.214l.1-.071a1.988,1.988,0,0,1-.421.217l.12-.046a3.893,3.893,0,0,1-.887.2l.134-.016a6.751,6.751,0,0,0-2.3.446A2.413,2.413,0,0,0,376.09,237a7.335,7.335,0,0,0-.16,1.087.434.434,0,0,0,.147.321.543.543,0,0,0,.712,0,.483.483,0,0,0,.147-.321" transform="translate(-282.782 -175.31)" fill="#5a5b5e"/>
      <path id="Trazado_874280" data-name="Trazado 874280" d="M411.644,286.752a1.766,1.766,0,0,1,0-.483l-.018.121a2.008,2.008,0,0,1,.167-.548l-.051.109a2.307,2.307,0,0,1,.32-.494l-.079.092a2.468,2.468,0,0,1,.461-.417l-.1.071a2.423,2.423,0,0,1,.511-.269l-.12.046a2.39,2.39,0,0,1,.531-.13l-.134.016c.286-.034.574-.029.861-.044a2.938,2.938,0,0,0,1.019-.207,1.425,1.425,0,0,0,.582-.5,1.2,1.2,0,0,0,.224-.682.93.93,0,0,0-.485-.794.538.538,0,0,0-.689.163.44.44,0,0,0,.181.621l.039.025-.1-.071a.545.545,0,0,1,.094.085l-.079-.092a.466.466,0,0,1,.057.089l-.051-.108a.507.507,0,0,1,.04.137c-.006-.04-.012-.081-.018-.121a.616.616,0,0,1,0,.161c.006-.04.012-.08.018-.121a.828.828,0,0,1-.068.22l.051-.109a1.02,1.02,0,0,1-.143.218l.079-.092a1.049,1.049,0,0,1-.187.169l.1-.071a.945.945,0,0,1-.182.1l.12-.046a2.066,2.066,0,0,1-.484.113l.134-.016c-.414.047-.832.027-1.247.081a2.732,2.732,0,0,0-.942.309,2.821,2.821,0,0,0-1.3,1.464,2.09,2.09,0,0,0-.126,1.007.473.473,0,0,0,.147.321.543.543,0,0,0,.712,0,.415.415,0,0,0,.147-.321" transform="translate(-308.877 -212.561)" fill="#5a5b5e"/>
      <path id="Trazado_874281" data-name="Trazado 874281" d="M290.775,210.478c.007-.053.014-.105.022-.157l-.018.121a3.478,3.478,0,0,1,.261-.968l-.051.109a1.681,1.681,0,0,1,.234-.367l-.079.092a1.375,1.375,0,0,1,.249-.225l-.1.071a1.452,1.452,0,0,1,.285-.15l-.12.046a3.971,3.971,0,0,1,.841-.177,2.561,2.561,0,0,0,.869-.244,1.286,1.286,0,0,0,.672-1.331.873.873,0,0,0-.659-.638.517.517,0,0,0-.619.317.46.46,0,0,0,.352.559l.054.017-.12-.046a.476.476,0,0,1,.1.054l-.1-.071a.394.394,0,0,1,.061.055l-.079-.092a.409.409,0,0,1,.056.085l-.051-.109a.458.458,0,0,1,.036.122l-.018-.121a.628.628,0,0,1,0,.173l.018-.121a.882.882,0,0,1-.072.231l.051-.109a1.007,1.007,0,0,1-.14.215l.079-.092a.954.954,0,0,1-.161.146l.1-.071a.87.87,0,0,1-.173.092l.12-.046a4.065,4.065,0,0,1-.856.18,2.752,2.752,0,0,0-.906.265,2.084,2.084,0,0,0-.977,1.308,6.032,6.032,0,0,0-.164.878.432.432,0,0,0,.147.321.543.543,0,0,0,.712,0l.079-.092a.42.42,0,0,0,.069-.229" transform="translate(-217.968 -155.441)" fill="#5a5b5e"/>
      <path id="Trazado_874282" data-name="Trazado 874282" d="M198.411,529.353a9.668,9.668,0,0,0,1.391,1.362,19.627,19.627,0,0,0,2.73,1.842,31.328,31.328,0,0,0,4.359,2.01,47.079,47.079,0,0,0,6.179,1.839,71.676,71.676,0,0,0,8.362,1.363,104.715,104.715,0,0,0,10.792.56,73.271,73.271,0,0,0,10.8-.69,42.37,42.37,0,0,0,7.816-1.839,26.244,26.244,0,0,0,5.447-2.558,17.115,17.115,0,0,0,3.423-2.79c.214-.231.419-.469.616-.711a.433.433,0,0,0-.181-.621.547.547,0,0,0-.688.163l-.124.15-.046.055-.048.055c-.1.112-.2.223-.3.332q-.319.34-.661.661A16.655,16.655,0,0,1,256.6,531.9c-.164.117-.211.15-.408.282q-.258.172-.522.338-.557.349-1.139.665a25.887,25.887,0,0,1-2.655,1.247,37.076,37.076,0,0,1-7.09,1.993,62.646,62.646,0,0,1-9.831.965,104.884,104.884,0,0,1-11.143-.309,76.558,76.558,0,0,1-8.7-1.173,51.936,51.936,0,0,1-6.593-1.729,33.055,33.055,0,0,1-4.57-1.913c-.582-.3-1.15-.619-1.7-.962q-.351-.218-.692-.45l-.162-.112c.115.08-.04-.029-.078-.056q-.149-.106-.295-.215a11.456,11.456,0,0,1-1.6-1.415c-.039-.042-.075-.086-.114-.128-.055-.059.092.111.018.021l-.048-.058a.551.551,0,0,0-.689-.163.434.434,0,0,0-.181.621" transform="translate(-149.193 -397.677)" fill="#145629"/>
      <path id="Trazado_874283" data-name="Trazado 874283" d="M605.818,389.908c-.481-3.8-.679-10.906-.984-14.72a23.979,23.979,0,0,1-.108-3.053c.028-.6.108-2.294.7-2.565,1.877-.861,2.126,1.42,2.616,2.007s2.342,14.882,3.789,15.034c1.356.142,2.082-8.041,3.308-11.779a9.356,9.356,0,0,1,2.341-4.314.561.561,0,0,1,.339-.175.529.529,0,0,1,.407.258,3.609,3.609,0,0,1,.63,1.8,13.322,13.322,0,0,1-.1,2.85c-.588,5.481-1.512,12.055-2.1,17.536-1.046-.021-1.64-1.655-2.533-2.147a38.637,38.637,0,0,0-4.919-2.269c-1.088-.413-2.706,2.409-3.385,1.538" transform="translate(-454.876 -277.854)" fill="#d75618"/>
      <path id="Trazado_874284" data-name="Trazado 874284" d="M614.957,479.861l.567-16.535a1.259,1.259,0,0,1,.2-.6c1.148-1.608,4.127-15.941.124-20.33-1.9-2.085-4.881-2.259-7.145-2.86a55.728,55.728,0,0,0-6.258-.029,4.478,4.478,0,0,0-4.2,3.094,15.6,15.6,0,0,1-1.279,3.543,6.655,6.655,0,0,0-.971,2.276,5.79,5.79,0,0,0,.67,2.943l3.758,8.912c.61,1.447-.053,18.526-.731,19.948Z" transform="translate(-448.299 -330.558)" fill="#d75618"/>
      <path id="Trazado_874285" data-name="Trazado 874285" d="M597.574,478.858c.207-.8-.3-6.913-.8-7.6s-1.273-1.151-1.813-1.8a6.905,6.905,0,0,1-1.039-2l-1.8-4.66a5.54,5.54,0,0,1-.428-1.53,5.469,5.469,0,0,1,.324-1.947l1.173-4a3.339,3.339,0,0,1,.609-1.316,4.16,4.16,0,0,1,2.637-1c2.53-.334,3.69-.446,6.22-.78.166-.022.985,2.477-3.915,3.667-.215.052-.464.1-.57.272a.626.626,0,0,0-.045.4q.086.8.17,1.6a1.418,1.418,0,0,0,.137.554,1.985,1.985,0,0,0,.68.587c1.173.787,4.053,1.519,5.238,4.128,1.009,2.221-.187,4.593.067,5.254" transform="translate(-445.077 -340.179)" fill="#d75618"/>
      <path id="Trazado_874286" data-name="Trazado 874286" d="M596.82,477.686a11.594,11.594,0,0,0-.067-3.382,20.4,20.4,0,0,0-.567-4.02,3.608,3.608,0,0,0-1.254-1.576,7.672,7.672,0,0,1-2.036-3.339q-.742-1.922-1.484-3.844a4.774,4.774,0,0,1-.46-1.908,9.6,9.6,0,0,1,.531-2.218,26.778,26.778,0,0,1,1.211-3.981c.571-1.2,2.23-1.237,3.47-1.4,1.191-.153,2.383-.292,3.575-.44l.806-.1c.186-.024,1.11-.05.576-.293a.475.475,0,0,1,.046.175c.063,1.215-1.233,2-2.328,2.435-.756.3-2.28.331-2.36,1.287a9.352,9.352,0,0,0,.18,1.807,1.616,1.616,0,0,0,.641,1.221c1.494,1.147,3.444,1.565,4.694,3.022a4.854,4.854,0,0,1,1.1,3.762c-.079.813-.529,1.814-.293,2.625.147.505,1.016.291.868-.216a2.269,2.269,0,0,1,.1-.973A15.283,15.283,0,0,0,604,464.8a5.532,5.532,0,0,0-.718-3.362c-.981-1.64-2.7-2.491-4.434-3.366a4.825,4.825,0,0,1-.952-.567,1.191,1.191,0,0,1-.373-.955,6.537,6.537,0,0,1-.122-1.145c.035-.416.242-.378.634-.484.326-.089.647-.19.963-.306a7.408,7.408,0,0,0,1.391-.658,3.013,3.013,0,0,0,1.674-2.642.838.838,0,0,0-.357-.709c-.387-.193-1.111.057-1.518.109-.712.09-1.424.176-2.136.262-1.249.151-2.531.25-3.761.5a3.127,3.127,0,0,0-2.487,1.772,38.951,38.951,0,0,0-1.259,4.186,5.752,5.752,0,0,0-.164,3.87c.5,1.357,1.04,2.7,1.561,4.049a9.616,9.616,0,0,0,1.655,3.271c.658.709,1.566,1.188,1.787,2.119a19.276,19.276,0,0,1,.357,2.353c.1.9.172,1.793.216,2.692a7.275,7.275,0,0,1,0,1.683c-.115.511.753.729.868.216" transform="translate(-443.888 -338.899)" fill="#26140d"/>
      <path id="Trazado_874287" data-name="Trazado 874287" d="M621.958,453.426c.284,1.315,2.33,1.439,3.24.6.4-.375-.232-.95-.637-.574-.464.43-1.584.461-1.735-.237-.11-.513-.978-.3-.868.216" transform="translate(-467.842 -340.694)" fill="#26140d"/>
      <path id="Trazado_874288" data-name="Trazado 874288" d="M664.113,446.8c.412-1.085-1.236-1.445-1.86-.62-.443.587-.281,1.394-.4,2.062a11.19,11.19,0,0,1-.8,2.4c-.084.195-.1.445-.364.481-.295.04-.4-.212-.475-.457a7.948,7.948,0,0,1-.195-1.054c-.13-.815-.233-1.633-.316-2.453q-.25-2.454-.26-4.921c0-.523-.9-.524-.9,0q.01,2.345.236,4.684.114,1.173.286,2.341a6.289,6.289,0,0,0,.428,1.987,1.354,1.354,0,0,0,1.232.755,1.214,1.214,0,0,0,1.066-.842,13.732,13.732,0,0,0,.82-2.236,7.293,7.293,0,0,0,.193-1.043c.021-.194.015-.39.036-.583,0-.076.008-.152.012-.228q-.068-.465.39-.485c-.188.5.681.709.868.216" transform="translate(-495.372 -332.36)" fill="#26140d"/>
      <path id="Trazado_874289" data-name="Trazado 874289" d="M648.2,446.265a3.332,3.332,0,0,1-.332,2,2.687,2.687,0,0,1-.526.6c-.019.016-.293.194-.257.2.064.006-.039-.058-.061-.074a3.043,3.043,0,0,1-.747-1.139,6.128,6.128,0,0,1-.453-1.327c-.575-2.408-.423-4.87-.585-7.313-.035-.52-.935-.523-.9,0,.191,2.88-.214,6.125,1.063,8.846.3.645.959,2.122,2.005,1.745,1.51-.545,1.731-2.294,1.694-3.533-.015-.522-.915-.524-.9,0" transform="translate(-484.686 -330.086)" fill="#26140d"/>
      <path id="Trazado_874290" data-name="Trazado 874290" d="M621.6,582.231c-.146,0-.719-21.4-.719-21.4l-18.966-.746-1.224,22.164Z" transform="translate(-451.854 -421.308)" fill="#59836b"/>
      <path id="Trazado_874291" data-name="Trazado 874291" d="M595.683,557.753h21.651l.8,8.308-23.462-.979Z" transform="translate(-447.321 -419.553)" fill="#41583b"/>
      <path id="Trazado_874292" data-name="Trazado 874292" d="M609.286,582.432a3.26,3.26,0,0,1,1.417.2.249.249,0,0,0,.31-.073.2.2,0,0,0-.081-.28,3.787,3.787,0,0,0-1.646-.252.222.222,0,0,0-.226.2.218.218,0,0,0,.226.2" transform="translate(-458.148 -437.802)" fill="#fff"/>
      <path id="Trazado_874293" data-name="Trazado 874293" d="M601.2,570.07l1.4.13a.217.217,0,0,0,.227-.2.222.222,0,0,0-.227-.2l-1.4-.131a.217.217,0,0,0-.227.2.223.223,0,0,0,.227.2" transform="translate(-452.062 -428.51)" fill="#fff"/>
      <path id="Trazado_874294" data-name="Trazado 874294" d="M622.141,561.82a6.465,6.465,0,0,1,1.459.262.232.232,0,0,0,.279-.143.208.208,0,0,0-.158-.252,7.008,7.008,0,0,0-1.579-.277.218.218,0,0,0-.227.2.222.222,0,0,0,.227.2" transform="translate(-467.817 -422.305)" fill="#fff"/>
      <path id="Trazado_874295" data-name="Trazado 874295" d="M601.451,577.768h1.274a.206.206,0,1,0,0-.409h-1.274a.206.206,0,1,0,0,.409" transform="translate(-452.253 -434.301)" fill="#fff"/>
      <path id="Trazado_874296" data-name="Trazado 874296" d="M607.475,562.694c.044-.013.088-.024.132-.033l.077-.014c.018,0,.058-.008.017,0a1.76,1.76,0,0,1,.284-.008l.068.005c.027,0,.026,0,0,0l.029,0c.045.007.09.015.134.026s.088.022.132.036l.064.022c-.048-.018.027.012.035.016a.246.246,0,0,0,.31-.073.2.2,0,0,0-.081-.28,1.965,1.965,0,0,0-1.322-.091.207.207,0,0,0-.158.252.234.234,0,0,0,.279.143" transform="translate(-456.738 -422.917)" fill="#fff"/>
      <path id="Trazado_874297" data-name="Trazado 874297" d="M619.625,573.071c.027,0,.029,0,0,0l.043,0,.076-.006c.054,0,.109,0,.163,0s.1,0,.152.009c.011,0,.066.008.026,0l.085.014a1.675,1.675,0,0,1,.552.187.244.244,0,0,0,.31-.073.2.2,0,0,0-.081-.28,2.4,2.4,0,0,0-1.451-.241.2.2,0,0,0-.159.252.238.238,0,0,0,.279.143" transform="translate(-465.879 -430.76)" fill="#fff"/>
      <path id="Trazado_874298" data-name="Trazado 874298" d="M627.748,582.128a4.034,4.034,0,0,0,1.528-.083.205.205,0,0,0,.158-.252.235.235,0,0,0-.279-.143,3.487,3.487,0,0,1-1.286.083.237.237,0,0,0-.279.143.205.205,0,0,0,.158.252" transform="translate(-472.082 -437.524)" fill="#fff"/>
      <path id="Trazado_874299" data-name="Trazado 874299" d="M634.993,574.537h1.274a.206.206,0,1,0,0-.409h-1.274a.206.206,0,1,0,0,.409" transform="translate(-477.484 -431.871)" fill="#fff"/>
      <path id="Trazado_874300" data-name="Trazado 874300" d="M635.457,567.35a2.9,2.9,0,0,0,1.705-.238.2.2,0,0,0,.081-.28.245.245,0,0,0-.31-.073,2.351,2.351,0,0,1-.678.2,2.575,2.575,0,0,1-.678-.005.237.237,0,0,0-.279.143.2.2,0,0,0,.158.252" transform="translate(-477.879 -426.308)" fill="#fff"/>
      <path id="Trazado_874301" data-name="Trazado 874301" d="M643.8,578.189l.074-.011.031,0c-.025,0-.024,0,0,0l.127-.01a2.7,2.7,0,0,1,.287,0c.046,0,.092.006.138.011.069.007-.045-.007.024,0l.074.011a2.8,2.8,0,0,1,.279.063.233.233,0,0,0,.279-.143.207.207,0,0,0-.158-.252,2.968,2.968,0,0,0-1.279-.064.2.2,0,0,0-.158.252.237.237,0,0,0,.279.143" transform="translate(-484.067 -434.598)" fill="#fff"/>
      <path id="Trazado_874302" data-name="Trazado 874302" d="M650.7,585.223h1.784a.205.205,0,1,0,0-.409H650.7a.205.205,0,1,0,0,.409" transform="translate(-489.307 -439.909)" fill="#fff"/>
      <path id="Trazado_874303" data-name="Trazado 874303" d="M648.839,573.531l1.014.144a.272.272,0,0,0,.175-.021.213.213,0,0,0,.1-.122.206.206,0,0,0-.158-.252l-1.015-.143a.27.27,0,0,0-.175.021.213.213,0,0,0-.1.122.205.205,0,0,0,.158.252" transform="translate(-487.947 -431.121)" fill="#fff"/>
      <path id="Trazado_874304" data-name="Trazado 874304" d="M651.963,561.821h1.147a.206.206,0,1,0,0-.409h-1.147a.206.206,0,1,0,0,.409" transform="translate(-490.25 -422.306)" fill="#fff"/>
      <path id="Trazado_874305" data-name="Trazado 874305" d="M661.734,570.344a2.708,2.708,0,0,1,.317,0c.053,0,.106.007.158.013-.042,0,.032,0,.041.006l.078.013a2.614,2.614,0,0,1,.306.075l.064.021c.007,0,.085.031.051.018.049.019.1.04.143.062a.246.246,0,0,0,.31-.073.2.2,0,0,0-.082-.28,2.888,2.888,0,0,0-1.387-.261.206.206,0,1,0,0,.409" transform="translate(-497.599 -428.712)" fill="#fff"/>
      <path id="Trazado_874306" data-name="Trazado 874306" d="M660.2,576.211a14.2,14.2,0,0,1,1.526-.087.206.206,0,1,0,0-.409,14.189,14.189,0,0,0-1.526.087c-.121.014-.227.084-.227.2a.218.218,0,0,0,.227.2" transform="translate(-496.448 -433.064)" fill="#fff"/>
      <path id="Trazado_874307" data-name="Trazado 874307" d="M665.4,581.914l.049-.005.073-.007c.053,0,.106-.007.159-.009q.152-.006.305,0c.053,0,.105.005.159.009l.073.006.037,0c.1.012.209.031.312.052a.234.234,0,0,0,.279-.143.206.206,0,0,0-.158-.252,4.286,4.286,0,0,0-1.407-.051.2.2,0,0,0-.158.252.238.238,0,0,0,.279.143" transform="translate(-500.312 -437.404)" fill="#fff"/>
      <path id="Trazado_874308" data-name="Trazado 874308" d="M677.563,575.739l.635-.123a.2.2,0,0,0,.158-.252.236.236,0,0,0-.279-.143l-.635.123a.2.2,0,0,0-.158.252.236.236,0,0,0,.279.143" transform="translate(-509.46 -432.689)" fill="#fff"/>
      <path id="Trazado_874309" data-name="Trazado 874309" d="M676.4,562.716a.426.426,0,0,1,.055-.046l-.046.032a.46.46,0,0,1,.093-.049l-.054.021a.555.555,0,0,1,.12-.03l-.06.007a.568.568,0,0,1,.134,0l-.06-.007a.527.527,0,0,1,.112.028l-.054-.021a.464.464,0,0,1,.093.049l-.046-.032.019.015a.255.255,0,0,0,.16.06.246.246,0,0,0,.16-.06.2.2,0,0,0,.066-.145.193.193,0,0,0-.066-.145.719.719,0,0,0-.481-.154.711.711,0,0,0-.466.188.206.206,0,0,0-.066.145.2.2,0,0,0,.066.145.248.248,0,0,0,.321,0" transform="translate(-508.513 -422.926)" fill="#fff"/>
      <path id="Trazado_874310" data-name="Trazado 874310" d="M675.169,585.334l.509-.115a.23.23,0,0,0,.136-.094.191.191,0,0,0,.023-.158.235.235,0,0,0-.279-.143l-.51.116a.229.229,0,0,0-.135.094.19.19,0,0,0-.023.158.235.235,0,0,0,.279.143" transform="translate(-507.66 -439.912)" fill="#fff"/>
    </g>
  </g>
</svg>
