<svg id="_32" data-name="32" xmlns="http://www.w3.org/2000/svg" xmlns:xlink="http://www.w3.org/1999/xlink" width="190" height="183.386" viewBox="0 0 190 183.386">
  <defs>
    <clipPath id="clip-path">
      <rect id="Rect치ngulo_401292" data-name="Rect치ngulo 401292" width="190" height="183.386" fill="none"/>
    </clipPath>
  </defs>
  <rect id="Rect치ngulo_401291" data-name="Rect치ngulo 401291" width="190" height="183.386" fill="#e6d567"/>
  <g id="Grupo_1099102" data-name="Grupo 1099102">
    <g id="Grupo_1099101" data-name="Grupo 1099101" clip-path="url(#clip-path)">
      <path id="Trazado_874890" data-name="Trazado 874890" d="M77.328,384.742c-8.167,2.339-13.865.471-21.017,9.254-6.5,7.984-1.425,18.057-4.874,22.823-2.49,3.439-13.561,6.22-19.916,15.022-7.193,9.963,3.845,17.521-2.662,25.828-3.551,4.534-13.605,5.145-10.48,14.147l143.088-.165c-3.614-6.217-7.36-13.517-5.675-20.492,1.822-7.542,9.66-13.068,9.9-20.819.131-4.313-2.18-8.279-3.368-12.431-3.415-11.932,2.53-25-.8-36.96-30.32,7.3-59.365,10.141-90.293,6.032" transform="translate(-13.465 -288.43)" fill="#12263f"/>
      <path id="Trazado_874891" data-name="Trazado 874891" d="M217.281,192.85c4.373.091,6.691-1.634,7.589-5.138s-.009-7.184.032-10.8A21.426,21.426,0,0,1,238,157.853a34.35,34.35,0,0,1,10.038-2.135c4.721-.419,9.692-.381,13.918,1.725a19.028,19.028,0,0,1,9,10.826,39.583,39.583,0,0,1,1.8,14.131c-.069,3.377-.151,7.209,2.322,9.561,1.517,1.443,3.674,1.977,5.59,2.852,6.548,2.991,10.309,10.4,10.012,17.473s-4.141,13.689-9.357,18.589-11.724,8.267-18.353,11.079a146.729,146.729,0,0,1-52.914,11.534c-4.949.142-10.008.016-14.672-1.611-8.344-2.909-14.689-11.139-14.47-19.82s7.566-16.872,16.4-17.469a10.14,10.14,0,0,0,3.523-.535c3.007-1.356,2.948-5.436,3.247-8.668A15.14,15.14,0,0,1,208,196.251a11.013,11.013,0,0,1,9.277-3.4" transform="translate(-136.967 -117.741)" fill="#12263f"/>
      <path id="Trazado_874892" data-name="Trazado 874892" d="M354.763,222c.052-2.654-.052-6.481,0-9.134a7.32,7.32,0,0,1-2.872-4.285,3.5,3.5,0,0,1-3.61-.237,2.78,2.78,0,0,1-.873-3.35,2.488,2.488,0,0,1,3.236-1.081,17.6,17.6,0,0,1,6.076-16.27c2.442-2.017,6.116-3.338,8.763-1.587a8.037,8.037,0,0,1,2.807,4.268,26.707,26.707,0,0,1,1.521,12.682c.661-1.115,2.466-.289,3.244.751a2.633,2.633,0,0,1-.575,3.468,3.993,3.993,0,0,1-3.734.543c-.81,2.816-1.489,4.211-3.258,5.312,0,0,.471,6.156.721,6.11,5.524-1.017,11.014-2.873,16.538-3.89-.959,4.132-2.683,10.143-5.742,13.137-1.49,1.459-4.171,4.375-6.029,5.349-5.131,2.689-10.82,3.777-16.459,5.177-4.38,1.087-9.439.426-13.9-.3s-8.8-3.033-11.142-6.824c8.29-3.117,16.6-6.15,25.284-9.835" transform="translate(-249.461 -140.256)" fill="#f3dcb9"/>
      <path id="Trazado_874893" data-name="Trazado 874893" d="M667.791,723.656c-.01,1.106.864,4.605.855,5.711a1.525,1.525,0,0,0,.145.813c.263.433,16.493,1.01,25.829.314-1.9-1.768-9.239-3.861-12.059-4.335a5.818,5.818,0,0,1-2.141-.653,1.905,1.905,0,0,1-.982-1.849c-3.608.817-8.039-.817-11.647,0" transform="translate(-505.609 -547.728)" fill="#f3dcb9"/>
      <path id="Trazado_874894" data-name="Trazado 874894" d="M422.665,250.213c1.473,1.394,3.515,1.811,5.14.35.341-.306-.168-.8-.508-.5-1.332,1.2-2.936.773-4.123-.35-.333-.315-.842.181-.509.5" transform="translate(-319.933 -188.993)" fill="#040504"/>
      <path id="Trazado_874895" data-name="Trazado 874895" d="M460.776,248.471a2.944,2.944,0,0,0,3.192.794c.505-.192,1.873-1,1.214-1.643a.364.364,0,0,0-.35-.09l-.089.028c-.438.139-.25.818.191.677l.088-.028-.35-.09c-.169-.164-.434.212-.584.305a2.16,2.16,0,0,1-.915.31,2.223,2.223,0,0,1-1.891-.76c-.314-.333-.821.164-.508.5" transform="translate(-348.796 -187.405)" fill="#040504"/>
      <path id="Trazado_874896" data-name="Trazado 874896" d="M449.075,247.71a23.524,23.524,0,0,1,.248,5.785c-.057,1.175.566.923,1.531,1.006.334.029.442-.391.254-.6l-.168-.187c-.306-.34-.813.158-.509.5l.169.187.254-.6a2.519,2.519,0,0,1-.4-.014l-.436-.055.054-.469c-.065-.676.1-1.439.093-2.124a20.376,20.376,0,0,0-.393-3.613c-.086-.444-.779-.256-.693.187" transform="translate(-340.006 -187.217)" fill="#040504"/>
      <path id="Trazado_874897" data-name="Trazado 874897" d="M409.8,269.471a2.913,2.913,0,0,0-2.693.128.354.354,0,0,0,.363.607,2.145,2.145,0,0,1,1.967-.128c.418.185.784-.42.363-.606" transform="translate(-308.103 -203.823)" fill="#040504"/>
      <path id="Trazado_874898" data-name="Trazado 874898" d="M412.286,269.621a1.757,1.757,0,0,0-1.7,1.591c-.042.45.677.447.719,0a1.03,1.03,0,0,1,.983-.889.351.351,0,0,0,0-.7" transform="translate(-310.867 -204.14)" fill="#040504"/>
      <path id="Trazado_874899" data-name="Trazado 874899" d="M493.4,267.335a1.376,1.376,0,0,1,1.39.113c.384.255.744-.354.363-.607a2.118,2.118,0,0,0-2.115-.113c-.414.2-.05.809.363.607" transform="translate(-373.158 -201.776)" fill="#040504"/>
      <path id="Trazado_874900" data-name="Trazado 874900" d="M492.422,267.894a1.476,1.476,0,0,1,.8.765.367.367,0,0,0,.492.126.355.355,0,0,0,.129-.481,2.054,2.054,0,0,0-1.056-1.017.377.377,0,0,0-.492.126.35.35,0,0,0,.129.481" transform="translate(-372.699 -202.343)" fill="#040504"/>
      <path id="Trazado_874901" data-name="Trazado 874901" d="M403,193.84a22.246,22.246,0,0,0,15.54-4.309c1.064-.8,2.132-1.882,2.1-3.2a14.887,14.887,0,0,0,9.867,8.249,16.076,16.076,0,0,0-8.06-15.417,10.8,10.8,0,0,0-3.685-1.325,10.269,10.269,0,0,0-7.779,2.47,20.405,20.405,0,0,0-4.95,6.614,43.205,43.205,0,0,0-2.821,6.913" transform="translate(-305.129 -134.588)" fill="#12263f"/>
      <path id="Trazado_874902" data-name="Trazado 874902" d="M327.685,319.327c10.46,4.133,23.307,2.561,31.824-4.688,2.289-1.948,6.824-6.7,6.824-6.7s7.19-1.309,8.318-1.239c4.578.284,5.7,4.058,7.338,7.1,9.779,18.174,28.106,82.464,34.135,93.805l-17.667,3.087c-.7-3.075-18.523-41.631-23.808-58.851l-10.532,40.7c-15.028,1.363-30.384,2.7-45.052-.783a2.923,2.923,0,0,1-2.649-3.56q-1.168-30.578-2.336-61.155a3.63,3.63,0,0,1,.315-2.025,3.784,3.784,0,0,1,2.02-1.343l11.272-4.342" transform="translate(-237.791 -232.21)" fill="#95dbb3"/>
      <path id="Trazado_874903" data-name="Trazado 874903" d="M327.005,645.122c4.442,6.191,10.055,14.864,11.353,24.684-24.454,0-47.947.039-73.092.039,1.312-8.572,4.431-14.53,10.3-21.711a14.764,14.764,0,0,1,6.548-4.529,16.825,16.825,0,0,1,5.946-.8q18.411-.218,36.784,1.338c.678.057,2.8.748,2.163.982" transform="translate(-200.843 -486.669)" fill="#95dbb3"/>
      <path id="Trazado_874904" data-name="Trazado 874904" d="M558.285,476.719a28.824,28.824,0,0,0-1.707-5.27c-.145-.335-.645-.046-.5.286a28.1,28.1,0,0,1,1.649,5.135c.078.357.638.206.56-.151" transform="translate(-421.007 -356.838)" fill="#040504"/>
      <path id="Trazado_874905" data-name="Trazado 874905" d="M550.545,469.951a6.462,6.462,0,0,0,2.527-2.175c.209-.3-.294-.588-.5-.286a5.887,5.887,0,0,1-2.319,1.972c-.335.162-.041.651.293.49" transform="translate(-416.504 -353.856)" fill="#040504"/>
      <path id="Trazado_874906" data-name="Trazado 874906" d="M359.584,323.043c4.344,3.057,9.976,4.1,15.233,4.047,7.917-.073,15.842-2.337,21.576-7.853a45.715,45.715,0,0,0,7-9.174c.193-.314-.309-.6-.5-.287-3.487,5.663-7.617,10.948-13.88,13.84a34.152,34.152,0,0,1-23.71,1.566,20.015,20.015,0,0,1-5.423-2.629c-.3-.214-.594.278-.293.49" transform="translate(-272.158 -234.441)" fill="#040504"/>
      <path id="Trazado_874907" data-name="Trazado 874907" d="M657.159,709.382a1.408,1.408,0,0,1,2-.652c.315.183.514.48.824.656a1.057,1.057,0,0,0,.616.193c.735-.032.7-.608.934-1.122.774-1.666,2.18.461,3.316.255a1.13,1.13,0,0,0,.733-.47c.229-.3.145-.906.369-1.145l1.77-.372.254.258c.109.068.326.315.463.41a1.615,1.615,0,0,0,.977.35c.815-.054.716-.682,1.145-1.139,1.013-1.077,1.187.586,2.08.73.72.116,1.133-.568,1.375-1.11.148-.331-.352-.621-.5-.286-.211.472-1.034.422-1.4.2-.121-.071-.181-.287-.285-.392a1.11,1.11,0,0,0-.586-.371c-.877-.162-.937.643-1.284,1.176-.88,1.352-1.974-.856-3.14-.785-1.092.066-1.1.776-1.505,1.531-.874,1.643-2.082-.38-3.266-.234a1.118,1.118,0,0,0-.723.355c-.3.323-.161.9-.408,1.177-.626.714-1.1-.265-1.571-.5a1.939,1.939,0,0,0-1.1-.177,1.969,1.969,0,0,0-1.64,1.306c-.136.34.425.488.56.151" transform="translate(-497.119 -534.054)" fill="#040504"/>
      <path id="Trazado_874908" data-name="Trazado 874908" d="M449.472,280.049a4.251,4.251,0,0,0,4.912-2.12h-.621l.2.793c-.075.442.618.632.693.187a1.613,1.613,0,0,0-.272-1.335.368.368,0,0,0-.621,0,3.522,3.522,0,0,1-4.1,1.8.352.352,0,0,0-.191.677" transform="translate(-340.12 -210.032)" fill="#040504"/>
      <path id="Trazado_874909" data-name="Trazado 874909" d="M383.064,658.587q-21.732-.083-43.465-.162a.284.284,0,0,0,0,.567q21.732.084,43.465.162a.284.284,0,0,0,0-.567" transform="translate(-256.911 -498.518)" fill="#040504"/>
      <path id="Trazado_874910" data-name="Trazado 874910" d="M407.617,313.728l14.3,9.443,11-9.309,2.338,8.273s-16.043,9.984-16.347,9.508-12.515-7.33-12.515-7.33Z" transform="translate(-307.69 -237.535)" fill="#fff"/>
      <path id="Trazado_874911" data-name="Trazado 874911" d="M397.029,317.674l17.125,8.874,15.348-8.874,1.269,9.8L413.5,336.927l-15.167-6.892Z" transform="translate(-300.605 -240.523)" fill="#fff"/>
      <path id="Trazado_874912" data-name="Trazado 874912" d="M388.03,325.094v27.922l20.471,7.736,19.5-8.128-.664-27.531-19.994,7.45Z" transform="translate(-293.792 -246.141)" fill="#b8aa52"/>
      <path id="Trazado_874913" data-name="Trazado 874913" d="M463.284,378.741h0a2.313,2.313,0,0,1-2.336-2.29V350.633a2.336,2.336,0,0,1,4.672,0v25.818a2.313,2.313,0,0,1-2.336,2.29" transform="translate(-349.001 -263.743)" fill="#040504"/>
      <path id="Trazado_874914" data-name="Trazado 874914" d="M450.2,395.807c1.647-1.557,1.572-3.571,1.554-5.813-.023-2.894-.992-6.263,1.387-6.176.883.144.93,3.618,1.447,6.414a2.3,2.3,0,0,0,.953-.995c2-3.07,2.65-5.507,5.21-8.151a6.317,6.317,0,0,1,3.441-1.245,2.839,2.839,0,0,1,2.11,1,5.128,5.128,0,0,1,1.107,4.124,13.03,13.03,0,0,1-1.484,4.13,75.564,75.564,0,0,1-6.754,11.117c-2.97-1.026-5.431-3.352-8.4-4.378-.161-.056-.246-.259-.415-.284" transform="translate(-340.863 -287.591)" fill="#f3dcb9"/>
      <path id="Trazado_874915" data-name="Trazado 874915" d="M505.352,387.523a13.169,13.169,0,0,1-1.439,3.66,37.442,37.442,0,0,1-2.118,4.248c-.191.315.311.6.5.286a40.058,40.058,0,0,0,2.383-4.851,11.792,11.792,0,0,0,1.253-3.344c.03-.364-.55-.362-.581,0" transform="translate(-379.895 -293.202)" fill="#040504"/>
      <path id="Trazado_874916" data-name="Trazado 874916" d="M497.363,380.662a29.77,29.77,0,0,1-4.386,8.793c-.216.3.287.582.5.286a30.231,30.231,0,0,0,4.444-8.928c.107-.351-.453-.5-.56-.151" transform="translate(-373.211 -288.062)" fill="#040504"/>
      <path id="Trazado_874917" data-name="Trazado 874917" d="M489,380.2c-1.162,2.713-2.652,5.283-4.075,7.87-.177.322.324.608.5.286,1.448-2.632,2.952-5.246,4.134-8.005.144-.337-.417-.483-.56-.151" transform="translate(-367.128 -287.724)" fill="#040504"/>
      <path id="Trazado_874918" data-name="Trazado 874918" d="M272.66,377a7.375,7.375,0,0,0-4.111,4.371c-4.122,10.37-6.327,21.36-8.513,32.281-2.22,11.093-4.371,22.961.068,33.394a5.606,5.606,0,0,0,2.795,3.328,5.541,5.541,0,0,0,3.153-.008c8.889-2,15.359-9.287,21.18-16.171l12.016-14.21c5.963-7.052,11.96-13.726,16.608-21.673-3.984-1.661-8.874-5.659-12.859-7.32-8.5,14.846-28.167,33.952-29.283,33.222-.788-.515.733-16.955.717-17.884-.232-12.729-1.762-16.187-1.776-28.778l.016.765" transform="translate(-194.975 -285.441)" fill="#95dbb3"/>
      <path id="Trazado_874919" data-name="Trazado 874919" d="M335.511,493.735l3.7,1.469c.346.137.5-.411.154-.547l-3.7-1.469c-.346-.137-.5.411-.154.547" transform="translate(-253.881 -373.394)" fill="#040504"/>
      <path id="Trazado_874920" data-name="Trazado 874920" d="M327.786,496.665c4.8,6.731,13.706-.841,13.729-.759.03.107-9.19,10.379-13.326,14-1.979,1.734-4.085,3.322-6.128,4.983,1.484-5.929,5.643-18.337,5.725-18.227" transform="translate(-243.844 -375.468)" fill="#95dbb3"/>
      <path id="Trazado_874921" data-name="Trazado 874921" d="M432.276,450.908q1.8-.383,1.854.832a1.342,1.342,0,0,0,.119.445,1.327,1.327,0,0,0,.586.706,1.1,1.1,0,0,0,.588.084,3.5,3.5,0,0,0,.391-.184q.873-.879,1.533,1.03a.289.289,0,0,0,.045.344c.633.642,1.044.13,1.757.124l1.312.518.024.35c.07.11.042.308.1.431a.993.993,0,0,0,.569.551,1.44,1.44,0,0,0,.732.013,6.111,6.111,0,0,1,.752-.234c.8-.011.94.563,1.263,1.018.4.566.615,1.034,1.4.839a.284.284,0,0,0-.154-.547c-.4.1-1.065-1.808-1.768-1.963a1.982,1.982,0,0,0-.893.105,2.791,2.791,0,0,1-.6.192c-.746-.013-.656-.682-.865-1.106-.236-.479-.219-.909-.885-1.008-.409-.061-.721.169-1.091.264-.2.051-.942.227-1.035.073-.045-.074.1-.323.081-.424-.124-.556-.19-1.036-.767-1.33a1.557,1.557,0,0,0-.818-.162c-.4.032-.246.079-.539.145-.616.137-.1.519-.857-.069-.709-.547-.488-1.523-1.486-1.862a1.673,1.673,0,0,0-1.754.424c-.269.255.142.655.41.4" transform="translate(-326.915 -340.703)" fill="#040504"/>
      <path id="Trazado_874922" data-name="Trazado 874922" d="M305.484,451.179c-1.79,4.828-3.293,9.782-4.691,14.73-.261.923-.521,1.849-.74,2.783-.074.315-.34.968-.221,1.3.186.52.483.277.868,0,1.462-1.038,2.85-2.195,4.216-3.35a117.173,117.173,0,0,0,23.212-27.45c.363-.58.72-1.164,1.083-1.744a2.084,2.084,0,0,1,.317-.5c.313-.245-.042-.128.189-.085a10.58,10.58,0,0,1,1.241.859q.719.439,1.435.882c1.054.65,2.107,1.3,3.169,1.939a63.114,63.114,0,0,0,6.653,3.536l-.1-.388a159.041,159.041,0,0,1-9.529,16.335c-6.207,9.387-13.378,18.417-22.159,25.647a51.722,51.722,0,0,1-16.832,9.629c-.353.114-.2.662.155.547,11.041-3.55,20.092-11.55,27.549-20A150.749,150.749,0,0,0,338.8,451.031c1.33-2.319,2.61-4.666,3.808-7.053a.284.284,0,0,0-.1-.388,95.743,95.743,0,0,1-10.851-6.108c-.53-.325-1.742-1.487-2.382-1.157-.159.082-.3.418-.392.559-1.861,2.871-3.639,5.78-5.621,8.577a119.069,119.069,0,0,1-12.4,14.878,94.861,94.861,0,0,1-8.313,7.508c-.376.3-2.524,1.619-2.523,1.935,0,.121.316.186.383.051.049-.1.022-.247.059-.354.242-.7.349-1.484.543-2.2,1.45-5.363,3.093-10.728,5.027-15.945.127-.344-.433-.492-.56-.151" transform="translate(-222.137 -330.313)" fill="#040504"/>
    </g>
  </g>
</svg>
