<svg xmlns="http://www.w3.org/2000/svg" xmlns:xlink="http://www.w3.org/1999/xlink" width="274.102" height="195.059" viewBox="0 0 274.102 195.059">
  <defs>
    <clipPath id="clip-path">
      <rect id="Rectángulo_401338" data-name="Rectángulo 401338" width="274.102" height="195.059" fill="none"/>
    </clipPath>
  </defs>
  <g id="_36" data-name="36" transform="translate(1190.102 6640)">
    <g id="_36-2" data-name="36" transform="translate(-1190.102 -6640)">
      <rect id="Rectángulo_401337" data-name="Rectángulo 401337" width="253.604" height="176.13" transform="translate(10.249 9.464)" fill="#0f1f33"/>
      <g id="Grupo_1099297" data-name="Grupo 1099297">
        <rect id="Rectángulo_401336" data-name="Rectángulo 401336" width="274.101" height="195.059" fill="#082952"/>
        <g id="Grupo_1099158" data-name="Grupo 1099158">
          <g id="Grupo_1099157" data-name="Grupo 1099157" clip-path="url(#clip-path)">
            <path id="Trazado_875224" data-name="Trazado 875224" d="M263.853,185.841V9.772H207.744c-5.977,9.038-9.384,19.4-8.544,30.12.859,10.946,5.916,22.3,1.647,32.457-5.261,12.512-21.183,15.955-34.116,20.767-29.663,11.036-52.4,38.658-56.2,69.459a77.451,77.451,0,0,0,.712,23.266Z" fill="#f6f0ca"/>
            <path id="Trazado_875225" data-name="Trazado 875225" d="M185.844,95.146a4.987,4.987,0,0,1,.7,2.712,2.976,2.976,0,0,1-.327,1.026,8.842,8.842,0,0,1-4.478,1.122,3.223,3.223,0,0,1-1.462-.3,1.305,1.305,0,0,1-.75-1.158c.039-.5.457-1.022.192-1.453-.3-.484-1.168-.343-1.517-.8-.378-.48.144-1.2-.108-1.752-.373-.828-1.97-.467-2.388-1.277a1.359,1.359,0,0,1,.3-1.316,12.981,12.981,0,0,1,1.957-2.285.579.579,0,0,0,.334-.018c1.485-.515,2.565-1.7,4.059-.616a6.189,6.189,0,0,1,1.719,2.443q.879,1.836,1.768,3.672" fill="#e0c9b3"/>
            <path id="Trazado_875226" data-name="Trazado 875226" d="M180.891,103.181a11.138,11.138,0,0,0-2.472,2.382c-.5.687-.936,1.374-1.359,2.043a15.583,15.583,0,0,0-3.771-3.522,28.377,28.377,0,0,0-3.524-2c-.1-.049-.191-.093-.284-.137a19.822,19.822,0,0,0,2.067-3.429c1.462-3.087,1.229-7.591,4.492-9.519a1.8,1.8,0,0,1,.875-.308.708.708,0,0,1,.713.445,1.681,1.681,0,0,0,.088.347.375.375,0,0,0,.247.181,13.006,13.006,0,0,0-1.955,2.285,1.355,1.355,0,0,0-.3,1.316c.419.81,2.015.449,2.388,1.277.251.55-.27,1.272.107,1.752.349.454,1.22.313,1.518.8.265.432-.154.951-.191,1.453a1.3,1.3,0,0,0,.749,1.158,3.24,3.24,0,0,0,1.462.3,8.843,8.843,0,0,0,4.478-1.123,5.778,5.778,0,0,1-1.811,1.928c-1.14.811-2.378,1.528-3.519,2.369" fill="#cfb3a2"/>
            <path id="Trazado_875227" data-name="Trazado 875227" d="M181.124,137.671a5.87,5.87,0,0,1-.526,2.893q-.684,1.908-1.373,3.821a4.116,4.116,0,0,1-5.149,3.2c-1.089-.118-2.179-.308-3.278-.453a13.747,13.747,0,0,0-4.529.026c-.74.15-1.443.331-2.132.516a45.994,45.994,0,0,0-3.757-8.665,21.884,21.884,0,0,0,6-1.431c3.3-1.3,6.4-4.733,10.167-4.02a1.835,1.835,0,0,1,.862.344.638.638,0,0,1,.2.783,2.168,2.168,0,0,0-.186.313.431.431,0,0,0,.307.493c1.452.59,3.1.427,3.4,2.184" fill="#e0c9b3"/>
            <path id="Trazado_875228" data-name="Trazado 875228" d="M177.06,107.605c.144.194.279.387.4.59-3.533,4.975-7.49,9.673-12.769,12.9a30.4,30.4,0,0,1-22.611,3.624,17.951,17.951,0,0,0,.163-4.5,39.182,39.182,0,0,0-3.887-13.1c2.314,1,4.66,1.946,7.048,2.787a27.06,27.06,0,0,0,6.545,1.853,15.986,15.986,0,0,0,6.7-.894,23.067,23.067,0,0,0,9.212-6.485q1-1.116,1.9-2.3a28.232,28.232,0,0,1,3.524,2,15.6,15.6,0,0,1,3.771,3.522" fill="#c03771"/>
            <path id="Trazado_875229" data-name="Trazado 875229" d="M164.137,147.67q.237.72.438,1.453-1.788.344-3.58.629l-.224-1.294a31.411,31.411,0,0,0,3.366-.788" fill="#da518b"/>
            <path id="Trazado_875230" data-name="Trazado 875230" d="M160.771,148.458l.223,1.294a121.105,121.105,0,0,1-12.48,1.348c-3.115.176-6.187.352-9.264.422,0-1.47.023-2.769.056-3.773q.111-3.618.451-7.229c.019-.216.047-.431.079-.647,2.887.088,5.777.009,8.654-.172a100.931,100.931,0,0,0,11.6-1.206c.1.167.2.339.293.511a45.985,45.985,0,0,1,3.757,8.664,31.524,31.524,0,0,1-3.366.788" fill="#da518b"/>
            <path id="Trazado_875231" data-name="Trazado 875231" d="M141.931,77.038a9.5,9.5,0,0,1-4.557,1.739,18.485,18.485,0,0,1-9.143-1.871c-1.015-.44-2.235-.907-3.189-.357-1.024.59-1.071,1.955-1,3.087q.146,2.364.3,4.732a2.518,2.518,0,0,1-.13,1.224.96.96,0,0,1-1.048.564c-.465-.132-.642-.652-.749-1.1-.382-1.576-.4-3.724-1.774-4.821a2.988,2.988,0,0,0-1.592-.682,1.814,1.814,0,0,0-1.564.625,2.5,2.5,0,0,0-.023,2.307,18.321,18.321,0,0,0,1.043,2.395c-.229,1.717-.373,3.443-.61,5.156-.028.22-.061.444-.093.664-.163,1.075-.289,2.664-.647,4.121L117,94.658a7.684,7.684,0,0,1-1.4-1.753c-.582-1.149-.312-2.774-.41-4.024a18.68,18.68,0,0,0-.978-4.693c-.67-1.911-1.652-3.711-2.332-5.618a9.567,9.567,0,0,1-.479-5.93,5.3,5.3,0,0,1,4.445-3.808,6.033,6.033,0,0,1,5.927-5.156c2.863,0,5.465,1.946,8.323,1.787,2.291-.123,4.329-1.585,6.62-1.655,2.542-.076,4.818,1.6,6.224,3.606a7.634,7.634,0,0,1,1.457,6.194,6.361,6.361,0,0,1-2.472,3.43" fill="#030a12"/>
            <path id="Trazado_875232" data-name="Trazado 875232" d="M94.755,115.636c0-.053,0-.106,0-.158-.037-5.8,4.176-11.108,9.576-13.856a26.1,26.1,0,0,1,6.918-2.32,11.325,11.325,0,0,0,4.013-1.206c.209.594.456,1.175.721,1.748a21.4,21.4,0,0,0,5.372,7.057,22.711,22.711,0,0,0,7.2,4.156q.076-4.219.275-8.431c1.424.7,2.83,1.422,4.241,2.087,1.75.828,3.51,1.638,5.293,2.408a39.211,39.211,0,0,1,3.887,13.1,17.943,17.943,0,0,1-.163,4.5c-.1.775-.224,1.554-.331,2.342q-.5,3.633-.987,7.26a10.035,10.035,0,0,1-.107,1.4,30.513,30.513,0,0,1-16.5-7.542c-2.793-2.518-4.111-5.516-6.285-8.356A15.773,15.773,0,0,0,112,115.46c1.2,3.636,2.15,7.348,3.672,10.87,1.807,4.169,4.549,8.176,8.655,10.461a24.75,24.75,0,0,0,8.952,2.58,65.289,65.289,0,0,0,6.554.5c-.032.215-.06.431-.079.647q-.342,3.606-.451,7.229c-.033,1-.052,2.3-.056,3.773a87.279,87.279,0,0,1-11.224-.37,65.176,65.176,0,0,1-13.267-2.641,20.193,20.193,0,0,1-8.808-5.86,37.963,37.963,0,0,1-4.144-5.644c-.721-1.172-1.461-2.356-2.183-3.558-.195-1.232-.372-2.465-.549-3.7a81.516,81.516,0,0,1-2.993-7.732,21.781,21.781,0,0,1-1.327-6.379" fill="#da518b"/>
            <path id="Trazado_875233" data-name="Trazado 875233" d="M118.511,84.879a18.321,18.321,0,0,1-1.043-2.395,2.507,2.507,0,0,1,.023-2.307,1.814,1.814,0,0,1,1.565-.625,2.984,2.984,0,0,1,1.592.682c1.368,1.1,1.392,3.245,1.773,4.821.107.449.284.969.75,1.1a.959.959,0,0,0,1.047-.564,2.53,2.53,0,0,0,.131-1.224q-.154-2.364-.3-4.732c-.075-1.132-.028-2.5,1-3.087.955-.55,2.174-.083,3.189.357a18.485,18.485,0,0,0,9.143,1.871,9.5,9.5,0,0,0,4.557-1.739c.042,5.164-1.526,10.447-3.291,15.273-.954,2.6-2.411,5.257-5.656,5.2a9.924,9.924,0,0,1-3.827-.894,17.538,17.538,0,0,1-4.7-3.223,23.6,23.6,0,0,1-4.092-5.27c-.633-1.056-1.289-2.139-1.857-3.249" fill="#e0c9b3"/>
            <path id="Trazado_875234" data-name="Trazado 875234" d="M140.661,135.721c-.2,1.391-.619,2.765-.824,4.152a65.286,65.286,0,0,1-6.555-.5,24.761,24.761,0,0,1-8.952-2.58c-4.106-2.285-6.847-6.292-8.654-10.461-1.522-3.522-2.476-7.233-3.673-10.87a15.785,15.785,0,0,1,5.875,4.363c2.174,2.84,3.491,5.838,6.285,8.356a30.513,30.513,0,0,0,16.5,7.542" fill="#c03771"/>
            <path id="Trazado_875235" data-name="Trazado 875235" d="M137.034,169.832c-1.62.044-3.235.075-4.855.093q-12.228.138-24.436-.8a146.421,146.421,0,0,0-1.112-21.741,35.473,35.473,0,0,0,16.349,6.49,73.6,73.6,0,0,0,16.27.321c.028,5.235.2,11.509.493,14.74.028.269.052.538.08.8-.731.03-1.458.052-2.188.074-.2.009-.4.014-.6.018" fill="#da518b"/>
            <path id="Trazado_875236" data-name="Trazado 875236" d="M139.25,151.522c-.005.845-.005,1.743,0,2.677a73.6,73.6,0,0,1-16.27-.322,35.483,35.483,0,0,1-16.349-6.489c-.2-1.6-.429-3.188-.68-4.737a20.2,20.2,0,0,0,8.808,5.86,65.176,65.176,0,0,0,13.267,2.641,87.459,87.459,0,0,0,11.224.37" fill="#c03771"/>
            <path id="Trazado_875237" data-name="Trazado 875237" d="M139.13,186.58a154.19,154.19,0,0,0-2.04-16.422,20.4,20.4,0,0,1-5.838,2.391q-2.481,7.011-4.967,14.031Z" fill="#5b42d3"/>
            <path id="Trazado_875238" data-name="Trazado 875238" d="M137.034,169.832c.019.11.042.216.056.326a20.413,20.413,0,0,1-5.838,2.391c.312-.872.615-1.748.927-2.624,1.62-.018,3.235-.049,4.855-.093" fill="#4128b9"/>
            <path id="Trazado_875239" data-name="Trazado 875239" d="M107.743,169.128q12.192.931,24.435.8c-.312.876-.614,1.752-.926,2.624a41,41,0,0,1-13.482.629A107.1,107.1,0,0,0,98,173.267c.544-1.643,1.247-3.236,1.9-4.839q3.918.4,7.849.7" fill="#4128b9"/>
            <path id="Trazado_875240" data-name="Trazado 875240" d="M129.157,96.621c-.046.674-.088,1.352-.126,2.03-4.152-2.347-8.481-4.865-11.13-8.616.237-1.713.381-3.439.61-5.156.568,1.11,1.224,2.193,1.857,3.249a23.568,23.568,0,0,0,4.092,5.27,17.538,17.538,0,0,0,4.7,3.223" fill="#cfb3a2"/>
            <path id="Trazado_875241" data-name="Trazado 875241" d="M117.161,94.82c.358-1.457.484-3.047.647-4.121.033-.22.065-.444.093-.665,2.649,3.751,6.978,6.27,11.131,8.616q-.118,1.989-.205,3.976a31.987,31.987,0,0,0-7.779-2.866,11.071,11.071,0,0,0-5.07.084c-.265-.573-.512-1.154-.721-1.748.06-.036.116-.075.172-.115a5.348,5.348,0,0,0,1.732-3.161" fill="#e0c9b3"/>
            <path id="Trazado_875242" data-name="Trazado 875242" d="M128.827,102.626q-.2,4.213-.275,8.431a22.718,22.718,0,0,1-7.2-4.156,21.394,21.394,0,0,1-5.372-7.057,11.066,11.066,0,0,1,5.069-.084,31.972,31.972,0,0,1,7.779,2.866" fill="#e0c9b3"/>
            <path id="Trazado_875243" data-name="Trazado 875243" d="M99.792,185.8c.229.261.463.523.7.784h25.8q2.482-7.014,4.967-14.032a41,41,0,0,1-13.481.63A107.2,107.2,0,0,0,98,173.267c-.056.163-.107.321-.154.484a23.78,23.78,0,0,0-1.061,7.727,19.464,19.464,0,0,0,3.012,4.319" fill="#5b42d3"/>
            <path id="Trazado_875244" data-name="Trazado 875244" d="M106.631,147.388a146.424,146.424,0,0,1,1.113,21.74q-3.932-.29-7.849-.7a31.834,31.834,0,0,0,1.345-3.839c.866-3.253.829-13.454.6-16.787a90.956,90.956,0,0,0-1.648-11.13q-.314-1.6-.563-3.223c.721,1.2,1.462,2.386,2.183,3.557a38.036,38.036,0,0,0,4.143,5.645c.252,1.549.48,3.134.68,4.737" fill="#c03771"/>
            <path id="Trazado_875245" data-name="Trazado 875245" d="M100.49,186.58c-.234-.261-.469-.522-.7-.784a19.441,19.441,0,0,1-3.012-4.319,24.954,24.954,0,0,0,.678,5.1Z" fill="#4128b9"/>
            <path id="Trazado_875246" data-name="Trazado 875246" d="M99.625,133.449a59.844,59.844,0,0,1-3.459-6.472,21.727,21.727,0,0,1-1.41-11.341,21.818,21.818,0,0,0,1.326,6.379,81.4,81.4,0,0,0,2.994,7.731c.177,1.238.354,2.47.549,3.7" fill="#da518b"/>
            <path id="Trazado_875247" data-name="Trazado 875247" d="M132.458,83.57a.736.736,0,0,1-.955.036.556.556,0,0,1-.04-.85.735.735,0,0,1,.955-.036.556.556,0,0,1,.04.85" fill="#373737"/>
            <path id="Trazado_875248" data-name="Trazado 875248" d="M139.7,84.314a.689.689,0,0,1-.833.417.6.6,0,0,1-.469-.741.691.691,0,0,1,.833-.417.6.6,0,0,1,.469.741" fill="#373737"/>
            <path id="Trazado_875249" data-name="Trazado 875249" d="M136.447,83.22a7.525,7.525,0,0,0,.068,3.971,1.34,1.34,0,0,1,.074.846c-.179.468-.822.634-1.369.728" fill="none" stroke="#8e6b61" stroke-linecap="round" stroke-linejoin="round" stroke-width="0.424"/>
            <path id="Trazado_875250" data-name="Trazado 875250" d="M131.768,92.3a4.508,4.508,0,0,1,4.342-1.008" fill="none" stroke="#c9357e" stroke-linecap="round" stroke-linejoin="round" stroke-width="0.468"/>
            <path id="Trazado_875251" data-name="Trazado 875251" d="M130.393,78.934a6.4,6.4,0,0,1,3.495,2.036" fill="none" stroke="#8e6b61" stroke-linecap="round" stroke-linejoin="round" stroke-width="0.47"/>
            <path id="Trazado_875252" data-name="Trazado 875252" d="M138.389,82.072a6.471,6.471,0,0,1,3.655-1.769" fill="none" stroke="#8e6b61" stroke-linecap="round" stroke-linejoin="round" stroke-width="0.47"/>
            <path id="Trazado_875253" data-name="Trazado 875253" d="M244.683,186.58h9.173a7.154,7.154,0,0,1-.383-.911,20.1,20.1,0,0,1-.731-4.007c-.117-1.211-.187-2.36-.3-3.482a11.258,11.258,0,0,1-6.843-.621c-.042-.014-.079-.031-.121-.044a25.859,25.859,0,0,1-.8,9.065" fill="#e0c9b3"/>
            <path id="Trazado_875254" data-name="Trazado 875254" d="M215.528,118.779c-.005-.022-.009-.044-.014-.066a10.507,10.507,0,0,1,.088-3.967,17.028,17.028,0,0,0,1.3-2.021,15.856,15.856,0,0,0,1.024-2.223,7.059,7.059,0,0,1,4.842-1.906c3.04-.057,6.042,1.545,8.654,3.685.088.238.177.48.265.722-.018-.19-.046-.379-.074-.568a36.5,36.5,0,0,1,5.316,5.6c8.254,10.664,17.406,28.886,18.924,58.1a6.275,6.275,0,0,1-3.166,1.973c-.079.022-.158.048-.242.066a11.259,11.259,0,0,1-6.843-.621c-.042-.013-.079-.031-.121-.044a25.76,25.76,0,0,0-.5-3.271l-1.331.132a90.17,90.17,0,0,0-7.751-27.1c-.987-2.136-2.1-4.319-3.347-6.516q-.867-1.52-1.821-3.047c-1.229-1.968-2.532-3.892-3.924-5.741-2.141-2.844-5.614-3.914-7.993-6.428a13.849,13.849,0,0,1-3.049-5.715,10.078,10.078,0,0,1-.233-1.052" fill="#10c8d4"/>
            <path id="Trazado_875255" data-name="Trazado 875255" d="M244.977,174.244a25.788,25.788,0,0,1,.5,3.271c-.517-.194-1.052-.427-1.62-.695,0,0-.037-.877-.214-2.444Z" fill="#10c8d4"/>
            <path id="Trazado_875256" data-name="Trazado 875256" d="M231.728,149.461c.349-2.554.582-5.12.754-7.674.023-.339.047-.682.065-1.026,1.248,2.2,2.36,4.381,3.347,6.516-1.257,20.12-2.141,30.079-2.644,34.83a3.046,3.046,0,0,1-2.942,2.562H230.3a3.471,3.471,0,0,1-1.671-.277l-15.278-6.507-1.071-.458a4.6,4.6,0,0,1,.549-1.568c1.481-2.562,3.4-1.866,5.931-2.509a11.488,11.488,0,0,0,5.181-3c2.845-2.791,4.334-6.52,5.452-10.077a65.3,65.3,0,0,0,2.332-10.809" fill="#0daeba"/>
            <path id="Trazado_875257" data-name="Trazado 875257" d="M221.878,186.58c-2.214-1.3-4.494-2.529-6.784-3.712-4.552-2.342-9.208-4.591-13.574-7.185.267,3.047.807,6.754,1.548,10.9Z" fill="#5277ec"/>
            <path id="Trazado_875258" data-name="Trazado 875258" d="M232.547,140.762c-.019.343-.042.687-.065,1.026-.172,2.553-.4,5.12-.754,7.674a50.76,50.76,0,0,0-10.023-17.523c-2.169-2.483-4.385-5.085-5.623-8.118a8.209,8.209,0,0,1-.555-5.042,10.42,10.42,0,0,0,.233,1.053,13.875,13.875,0,0,0,3.049,5.714c2.379,2.514,5.852,3.584,7.993,6.428,1.392,1.849,2.7,3.773,3.925,5.741q.957,1.525,1.82,3.047" fill="#0daeba"/>
            <path id="Trazado_875259" data-name="Trazado 875259" d="M200.04,126.766q.147-.508.307-1c.047-.154.1-.3.149-.453.135-.819.256-1.748.424-2.395a60.412,60.412,0,0,1,3.8-10.47c.656-1.395,1.322-2.668,1.955-3.808.228-.4.447-.788.665-1.158a29.9,29.9,0,0,0,16.173-9.452,49.949,49.949,0,0,1,7.909,14.255c-2.612-2.139-5.614-3.742-8.654-3.685a7.059,7.059,0,0,0-4.842,1.907,7.286,7.286,0,0,0-1.261,1.558,8.778,8.778,0,0,0-1.061,2.686,10.486,10.486,0,0,0-.089,3.967c0,.022.009.044.014.066a8.213,8.213,0,0,0,.554,5.041c1.238,3.033,3.454,5.635,5.624,8.118a50.757,50.757,0,0,1,10.022,17.523A65.186,65.186,0,0,1,229.4,160.27c-1.117,3.558-2.607,7.287-5.451,10.078a11.492,11.492,0,0,1-5.182,3c-2.532.642-4.45-.053-5.93,2.509a4.583,4.583,0,0,0-.55,1.568l-10.935-4.659-5.605-2.39a2.737,2.737,0,0,1-1.722-3.254c2.043-7.018,3.915-14.379,4.064-21.687a107.619,107.619,0,0,1,.945-13.952c.074-.5.158-.991.247-1.462.214-1.153.47-2.223.763-3.258" fill="#10c8d4"/>
            <path id="Trazado_875260" data-name="Trazado 875260" d="M215.1,182.869c2.29,1.182,4.57,2.408,6.784,3.712h8.34c.052-1.238.089-1.911.089-1.911h0a3.47,3.47,0,0,1-1.671-.278l-15.279-6.507-1.071-.458-10.935-4.658-5.605-2.39s-.037.5-.1,1.435a65.166,65.166,0,0,0,5.879,3.87c4.367,2.593,9.022,4.843,13.575,7.185" fill="#385dd2"/>
            <path id="Trazado_875261" data-name="Trazado 875261" d="M222.627,97.03s.33.326.884,1a29.882,29.882,0,0,1-16.172,9.452,50.993,50.993,0,0,1,3.2-4.812,25.928,25.928,0,0,0,11.019-7.519Z" fill="#0daeba"/>
            <path id="Trazado_875262" data-name="Trazado 875262" d="M215.328,85.05c.074-.013.144-.022.219-.04a3.267,3.267,0,0,0,.614.652h.005l5.391,9.479v0a25.921,25.921,0,0,1-11.019,7.52c.344-.462.549-.7.549-.7l-1.96-5.727a12.322,12.322,0,0,0,.661-8.889,2.063,2.063,0,0,0-1.145-1.48,1.737,1.737,0,0,0-1.513.3,4.458,4.458,0,0,0-1,1.14c-1.164,1.687-2.062,3.351-3.291,4.883a14.515,14.515,0,0,0-3.864,2.351c-4.86,3.509-5.242-1.338-5.242-1.338s.443-1.753-.828-2.36a2.782,2.782,0,0,1-1.662-2.514,1.8,1.8,0,0,0-.5-1.149,2.377,2.377,0,0,0-1.21-.665.857.857,0,0,1-.7-1.132l1.993-4.983a9.208,9.208,0,0,1-1.118-3.531,9.9,9.9,0,0,0,3.436-1.814c1.806-1.436,3.347-3.236,5.544-4.143a4.66,4.66,0,0,1,3.208-.269c3.72,1.282,2.234,6.076,2.034,8.7a1.2,1.2,0,0,0,.051.577,1.016,1.016,0,0,0,1.248.343,1.846,1.846,0,0,0,.941-.955,19.294,19.294,0,0,1,.944-2.329,1.913,1.913,0,0,1,2.337-.8c.666.384.689,1.224.694,1.933a16.133,16.133,0,0,0,.428,3.655,3.662,3.662,0,0,0,4.758,3.275" fill="#e0c9b3"/>
            <path id="Trazado_875263" data-name="Trazado 875263" d="M189.705,76.879a5.2,5.2,0,0,1-3.151-.044,4.556,4.556,0,0,1-2.84-4.174c-.145-4.314,3.393-6.9,7.169-9.1,5.33-3.109,14.026-5.27,18.891-.767a6.052,6.052,0,0,0,2.09,1.533,15.982,15.982,0,0,0,2.365.312,5.082,5.082,0,0,1,3.324,2.351c2.756,4.328,1.15,9.343-.838,13.666a15.488,15.488,0,0,0-1.345,4.068v0c-.019.105-.033.22-.042.325a3.661,3.661,0,0,1-4.758-3.275,16.074,16.074,0,0,1-.428-3.654c-.005-.709-.028-1.55-.694-1.933a1.912,1.912,0,0,0-2.337.8,19.366,19.366,0,0,0-.945,2.329,1.842,1.842,0,0,1-.94.956,1.016,1.016,0,0,1-1.248-.344,1.2,1.2,0,0,1-.051-.577c.2-2.624,1.685-7.418-2.034-8.7a4.659,4.659,0,0,0-3.208.268c-2.2.907-3.738,2.708-5.544,4.143a9.909,9.909,0,0,1-3.436,1.814" fill="#030a12"/>
            <path id="Trazado_875264" data-name="Trazado 875264" d="M217.925,110.5a16.024,16.024,0,0,1-1.024,2.223,6.729,6.729,0,0,0-.228-.642c-.005-.009-.005-.014-.01-.022a7.265,7.265,0,0,1,1.262-1.559" fill="#10c8d4"/>
            <path id="Trazado_875265" data-name="Trazado 875265" d="M216.673,112.083a6.4,6.4,0,0,1,.228.643,17.191,17.191,0,0,1-1.3,2.021,8.805,8.805,0,0,1,1.062-2.686.2.2,0,0,0,.009.022" fill="#10c8d4"/>
            <path id="Trazado_875266" data-name="Trazado 875266" d="M208.205,93.539c-2.467-1.453-3.966-1.757-5.367-1.338,1.229-1.532,2.127-3.2,3.291-4.883a4.441,4.441,0,0,1,1-1.14,1.736,1.736,0,0,1,1.513-.3,2.064,2.064,0,0,1,1.145,1.479,12.326,12.326,0,0,1-.661,8.889Z" fill="#cfb3a2"/>
            <path id="Trazado_875267" data-name="Trazado 875267" d="M203.069,186.58c-.741-4.143-1.282-7.85-1.549-10.9a64.741,64.741,0,0,1-5.879-3.87c-.146,2.106-.435,7.449-.771,14.767Z" fill="#5277ec"/>
            <path id="Trazado_875268" data-name="Trazado 875268" d="M206.673,108.635c-.633,1.14-1.3,2.413-1.955,3.808a60.44,60.44,0,0,0-3.8,10.47c-.167.647-.289,1.576-.423,2.395-.052.15-.1.3-.149.453-.163.08-.326.163-.485.243a12.983,12.983,0,0,1-8.216,1.153,7.294,7.294,0,0,0,1.108-.572,13.587,13.587,0,0,0,3.347-3.337A58.642,58.642,0,0,0,204,109.5c.875-.321,1.769-.625,2.677-.863" fill="#0daeba"/>
            <path id="Trazado_875269" data-name="Trazado 875269" d="M203.135,109.824c.284-.11.573-.22.861-.326a58.638,58.638,0,0,1-7.894,13.75,13.587,13.587,0,0,1-3.347,3.337,7.17,7.17,0,0,1-1.109.572,9.007,9.007,0,0,1-3.929-2.056c-2.248-1.805-4.5.449-6.746,1.805a8.844,8.844,0,0,1-5.347-.092,25.5,25.5,0,0,1,.45-4.759c.168-.956.364-1.911.554-2.871.336-1.682.787-1.669,2.509-1.91,1.657-.238,3.333-.371,4.987-.648a41.344,41.344,0,0,0,8.388-2.492c1.821-.726,3.7-1.281,5.54-1.963,1.768-.656,3.333-1.669,5.083-2.347" fill="#10c8d4"/>
            <path id="Trazado_875270" data-name="Trazado 875270" d="M191.646,127.157A12.987,12.987,0,0,0,199.863,126c.158-.08.321-.163.484-.243q-.16.5-.308,1c-.293,1.035-.549,2.1-.763,3.258-3.757,1.295-7.621,2.4-11.34,3.742-1.118.4-2.509.78-3.454,0-.7-.581-.931-1.669-1.783-1.994-1.169-.449-2.1.924-3.278,1.2a2.69,2.69,0,0,1-2.541-1.035,2.121,2.121,0,0,1-.163-.225,5.854,5.854,0,0,1-.866-2.364,14.55,14.55,0,0,1-.228-2.531,8.858,8.858,0,0,0,5.349.092c2.248-1.356,4.5-3.61,6.745-1.805a9.033,9.033,0,0,0,3.929,2.056" fill="#0daeba"/>
            <path id="Trazado_875271" data-name="Trazado 875271" d="M149.167,122.812a82.348,82.348,0,0,0,23.5-.251c1.131-.167,2.271-.33,3.407-.506a25.585,25.585,0,0,0-.451,4.759,14.57,14.57,0,0,0,.228,2.532,5.859,5.859,0,0,0,.866,2.364c-3.953.37-7.733.506-11.257.484-3.663-.017-7.052-.207-10.069-.489-.912-.079-1.788-.176-2.626-.273-2.8-.317-5.176-.7-7.057-1.061l.019-.092a26.028,26.028,0,0,1-2.649-.608c-3.3-1.074-5.181-4.151-8.007-7.1s-.624-3.214-.624-3.214l5.023,2.545s-1.41-7.586,0-9.51,1.886-.938,1.886-.938c1.094-1.739,2.979.938,2.979.938a3.874,3.874,0,0,1,2.355,2.813c1.923.617,2.375,5.407,2.477,7.608" fill="#e0c9b3"/>
            <path id="Trazado_875272" data-name="Trazado 875272" d="M194.715,80.286a4.775,4.775,0,0,1-1.227-.241.685.685,0,0,0,.093.792.785.785,0,0,0,1.078.023.763.763,0,0,0,.273-.576,1.956,1.956,0,0,1-.217,0" fill="#373737"/>
            <path id="Trazado_875273" data-name="Trazado 875273" d="M195.239,89.939a4.092,4.092,0,0,0-3.671-.276" fill="none" stroke="#c9357e" stroke-linecap="round" stroke-linejoin="round" stroke-width="0.468"/>
            <path id="Trazado_875274" data-name="Trazado 875274" d="M192.064,79.241a7.2,7.2,0,0,1,4.206-1.819" fill="none" stroke="#8e6b61" stroke-linecap="round" stroke-linejoin="round" stroke-width="0.416"/>
          </g>
        </g>
      </g>
    </g>
  </g>
</svg>
