<svg xmlns="http://www.w3.org/2000/svg" xmlns:xlink="http://www.w3.org/1999/xlink" width="274.56" height="195.06" viewBox="0 0 274.56 195.06">
  <defs>
    <clipPath id="clip-path">
      <rect id="Rectángulo_401310" data-name="Rectángulo 401310" width="274.56" height="195.059" fill="none"/>
    </clipPath>
  </defs>
  <g id="_37" data-name="37" transform="translate(0 0.001)">
    <rect id="Rectángulo_401308" data-name="Rectángulo 401308" width="274.101" height="195.06" transform="translate(0 -0.001)" fill="#082952"/>
    <rect id="Rectángulo_401309" data-name="Rectángulo 401309" width="253.604" height="176.13" transform="translate(10.249 9.465)" fill="#0f1f33"/>
    <g id="Grupo_1099126" data-name="Grupo 1099126">
      <g id="Grupo_1099125" data-name="Grupo 1099125" clip-path="url(#clip-path)">
        <path id="Trazado_874974" data-name="Trazado 874974" d="M152.021,194.784a44.2,44.2,0,0,1-5.037-22.842c.506-8.3,3.488-16.915.971-24.614-3.1-9.488-12.489-12.1-20.114-15.748C110.352,123.21,96.948,102.262,94.7,78.9s7.041-48.017,23.1-60.094C130.892,8.968,146.963,7.624,162.154,9.3c14.987,1.649,30.169,6.2,42.525,16.988,6.207,5.421,11.766,12.44,18.941,15.423,14.964,6.222,33.42-6.479,46.248,5.034a24.036,24.036,0,0,1,4.692,5.974V194.784Z" fill="#f6f0ca"/>
        <path id="Trazado_874975" data-name="Trazado 874975" d="M203.716,108.5c.286,2.192.867,4.43.319,6.571a7.684,7.684,0,0,1-4.451,4.782,10.435,10.435,0,0,1-6.176-8.4c-.147-2.223.327-4.866-1.434-6.331-2.179-1.821-5.714-.086-8.371-1.168-1.908-.773-2.877-2.783-3.674-4.619-1.283-2.961-2.219-7.189-4.8-9.323-5.522-4.557-15.045-1.844-20.514-6.15a10.694,10.694,0,0,0-.584-4.573,8.314,8.314,0,0,0,4.553,2.648c2.424.348,4.7-.955,6.985-1.77a18.348,18.348,0,0,1,14.444,1.016,17.216,17.216,0,0,1,8.726,11.144c.5,2.161.617,4.561,2.129,6.239a11.182,11.182,0,0,0,4.463,2.481,21.286,21.286,0,0,1,8.273,5.234,12.852,12.852,0,0,0,.114,2.215" fill="#030a12"/>
        <path id="Trazado_874976" data-name="Trazado 874976" d="M193.408,111.461a10.433,10.433,0,0,0,6.176,8.4c-3.769,1.758-8.763,1.426-10.611-2.459-1.136-2.385-.743-5.6-2.926-7.182-2.162-1.569-5.436-.39-7.814-1.627a4.456,4.456,0,0,1-1.594-1.4c-.123-.173-.237-.351-.344-.537-.069-.127-.135-.251-.2-.382a7.878,7.878,0,0,1-.409-1.017,14.833,14.833,0,0,1-.576-2.582c-.331-2.273-.638-4.789-2.428-6.324-1.818-1.557-4.5-1.526-6.923-1.785-3.2-.341-7.958-3.274-10.753-5.938-.209-.2-.4-.39-.589-.583-.274-.29-.523-.572-.74-.843v0c.025-.05.049-.1.07-.154a9.672,9.672,0,0,0,.408-1.017c.058-.174.115-.352.164-.53a9.132,9.132,0,0,0,.294-1.627c5.469,4.306,14.992,1.593,20.513,6.15,2.583,2.134,3.519,6.362,4.8,9.323.8,1.836,1.765,3.846,3.674,4.619,2.657,1.082,6.192-.653,8.37,1.168,1.762,1.464,1.288,4.108,1.435,6.331" fill="#030a12"/>
        <path id="Trazado_874977" data-name="Trazado 874977" d="M167.733,134.688c-.634.189-1.68.475-2.939.754a40.6,40.6,0,0,0-6.51-25.167,19.6,19.6,0,0,1,7.765,10.892l2.334,13.324s-.237.077-.65.2" fill="#cd447e"/>
        <path id="Trazado_874978" data-name="Trazado 874978" d="M157.225,141.781a4.276,4.276,0,0,0,.895-.7,4.785,4.785,0,0,0,.973-4.885,30.67,30.67,0,0,0,5.7-.754c1.259-.279,2.3-.565,2.939-.754a31.545,31.545,0,0,1-.09,5.856A12.453,12.453,0,0,1,164.9,147.2a9.691,9.691,0,0,1-2.878,2.207,11.787,11.787,0,0,1-2.644.97,18.811,18.811,0,0,1-6.368.271,32.985,32.985,0,0,1-11.121-3.223c2.845-1.732,5.522-3.758,8.252-5.686a18.063,18.063,0,0,0,2.313.649,6.9,6.9,0,0,0,4.766-.6" fill="#dcc0af"/>
        <path id="Trazado_874979" data-name="Trazado 874979" d="M159.093,136.2a11.715,11.715,0,0,1-3.548-.4c-.56-.17-.658-4.662-.727-5.273a44.762,44.762,0,0,0-1.774-8.329c-.155-.5-.552-1.121-1.018-.913a.916.916,0,0,0-.412.58,19.6,19.6,0,0,0-.724,6.6,16.78,16.78,0,0,1-.911,6.56,6.623,6.623,0,0,1-2.391,2.938,22.082,22.082,0,0,0-7.921,1.376,15.757,15.757,0,0,0-4.4-1.72,7.108,7.108,0,0,0-1.774-1.589,31.045,31.045,0,0,1-3.576-2.277,7.9,7.9,0,0,1-.936-.955,5.968,5.968,0,0,1-.568-.8c-1.4-2.354-.736-4.947.462-7.614.5-1.117,1.2-5.416,2.1-5.941-5.448,2.014-5.555,9.153-6.871,14.112-.347,0-.69,0-1.038-.019a23.177,23.177,0,0,1-6.7-1.9,6.541,6.541,0,0,1-.874-.538l5.832-17.2s2.849-5.895,11.489-7.368a8.106,8.106,0,0,0,4.655,4.04,10.489,10.489,0,0,0,7.091-.321,17.106,17.106,0,0,0,4.9-3.034,28.346,28.346,0,0,1,8.82,4.066,40.591,40.591,0,0,1,6.51,25.167,30.647,30.647,0,0,1-5.7.754" fill="#e75e98"/>
        <path id="Trazado_874980" data-name="Trazado 874980" d="M156.514,163.829q-1.692,5.433-2.943,10.935a43.56,43.56,0,0,1-11.055.058c-.413-.05-.826-.108-1.235-.166-2.93-.441-5.807-1.11-8.754-1.484a32.27,32.27,0,0,0-3.724-.279,21.215,21.215,0,0,0-3.85.275,47.464,47.464,0,0,0,5.653-16.142c2.967-1.624,5.853-3.78,9.126-4.352,2.755-.476,5.555.208,8.338.429a25.509,25.509,0,0,0,13.058-2.482c4.521,5.914,3.43,22.856,3.43,22.856l-.021.812c-.433.1-.875.181-1.32.247a20.959,20.959,0,0,1-4.4.232,27.53,27.53,0,0,0-2.3-10.939" fill="#e75e98"/>
        <path id="Trazado_874981" data-name="Trazado 874981" d="M163.117,185.962h1.121l.3-11.674c-.433.1-.874.182-1.32.247a80.128,80.128,0,0,1-.1,11.427" fill="#182668"/>
        <path id="Trazado_874982" data-name="Trazado 874982" d="M163.117,185.962a80.128,80.128,0,0,0,.1-11.427,20.893,20.893,0,0,1-4.4.232,27.533,27.533,0,0,0-2.3-10.939q-1.692,5.433-2.943,10.935a43.467,43.467,0,0,1-11.055.058c-.413-.05-.826-.108-1.234-.166l-.021.128s.92,3.383,2.3,11.179Z" fill="#324082"/>
        <path id="Trazado_874983" data-name="Trazado 874983" d="M161.128,150.621A25.5,25.5,0,0,1,148.07,153.1c-2.783-.22-5.583-.9-8.338-.429-3.274.572-6.159,2.729-9.126,4.353.343-1.825.629-3.665.891-5.5a27,27,0,0,0,9.563-3.61q.417-.243.834-.5a32.964,32.964,0,0,0,11.121,3.224,18.838,18.838,0,0,0,6.368-.271,11.787,11.787,0,0,0,2.644-.97l.348.58c-.409.224-.826.437-1.247.638" fill="#cd447e"/>
        <path id="Trazado_874984" data-name="Trazado 874984" d="M159.093,136.2a4.786,4.786,0,0,1-.973,4.886,4.3,4.3,0,0,1-.895.7,14.075,14.075,0,0,0-8.885-3.788c-.25-.015-.5-.031-.752-.034a6.623,6.623,0,0,0,2.391-2.938,16.78,16.78,0,0,0,.911-6.56,19.6,19.6,0,0,1,.724-6.6.916.916,0,0,1,.412-.58c.466-.208.863.41,1.018.913a44.762,44.762,0,0,1,1.774,8.329c.069.611.167,5.1.727,5.273a11.715,11.715,0,0,0,3.548.4" fill="#cd447e"/>
        <path id="Trazado_874985" data-name="Trazado 874985" d="M144.792,98.427c-.5-.526-.989-1.059-1.463-1.608a9.759,9.759,0,0,1-1.316-3,3,3,0,0,1,.233-2.053,7.354,7.354,0,0,1,.785-1.31c.547-.758,2.064-1.635.756-2.532a2.367,2.367,0,0,0-2.6-.2.859.859,0,0,1-1.3-.989c.923-2.231,1.013-3.17-.1-5.342a9.4,9.4,0,0,0-5.1-4.345,3.058,3.058,0,0,1-.989-.568c-.867-.82.331-1.705,1.725-2.315a15.058,15.058,0,0,1,5.427-1.214,14.73,14.73,0,0,1,10.218,3.417c1.018.9,1.958,1.975,2.955,2.937a10.694,10.694,0,0,1,.584,4.573,9.986,9.986,0,0,1-.294,1.627c-.049.178-.106.356-.163.53a10.9,10.9,0,0,1-.409,1.017c-.025.05-.049.1-.073.15l0,0v0c-1.156,2.462-3.134,4.526-4.806,6.718a18.073,18.073,0,0,0-2.072,3.3,10.467,10.467,0,0,0-.838,2.408c-.4-.394-.789-.792-1.169-1.2" fill="#030a12"/>
        <path id="Trazado_874986" data-name="Trazado 874986" d="M131.5,151.529c-.5.073-1,.128-1.5.158a14.192,14.192,0,0,1-10.847-3.714c-4.562-4.488-3.859-11.353-2.775-17.344a23.131,23.131,0,0,0,6.7,1.9c.622.1,1.01.135,1.01.135.012-.038.02-.077.029-.116a17.825,17.825,0,0,0,4.3-.556,6.1,6.1,0,0,0,.568.8c.368,1.492.846,2.957,1.267,4.449a15.812,15.812,0,0,0-4.561,1.074c-1.516.611-3.086,1.627-3.507,3.293a3.347,3.347,0,0,0,2.71,4.048l.9-.066c.009.1.021.193.033.29.115.92.4,1.774,1.006,1.082a2.132,2.132,0,0,0,.33-.7,2.333,2.333,0,0,0,1.9-.68,3.97,3.97,0,0,0,.756-1.279c2-1.195,4.01-2.374,6.094-3.39q1.11-.54,2.248-1.009c.494-.205,1-.394,1.5-.572a22.086,22.086,0,0,1,7.921-1.376c.249,0,.5.019.752.035a14.07,14.07,0,0,1,8.885,3.788,6.894,6.894,0,0,1-4.765.6,18.082,18.082,0,0,1-2.314-.65c-2.73,1.929-5.407,3.955-8.251,5.686q-.417.255-.834.5a27.021,27.021,0,0,1-9.564,3.61" fill="#edd6c0"/>
        <path id="Trazado_874987" data-name="Trazado 874987" d="M149.423,106.2l.041.012a17.093,17.093,0,0,1-4.9,3.034,10.489,10.489,0,0,1-7.091.321,8.106,8.106,0,0,1-4.655-4.04,24.051,24.051,0,0,1,2.5-.282,3.075,3.075,0,0,0,2.767-2.311c.147.224.3.452.454.684.094.143.192.282.294.429a12.853,12.853,0,0,1,6.115-2.721,6.361,6.361,0,0,0,4.479,4.874" fill="#edd6c0"/>
        <path id="Trazado_874988" data-name="Trazado 874988" d="M142.246,91.763a3,3,0,0,0-.233,2.053,9.77,9.77,0,0,0,1.316,3c.474.549.961,1.082,1.463,1.608v1.465a6.919,6.919,0,0,0,.152,1.43,12.853,12.853,0,0,0-6.115,2.721c-.1-.147-.2-.286-.294-.429a12.337,12.337,0,0,1,1.365-6.366c.388-.738.838-1.647.343-2.319-.531-.731-1.675-.557-2.566-.34a31.2,31.2,0,0,1-7.942.865,24.186,24.186,0,0,1-2.82-.865c-2.17-.847-.7-3.031-.11-3.777a1.218,1.218,0,0,0,.253-.595l.086-.742a1.155,1.155,0,0,1,.233-.573l.536-.7a1.178,1.178,0,0,0,.245-.711,1.212,1.212,0,0,0-.581-1.024,1.19,1.19,0,0,1-.2-1.879l2.522-2.4a1.209,1.209,0,0,0,.351-.654,8.244,8.244,0,0,1,3.454-5.059,3.058,3.058,0,0,0,.989.568,9.4,9.4,0,0,1,5.1,4.344c1.107,2.173,1.017,3.112.094,5.342a.859.859,0,0,0,1.3.99,2.363,2.363,0,0,1,2.6.2c1.308.9-.209,1.774-.756,2.532a7.438,7.438,0,0,0-.785,1.31" fill="#edd6c0"/>
        <path id="Trazado_874989" data-name="Trazado 874989" d="M143.557,185.962c-1.376-7.8-2.3-11.179-2.3-11.179s-2.4,4.679-5.174,11.179Z" fill="#182668"/>
        <path id="Trazado_874990" data-name="Trazado 874990" d="M136.086,185.962c2.776-6.5,5.174-11.179,5.174-11.179l.021-.128c-2.931-.44-5.808-1.109-8.755-1.484a32.252,32.252,0,0,0-3.723-.278l-4.587,13.069Z" fill="#324082"/>
        <path id="Trazado_874991" data-name="Trazado 874991" d="M138.081,102.93a27.194,27.194,0,0,1-3.376-6.4s-2.546-.448-4.97-1.071a31.139,31.139,0,0,0,7.941-.865c.891-.217,2.036-.391,2.567.34.5.672.045,1.581-.343,2.319a12.337,12.337,0,0,0-1.365,6.366q-.234-.348-.454-.684" fill="#dcc0af"/>
        <path id="Trazado_874992" data-name="Trazado 874992" d="M135.269,137.614a15.83,15.83,0,0,1,4.4,1.72c-.507.178-1.01.367-1.505.572q-1.14.469-2.247,1.009a4.223,4.223,0,0,0-2.387-.309,4.438,4.438,0,0,0-3.127,2.315c-.229.437-.388.924-.58,1.384a3.97,3.97,0,0,1-.756,1.279,2.338,2.338,0,0,1-1.9.681v0a2.163,2.163,0,0,1-1.116-.425l-.22.046c-.013-.1-.025-.193-.033-.29l-.9.066a3.347,3.347,0,0,1-2.71-4.047c.421-1.666,1.99-2.683,3.507-3.293a15.782,15.782,0,0,1,4.561-1.075,16.149,16.149,0,0,1,5.019.371" fill="#dcc0af"/>
        <path id="Trazado_874993" data-name="Trazado 874993" d="M133.495,136.025a7.127,7.127,0,0,1,1.774,1.589,16.15,16.15,0,0,0-5.019-.372c-.421-1.491-.9-2.957-1.267-4.448a7.966,7.966,0,0,0,.936.954,31.045,31.045,0,0,0,3.576,2.277" fill="#cd447e"/>
        <path id="Trazado_874994" data-name="Trazado 874994" d="M133.528,140.606a4.232,4.232,0,0,1,2.387.309c-2.085,1.017-4.095,2.2-6.094,3.39.192-.46.351-.947.58-1.384a4.44,4.44,0,0,1,3.127-2.315" fill="#dcc0af"/>
        <path id="Trazado_874995" data-name="Trazado 874995" d="M130.982,118.434c-.9.526-1.6,4.824-2.1,5.941-1.2,2.667-1.863,5.261-.462,7.615a17.825,17.825,0,0,1-4.3.557c1.316-4.96,1.422-12.1,6.87-14.113" fill="#cd447e"/>
        <path id="Trazado_874996" data-name="Trazado 874996" d="M127.164,146.261v0a2.153,2.153,0,0,1-.331.7c-.6.692-.891-.163-1-1.083l.22-.046a2.163,2.163,0,0,0,1.116.425" fill="#dcc0af"/>
        <path id="Trazado_874997" data-name="Trazado 874997" d="M132.374,82.455a4.188,4.188,0,0,1-1.077-.211.6.6,0,0,0,.081.695.69.69,0,0,0,.947.02.67.67,0,0,0,.24-.506,1.519,1.519,0,0,1-.191,0" fill="#444"/>
        <path id="Trazado_874998" data-name="Trazado 874998" d="M129.013,89.176a3.266,3.266,0,0,0-1.9.226" fill="none" stroke="#d6428b" stroke-linecap="round" stroke-linejoin="round" stroke-width="0.411"/>
        <path id="Trazado_874999" data-name="Trazado 874999" d="M130.79,80.633a6.488,6.488,0,0,1,4.054.211" fill="none" stroke="#9b786e" stroke-linecap="round" stroke-linejoin="round" stroke-width="0.365"/>
        <path id="Trazado_875000" data-name="Trazado 875000" d="M258.207,185.962l.115-8.1a18.61,18.61,0,0,1-6.079-1.184c-.847,3.078-1.645,6.173-2.317,9.281Z" fill="#456adf"/>
        <path id="Trazado_875001" data-name="Trazado 875001" d="M250.447,171.982a11.569,11.569,0,0,1-.975-1.307c-4.8-7.479-4.459-11.541-9.412-11.81-2.83-.155-4.115,3.809-6.3,7.122,4.09-17.349,1.666-38.512.121-48.359a.481.481,0,0,0-.95.063c-.331,18.328-4.852,30.392-8.888,37.567l-.005,0a33.6,33.6,0,0,1-6.384,8.56,5.1,5.1,0,0,1-1.126.023,11,11,0,0,1-4.182-1.433,15.842,15.842,0,0,1-1.654-1.045s6.3-14.313,6.778-30c0,0,0,0,0,0a49.511,49.511,0,0,0-1.323-13.569c-1.323-5.258-1.059-9.051.05-11.779l.013-.028a9.958,9.958,0,0,1,2.562-3.7c.079-.071.163-.146.247-.213a13.709,13.709,0,0,1,7.134-2.926c.067-.008.134-.016.2-.028.6-.071,1.117-.1,1.519-.111.561-.016.892,0,.892,0a7.308,7.308,0,0,1,1.939-.115,11.628,11.628,0,0,1,2.3.357c3.755.95,9.436,4.2,14.527,14.428a73.878,73.878,0,0,1,4.58,11.949c8.947,30.182,11.107,48.8,11.107,48.8a14.555,14.555,0,0,1-4.861.922,10.463,10.463,0,0,1-5.384-1.282,9.523,9.523,0,0,1-2.524-2.087" fill="#324082"/>
        <path id="Trazado_875002" data-name="Trazado 875002" d="M258.355,175.351l-.033,2.514a18.584,18.584,0,0,1-6.079-1.184c.238-.871.485-1.742.728-2.613a10.455,10.455,0,0,0,5.384,1.283" fill="#456adf"/>
        <path id="Trazado_875003" data-name="Trazado 875003" d="M252.971,174.068c-.243.871-.49,1.742-.728,2.613a17.609,17.609,0,0,1-3.525-1.786l1.729-2.914a9.508,9.508,0,0,0,2.524,2.087" fill="#456adf"/>
        <path id="Trazado_875004" data-name="Trazado 875004" d="M249.926,185.962c.672-3.108,1.47-6.2,2.317-9.281a17.636,17.636,0,0,1-3.525-1.786l-6.562,11.067Z" fill="#456adf"/>
        <path id="Trazado_875005" data-name="Trazado 875005" d="M250.447,171.982l-1.729,2.914c-.31-.2-.611-.416-.908-.637a17.537,17.537,0,0,1-4.89-5.749c-.829-1.564-.917-5.472-3.128-5.777s-3.215,3.425-4.253,4.755a15.644,15.644,0,0,1-1.9,2.051l-.686-.467c.293-1.014.565-2.043.808-3.085,2.185-3.313,3.47-7.277,6.3-7.122,4.953.269,4.614,4.331,9.412,11.81a11.569,11.569,0,0,0,.975,1.307" fill="#456adf"/>
        <path id="Trazado_875006" data-name="Trazado 875006" d="M242.156,185.962l6.562-11.067c-.31-.2-.611-.415-.909-.637a17.56,17.56,0,0,1-4.89-5.749c-.828-1.564-.916-5.472-3.127-5.777s-3.215,3.425-4.253,4.755a15.643,15.643,0,0,1-1.9,2.051c-3.031,2.7-6.46,3.346-10.642,4.181l-4.367,12.243Z" fill="#5f84f9"/>
        <path id="Trazado_875007" data-name="Trazado 875007" d="M213.769,73.825c-.138.1-.3.21-.469.348a3.178,3.178,0,0,1-1.143-1.179,2.874,2.874,0,0,1,.092-2.689,5.205,5.205,0,0,1,2.043-1.96,8.727,8.727,0,0,1,7.775-.372,4.525,4.525,0,0,0,2.549.729c1.306-.23,2.2-1.046,3.63-1.081,3.634-.1,5.221,2.751,6.707,5.436,1.063,1.912,1.465,3.872,2.482,5.741a4.233,4.233,0,0,1,.155,3.417c-.866,2.577-1.762,4.632-3.985,6.481a40.721,40.721,0,0,0-5.263,4.53c-.435.511-2.629,3.714-2.018,4.316-.937-.927-1.833-1.881-2.692-2.875a9.912,9.912,0,0,1-1.352-3.076,3.071,3.071,0,0,1,.239-2.1,7.582,7.582,0,0,1,.8-1.342c.565-.776,2.114-1.675.774-2.593a2.423,2.423,0,0,0-2.667-.21.881.881,0,0,1-1.331-1.014c.946-2.284,1.038-3.247-.1-5.472a8.491,8.491,0,0,0-1.863-2.415,11.021,11.021,0,0,0-3.358-2.035,3.123,3.123,0,0,1-1.013-.582" fill="#684fe0"/>
        <path id="Trazado_875008" data-name="Trazado 875008" d="M224.332,169.962a3.571,3.571,0,0,1-2.432-2.051,5.093,5.093,0,0,1,.1-2.831c.67-2.942,2.282-6.664,2.043-9.823,4.036-7.174,8.557-19.239,8.888-37.566a.481.481,0,0,1,.95-.064c1.545,9.847,3.969,31.01-.121,48.36-2,3.033-4.815,4.715-8.716,4.137a4.913,4.913,0,0,1-.712-.162" fill="#182668"/>
        <path id="Trazado_875009" data-name="Trazado 875009" d="M232.952,169.072l.687.467c-3.031,2.7-6.46,3.346-10.643,4.181l1.336-3.757a4.915,4.915,0,0,0,.712.162c3.9.578,6.719-1.1,8.716-4.137-.243,1.041-.515,2.07-.808,3.084" fill="#456adf"/>
        <path id="Trazado_875010" data-name="Trazado 875010" d="M222.519,89.488a3.069,3.069,0,0,0-.239,2.1,9.886,9.886,0,0,0,1.353,3.077c.858.994,1.754,1.948,2.692,2.874a10.654,10.654,0,0,1,.858-2.466c.883.661,1.787,1.3,2.616,1.936a34.4,34.4,0,0,0,3.2,2.237,11.533,11.533,0,0,0-2.3-.356,7.294,7.294,0,0,0-1.939.114s-.331-.019-.891,0c-.4.012-.921.04-1.52.111-.067.012-.134.02-.2.028a13.712,13.712,0,0,0-7.134,2.926c-.1-.151-.205-.293-.3-.44a12.612,12.612,0,0,1,1.4-6.521c.394-.756.854-1.686.348-2.375-.54-.749-1.717-.57-2.629-.349a31.889,31.889,0,0,1-8.135.887,24.232,24.232,0,0,1-2.884-.887c-2.224-.867-.721-3.1-.118-3.868a1.244,1.244,0,0,0,.26-.61l.088-.76a1.18,1.18,0,0,1,.238-.586l.549-.721a1.205,1.205,0,0,0,.251-.728,1.239,1.239,0,0,0-.59-1.049,1.218,1.218,0,0,1-.21-1.925l2.584-2.458a1.282,1.282,0,0,0,.364-.669,8.258,8.258,0,0,1,3.064-4.835c1.441.927,3.563,1.148,4.806,2.3,2.177,2.015,3.153,5.06,1.11,7.479a5.919,5.919,0,0,0-.724.914,1.066,1.066,0,0,0-.038,1.093,1.166,1.166,0,0,0,1.088.416,3.458,3.458,0,0,0,1.152-.416c1.44-.72,1.859-1.14,3.4-.408,1.34.919-.209,1.818-.774,2.594a7.643,7.643,0,0,0-.8,1.342" fill="#edd6c0"/>
        <path id="Trazado_875011" data-name="Trazado 875011" d="M224.1,85.553c-1.545-.732-1.964-.313-3.4.408a3.461,3.461,0,0,1-1.151.416,1.17,1.17,0,0,1-1.088-.416,1.068,1.068,0,0,1,.037-1.093,5.989,5.989,0,0,1,.724-.915c2.043-2.419,1.068-5.463-1.109-7.479l.033-.031A8.481,8.481,0,0,1,220,78.858c1.134,2.225,1.042,3.187.1,5.472a.88.88,0,0,0,1.331,1.013,2.423,2.423,0,0,1,2.667.21" fill="#684fe0"/>
        <path id="Trazado_875012" data-name="Trazado 875012" d="M220.467,92.731c.506.689.047,1.619-.348,2.376a12.618,12.618,0,0,0-1.4,6.521c-3.24-4.827-3.923-7.262-3.923-7.262s-2.608-.459-5.091-1.1a31.987,31.987,0,0,0,8.136-.887c.912-.222,2.089-.4,2.628.348" fill="#dcc0af"/>
        <path id="Trazado_875013" data-name="Trazado 875013" d="M218.14,76.442l-.034.032c-1.243-1.152-3.365-1.374-4.806-2.3.172-.138.331-.253.469-.348a3.129,3.129,0,0,0,1.014.582,11.028,11.028,0,0,1,3.357,2.035" fill="#684fe0"/>
        <path id="Trazado_875014" data-name="Trazado 875014" d="M184.183,140.307a5.7,5.7,0,0,1,.021-.934,45.984,45.984,0,0,0,22.624-16.665c3.717-5.247,6.175-11.186,9.382-16.725l-.013.028c-1.109,2.728-1.373,6.521-.05,11.779a49.511,49.511,0,0,1,1.323,13.569s0,0,0,0a44.69,44.69,0,0,1-4.576,3.8,49.685,49.685,0,0,1-7.9,5.119c-5.84,2.772-12.287,4.154-18.718,5.294-.167-.23-.322-.459-.469-.7a11.631,11.631,0,0,1-1.13-2.213,7.933,7.933,0,0,1-.5-2.36" fill="#182668"/>
        <path id="Trazado_875015" data-name="Trazado 875015" d="M216.528,163.845c.109,3.286.883,7.444-.2,10.611a1.366,1.366,0,0,1-1.038-1.378c.033-.764-.645-2.15-1.214-1.057-.348.657-.009,1.77-.025,2.483-.017.784,1.051,3.9.272,4.335-1,.547-2.726-2.874-3.01-3.555a11.882,11.882,0,0,1-.833-4.953,26.692,26.692,0,0,1,1.863-7.919,11.031,11.031,0,0,0,4.182,1.433" fill="#edd6c0"/>
        <path id="Trazado_875016" data-name="Trazado 875016" d="M212.842,79.748a4.171,4.171,0,0,1-1.026-.44.614.614,0,0,0-.084.711.7.7,0,0,0,.941.222.708.708,0,0,0,.36-.454,1.661,1.661,0,0,1-.191-.039" fill="#444"/>
        <path id="Trazado_875017" data-name="Trazado 875017" d="M208.855,87.085a3.225,3.225,0,0,0-1.626-.067" fill="none" stroke="#d6428b" stroke-linecap="round" stroke-linejoin="round" stroke-width="0.421"/>
        <path id="Trazado_875018" data-name="Trazado 875018" d="M212.4,76.59a6.041,6.041,0,0,1,2.6,3.074" fill="none" stroke="#9b786e" stroke-linecap="round" stroke-linejoin="round" stroke-width="0.374"/>
        <path id="Trazado_875019" data-name="Trazado 875019" d="M184.681,142.667a11.6,11.6,0,0,0,1.13,2.213c-3.3.753-7.242,2.1-10.579,1.723a1.4,1.4,0,0,1,1.239-1.232c.8-.111,2.11-1,.867-1.326-.75-.194-1.838.332-2.583.451-.817.127-3.856,1.715-4.451,1.069-.757-.819,2.47-3.076,3.124-3.464a13.6,13.6,0,0,1,4.986-1.715,24.893,24.893,0,0,1,5.769-.079,7.9,7.9,0,0,0,.5,2.36" fill="#edd6c0"/>
      </g>
    </g>
  </g>
</svg>
