<svg id="_38" data-name="38" xmlns="http://www.w3.org/2000/svg" xmlns:xlink="http://www.w3.org/1999/xlink" width="274.56" height="195.334" viewBox="0 0 274.56 195.334">
  <defs>
    <clipPath id="clip-path">
      <rect id="Rectángulo_401318" data-name="Rectángulo 401318" width="274.56" height="195.334" fill="none"/>
    </clipPath>
    <clipPath id="clip-path-3">
      <rect id="Rectángulo_401316" data-name="Rectángulo 401316" width="205.266" height="195.06" transform="translate(69.294 0.274)" fill="#f6f0ca"/>
    </clipPath>
  </defs>
  <g id="Enmascarar_grupo_1099137" data-name="Enmascarar grupo 1099137" clip-path="url(#clip-path)">
    <path id="Trazado_875275" data-name="Trazado 875275" d="M0,0H274.1V195.059H0Z" fill="#082952"/>
    <rect id="Rectángulo_401315" data-name="Rectángulo 401315" width="253.604" height="176.13" transform="translate(10.249 9.464)" fill="#0f1f33"/>
    <g id="Grupo_1099136" data-name="Grupo 1099136">
      <g id="Grupo_1099135" data-name="Grupo 1099135" clip-path="url(#clip-path)">
        <path id="Trazado_875020" data-name="Trazado 875020" d="M91.086,87.127c.094-.07.186-.141.281-.21.84-.614,1.685-1.22,2.521-1.838l-2.8,2.048" fill="#2b5070"/>
        <g id="Grupo_1099134" data-name="Grupo 1099134" style="isolation: isolate">
          <g id="Grupo_1099133" data-name="Grupo 1099133">
            <g id="Grupo_1099132" data-name="Grupo 1099132" clip-path="url(#clip-path-3)">
              <path id="Trazado_875021" data-name="Trazado 875021" d="M70.173,195.334H274.56V.274H181.183c-.02.7-.054,1.4-.108,2.1-3.726,48.378-44.368,84.394-74.361,106.021-14.362,10.356-29.03,20.487-34.45,42.03-2.725,10.835-3.184,22.418-2.895,33.811q.147,5.8.8,11.1" fill="#f6f0ca"/>
            </g>
          </g>
        </g>
        <path id="Trazado_875022" data-name="Trazado 875022" d="M163.965,140.373c-1.686,3.436,3.033,2.579,3.033,2.579.338,2.58,3.71.512,3.71.512,3.541,2.757,9.18-3.286,9.18-3.286.129.112.261.219.394.324a5.024,5.024,0,0,0,.408-.418,5.145,5.145,0,0,0,.792-4.56,8.5,8.5,0,0,0-.435-1.264c-.787-.463-1.236-.769-1.236-.769s-12.813-3.954-10.619-1.72a10.592,10.592,0,0,0,5.223,2.75c-.67,1.894-2.19,1.724-6.574,2.757s-3.876,3.1-3.876,3.1" fill="#edd6c0"/>
        <path id="Trazado_875023" data-name="Trazado 875023" d="M180.69,140.084a5.033,5.033,0,0,1-.409.418c5.875,4.731,13.936,6.2,13.936,6.2.1,0,.191,0,.283,0a19.21,19.21,0,0,1-9.533-10.452h0c-.964-.422-1.836-.858-2.576-1.247-.515-.274-.968-.529-1.34-.749a8.456,8.456,0,0,1,.434,1.264,5.141,5.141,0,0,1-.791,4.56" fill="#dcc0af"/>
        <path id="Trazado_875024" data-name="Trazado 875024" d="M184.967,136.255a19.221,19.221,0,0,0,9.533,10.454,23.184,23.184,0,0,0,2.4-.084c7.575-.606,11.363-4.525,13.233-7.9-.085-.582-.166-1.156-.247-1.706a16.073,16.073,0,0,1-6.865-2.976c-4.589,6.252-12.93,4.445-18.05,2.217" fill="#edd6c0"/>
        <path id="Trazado_875025" data-name="Trazado 875025" d="M203.018,134.038a16.055,16.055,0,0,0,6.865,2.976c-.453-3.032-.884-5.549-1.182-7.2a44.539,44.539,0,0,0-4.785-6.534,29.918,29.918,0,0,0-3.036,8.494,8.739,8.739,0,0,0,2.138,2.266" fill="#4e35c6"/>
        <path id="Trazado_875026" data-name="Trazado 875026" d="M210.365,87.977a6.1,6.1,0,0,1,3.74,2.252c-.255-.341,1.965-1.521,2.219-1.615a5.953,5.953,0,0,1,3.061-.3,3.684,3.684,0,0,1,3.218,4.529,11.573,11.573,0,0,1-1.664,3.975c.608.021,1.174.411,1.672.251-.088-.54,1.151-1.02,1.649-1.166.879-.254,1.965.212,1.733,1.291a1.876,1.876,0,0,1-.89,1.013,5.383,5.383,0,0,0-1.955,1.755,17.223,17.223,0,0,0-1.311,3.2c.255.08.513.16.766.244a3.963,3.963,0,0,1,1.23-1.97l1.02.313a7.072,7.072,0,0,1,2.226-1.824c1.56-.857,3.345-1.466,4.5-2.775s1.233-3.676-.39-4.413a4.059,4.059,0,0,0,1.254-4.776,9.761,9.761,0,0,0-3.459-4.059A32.053,32.053,0,0,0,214.672,77.8c.168,1.163.338,2.322.506,3.484a31.98,31.98,0,0,1-6.966-3.275,7.836,7.836,0,0,0,.552,3.766q-.918-.631-1.829-1.263c-2.08,3.254-1.447,7.031.6,10.1a5.568,5.568,0,0,1,.836,2.871,18.1,18.1,0,0,1,1.991-5.51" fill="#1a2668"/>
        <path id="Trazado_875027" data-name="Trazado 875027" d="M212.989,108a7.792,7.792,0,0,0,1.174-.021,11.25,11.25,0,0,0,1.933-.365q2.942-1.646,5.878-3.29a2.12,2.12,0,0,1,.486-.219,5.32,5.32,0,0,1,.1-.547c.011-.048.026-.094.04-.142-.254-.084-.511-.164-.765-.244a17.134,17.134,0,0,1,1.31-3.2,5.4,5.4,0,0,1,1.954-1.754,1.87,1.87,0,0,0,.891-1.013c.232-1.079-.854-1.546-1.733-1.292-.5.147-1.738.627-1.649,1.167-.5.16-1.064-.23-1.671-.251a11.571,11.571,0,0,0,1.663-3.975,3.684,3.684,0,0,0-3.217-4.529,5.956,5.956,0,0,0-3.062.3c-.254.094-2.474,1.274-2.22,1.615a6.1,6.1,0,0,0-3.739-2.252,18.1,18.1,0,0,0-1.991,5.51c.121,2.534-.8,5.493-.693,7.909.081,1.96.438,4.094,1.981,5.4a5.571,5.571,0,0,0,3.327,1.2" fill="#edd6c0"/>
        <path id="Trazado_875028" data-name="Trazado 875028" d="M233.837,125.548a28.315,28.315,0,0,1,4.608,11.731c.391-.087.777-.181,1.16-.275a36.554,36.554,0,0,0,8.193-3.192c.089-.045.173-.094.261-.143a5.3,5.3,0,0,0,1.079-.748,2.64,2.64,0,0,0,.611-.794c.552-1.131.092-2.475-.364-3.644-3.291-8.383-7.362-17.012-17.451-17.58-1.137-.069-2.286-.013-3.427-.031-.077,0-.158,0-.239,0a20.828,20.828,0,0,1-.747,7.057c-.8,2.335-2.614,4.466-5,4.9a7.16,7.16,0,0,1-5.058-1.291,12.093,12.093,0,0,1-4.785-6.43l-.066-.209a19.071,19.071,0,0,0-8.694,8.382,44.646,44.646,0,0,1,4.785,6.534c.3,1.654.729,4.171,1.182,7.2.081.55.162,1.124.246,1.705,0,.021.008.046.011.067a168.052,168.052,0,0,1,1.852,22.369l.486,0c0,2.085.143,5.713.382,10.339a51.753,51.753,0,0,0,11.256,2.952c-.029-.195-.062-.393-.092-.585a.026.026,0,0,1-.007-.021,26.738,26.738,0,0,0-.637-3.261,10.194,10.194,0,0,1-.4-4.439,6.988,6.988,0,0,1,.67-2.12c.081-.163.166-.32.261-.477a5.958,5.958,0,0,1,1.377-1.58,8.393,8.393,0,0,0,1.66-1.264c.206-.247.412-.494.629-.734v0c.254-.285.508-.557.762-.832,2.485-2.649,5.153-5.106,7.579-7.815a15.361,15.361,0,0,0,.994-1.239c-.111-8.017-1.634-16.521-3.07-24.524" fill="#684fe0"/>
        <path id="Trazado_875029" data-name="Trazado 875029" d="M211.991,161.155a56.008,56.008,0,0,1-.714,9.66s.559.271,1.583.675c-.24-4.626-.383-8.253-.383-10.338Z" fill="#684fe0"/>
        <path id="Trazado_875030" data-name="Trazado 875030" d="M218.761,106.708c-.063-.063-.155,0-.192.073l.192-.073m3.213-2.388a2.159,2.159,0,0,1,.486-.219,5.6,5.6,0,0,0-.044.623,8.083,8.083,0,0,0,.257,2.022c.048.188.1.376.159.561a5.07,5.07,0,0,1-.788.908,11.485,11.485,0,0,1-2.86,1.727q-2.451,1.164-4.9,2.329l-.393-1.288-.839-2.761-.067-.226a7.792,7.792,0,0,0,1.174-.021,11.346,11.346,0,0,0,1.933-.365c1.962-1.1,3.916-2.2,5.878-3.29" fill="#dcc0af"/>
        <path id="Trazado_875031" data-name="Trazado 875031" d="M214.053,114.346c-.346.209-.813.473-1.377.759a12.093,12.093,0,0,0,4.785,6.43,7.161,7.161,0,0,0,5.058,1.291c2.389-.435,4.2-2.566,5-4.9a20.8,20.8,0,0,0,.747-7.057c.081,0,.162,0,.239,0v0c-.349-.01-.7-.027-1.045-.059a9.585,9.585,0,0,1-1.274-.191,12.458,12.458,0,0,1-2.05,7.327c-3.386,5.062-8.1.265-10.085-3.6" fill="#4e35c6"/>
        <path id="Trazado_875032" data-name="Trazado 875032" d="M214.222,114.241c-.052.035-.11.07-.169.105,1.987,3.863,6.7,8.66,10.085,3.6a12.468,12.468,0,0,0,2.05-7.328,4.114,4.114,0,0,1-3.29-3.094c-.023-.07-.048-.143-.067-.216a5.025,5.025,0,0,1-.787.908,11.485,11.485,0,0,1-2.86,1.727q-2.453,1.164-4.9,2.329l.49,1.615s-.2.136-.556.355" fill="#edd6c0"/>
        <path id="Trazado_875033" data-name="Trazado 875033" d="M228.577,185.129l.159-3.3a5.479,5.479,0,0,1-1.8.717,5.636,5.636,0,0,1-.6.088,1.977,1.977,0,0,1-1.192-.248,2.228,2.228,0,0,1-1.108-2.283,19.294,19.294,0,0,0,.08-5.66,51.813,51.813,0,0,1-11.254-2.952c.2,3.936.476,8.6.793,13.638Z" fill="#324082"/>
        <path id="Trazado_875034" data-name="Trazado 875034" d="M222.6,103.412l1.546.491a3.113,3.113,0,0,1,.7-2.148l-1.02-.313a3.982,3.982,0,0,0-1.229,1.97" fill="#1a2668"/>
        <path id="Trazado_875035" data-name="Trazado 875035" d="M232.39,172.239a3.87,3.87,0,0,0,3.434.164.624.624,0,0,0,.092-1.052,14.889,14.889,0,0,1-2.691-2.583,9.557,9.557,0,0,1-.931-1.82c-.18-.411-.371-.839-.592-1.25a6.345,6.345,0,0,0-.556-.887,3.637,3.637,0,0,0-2.043-1.431c-.184-.049-.773-.213-1.192-.3a4.061,4.061,0,0,0-2.143,1.532,2.712,2.712,0,0,0-2.124-.592,6.986,6.986,0,0,0-.669,2.12,10.172,10.172,0,0,0,.4,4.438,26.38,26.38,0,0,1,.637,3.262.024.024,0,0,0,.008.021,16.881,16.881,0,0,0,2.028-.526,17.128,17.128,0,0,0,1.921-.748,16.884,16.884,0,0,0,1.623-.846c.361-.213.714-.432,1.06-.672a8.107,8.107,0,0,0,1.734,1.173" fill="#edd6c0"/>
        <path id="Trazado_875036" data-name="Trazado 875036" d="M237.591,160.257c1.2-1.163,2.58-2.513,4.152-4.083l-.4.143a54.954,54.954,0,0,1-6.994,1.594,41.607,41.607,0,0,0-6.772,2.047v0c-.217.24-.424.487-.63.735a8.4,8.4,0,0,1-1.66,1.263,5.941,5.941,0,0,0-1.376,1.581c-.1.156-.181.313-.262.477a2.715,2.715,0,0,1,2.124.591,4.059,4.059,0,0,1,2.143-1.531c.419.09,1.008.254,1.192.3a3.64,3.64,0,0,1,2.043,1.43,6.415,6.415,0,0,1,.556.888c1.218-1.048,3.091-2.74,5.889-5.441" fill="#dcc0af"/>
        <path id="Trazado_875037" data-name="Trazado 875037" d="M224.035,180.1a2.23,2.23,0,0,0,1.108,2.284,17.826,17.826,0,0,0,1.078-7.68q-.054-.694-.169-1.375a16.467,16.467,0,0,1-2.028.526c.029.192.062.39.092.585a19.328,19.328,0,0,1-.081,5.66" fill="#edd6c0"/>
        <path id="Trazado_875038" data-name="Trazado 875038" d="M231.372,185.129l.153-4.187a.593.593,0,0,1,.663-.554l-1.013-1.361a7.656,7.656,0,0,1-1.163,1.727,5.664,5.664,0,0,1-1.276,1.075l-.159,3.3Z" fill="#1a2668"/>
        <path id="Trazado_875039" data-name="Trazado 875039" d="M225.143,182.386a1.986,1.986,0,0,0,1.193.247,5.361,5.361,0,0,0,.6-.087,21.791,21.791,0,0,0,1.042-9.963,17.221,17.221,0,0,1-1.922.749c.077.452.133.912.169,1.375a17.821,17.821,0,0,1-1.078,7.679" fill="#edd6c0"/>
        <path id="Trazado_875040" data-name="Trazado 875040" d="M236.906,150.072a15.364,15.364,0,0,1-.994,1.239c-2.425,2.709-5.094,5.166-7.578,7.815-.255.275-.508.547-.762.832a41.805,41.805,0,0,1,6.772-2.047,54.614,54.614,0,0,0,6.994-1.594l.4-.143c.287-.289.585-.585.887-.887a20.533,20.533,0,0,0,4.553-6.855,25.288,25.288,0,0,0,.876-14.763c-.089.049-.173.1-.262.143A36.6,36.6,0,0,1,239.6,137c.464,3.443.442,8.689-2.7,13.068" fill="#edd6c0"/>
        <path id="Trazado_875041" data-name="Trazado 875041" d="M227.973,172.584a21.74,21.74,0,0,1-1.042,9.963,5.475,5.475,0,0,0,1.8-.717l.2-4.216a.565.565,0,0,1,.987-.271l.5.675a16.214,16.214,0,0,0-.828-6.28,16.884,16.884,0,0,1-1.623.846" fill="#edd6c0"/>
        <path id="Trazado_875042" data-name="Trazado 875042" d="M228.938,177.614l-.2,4.216a5.679,5.679,0,0,0,1.277-1.076,15.247,15.247,0,0,0,.412-2.736l-.5-.676a.564.564,0,0,0-.986.272" fill="#edd6c0"/>
        <path id="Trazado_875043" data-name="Trazado 875043" d="M229.6,171.738a16.214,16.214,0,0,1,.828,6.28l.751,1.009a10.033,10.033,0,0,0,.49-1.1s.305-1.316.522-2.955a22.938,22.938,0,0,0,.2-2.733,8.082,8.082,0,0,1-1.734-1.173c-.346.24-.7.46-1.06.672" fill="#edd6c0"/>
        <path id="Trazado_875044" data-name="Trazado 875044" d="M230.425,178.018a15.247,15.247,0,0,1-.412,2.736,7.7,7.7,0,0,0,1.163-1.727Z" fill="#edd6c0"/>
        <path id="Trazado_875045" data-name="Trazado 875045" d="M232.7,180.719l.375.853,1.558,3.557h18.617l-3.961-13.415a79.452,79.452,0,0,1-10.729,2.7c-.578.094-1.156.174-1.727.24a44.5,44.5,0,0,1-4.641.317c-.217,1.639-.523,2.955-.523,2.955a10.033,10.033,0,0,1-.489,1.1l1.012,1.361a.592.592,0,0,1,.508.331" fill="#1a2668"/>
        <path id="Trazado_875046" data-name="Trazado 875046" d="M237.591,160.257c-2.8,2.7-4.671,4.393-5.889,5.441.221.411.412.839.592,1.25a9.587,9.587,0,0,0,.931,1.82,14.924,14.924,0,0,0,2.691,2.583.623.623,0,0,1-.092,1.051,3.87,3.87,0,0,1-3.434-.163,22.905,22.905,0,0,1-.2,2.732,44.788,44.788,0,0,0,4.642-.316c.571-.066,1.148-.147,1.726-.24-.195-4.247-.541-8.759-.964-14.158" fill="#684fe0"/>
        <path id="Trazado_875047" data-name="Trazado 875047" d="M238.445,137.279a28.323,28.323,0,0,0-4.608-11.731c1.435,8,2.959,16.507,3.069,24.524,3.14-4.379,3.162-9.625,2.7-13.068-.383.094-.77.188-1.16.275" fill="#4e35c6"/>
        <path id="Trazado_875048" data-name="Trazado 875048" d="M249.285,171.713c.751-.254,1.439-.505,2.028-.752a143.488,143.488,0,0,1-3.648-18.355l-.717.076c-1.108,2-3.092,2.747-5.205,3.492-1.572,1.57-2.948,2.92-4.152,4.083.424,5.4.769,9.91.965,14.157a79.3,79.3,0,0,0,10.729-2.7" fill="#4e35c6"/>
        <path id="Trazado_875049" data-name="Trazado 875049" d="M242.63,155.286c-.3.3-.6.6-.887.888,2.113-.745,4.1-1.494,5.205-3.492l.717-.076c-.055-.456-.1-.912-.151-1.365-.1-.957-.206-1.9-.331-2.809a20.524,20.524,0,0,1-4.553,6.854" fill="#4e35c6"/>
        <path id="Trazado_875050" data-name="Trazado 875050" d="M216.206,95.346a.6.6,0,0,0,.735.2.428.428,0,0,0,.205-.632.594.594,0,0,0-.735-.2.429.429,0,0,0-.205.632" fill="#444"/>
        <path id="Trazado_875051" data-name="Trazado 875051" d="M210.428,94.624a.531.531,0,0,0,.562.462.485.485,0,0,0,.516-.474.53.53,0,0,0-.562-.462.485.485,0,0,0-.516.474" fill="#444"/>
        <path id="Trazado_875052" data-name="Trazado 875052" d="M213.177,94.377a5.756,5.756,0,0,1-.866,2.975,1.022,1.022,0,0,0-.23.623c.042.384.508.623.914.79" fill="none" stroke="#9b786e" stroke-linecap="round" stroke-linejoin="round" stroke-width="0.334"/>
        <path id="Trazado_875053" data-name="Trazado 875053" d="M214.954,102.037a3.568,3.568,0,0,0-3.168-1.528" fill="none" stroke="#d6428b" stroke-linecap="round" stroke-linejoin="round" stroke-width="0.369"/>
        <path id="Trazado_875054" data-name="Trazado 875054" d="M218.76,92.226a5.4,5.4,0,0,0-3.133.912" fill="none" stroke="#9b786e" stroke-linecap="round" stroke-linejoin="round" stroke-width="0.37"/>
        <path id="Trazado_875055" data-name="Trazado 875055" d="M212.059,93.031a5.268,5.268,0,0,0-2.761-1.685" fill="none" stroke="#9b786e" stroke-linecap="round" stroke-linejoin="round" stroke-width="0.37"/>
        <path id="Trazado_875056" data-name="Trazado 875056" d="M210.708,100.114c-.517.1-.972.418-1.021.805a39.269,39.269,0,0,1,6.038.979,2.252,2.252,0,0,0-.686-.722,6.951,6.951,0,0,0-2.424-.908,4.873,4.873,0,0,0-1.907-.154" fill="#fff"/>
        <path id="Trazado_875057" data-name="Trazado 875057" d="M209.687,100.919a.544.544,0,0,0,.014.215,2.474,2.474,0,0,0,.55.767c.2.251.338.579.132.8-.076.081-.194.141-.239.236-.118.233.241.466.549.6a7.45,7.45,0,0,0,2.805.7c1.785.015,2.855-1.214,2.227-2.337a39.13,39.13,0,0,0-6.038-.98" fill="#e75e98"/>
        <path id="Trazado_875058" data-name="Trazado 875058" d="M144.876,91.594h0a3.349,3.349,0,0,0,2.12-1.18,2.9,2.9,0,0,0-.048-2.774,8.023,8.023,0,0,0-5.8-4.442,10.743,10.743,0,0,0-5.371.2,18.43,18.43,0,0,0-8.716,2.266c-2.186,1.212-4.2,3.088-4.5,5.469-.174,1.4.272,2.809.165,4.212-.21,2.74-2.459,4.957-4.884,6.468s-5.168,2.6-7.325,4.435-3.651,4.79-2.576,7.341c.743,1.762,2.635,3.276,2.271,5.142-.343,1.765-2.455,2.569-4.178,3.317a19.084,19.084,0,0,0-11.168,13.817,10.223,10.223,0,0,0,1.344,7.8,9.429,9.429,0,0,0,4.546,3.217,28.481,28.481,0,0,1,5.311.031c.777.038,1.561.056,2.345.035a14.215,14.215,0,0,0,4.715-7.492.268.268,0,0,1,.007-.027c.758-3.283.442-7.074,2.845-9.549a9.266,9.266,0,0,1,3.688-2.13c.645-.223,1.307-.421,1.966-.623a13.122,13.122,0,0,0,5.44-2.562c2.054-1.939,2.47-4.978,2.076-7.7a46.176,46.176,0,0,0-1.354-5.458c-.236-.85-.449-1.7-.6-2.562-.49-2.705-.295-5.727,1.553-7.847,1.149-1.316,2.812-2.144,4.071-3.369a7.833,7.833,0,0,0,2.349-5.72c.276.025.548.052.8.084a27.274,27.274,0,0,0,8.524-.313c.126-.025.251-.053.376-.084" fill="#e75e98"/>
        <path id="Trazado_875059" data-name="Trazado 875059" d="M121.326,185.129c.142-5.237.032-10.488-1.424-15.452,4.207,1.845,5.308,3.314,5.308,3.314l3.445,6.1,3.415,6.043h17.371l-6.3-18.285a110.472,110.472,0,0,0-30.543-8.477,13.381,13.381,0,0,0-.637,1.995s-1.684,9.686-.446,24.767Z" fill="#1dd5e1"/>
        <path id="Trazado_875060" data-name="Trazado 875060" d="M137.754,104.084a2.571,2.571,0,0,1,.129-.359,15.606,15.606,0,0,1,1.483-1.966,4.849,4.849,0,0,0,.515-3.823c-.371-1.549-1.748-2.952-1.483-4.556a9.764,9.764,0,0,1,.273-1.2,26.738,26.738,0,0,1-2.7-.191c-.254-.032-.526-.06-.8-.084a7.829,7.829,0,0,1-2.348,5.719c-1.259,1.226-2.923,2.054-4.071,3.37-1.848,2.12-2.043,5.142-1.554,7.846.155.864.368,1.713.6,2.563a46.176,46.176,0,0,1,1.354,5.458c.394,2.719-.022,5.757-2.076,7.7a13.1,13.1,0,0,1-5.44,2.562c-.659.2-1.321.4-1.965.624a9.247,9.247,0,0,0-3.688,2.13c-2.4,2.475-2.087,6.266-2.846,9.548a.23.23,0,0,1-.007.028,14.215,14.215,0,0,1-4.715,7.492,13.475,13.475,0,0,0,5.234-1.076,7.566,7.566,0,0,0,3.364-2.962,5.028,5.028,0,0,0,.729-2.771c-.063-1.306-.67-2.583-.5-3.882a3.781,3.781,0,0,1,1.208-2.238,6.573,6.573,0,0,1,2.606-1.476c.066-.021.132-.042.2-.059a29.145,29.145,0,0,1,5.951-.533c2-.125,4.1-.557,5.5-1.914,2-1.946,1.855-5.076,1.16-7.711-.891-3.363-2.22-6.353-.376-8.887a6.98,6.98,0,0,1,1.8-1.664,5.764,5.764,0,0,0,2.529-2.618c.548-1.625-.534-3.463-.07-5.065Z" fill="#cd447e"/>
        <path id="Trazado_875061" data-name="Trazado 875061" d="M113.111,157.225c-.188.376-.361.755-.515,1.142a110.48,110.48,0,0,1,30.543,8.476l-2.039-5.925a45.728,45.728,0,0,1-4.623-.066c-2.857-.132-5.566-1.131-8.308-1.886a49.942,49.942,0,0,0-15.058-1.741" fill="#1abbc7"/>
        <path id="Trazado_875062" data-name="Trazado 875062" d="M141.416,117.963a3.048,3.048,0,0,1,1.8-2.325,6.357,6.357,0,0,1,5.426-.14c-1.5-1.336-3.25-1.695-5.411-2.147a6.481,6.481,0,0,1-1.8-.676,20.347,20.347,0,0,1-4.62,1.055,9.31,9.31,0,0,1-3.316-.3c-1.844,2.534-.515,5.525.375,8.887.7,2.635.843,5.765-1.159,7.711-1.4,1.357-3.5,1.789-5.5,1.914a29.161,29.161,0,0,0-5.952.533c-.066.017-.132.038-.2.059-.014.348-.026.693-.029,1.041-.022,1.64.051,3.293.051,4.94a21.036,21.036,0,0,1-.784,6.38c-.055.178-.114.352-.176.526-1.524,4.247-5.025,7.756-7.012,11.8a49.973,49.973,0,0,1,15.058,1.74c2.742.756,5.451,1.755,8.307,1.887a45.736,45.736,0,0,0,4.623.066,10.751,10.751,0,0,0,3.891-.856c0-.084,0-.167,0-.251-.56-5.173-4.027-10.036-4.774-15.282a5.734,5.734,0,0,1,1.086-4.849c.924-.992,2.341-1.058,3.574-1.751a13.92,13.92,0,0,1,1.984-.744q.414-2.424.913-4.829c-4.995-6.37-6.972-11.48-6.357-14.394" fill="#5f84f9"/>
        <path id="Trazado_875063" data-name="Trazado 875063" d="M117.248,136.252c-.169,1.3.438,2.576.5,3.881a5.024,5.024,0,0,1-.729,2.771c1.042.839,2.09,1.643,3.1,2.521.062-.174.121-.348.176-.526a21.039,21.039,0,0,0,.784-6.381,8.765,8.765,0,0,1-2.462-3.749,6.025,6.025,0,0,1-.166-.755,3.78,3.78,0,0,0-1.207,2.238" fill="#456adf"/>
        <path id="Trazado_875064" data-name="Trazado 875064" d="M118.455,134.014a5.853,5.853,0,0,0,.166.755,8.765,8.765,0,0,0,2.462,3.75c0-1.647-.073-3.3-.052-4.94,0-.348.015-.693.03-1.041a6.575,6.575,0,0,0-2.606,1.476" fill="#456adf"/>
        <path id="Trazado_875065" data-name="Trazado 875065" d="M121.326,185.129H128c.29-2.2.513-4.235.651-6.043l-3.445-6.1s-1.1-1.469-5.308-3.314c1.456,4.964,1.566,10.215,1.424,15.452" fill="#1abbc7"/>
        <path id="Trazado_875066" data-name="Trazado 875066" d="M135.295,111.77a6.98,6.98,0,0,0-1.8,1.664,9.335,9.335,0,0,0,3.316.3,20.335,20.335,0,0,0,4.62-1.055c-1.542-.849-2.676-2.322-1.719-3.993a5.067,5.067,0,0,1,2.808-2.224,25.649,25.649,0,0,1,2.566-.338l-.011-.062a23.6,23.6,0,0,1-7.321-1.971c-.464,1.6.618,3.439.07,5.065a5.764,5.764,0,0,1-2.529,2.618" fill="#dcc0af"/>
        <path id="Trazado_875067" data-name="Trazado 875067" d="M137.754,104.084v0a23.6,23.6,0,0,0,7.321,1.971l.011.062a3.261,3.261,0,0,0,1.973-.856,2.418,2.418,0,0,0,.5-2.534.245.245,0,0,0-.228-.146c-1.005-.046-1.977-.578-1.808-1.591a2.387,2.387,0,0,1,1.734-1.229.233.233,0,0,0,.228-.31c-.644-1.459.869-1.365,1.016-2.5a1.258,1.258,0,0,0-.335-1c-.964-1.09-2.72-2.34-3.147-3.777a5.636,5.636,0,0,1-.14-.585c-.125.031-.25.059-.375.083a26.636,26.636,0,0,1-5.83.5,9.764,9.764,0,0,0-.273,1.2c-.265,1.6,1.112,3.007,1.483,4.556a4.849,4.849,0,0,1-.515,3.823,15.606,15.606,0,0,0-1.483,1.966,2.571,2.571,0,0,0-.129.359" fill="#edd6c0"/>
        <path id="Trazado_875068" data-name="Trazado 875068" d="M141.3,139.681a5.733,5.733,0,0,0-1.086,4.849c.747,5.246,4.215,10.109,4.774,15.282a132.924,132.924,0,0,1,1.87-22.627,13.8,13.8,0,0,0-1.984.745c-1.233.693-2.65.759-3.574,1.751" fill="#456adf"/>
        <path id="Trazado_875069" data-name="Trazado 875069" d="M141.416,117.963c-.615,2.914,1.362,8.024,6.357,14.394.132-.64.272-1.281.412-1.918a77.859,77.859,0,0,1-6.769-12.476" fill="#456adf"/>
        <path id="Trazado_875070" data-name="Trazado 875070" d="M148.645,115.5a6.354,6.354,0,0,0-5.425.139,3.05,3.05,0,0,0-1.8,2.326,77.945,77.945,0,0,0,6.769,12.476,37.035,37.035,0,0,0,3.246,4.013,22.228,22.228,0,0,0,13.921,6.705,4.052,4.052,0,0,0,.2-.456c1.534-4.129,2.837-10.022,3.883-21.391a8.582,8.582,0,0,1-4.988-2.461,92.268,92.268,0,0,0-4.442,16.34.867.867,0,0,1-1.613.174l-7.4-15.9a6.015,6.015,0,0,0-2.352-1.967" fill="#5f84f9"/>
        <path id="Trazado_875071" data-name="Trazado 875071" d="M148.185,130.439c-.14.637-.28,1.277-.412,1.918a85.921,85.921,0,0,0,9.511,10.1,5.227,5.227,0,0,0,8.068-1.3,22.231,22.231,0,0,1-13.921-6.7,37.046,37.046,0,0,1-3.246-4.014" fill="#456adf"/>
        <path id="Trazado_875072" data-name="Trazado 875072" d="M165.786,114.026a25.815,25.815,0,0,0-1.336,2.823,8.567,8.567,0,0,0,4.987,2.461c.019-.208.037-.417.056-.63,0,0,3.982-2.906,13.214-5.075a.819.819,0,0,0,.191-1.556c-.994-.5-2.661-.811-5.367-.119a34.8,34.8,0,0,1-8.392,1.341l2.043-2.538c.062-.077.033-.157-.066-.185-1.035-.288-3.213-.3-5.33,3.478" fill="#edd6c0"/>
        <path id="Trazado_875073" data-name="Trazado 875073" d="M143.381,94.829a3.8,3.8,0,0,0,.97-.19.541.541,0,0,1-.073.626.623.623,0,0,1-.853.018.6.6,0,0,1-.216-.456,1.409,1.409,0,0,0,.172,0" fill="#444"/>
        <path id="Trazado_875074" data-name="Trazado 875074" d="M144.41,92.2a5.506,5.506,0,0,0-2.855,2.161" fill="none" stroke="#9b786e" stroke-linecap="round" stroke-linejoin="round" stroke-width="0.329"/>
      </g>
    </g>
  </g>
</svg>
