<svg xmlns="http://www.w3.org/2000/svg" xmlns:xlink="http://www.w3.org/1999/xlink" width="274.102" height="195.06" viewBox="0 0 274.102 195.06">
  <defs>
    <clipPath id="clip-path">
      <rect id="Rect치ngulo_401324" data-name="Rect치ngulo 401324" width="274.102" height="195.059" fill="none"/>
    </clipPath>
  </defs>
  <g id="_39" data-name="39" transform="translate(0 0.001)">
    <path id="Trazado_875276" data-name="Trazado 875276" d="M0,0H274.1V195.06H0Z" transform="translate(0 -0.001)" fill="#082952"/>
    <rect id="Rect치ngulo_401323" data-name="Rect치ngulo 401323" width="253.604" height="176.13" transform="translate(10.249 9.464)" fill="#f6f0ca"/>
    <g id="Grupo_1099143" data-name="Grupo 1099143">
      <g id="Grupo_1099142" data-name="Grupo 1099142" clip-path="url(#clip-path)">
        <path id="Trazado_875075" data-name="Trazado 875075" d="M10.249,9.218V185.287H66.357c5.977-9.038,9.385-19.4,8.544-30.12-.858-10.946-5.916-22.3-1.646-32.458,5.261-12.511,21.183-15.954,34.116-20.766,29.663-11.036,52.4-38.658,56.2-69.459a77.451,77.451,0,0,0-.712-23.266Z" fill="#0f1f33"/>
        <path id="Trazado_875076" data-name="Trazado 875076" d="M268.935,120.052a15.157,15.157,0,0,1,0,2.363c-.2,2.628-1.017,5.2-1.384,7.8a25.724,25.724,0,0,0-9.939-8.353,7.77,7.77,0,0,1-2.644-1.655,2.014,2.014,0,0,1-.1-2.747,2.6,2.6,0,0,1,1.453-.553c4.364-.522,8.353,3.438,12.611,3.146" fill="#755ced"/>
        <path id="Trazado_875077" data-name="Trazado 875077" d="M244.986,124.393q-1.231-.933-2.39-1.947-.8-.7-1.559-1.441-.531-.521-1.034-1.062a32.432,32.432,0,0,1-3.842-5.126,43.787,43.787,0,0,1-2.877-5.632c-.118-.28-.236-.563-.351-.845-.422-1.038-.811-2.085-1.175-3.142a66.291,66.291,0,0,1,1.579-13.462c-.819-1.788-3.169-3.538-2.564-5.613a4.738,4.738,0,0,1,1.11-1.693q1.134.809,2.265,1.619c.906,2.562,1.139,5.376,2.171,7.921,1.78,4.4,5.752,7.608,9.621,10.592a17.458,17.458,0,0,1-.183,2.128c.429.092.868.171,1.315.232a43,43,0,0,1-1.3,8.935c-.075.313-.12.7.2.888.851.511,1.127-.893,1.652-1.168.954.995.314,5.307,2.132,5.345,1.278.023,2.312-2.7,2.493-3.457a6.628,6.628,0,0,0,.15-1.819v-.005a13.548,13.548,0,0,0-.921-5.017,9.9,9.9,0,0,1-.5-3.5c.58-.017,1.158-.057,1.725-.121l.163.121a21.742,21.742,0,0,0,7.065,2.844l4.745,1.29c.083.1.163.206.246.308.711.876,1.474,1.714,2.092,2.648a12.284,12.284,0,0,1,1.928,5.841c-4.258.292-8.248-3.669-12.611-3.146a2.6,2.6,0,0,0-1.454.553,2.015,2.015,0,0,0,.1,2.747,7.806,7.806,0,0,0,2.643,1.655,25.728,25.728,0,0,1,9.94,8.353,15.948,15.948,0,0,0-.171,2.9,11.86,11.86,0,0,0,.121,1.26,68.037,68.037,0,0,1-7.914-2.265,53.912,53.912,0,0,1-14.6-7.714" fill="#8683ff"/>
        <path id="Trazado_875078" data-name="Trazado 875078" d="M252.865,106.984q.045-1.065.058-2.137a36.157,36.157,0,0,0,10.61,4.538,8.29,8.29,0,0,0,1.136,1.871l-4.745-1.29a21.751,21.751,0,0,1-7.065-2.844c0-.045.006-.09.006-.138" fill="#755ced"/>
        <path id="Trazado_875079" data-name="Trazado 875079" d="M259.591,132.107a29.875,29.875,0,0,0-4.574,2.75,20.216,20.216,0,0,1-5.667,2.965c-1.6-4.435-3.121-8.892-4.363-13.429a53.912,53.912,0,0,0,14.6,7.714" fill="#755ced"/>
        <path id="Trazado_875080" data-name="Trazado 875080" d="M257.685,167.227a35.127,35.127,0,0,0-3.419-9.419c-2.092-4.127-4.615-8.059-6.465-12.285-3.2-7.292-4.3-15.213-5.205-23.077q1.157,1.016,2.39,1.947c1.243,4.538,2.764,8.994,4.364,13.43,2.013,5.584,4.15,11.133,6.02,16.753q2.222,6.686,4.256,13.43a14.217,14.217,0,0,1-1.755.394c-.051-.392-.113-.784-.186-1.173" fill="#253375"/>
        <path id="Trazado_875081" data-name="Trazado 875081" d="M257.65,172.78l.07-.028c.726,3.454-.256,4.9-.256,4.9h-8.325a4.442,4.442,0,0,0-2.392-3.417,4.906,4.906,0,0,0-2.17-.51,18.2,18.2,0,0,1,2.511-.44l.033,0c.1-.012.208-.026.308-.045a4.285,4.285,0,0,0,1.931-.853h0a5.155,5.155,0,0,0,1.682-2.481c1.456-.1,1.913.062,2.023.389.161.47-.4,1.3.261,2.228,1.027,1.441,3.844.444,4.321.263" fill="#da518b"/>
        <path id="Trazado_875082" data-name="Trazado 875082" d="M231.075,122.857q-.78-1.923-1.5-3.868a6.02,6.02,0,0,0-.816-1.344c-.148-.211-6.141,7.278-6.6,8.03a36.824,36.824,0,0,0-4.09,9.64,35.336,35.336,0,0,0-1.16,10.324,32.992,32.992,0,0,0,.367,4.8c.386,2.009,1.619,4.089,2.405,5.991l1.5,3.645c.248,2.212.529,4.423.826,6.631l-.585.069c-.005.572-.008,1.147-.01,1.719a9.717,9.717,0,0,1-4.587.556,13.4,13.4,0,0,1-1.522-.273,193,193,0,0,1-4.175-21.477c-.027-.182-.052-.363-.08-.543a51.634,51.634,0,0,1-.756-9.113c.081-2.61,1.067-5.21,1.843-7.717a115.07,115.07,0,0,1,6.52-15.626,1.877,1.877,0,0,0,.783.2,6.317,6.317,0,0,0,1.346-.144c.141-.024.284-.043.424-.065l.013.083a61.088,61.088,0,0,1,8.538,1.907c3.45,1.13,6.691,2.88,10.239,3.669q.5.54,1.034,1.061.761.741,1.559,1.441c.907,7.864,2.009,15.785,5.205,23.077,1.85,4.226,4.373,8.158,6.465,12.285a35.127,35.127,0,0,1,3.419,9.419q0,.6-.008,1.2a14.663,14.663,0,0,1-4.215,0c-.055-.121-.113-.24-.168-.359q-4.049-8.54-8.26-17.012c-2.029-4.082-4.3-8.023-6.44-12.048-.63-1.182-1.248-2.369-1.843-3.573-2.046-4.129-3.959-8.32-5.676-12.582" fill="#3f4d8f"/>
        <path id="Trazado_875083" data-name="Trazado 875083" d="M253.462,168.43a14.662,14.662,0,0,0,4.215,0q-.01,2.177-.027,4.35c-.477.18-3.294,1.177-4.321-.264-.665-.93-.1-1.757-.261-2.227.083-.629.151-1.261.2-1.892.062.014.128.023.193.033" fill="#fae3cd"/>
        <path id="Trazado_875084" data-name="Trazado 875084" d="M234.148,86.049l-2.264-1.619c.273-.3.554-.589.793-.855.56-.629,1.115-1.256,1.657-1.9a19.4,19.4,0,0,0-3.048-6.14,21.964,21.964,0,0,1,6.9,1.7,13.379,13.379,0,0,1,4.35,4.345c2.948,4.151,6.711,8.427,8.745,13.062a24.459,24.459,0,0,1,1.644,10.2q-.011,1.072-.057,2.137c-.058.007-.113.014-.169.017-.567.064-1.144.1-1.724.121a22.807,22.807,0,0,1-3.9-.2c-.447-.061-.887-.14-1.316-.232a17.066,17.066,0,0,0,.183-2.128,17.956,17.956,0,0,0-.178-3.091,18.23,18.23,0,0,0-4.4-9.6,21.44,21.44,0,0,0-1.976-1.909c-1.2-1.026-2.49-1.952-3.773-2.868-.49-.349-.979-.7-1.469-1.05" fill="#8683ff"/>
        <path id="Trazado_875085" data-name="Trazado 875085" d="M252.392,115.645a6.628,6.628,0,0,1-.15,1.819c-.181.753-1.216,3.481-2.493,3.457-1.818-.038-1.178-4.35-2.132-5.345-.525.276-.8,1.679-1.652,1.168-.316-.189-.271-.574-.2-.888a43,43,0,0,0,1.3-8.934,22.915,22.915,0,0,0,3.9.2,9.892,9.892,0,0,0,.5,3.5,13.552,13.552,0,0,1,.921,5.017Z" fill="#fae3cd"/>
        <path id="Trazado_875086" data-name="Trazado 875086" d="M249.139,177.65h-8.471c-.4-2.158,1.574-3.327,3.909-3.927a4.9,4.9,0,0,1,2.169.51,4.441,4.441,0,0,1,2.393,3.417" fill="#f46ba5"/>
        <path id="Trazado_875087" data-name="Trazado 875087" d="M245.762,101.47a17.961,17.961,0,0,1,.178,3.091c-3.869-2.984-7.841-6.192-9.62-10.592-1.032-2.545-1.266-5.359-2.172-7.921.489.349.979.7,1.469,1.05,1.282.916,2.573,1.842,3.773,2.868a26.718,26.718,0,0,0,6.372,11.5" fill="#755ced"/>
        <path id="Trazado_875088" data-name="Trazado 875088" d="M238.594,139.012a13.855,13.855,0,0,1-4.3-.33,7.935,7.935,0,0,1-4.333-2.588,27.735,27.735,0,0,1-4.486-5.965c1.792-2.45,3.811-4.8,5.6-7.272,1.717,4.262,3.63,8.453,5.676,12.582.595,1.2,1.213,2.391,1.843,3.573" fill="#755ced"/>
        <path id="Trazado_875089" data-name="Trazado 875089" d="M233.134,114.907a21.046,21.046,0,0,0,3.028-.09A32.426,32.426,0,0,0,240,119.943c-3.547-.788-6.789-2.538-10.238-3.668a60.991,60.991,0,0,0-8.539-1.907l-.012-.083c3.03-.406,6.123.093,9.173.415.907.1,1.826.174,2.747.207" fill="#253375"/>
        <path id="Trazado_875090" data-name="Trazado 875090" d="M231.758,105.2c.364,1.057.753,2.1,1.175,3.141.115.283.234.565.352.846a43.722,43.722,0,0,0,2.877,5.632,21.191,21.191,0,0,1-3.028.09,48.264,48.264,0,0,1-6.523-18.167,44.91,44.91,0,0,1,.608-16.032,58.506,58.506,0,0,0,0,6.226,37.39,37.39,0,0,0,.708,5.5c.364,1.74,1.027,3.338,1.5,5.038.715,2.591,1.456,5.178,2.337,7.724" fill="#10c8d4"/>
        <path id="Trazado_875091" data-name="Trazado 875091" d="M227.266,73.386c-.309-.5-.6-1.014-.866-1.536a3.092,3.092,0,0,1,1.433.308,6.185,6.185,0,0,1,1.74,1.354,19.718,19.718,0,0,1,4.76,8.163c-.542.643-1.1,1.27-1.657,1.9-.238.266-.519.554-.793.855a4.747,4.747,0,0,0-1.11,1.693c-.6,2.075,1.745,3.825,2.564,5.613a66.372,66.372,0,0,0-1.58,13.463c-.881-2.546-1.621-5.133-2.337-7.724-.469-1.7-1.132-3.3-1.5-5.038a37.255,37.255,0,0,1-.708-5.5,58.505,58.505,0,0,1,0-6.226v0c.023-.479.051-.957.081-1.436.11-1.726.263-3.45.419-5.174-.153-.235-.306-.473-.452-.71" fill="#755ced"/>
        <path id="Trazado_875092" data-name="Trazado 875092" d="M219.762,100.946c.008-.145.013-.287.018-.432a54.814,54.814,0,0,0,1.6-20.928,4.316,4.316,0,0,0,1.456.558,6.76,6.76,0,0,0,3.52-.392,3.6,3.6,0,0,0,.939-.482c-.03.48-.058.957-.081,1.437v0a44.91,44.91,0,0,0-.607,16.032,48.259,48.259,0,0,0,6.523,18.166c-.922-.033-1.841-.111-2.747-.206-3.05-.323-6.143-.822-9.174-.416-.14.022-.284.041-.424.065a6.317,6.317,0,0,1-1.346.144,1.877,1.877,0,0,1-.783-.2,1.19,1.19,0,0,1-.412-.325,1.358,1.358,0,0,1-.138-1.353c.063-.207.138-.414.193-.618.176-.653.287-1.349.425-2.016.326-1.588.56-3.191.728-4.8.148-1.41.243-2.823.306-4.238" fill="#2ae2ee"/>
        <path id="Trazado_875093" data-name="Trazado 875093" d="M227.45,54.918a6.312,6.312,0,0,1,3.281,6.568c-.293,2.806-1.629,4.394-3.361,6.463-.63.752-1.165,1.417-1.728,2.039a8.615,8.615,0,0,1-.359-1.918l.39-.347a4.36,4.36,0,0,0,1.559-2.092,1.485,1.485,0,0,0,.025-.48,7.278,7.278,0,0,0,.688-6.289,7.867,7.867,0,0,0-5-4.68c-1.394-.439-2.973-.544-4.331-1a17.226,17.226,0,0,1,8.837,1.736" fill="#da518b"/>
        <path id="Trazado_875094" data-name="Trazado 875094" d="M225.479,130.129A27.068,27.068,0,0,0,221.3,137.8a30.2,30.2,0,0,0-1.024,9.975c.1,4.11.449,8.206.909,12.292l-1.5-3.645c-.786-1.9-2.019-3.982-2.405-5.99a33.294,33.294,0,0,1-.367-4.8,35.332,35.332,0,0,1,1.16-10.324,36.81,36.81,0,0,1,4.09-9.64c.457-.753,6.45-8.242,6.6-8.03a6.014,6.014,0,0,1,.816,1.343q.723,1.946,1.5,3.868c-1.785,2.472-3.8,4.823-5.6,7.273" fill="#253375"/>
        <path id="Trazado_875095" data-name="Trazado 875095" d="M214.836,60.056a3.123,3.123,0,0,1-2.028-.952c-1.555-1.957-.242-4.255,1.908-5.122a16.663,16.663,0,0,1,3.9-.8c1.358.456,2.937.56,4.331,1a7.867,7.867,0,0,1,5,4.68,7.278,7.278,0,0,1-.688,6.289,1.442,1.442,0,0,0-1.348-1.4,1.889,1.889,0,0,0-1.494,1.194c-.2.4-.341.822-.557,1.2q-.784-.339-1.567-.672c1.524-2.32,1.589-7.387-2.551-6.776-1.471.308-3.216,1.474-4.9,1.353" fill="#f46ba5"/>
        <path id="Trazado_875096" data-name="Trazado 875096" d="M221.384,79.586a3.617,3.617,0,0,1-.886-.75,17.9,17.9,0,0,1,.612-2.491c.126-.392.269-.776.432-1.156a5.258,5.258,0,0,0,3.033.075,4.96,4.96,0,0,0,2.691-1.878c.146.238.3.475.452.71-.155,1.724-.309,3.448-.419,5.174a3.6,3.6,0,0,1-.939.482,6.76,6.76,0,0,1-3.52.392,4.316,4.316,0,0,1-1.456-.558" fill="#10c8d4"/>
        <path id="Trazado_875097" data-name="Trazado 875097" d="M226.4,71.85c.264.522.557,1.033.866,1.536a4.96,4.96,0,0,1-2.691,1.878,5.249,5.249,0,0,1-3.033-.076c-.163.38-.306.765-.432,1.157a15.007,15.007,0,0,0-.781-1.852c-.073-.152-.15-.3-.233-.451a22.9,22.9,0,0,0,2.91-1.715,14.512,14.512,0,0,0,2.636-2.338q.109.353.241.695c.153.4.326.784.517,1.166" fill="#fae3cd"/>
        <path id="Trazado_875098" data-name="Trazado 875098" d="M225.336,66.636l-.53-.078c-.316-.136-.633-.273-.949-.406.216-.383.362-.808.557-1.2a1.89,1.89,0,0,1,1.494-1.194,1.442,1.442,0,0,1,1.349,1.4,1.46,1.46,0,0,1-.026.48,4.346,4.346,0,0,1-1.559,2.091c-.13.117-.258.231-.389.347a6.365,6.365,0,0,1,.053-1.434" fill="#fae3cd"/>
        <path id="Trazado_875099" data-name="Trazado 875099" d="M225.642,69.988a14.481,14.481,0,0,1-2.636,2.339,22.892,22.892,0,0,1-2.91,1.714,15.417,15.417,0,0,0-1.192-1.89,4.548,4.548,0,0,0,1.983-.515,11.522,11.522,0,0,0,2.415-1.8l1.981-1.766a8.558,8.558,0,0,0,.359,1.918" fill="#e9cdbc"/>
        <path id="Trazado_875100" data-name="Trazado 875100" d="M218.9,72.151a3.207,3.207,0,0,1-.992-.13,3.72,3.72,0,0,1-2.1-1.8A8.073,8.073,0,0,1,215,67.6a26.018,26.018,0,0,1-.163-7.543c1.687.121,3.432-1.045,4.9-1.353,4.14-.611,4.075,4.456,2.551,6.776q.783.335,1.566.672c.317.133.633.271.95.406l.529.078a6.374,6.374,0,0,0-.053,1.435l-1.98,1.766a11.527,11.527,0,0,1-2.416,1.8,4.544,4.544,0,0,1-1.983.515" fill="#fae3cd"/>
        <path id="Trazado_875101" data-name="Trazado 875101" d="M222.012,166.7c.063.489.128.981.2,1.47q-.4.179-.791.318c0-.572,0-1.147.01-1.719Z" fill="#3f4d8f"/>
        <path id="Trazado_875102" data-name="Trazado 875102" d="M210.506,173.607c.113-.01.221-.026.326-.045a4.47,4.47,0,0,0,1.991-.853h0a5.134,5.134,0,0,0,1.735-2.481,8.893,8.893,0,0,1,1.144-.016c.618.037.867.178.947.4.171.471-.419,1.3.269,2.235,1.064,1.446,3.986.439,4.466.261l.068-.026c.75,3.455-.261,4.9-.261,4.9h-8.6a4.454,4.454,0,0,0-2.471-3.419,5.165,5.165,0,0,0-2.232-.508,18.783,18.783,0,0,1,2.586-.439.137.137,0,0,0,.028-.005" fill="#da518b"/>
        <path id="Trazado_875103" data-name="Trazado 875103" d="M221.384,79.586a54.816,54.816,0,0,1-1.6,20.928c.238-5.974-.088-11.967.3-17.939a34.014,34.014,0,0,1,.415-3.739,3.617,3.617,0,0,0,.886.75" fill="#10c8d4"/>
        <path id="Trazado_875104" data-name="Trazado 875104" d="M221.417,168.49q-.018,2.307-.03,4.616c-.48.178-3.4,1.185-4.467-.261-.688-.936-.1-1.765-.268-2.235q.105-.78.178-1.564a9.717,9.717,0,0,0,4.587-.556" fill="#fae3cd"/>
        <path id="Trazado_875105" data-name="Trazado 875105" d="M218.3,76.751c-.015,0-.033.007-.05.014a7.412,7.412,0,0,1,2.076-2.272,15.228,15.228,0,0,1,.781,1.852,17.9,17.9,0,0,0-.613,2.491,34.259,34.259,0,0,0-.414,3.739c-.392,5.972-.065,11.965-.3,17.939-.02.083-.045.166-.067.249-.929-3.3-2.295-6.549-2.923-9.913a9.228,9.228,0,0,0,1.112-2.759,3.925,3.925,0,0,0-.836-2.643,10.611,10.611,0,0,0-1.664-1.721,22.74,22.74,0,0,1,2.566-6.494c.075-.128.153-.257.233-.382.033-.034.068-.067.1-.1" fill="#755ced"/>
        <path id="Trazado_875106" data-name="Trazado 875106" d="M219.712,100.763c.018.062.035.121.05.183-.063,1.415-.158,2.828-.306,4.238-.168,1.61-.4,3.212-.728,4.8-.138.667-.249,1.363-.425,2.016-.055.2-.13.411-.193.617a93.829,93.829,0,0,1-3.869-16.879q-.067-.5-.128-1c-.007-.045-.012-.092-.017-.137a31.339,31.339,0,0,1,.055-10.054,16.5,16.5,0,0,1,1.388-4.048A13.182,13.182,0,0,1,218.2,76.85c-.081.126-.159.255-.234.383a22.8,22.8,0,0,0-2.566,6.494,10.617,10.617,0,0,1,1.665,1.721,3.93,3.93,0,0,1,.836,2.643,9.292,9.292,0,0,1-1.112,2.759c.627,3.364,1.993,6.61,2.922,9.913" fill="#8683ff"/>
        <path id="Trazado_875107" data-name="Trazado 875107" d="M218.253,76.765a.788.788,0,0,0-.053.085,13.2,13.2,0,0,0-2.661,3.645l-.2-.09a76.717,76.717,0,0,0-4.948,10.813,33.257,33.257,0,0,1-6.043,10.245,15.385,15.385,0,0,1-10.228,5.077,5.434,5.434,0,0,1-.583-2.662c.457-.145.9-.295,1.316-.451a16.167,16.167,0,0,0,6.409-3.8c2.616-2.847,4.283-6.38,5.792-9.835a42.759,42.759,0,0,0,2.079-4.891,8.029,8.029,0,0,1,1.7-3.545,14.82,14.82,0,0,1,7.421-4.587" fill="#8683ff"/>
        <path id="Trazado_875108" data-name="Trazado 875108" d="M215.339,80.4l.2.09a16.516,16.516,0,0,0-1.39,4.049A31.333,31.333,0,0,0,214.1,94.6c0,.045.009.092.017.137a17.215,17.215,0,0,1-3.635,4.407c-2.111,1.862-3.582,4.051-6.068,5.647a21.076,21.076,0,0,1-7.917,2.8q-.764.127-1.52.277a7.045,7.045,0,0,1-.855-1.322,15.386,15.386,0,0,0,10.23-5.076,33.229,33.229,0,0,0,6.041-10.246,76.952,76.952,0,0,1,4.95-10.813" fill="#755ced"/>
        <path id="Trazado_875109" data-name="Trazado 875109" d="M214.113,94.734q.06.5.128,1a48.032,48.032,0,0,0-3.806,5.1,19.445,19.445,0,0,1-5.616,5.6,19.211,19.211,0,0,1-8.519,2.723,8.772,8.772,0,0,1-1.328-1.3q.758-.15,1.522-.278a21.062,21.062,0,0,0,7.915-2.8c2.486-1.6,3.957-3.785,6.069-5.646a17.232,17.232,0,0,0,3.635-4.407" fill="#755ced"/>
        <path id="Trazado_875110" data-name="Trazado 875110" d="M212.594,177.978h-8.75a2.567,2.567,0,0,1,.048-1.242c.417-1.389,2.094-2.215,4-2.685a5.146,5.146,0,0,1,2.231.508,4.454,4.454,0,0,1,2.471,3.419" fill="#f46ba5"/>
        <path id="Trazado_875111" data-name="Trazado 875111" d="M194.119,106.54a7.045,7.045,0,0,0,.854,1.323c-2.431.475-4.833,1.078-7.249,1.631a1.248,1.248,0,0,1-.9-.019.905.905,0,0,1-.331-.929,3.4,3.4,0,0,1,1.2-2.042c1.492-1.324,3.8-1.961,5.843-2.626a5.431,5.431,0,0,0,.582,2.662" fill="#fae3cd"/>
        <path id="Trazado_875112" data-name="Trazado 875112" d="M215.955,68.793a.231.231,0,0,1-.025-.036c-.21-.37.646-.866.912-.947a2.184,2.184,0,0,1,1.673.241c.291.165,1.25.849.486,1.114-.4.137-.937-.266-1.31-.344a4.713,4.713,0,0,0-1.431.082.365.365,0,0,1-.3-.11" fill="#fff"/>
        <path id="Trazado_875113" data-name="Trazado 875113" d="M217.343,62.785a4,4,0,0,1-.5,2.586c-.481,1.02,0,.964.878,1.2" fill="none" stroke="#a8857b" stroke-linecap="round" stroke-linejoin="round" stroke-width="0.24"/>
        <path id="Trazado_875114" data-name="Trazado 875114" d="M220.376,63.938a2.977,2.977,0,0,0-.776-.113.455.455,0,0,1,.254-.444.479.479,0,0,1,.634.21.464.464,0,0,1,.015.393,1.188,1.188,0,0,0-.127-.046" fill="#515151"/>
        <path id="Trazado_875115" data-name="Trazado 875115" d="M215.83,63.519a3.414,3.414,0,0,0-.922.1.43.43,0,0,1-.02-.125.461.461,0,0,1,.471-.46.475.475,0,0,1,.472.47v.013" fill="#515151"/>
        <path id="Trazado_875116" data-name="Trazado 875116" d="M216.7,61.523a2.549,2.549,0,0,0-2.837.1c.987.013,1.85-.117,2.837-.1" fill="#a8857b"/>
        <path id="Trazado_875117" data-name="Trazado 875117" d="M216.893,61.565a2.549,2.549,0,0,0-2.837.1c.987.013,1.85-.117,2.837-.1" fill="#a8857b"/>
        <path id="Trazado_875118" data-name="Trazado 875118" d="M221.782,62.027a2.545,2.545,0,0,0-2.814-.361c.97.174,1.844.187,2.814.361" fill="#a8857b"/>
        <path id="Trazado_875119" data-name="Trazado 875119" d="M180.133,186.439l-.726-3.086a39.922,39.922,0,0,1-6.153-.8c-.148-.032-.3-.068-.45-.1q-.07,2-.11,3.99Z" fill="#da518b"/>
        <path id="Trazado_875120" data-name="Trazado 875120" d="M131.738,68.808c-.679-1.04.8-1.662,2.408-1.956a16.65,16.65,0,0,1,5.945.037,15.278,15.278,0,0,1,9.668,5.883c1.907,2.694,3.109,6.249,6.289,7.461,2.416.92,5.121.125,7.7-.168a19.5,19.5,0,0,1,14.692,4.429A17.336,17.336,0,0,1,184.507,97.9c-.06,2.322-.578,4.795.543,6.859.845,1.554,2.459,2.567,3.962,3.579,4.314,2.907,8.531,7.059,8.315,12.067-.128,2.94-1.8,5.631-3.839,7.856a18.259,18.259,0,0,1-10.382,6.035,12.529,12.529,0,0,1-4.51-.136,6.367,6.367,0,0,1-.586-2.61c0-1.844.921-3.567,1.393-5.358a11.723,11.723,0,0,0-3.321-11.333c-2.543-2.4-6.191-3.811-8.03-6.734-1.545-2.454-1.52-5.538-2.857-8.1a9.425,9.425,0,0,0-6.255-4.583,17.311,17.311,0,0,0-3.97-.088c-1.563-.02-3.155-.325-4.748-.325-3.461.008-7.2.313-10.093-1.486-2.408-1.5-3.469-5.008-2.964-7.855.165-.157.335-.305.505-.446.773-.642,2.573-1.181,1.461-2.4a2.525,2.525,0,0,0-2.641-.824.886.886,0,0,1-1.083-1.313c1.55-2.056,1.894-2.988,1.325-5.465a9.476,9.476,0,0,0-4.124-5.623,3.112,3.112,0,0,1-.87-.811" fill="#3f4d8f"/>
        <path id="Trazado_875121" data-name="Trazado 875121" d="M172.7,186.439q.037-2,.11-3.99a22.919,22.919,0,0,1-3.826-1.253l-1.709,5.243Z" fill="#da518b"/>
        <path id="Trazado_875122" data-name="Trazado 875122" d="M176.083,114.862a11.724,11.724,0,0,1,3.32,11.333c-.471,1.791-1.388,3.514-1.393,5.357a6.372,6.372,0,0,0,.586,2.611,9.876,9.876,0,0,1-6.339-4.065c-2.458-3.811-1.5-9.192-4.684-12.481a11.1,11.1,0,0,0-4.106-2.45s0,0,0,0c-8.921-17.927-19.554-15.3-19.554-15.3a15.869,15.869,0,0,0-2.518.116c-.722-.964-1.359-2.032-1.937-2.875a49.616,49.616,0,0,1-3.168-5.305,9.806,9.806,0,0,1-.569-3.369,3.831,3.831,0,0,1,1.448-2.743c-.5,2.847.556,6.357,2.965,7.855,2.891,1.8,6.632,1.494,10.093,1.486,1.591,0,3.185.305,4.746.325a17.327,17.327,0,0,1,3.972.088,9.426,9.426,0,0,1,6.255,4.582c1.337,2.559,1.312,5.643,2.857,8.1,1.839,2.923,5.485,4.329,8.03,6.734" fill="#253375"/>
        <path id="Trazado_875123" data-name="Trazado 875123" d="M179.407,183.354a39.922,39.922,0,0,1-6.153-.8c-.148-.032-.3-.068-.45-.1.034-1.044.076-2.084.119-3.124a14.569,14.569,0,0,0,5.439-.4Z" fill="#da518b"/>
        <path id="Trazado_875124" data-name="Trazado 875124" d="M126.8,165.945a16.233,16.233,0,0,1-1.724-1.092s10.892-24.718,5.69-45.408c-.267-1.068-.471-2.076-.62-3.028-.9-5.795.289-9.566,2.3-12.02,2.557-3.128,6.429-4.112,8.952-4.409a8.205,8.205,0,0,0,1.872,1.9c2.875,1.932,6.782,2.1,9.215,4.751,1.409,1.542,2.174,3.558,3.681,5.012,1.92,1.851,4.735,2.526,7.3,3.518,0,0,0,0,0,0a76.959,76.959,0,0,1,4.764,12.441c9.321,31.449,11.576,50.853,11.576,50.853a11.57,11.57,0,0,1-1.444.462,14.569,14.569,0,0,1-5.439.4,10.516,10.516,0,0,1-3.053-.859,10.28,10.28,0,0,1-4.383-3.916c-5.006-7.795-4.649-12.024-9.809-12.309-2.951-.16-4.288,3.972-6.56,7.422,4.259-18.076,1.728-40.127.123-50.388a.5.5,0,0,0-.989.064c-.349,19.1-5.058,31.67-9.266,39.147-3.5,6.221-6.654,8.92-6.654,8.92a5.241,5.241,0,0,1-1.176.028,11.537,11.537,0,0,1-4.361-1.49" fill="#6c91ff"/>
        <path id="Trazado_875125" data-name="Trazado 875125" d="M172.923,179.326c-.042,1.04-.085,2.08-.119,3.124a23.041,23.041,0,0,1-3.826-1.253l.892-2.73a10.534,10.534,0,0,0,3.053.859" fill="#da518b"/>
        <path id="Trazado_875126" data-name="Trazado 875126" d="M149.118,169.663c2.273-3.45,3.609-7.582,6.562-7.421,5.159.285,4.8,4.513,9.808,12.308a10.278,10.278,0,0,0,4.382,3.916l-.891,2.731a16.223,16.223,0,0,1-5.368-3.607c-1.715-1.795-3.028-4.132-5.4-5.048-2.726-1.056-5.818.177-8.314,1.659-2.106,1.253-4.209,2.743-6.586,3.293l.39-3.482c2.454-.566,4.09-2.341,5.414-4.349" fill="#da518b"/>
        <path id="Trazado_875127" data-name="Trazado 875127" d="M167.27,186.439l1.709-5.243a16.2,16.2,0,0,1-5.368-3.606c-1.715-1.795-3.028-4.132-5.4-5.048-2.727-1.056-5.819.177-8.315,1.659-2.106,1.253-4.209,2.743-6.586,3.293l-1.009,8.945Z" fill="#f46ba5"/>
        <path id="Trazado_875128" data-name="Trazado 875128" d="M163.462,115.168c-2.569-.992-5.384-1.667-7.3-3.518-1.507-1.454-2.271-3.47-3.681-5.012-2.433-2.646-6.34-2.819-9.215-4.751a8.206,8.206,0,0,1-1.872-1.9,15.81,15.81,0,0,1,2.518-.117s10.633-2.63,19.554,15.3" fill="#3f4d8f"/>
        <path id="Trazado_875129" data-name="Trazado 875129" d="M143.7,174.013a7.762,7.762,0,0,1-2.348.165l-2.37-15.691c4.209-7.477,8.918-20.047,9.267-39.147a.5.5,0,0,1,.989-.064c1.6,10.261,4.136,32.312-.124,50.388-1.324,2.008-2.96,3.783-5.414,4.349" fill="#5277ec"/>
        <path id="Trazado_875130" data-name="Trazado 875130" d="M143.059,63.72a1.444,1.444,0,0,1-1.1,2.181l-4.038.6-.008.129a16.034,16.034,0,0,0-3.771.224c-1.6.294-3.087.916-2.408,1.956a9.767,9.767,0,0,0-3.155,1.964,7.3,7.3,0,0,1-1.562-5.253,40.953,40.953,0,0,0,3.915-1.47,44.21,44.21,0,0,1,4.739-2.024,8.047,8.047,0,0,1,5.1-.108,4.638,4.638,0,0,1,2.289,1.8" fill="#e9cdbc"/>
        <path id="Trazado_875131" data-name="Trazado 875131" d="M137.165,85.695a3.835,3.835,0,0,0-1.448,2.743,9.806,9.806,0,0,0,.569,3.369,49.616,49.616,0,0,0,3.168,5.305c.577.844,1.214,1.912,1.936,2.876-2.522.3-6.4,1.281-8.951,4.409l-.106-.072c-1.223-2.6-2.145-4.839-2.833-6.731a13.156,13.156,0,0,1,3.117-6.156c.59-.659,1.3-1.478.973-2.285-.357-.868-1.588-.956-2.574-.948a33.658,33.658,0,0,1-8.458-.984,26.31,26.31,0,0,1-2.684-1.542c-2.017-1.373.085-3.253.892-3.871a1.309,1.309,0,0,0,.42-.555l.289-.731a1.286,1.286,0,0,1,.4-.533l.743-.587a1.246,1.246,0,0,0,.48-.98,1.231,1.231,0,0,0-.361-.867,1.238,1.238,0,0,1,.289-1.964l3.257-1.855a1.333,1.333,0,0,0,.535-.583c.106-.213.216-.417.331-.61a8.2,8.2,0,0,1,1.439-1.771,9.767,9.767,0,0,1,3.155-1.964,3.118,3.118,0,0,0,.871.811,9.478,9.478,0,0,1,4.123,5.623c.569,2.477.225,3.409-1.325,5.465a.887.887,0,0,0,1.083,1.314,2.522,2.522,0,0,1,2.641.823c1.113,1.225-.688,1.763-1.461,2.4-.17.141-.339.289-.505.446" fill="#fae3cd"/>
        <path id="Trazado_875132" data-name="Trazado 875132" d="M128.18,93.47a19.026,19.026,0,0,1-.752-3.988s-2.522-1.056-4.87-2.261a33.661,33.661,0,0,0,8.459.984c.985-.008,2.216.08,2.573.948.331.807-.382,1.626-.973,2.285a13.145,13.145,0,0,0-3.116,6.156c-.6-1.626-1.02-3-1.321-4.124" fill="#e9cdbc"/>
        <path id="Trazado_875133" data-name="Trazado 875133" d="M129.5,97.594c.688,1.892,1.608,4.128,2.832,6.731l.106.072c-2.009,2.454-3.2,6.225-2.3,12.02-.628-.591-1.316-1.237-2.115-1.98Q119.7,106.7,111.368,98.951a44.841,44.841,0,0,1-7.086-7.7,14.1,14.1,0,0,1-2.6-9.715c.578-3.8,3.269-7.092,6.586-9.308a37.979,37.979,0,0,1,11.121-4.562c2.544-.7,5.126-1.342,7.631-2.145a7.3,7.3,0,0,0,1.562,5.253,8.263,8.263,0,0,0-1.439,1.771,39.687,39.687,0,0,0-9.762,6.6,5.94,5.94,0,0,0-2.191,3.361,4.175,4.175,0,0,0,1.219,3.209,13.507,13.507,0,0,0,2.883,2.189q4.438,2.789,8.887,5.57c.3,1.124.727,2.5,1.321,4.124" fill="#5277ec"/>
        <path id="Trazado_875134" data-name="Trazado 875134" d="M131.157,167.434c.115,3.422.921,7.755-.2,11.06a1.435,1.435,0,0,1-1.083-1.442c.034-.795-.671-2.237-1.265-1.1-.361.686,0,1.843-.025,2.586-.017.815,1.1,4.072.284,4.518-1.036.57-2.841-3-3.134-3.7a12.306,12.306,0,0,1-.87-5.164,27.883,27.883,0,0,1,1.936-8.245,11.519,11.519,0,0,0,4.361,1.49" fill="#fae3cd"/>
        <path id="Trazado_875135" data-name="Trazado 875135" d="M128.432,75.611a4.04,4.04,0,0,1-.8-.772.643.643,0,0,0-.355.644.685.685,0,0,0,.805.536.759.759,0,0,0,.516-.305,1.517,1.517,0,0,1-.166-.1" fill="#515151"/>
        <path id="Trazado_875136" data-name="Trazado 875136" d="M122.558,81.916a3.772,3.772,0,0,0-.871-1.609" fill="none" stroke="#e34f98" stroke-linecap="round" stroke-linejoin="round" stroke-width="0.427"/>
        <path id="Trazado_875137" data-name="Trazado 875137" d="M129.231,72.469a5.834,5.834,0,0,1,1.266,3.806" fill="none" stroke="#a8857b" stroke-linecap="round" stroke-linejoin="round" stroke-width="0.38"/>
      </g>
    </g>
  </g>
</svg>
