<svg xmlns="http://www.w3.org/2000/svg" xmlns:xlink="http://www.w3.org/1999/xlink" width="274.102" height="195.06" viewBox="0 0 274.102 195.06">
  <defs>
    <clipPath id="clip-path">
      <rect id="Rectángulo_401335" data-name="Rectángulo 401335" width="274.102" height="195.059" fill="none"/>
    </clipPath>
  </defs>
  <g id="_41" data-name="41" transform="translate(0 0.001)">
    <rect id="Rectángulo_401333" data-name="Rectángulo 401333" width="274.101" height="195.06" transform="translate(0 -0.001)" fill="#082952"/>
    <rect id="Rectángulo_401334" data-name="Rectángulo 401334" width="253.604" height="176.13" transform="translate(10.249 9.465)" fill="#f6f0ca"/>
    <g id="Grupo_1099155" data-name="Grupo 1099155">
      <g id="Grupo_1099154" data-name="Grupo 1099154" clip-path="url(#clip-path)">
        <path id="Trazado_875161" data-name="Trazado 875161" d="M263.853,9.218V185.287H207.744c-5.977-9.038-9.384-19.4-8.544-30.12.859-10.946,5.916-22.3,1.647-32.457-5.261-12.512-21.183-15.955-34.116-20.767-29.663-11.036-52.4-38.658-56.2-69.459a77.451,77.451,0,0,1,.712-23.266Z" fill="#0f1f33"/>
        <path id="Trazado_875162" data-name="Trazado 875162" d="M179.854,74.115a31.617,31.617,0,0,0,1.612,16.094,52.438,52.438,0,0,0,3.825,8.064c3.684,6.394,8.377,12.208,12.494,18.363a13.438,13.438,0,0,1,2.567,6.416c1.117,7.94,3.742,15.989,2.4,24.078-.552,3.339-1.676,6.619-1.638,10,0,.308.019.617.05.929a122.266,122.266,0,0,0,5.176-27.718c.265-3.84.319-7.835-1.3-11.366-1.973-4.286-6.1-7.258-9.428-10.717-6.378-6.633-9.946-15.386-11.217-24.27a74.082,74.082,0,0,1,.434-21.487,12.683,12.683,0,0,0-2.252,3.367,33.1,33.1,0,0,0-2.721,8.249" fill="#5b42d3"/>
        <path id="Trazado_875163" data-name="Trazado 875163" d="M192.824,62.047c-.058-.091-.119-.178-.184-.261-1.312-1.666-4.052-1.826-5.979-.824-.026.014-.053.029-.08.047a7.178,7.178,0,0,0-1.754,1.343,74.047,74.047,0,0,0-.433,21.487c1.27,8.884,4.838,17.637,11.216,24.271,3.327,3.458,7.456,6.43,9.428,10.716,1.623,3.531,1.569,7.527,1.3,11.366a122.266,122.266,0,0,1-5.176,27.718,5.584,5.584,0,0,0,1.351,3.368,4.914,4.914,0,0,0,2.241,1.306,8.3,8.3,0,0,0,3.169.236c1.946-.207,3.791-.893,5.7-1.288a25.3,25.3,0,0,1,10.1.185,11.782,11.782,0,0,1,6.035-.08,10.269,10.269,0,0,0,3.849.69,4.483,4.483,0,0,0,3.388-2.987c1.1-2.968.246-6.71.031-9.773q-.373-5.421-1.04-10.814c-.572-4.634-1.339-9.232-1.512-13.9-.08-2.195-.03-4.51,1.128-6.416a11.005,11.005,0,0,1,5.307-3.977,46,46,0,0,0,6.243-2.736c5.108-3.139,7.126-9.229,8.089-14.915.764-4.489,1.147-9.182,2.828-13.38a3.911,3.911,0,0,0-1.105-2,.448.448,0,0,0-.042-.036,7.031,7.031,0,0,0-3.254-1.433,3.666,3.666,0,0,0-2.713.377c-1.792,1.074-2.479,3.749-2.932,5.7-.775,3.342-2.079,6.651-3.1,9.932-.441,1.412-.936,3.241-2.214,4.21-1.12.852-2.133.482-3.476.533-3.711.145-7.314.574-11.009.57-.23,0-.461,0-.691-.007a16.633,16.633,0,0,1-10.836,5.3,16.929,16.929,0,0,1-11.968-3.741,7.886,7.886,0,0,1,1.868-2.149,65.071,65.071,0,0,1-8.518-7.657,23.132,23.132,0,0,1-5.852-11.214c-.871-5.178.725-10.4,1.22-15.622a6.437,6.437,0,0,0-.629-4.141" fill="#755ced"/>
        <path id="Trazado_875164" data-name="Trazado 875164" d="M186.581,61.009a.846.846,0,0,1,.081-.047c1.926-1,4.666-.842,5.978.824a3.052,3.052,0,0,1,.184.261,6.637,6.637,0,0,1,.867-.842c.633-.512,1.447-.813,2.1-1.321a6.1,6.1,0,0,0,1.707-1.985,3.83,3.83,0,0,0-.173-3.927,11.679,11.679,0,0,1-1.546,2.323c-.054.065-.107.131-.165.2-.011.062-.023.123-.038.181a1.826,1.826,0,0,1-.637,1.024c-.534.4-1.351,0-2,.011a5.225,5.225,0,0,0-2.144.5c-.127-1.114-1.013-2-1.466-3.034A4.126,4.126,0,0,1,189,53.145a.76.76,0,0,1-.621-.526,1.814,1.814,0,0,1,.073-1.1,5.422,5.422,0,0,1,.23-.617l-.054-.029a10.546,10.546,0,0,0-1.5,4.224c-.123,1.379.088,2.772-.108,4.151a10.216,10.216,0,0,1-.445,1.757" fill="#e9cdbc"/>
        <path id="Trazado_875165" data-name="Trazado 875165" d="M189,53.145a.415.415,0,0,0,.211-.022,1.2,1.2,0,0,0,.514-.468c.2-.272.4-.548.591-.827a7.087,7.087,0,0,1,.664-1.241.759.759,0,0,1,.05-.07.766.766,0,0,0,.042-.1,1.119,1.119,0,0,0-.019-.918.628.628,0,0,0-.537-.316,1.727,1.727,0,0,0-1.366.839c-.181.283-.353.57-.522.86l.054.029a5.622,5.622,0,0,0-.231.617,1.829,1.829,0,0,0-.073,1.1.762.762,0,0,0,.622.526" fill="#fae3cd"/>
        <path id="Trazado_875166" data-name="Trazado 875166" d="M189,53.145a4.137,4.137,0,0,0,.322,2.025c.453,1.034,1.339,1.92,1.466,3.034a5.234,5.234,0,0,1,2.145-.5c.649-.011,1.466.384,2-.011a1.821,1.821,0,0,0,.637-1.024c.016-.058.027-.119.039-.181a1.087,1.087,0,0,1-.484.341.95.95,0,0,1-1.082-.61,2,2,0,0,1,.069-1.3,6.484,6.484,0,0,1,.261-.686c-.192.262-.395.519-.595.773a1.384,1.384,0,0,1-.644.537.95.95,0,0,1-1.086-.613,2,2,0,0,1,.073-1.295,6.418,6.418,0,0,1,.268-.7c-.195.268-.4.529-.606.787a1.369,1.369,0,0,1-.645.541.946.946,0,0,1-1.082-.614,1.986,1.986,0,0,1,.069-1.295c.058-.178.123-.352.192-.526-.188.279-.391.555-.591.827a1.2,1.2,0,0,1-.514.468.415.415,0,0,1-.211.022" fill="#e9cdbc"/>
        <path id="Trazado_875167" data-name="Trazado 875167" d="M190.127,52.354a1.98,1.98,0,0,0-.069,1.295.946.946,0,0,0,1.082.614,1.369,1.369,0,0,0,.645-.541c.2-.258.41-.519.606-.787a7.11,7.11,0,0,1,.587-1.064,2.216,2.216,0,0,1,.3-.344c.069-.138.131-.284.188-.429a1.236,1.236,0,0,0-.05-1.088.847.847,0,0,0-.694-.385,2.168,2.168,0,0,0-1.689.893,6.871,6.871,0,0,1-.713,1.31c-.069.174-.135.348-.192.526" fill="#fae3cd"/>
        <path id="Trazado_875168" data-name="Trazado 875168" d="M192.122,53.639a2.016,2.016,0,0,0-.073,1.3.951.951,0,0,0,1.086.613,1.4,1.4,0,0,0,.645-.537c.2-.254.4-.512.594-.773a7.575,7.575,0,0,1,.6-1.082,1.97,1.97,0,0,1,.292-.341,4.164,4.164,0,0,0,.191-.432,1.243,1.243,0,0,0-.046-1.088.854.854,0,0,0-.7-.385,2.022,2.022,0,0,0-1.435.617,8.874,8.874,0,0,1-.886,1.408,6.423,6.423,0,0,0-.269.7" fill="#fae3cd"/>
        <path id="Trazado_875169" data-name="Trazado 875169" d="M197.321,53.972a3.077,3.077,0,0,0,.131-.3,1.251,1.251,0,0,0-.046-1.089.863.863,0,0,0-.7-.385,2.017,2.017,0,0,0-1.443.617,8.782,8.782,0,0,1-.89,1.423,6.484,6.484,0,0,0-.261.686,2,2,0,0,0-.069,1.3.95.95,0,0,0,1.082.61,1.1,1.1,0,0,0,.484-.341c.057-.066.111-.131.165-.2a11.752,11.752,0,0,0,1.546-2.323" fill="#fae3cd"/>
        <path id="Trazado_875170" data-name="Trazado 875170" d="M204.232,80.823c5.472.337,13.864-5.668,14.347-.214.537,6.064,1.708,5.306,1.708,5.306l0-.008a6.805,6.805,0,0,1,1.431-1.676c1.166-1.1,2.6-.929,2.962.842s-3.86,2.779-3.86,2.779l-.376.606c-.107,1.2-.215,2.762-.246,4.5-.015.933-.007,1.913.031,2.911a13.492,13.492,0,0,0,2.69-1.43,5.221,5.221,0,0,0,2.179-3.016c.2-.911.035-1.858.154-2.779.223-1.75,1.846-2.163,2.947-3.357a2.93,2.93,0,0,0-.311-4.155c-.633-.519-1.523-.846-1.826-1.579a2.2,2.2,0,0,1,.583-2.116,6.426,6.426,0,0,0,1.335-1.9,2.491,2.491,0,0,0-.832-2.551,4.1,4.1,0,0,0-2.759-.9c-1.14.019-2.456.349-3.289-.381a4.633,4.633,0,0,1-.848-1.393,4.1,4.1,0,0,0-2.7-1.971,4.334,4.334,0,0,0-3.346.668,7.891,7.891,0,0,1-1.938,1.354c-1.178.381-2.41-.316-3.642-.487a4.237,4.237,0,0,0-4.259,2.145,6.359,6.359,0,0,1-1.1,2.119,9.073,9.073,0,0,1-1.328.788,3,3,0,0,0-1.4,2.9,3.383,3.383,0,0,0,1.968,2.624,5.112,5.112,0,0,0,1.723.377" fill="#6c91ff"/>
        <path id="Trazado_875171" data-name="Trazado 875171" d="M214.247,185.783a101.743,101.743,0,0,1,6.354-17.33,29.393,29.393,0,0,1,2.92,5.472c.062-.1.127-.2.188-.29,0,0,1.781,4.873,4.315,12.148H243.16a118.838,118.838,0,0,0-2.932-18.666,11.363,11.363,0,0,1-1.773-.5c-.015-.008-.034-.011-.049-.018a33.294,33.294,0,0,1-8.293-.792A64.661,64.661,0,0,0,215.7,164.5a28.505,28.505,0,0,0-11.339,2.762c-.314,4.145-.8,10.8-1.311,18.524Z" fill="#2ae2ee"/>
        <path id="Trazado_875172" data-name="Trazado 875172" d="M211.492,96.279c3.354-.254,6.278-3.52,6.278-3.52l2.678-4.3c.131-1.456.261-2.363.261-2.363l-.418-.189,0,.008s-1.171.758-1.708-5.306c-.483-5.454-8.875.552-14.347.214-.123,3.956.134,11.228,3.392,14.106a5.061,5.061,0,0,0,3.868,1.35" fill="#fae3cd"/>
        <path id="Trazado_875173" data-name="Trazado 875173" d="M223.733,161.717a25.291,25.291,0,0,0-10.1-.185c-1.911.4-3.757,1.081-5.7,1.288a8.306,8.306,0,0,1-3.17-.236l-.05.145s-.134,1.666-.349,4.53A28.5,28.5,0,0,1,215.7,164.5a64.661,64.661,0,0,1,14.416,1.306,33.338,33.338,0,0,0,8.292.792c-4-1.445-7.916-3.122-12.033-4.25-.867-.236-1.75-.45-2.64-.628" fill="#10c8d4"/>
        <path id="Trazado_875174" data-name="Trazado 875174" d="M220.475,99.044a13.839,13.839,0,0,1-3.776,1.8c-1.726.327-3.476-.348-5.207-.769a6.639,6.639,0,0,0-3.438-.127,4.446,4.446,0,0,0-1.45.733,7.883,7.883,0,0,0-1.869,2.148,16.926,16.926,0,0,0,11.968,3.742,16.63,16.63,0,0,0,10.836-5.3c.123-.138.246-.279.365-.421a8.037,8.037,0,0,0-1.362-1.353,5.475,5.475,0,0,0-4.029-1.187,6.409,6.409,0,0,0-2.038.733" fill="#5b42d3"/>
        <path id="Trazado_875175" data-name="Trazado 875175" d="M219.479,185.783c1.316-5.392,2.687-9.684,4.042-11.858a29.334,29.334,0,0,0-2.92-5.472,101.743,101.743,0,0,0-6.354,17.33Z" fill="#10c8d4"/>
        <path id="Trazado_875176" data-name="Trazado 875176" d="M220.233,95.869c-.038-1-.046-1.978-.031-2.91a12.834,12.834,0,0,1-8.71,3.926v3.19c1.73.421,3.48,1.1,5.207.769a13.852,13.852,0,0,0,3.776-1.8c-.127-1.056-.2-2.126-.242-3.175" fill="#fae3cd"/>
        <path id="Trazado_875177" data-name="Trazado 875177" d="M211.492,96.279v.606a12.832,12.832,0,0,0,8.71-3.926c.031-1.739.139-3.3.246-4.5l-2.678,4.3s-2.924,3.266-6.278,3.52" fill="#e9cdbc"/>
        <path id="Trazado_875178" data-name="Trazado 875178" d="M220.291,85.907l.418.189s-.13.907-.261,2.362l.376-.606s4.221-1.009,3.861-2.78-1.8-1.937-2.963-.842a6.878,6.878,0,0,0-1.431,1.677" fill="#fae3cd"/>
        <path id="Trazado_875179" data-name="Trazado 875179" d="M240.229,167.117a3.568,3.568,0,0,0,2.874-.443c1.236-.929,1.22-2.674,1.082-4.162q-1.094-11.736-3.077-23.385a26.9,26.9,0,0,1-1.305-5.411c-.269-2-.936-4.2-.606-6.2.687-4.184,4.163-7.1,7.517-9.566,4.773-3.506,7.755-8.833,9.336-14.353s1.9-11.275,2.2-16.987a11.3,11.3,0,0,0-.165-3.175c-1.681,4.2-2.065,8.891-2.828,13.38-.964,5.686-2.982,11.776-8.089,14.915a46.056,46.056,0,0,1-6.243,2.736,11,11,0,0,0-5.307,3.977c-1.159,1.906-1.209,4.221-1.128,6.416.172,4.664.94,9.262,1.512,13.9q.662,5.394,1.039,10.814c.215,3.063,1.071,6.8-.03,9.773a4.484,4.484,0,0,1-3.388,2.987,10.269,10.269,0,0,1-3.849-.69,11.786,11.786,0,0,0-6.036.08c.89.178,1.773.392,2.64.628,4.117,1.128,8.031,2.8,12.033,4.25.016.007.035.01.05.018a11.443,11.443,0,0,0,1.773.5" fill="#5b42d3"/>
        <path id="Trazado_875180" data-name="Trazado 875180" d="M246.716,185.783c-1.49-9.264-2.831-16.73-3.613-19.108a3.571,3.571,0,0,1-2.874.442,118.839,118.839,0,0,1,2.932,18.666Z" fill="#10c8d4"/>
        <path id="Trazado_875181" data-name="Trazado 875181" d="M247.723,69.875a3.865,3.865,0,0,0-1.04,3.8,5.943,5.943,0,0,0,1.232,2.279c.522.624,1.251,1.078,1.753,1.706a6.568,6.568,0,0,1,1.3,2.674,3.667,3.667,0,0,1,2.713-.377,7.032,7.032,0,0,1,3.254,1.433,34.023,34.023,0,0,1-.311-4.318c.116-1.386.626-2.707.81-4.083a10.356,10.356,0,0,0-.526-4.424l-.057.015a6.149,6.149,0,0,1,.088.65,1.84,1.84,0,0,1-.169,1.088.8.8,0,0,1-.729.4,4.139,4.139,0,0,1-.763,1.909c-.672.922-1.731,1.615-2.1,2.678a5.161,5.161,0,0,0-1.988-.911c-.629-.138-1.516.087-1.949-.406a1.769,1.769,0,0,1-.4-1.129c0-.062,0-.12,0-.182-.043-.072-.081-.152-.119-.228a11.767,11.767,0,0,1-1-2.573" fill="#e9cdbc"/>
        <path id="Trazado_875182" data-name="Trazado 875182" d="M248.839,72.676a1,1,0,0,0,.395.428.973.973,0,0,0,1.194-.384,1.989,1.989,0,0,0,.218-1.281,6.849,6.849,0,0,0-.107-.741,8.532,8.532,0,0,1-.549-1.549,1.966,1.966,0,0,0-1.274-.893.878.878,0,0,0-.767.239,1.257,1.257,0,0,0-.288,1.053c.015.109.038.218.061.327a11.74,11.74,0,0,0,1,2.572c.038.077.077.156.119.229" fill="#fae3cd"/>
        <path id="Trazado_875183" data-name="Trazado 875183" d="M248.839,72.676c0,.062,0,.12,0,.182a1.778,1.778,0,0,0,.4,1.128c.434.494,1.32.269,1.949.407a5.119,5.119,0,0,1,1.988.911c.372-1.064,1.432-1.757,2.1-2.679a4.135,4.135,0,0,0,.763-1.909.563.563,0,0,1-.2-.069,1.134,1.134,0,0,1-.4-.558c-.134-.309-.272-.621-.4-.937.035.189.061.374.077.563A1.99,1.99,0,0,1,254.9,71a.975.975,0,0,1-1.2.384,1.354,1.354,0,0,1-.511-.656c-.142-.294-.287-.592-.418-.893a6.231,6.231,0,0,1,.108.744,2.037,2.037,0,0,1-.215,1.285.971.971,0,0,1-1.2.38,1.318,1.318,0,0,1-.511-.653c-.142-.294-.284-.587-.418-.889a6.849,6.849,0,0,1,.107.741,1.989,1.989,0,0,1-.218,1.281.973.973,0,0,1-1.194.384,1,1,0,0,1-.395-.428" fill="#e9cdbc"/>
        <path id="Trazado_875184" data-name="Trazado 875184" d="M250.186,67.632a1.253,1.253,0,0,0-.288,1.056c.023.156.054.308.092.461a1.929,1.929,0,0,1,.211.392,6.889,6.889,0,0,1,.338,1.157c.134.3.276.6.418.89a1.322,1.322,0,0,0,.511.653.971.971,0,0,0,1.2-.381,2.037,2.037,0,0,0,.215-1.285,6.261,6.261,0,0,0-.108-.744,8.156,8.156,0,0,1-.552-1.557,1.989,1.989,0,0,0-1.27-.878.87.87,0,0,0-.764.236" fill="#fae3cd"/>
        <path id="Trazado_875185" data-name="Trazado 875185" d="M250.2,69.541a1.979,1.979,0,0,0-.211-.392,8.493,8.493,0,0,0,.549,1.55,6.9,6.9,0,0,0-.338-1.158" fill="#fae3cd"/>
        <path id="Trazado_875186" data-name="Trazado 875186" d="M252.419,66.772a1.256,1.256,0,0,0-.288,1.056,4.346,4.346,0,0,0,.089.446,1.9,1.9,0,0,1,.214.4,6.775,6.775,0,0,1,.338,1.154c.131.3.276.6.418.893a1.361,1.361,0,0,0,.511.657A.976.976,0,0,0,254.9,71a2,2,0,0,0,.219-1.281c-.016-.189-.043-.374-.077-.562a6.861,6.861,0,0,1-.4-1.4,2.081,2.081,0,0,0-1.45-1.216.88.88,0,0,0-.768.24" fill="#fae3cd"/>
        <path id="Trazado_875187" data-name="Trazado 875187" d="M252.435,68.677a1.906,1.906,0,0,0-.215-.4,8.229,8.229,0,0,0,.553,1.557,6.775,6.775,0,0,0-.338-1.154" fill="#fae3cd"/>
        <path id="Trazado_875188" data-name="Trazado 875188" d="M256.038,70.716a.794.794,0,0,0,.729-.4,1.844,1.844,0,0,0,.169-1.089,6.149,6.149,0,0,0-.088-.65l.057-.014c-.1-.32-.207-.635-.318-.947a1.678,1.678,0,0,0-1.151-1.089.647.647,0,0,0-.6.2,1.122,1.122,0,0,0-.223.893c0,.04.012.08.02.12a.465.465,0,0,1,.03.069,6.51,6.51,0,0,1,.373,1.335c.126.316.264.628.4.936a1.137,1.137,0,0,0,.4.559.6.6,0,0,0,.2.069" fill="#fae3cd"/>
        <path id="Trazado_875189" data-name="Trazado 875189" d="M254.668,67.817a.521.521,0,0,0-.031-.069,6.9,6.9,0,0,0,.4,1.4,6.479,6.479,0,0,0-.372-1.335" fill="#fae3cd"/>
        <path id="Trazado_875190" data-name="Trazado 875190" d="M211.692,84.481a.588.588,0,0,0,.763.028.444.444,0,0,0,.032-.679.588.588,0,0,0-.763-.028.445.445,0,0,0-.032.679" fill="#515151"/>
        <path id="Trazado_875191" data-name="Trazado 875191" d="M205.909,85.076a.552.552,0,0,0,.666.334.476.476,0,0,0,.374-.592.551.551,0,0,0-.665-.334.476.476,0,0,0-.375.592" fill="#515151"/>
        <path id="Trazado_875192" data-name="Trazado 875192" d="M208.5,84.2a6.024,6.024,0,0,1-.054,3.173,1.066,1.066,0,0,0-.059.677c.143.374.657.506,1.093.581" fill="none" stroke="#a8857b" stroke-linecap="round" stroke-linejoin="round" stroke-width="0.339"/>
        <path id="Trazado_875193" data-name="Trazado 875193" d="M212.243,91.459a3.6,3.6,0,0,0-3.47-.806" fill="none" stroke="#e34f98" stroke-linecap="round" stroke-linejoin="round" stroke-width="0.374"/>
        <path id="Trazado_875194" data-name="Trazado 875194" d="M213.342,80.777a5.116,5.116,0,0,0-2.793,1.627" fill="none" stroke="#a8857b" stroke-linecap="round" stroke-linejoin="round" stroke-width="0.375"/>
        <path id="Trazado_875195" data-name="Trazado 875195" d="M207.181,82.429a5.329,5.329,0,0,0-3.262.322" fill="none" stroke="#a8857b" stroke-linecap="round" stroke-linejoin="round" stroke-width="0.375"/>
        <path id="Trazado_875196" data-name="Trazado 875196" d="M208.949,89.86a1.162,1.162,0,0,0-.718,1.011,25.478,25.478,0,0,1,5.069.027,2.037,2.037,0,0,0-.664-.642,4.732,4.732,0,0,0-2.109-.55,3.18,3.18,0,0,0-1.578.154" fill="#fff"/>
        <path id="Trazado_875197" data-name="Trazado 875197" d="M208.231,90.871a.758.758,0,0,0,.042.223,2.49,2.49,0,0,0,.56.711.777.777,0,0,1,.223.819,1.29,1.29,0,0,0-.161.286c-.062.264.264.448.534.533a4.925,4.925,0,0,0,2.39.27A1.914,1.914,0,0,0,213.3,90.9a25.479,25.479,0,0,0-5.069-.027" fill="#f46ba5"/>
        <path id="Trazado_875198" data-name="Trazado 875198" d="M192.735,100.838s2.053.541,0,1.724l-5.809,1.723s1.366.432.567,2.156c0,0,1.712,1.3-.683,2.374,0,0,2.364,1.847-3.645,3.048l-4.888-1.336c-.342-1.8-.311-4.768,2.95-6.347a46.762,46.762,0,0,1,11.508-3.342" fill="#fae3cd"/>
        <path id="Trazado_875199" data-name="Trazado 875199" d="M183.165,111.863l.683.185s-.092.287-.257.809c-.476,1.445-1.562,4.674-3.085,8.488-3.668,9.229-9.862,21.887-15.921,20.987,0,0-1.891-.356-4.585-3.313a30.507,30.507,0,0,1-4.006-5.752,3.2,3.2,0,0,0,.737-.8c1.1-1.742.786-3.927.687-5.948a24.64,24.64,0,0,1,.379-5.621,59.149,59.149,0,0,1,3.2-5.466c.468-.544.944-1.078,1.435-1.6v0c.222-.24.445-.472.668-.708a23.893,23.893,0,0,1,.487,2.392c.034.21.061.42.092.638.284,2.188.53,4.108.737,5.785.43,3.418.721,5.842.917,7.555a1.218,1.218,0,0,0,2.268.385l4.136-7.784,4.164-7.839,2.025-3.817.354.1Z" fill="#5277ec"/>
        <path id="Trazado_875200" data-name="Trazado 875200" d="M162.538,185.783c-1.069-3.755-2.383-7.467-3.735-11.331-.027-.076-.053-.148-.08-.225a13.754,13.754,0,0,0-1.424,6.54c.009,1.67.181,3.346.29,5.016Z" fill="#da518b"/>
        <path id="Trazado_875201" data-name="Trazado 875201" d="M137.318,89.657a22.787,22.787,0,0,1-1.044-7.643,12.77,12.77,0,0,1,.165-1.353,7.017,7.017,0,0,1,2.291.007,19.48,19.48,0,0,0,3.381.639c1.147-.007,2.432-.668,2.544-1.749.146-1.445-1.685-2.254-3.166-2.624l-.054-.269a12.539,12.539,0,0,1-3.538.04,9.25,9.25,0,0,1,1.762-2.105,6.959,6.959,0,0,1,7.609-1.292c2.8,1.158,3.139.708,5.978-.932a6.356,6.356,0,0,1,5.269-.36c2.551.97,5.168,2.61,6.3,5.081,1.086,2.395-.218,5.723-2.916,6.26a4.957,4.957,0,0,1-1.442.066c-1.528-.131-3.067-.77-4.624-.733a6.927,6.927,0,0,0-5.583,3.723c-.465.82-1.006,1.847-1.988,1.887-1,.036-1.639-.973-2-1.851s-.879-1.909-1.873-2.029c-1.174-.137-1.63.392-1.711,1.194a1.75,1.75,0,0,0-.119.5,3.769,3.769,0,0,0,.556,2.058c.311.962.679,1.833.76,2.214a4.569,4.569,0,0,1-.008,1.92,2.675,2.675,0,0,1-1.63,2.017,3.183,3.183,0,0,1-3.273-1.012c-.012-.015-.027-.029-.039-.044a4.1,4.1,0,0,1-.3-.373,8.9,8.9,0,0,1-1.155-2.722c-.05-.171-.1-.341-.146-.512" fill="#253375"/>
        <path id="Trazado_875202" data-name="Trazado 875202" d="M163.1,113.115c-.223.236-.445.468-.668.708a37.205,37.205,0,0,0-.61-4.152,17.02,17.02,0,0,1,1.278,3.444" fill="#6c91ff"/>
        <path id="Trazado_875203" data-name="Trazado 875203" d="M148.239,125.893a52.968,52.968,0,0,1,2.379-10.829q1.651-5.775,3.1-11.6a11,11,0,0,1,8.1,6.2,37.437,37.437,0,0,1,.61,4.152v0c-.491.526-.967,1.059-1.435,1.6a58.719,58.719,0,0,0-3.2,5.465,24.7,24.7,0,0,0-.38,5.621c.1,2.021.411,4.206-.686,5.948a3.187,3.187,0,0,1-.737.8c-.614.494-1.362.828-2.007,1.3a21.619,21.619,0,0,0-5.126,1.394,7.914,7.914,0,0,0-4.36,4.209c-2.275,6.279,2.671,11.4,6.451,15.877,0,.007.011.011.015.018a9.322,9.322,0,0,1,1.769,3.506,20.6,20.6,0,0,1-.184,2.736v.008a4.558,4.558,0,0,1-.859,2.271c-.657.795-1.677,1.038-3.174,1.249-.721.1-1.55.188-2.506.323a24.016,24.016,0,0,1-3.7.152c-2.284-.04-4.9-.221-7.525-.243-5.606-7.048-7.437-16.392-6.757-25.24.606-7.922,3.031-15.583,5.729-23.131a58.229,58.229,0,0,0-8.864,9.991,59.293,59.293,0,0,0-10.48,27.174c-.464.192-.9.355-1.32.489h0a8.839,8.839,0,0,1-5.31.294,4.722,4.722,0,0,1-2.341-1.426c1.619-20.413,8.78-33.034,15.134-40.379a30.851,30.851,0,0,1,17.747-9.951,65.628,65.628,0,0,0,9.919,22.006" fill="#6c91ff"/>
        <path id="Trazado_875204" data-name="Trazado 875204" d="M151.877,99.1a10.055,10.055,0,0,1-1.143-.5c-1.228-.645-2.307-1.516-3.508-2.213s-2.3-.192-2.049,1.128a7.642,7.642,0,0,0,1.815,2.777c-1.116-.472-2.2-.987-3.246-1.492l.153-.933.71-4.3-.5-.842a2.94,2.94,0,0,0,.33-1.568,6.16,6.16,0,0,0-1.052-2.493c-.1-.159-.188-.323-.276-.486a6.875,6.875,0,0,1-.437-2.555,1.724,1.724,0,0,1,1.711-1.194c.994.12,1.5,1.151,1.873,2.029s1.005,1.887,2,1.851c.982-.04,1.523-1.067,1.987-1.887a6.932,6.932,0,0,1,5.583-3.724c1.558-.036,3.1.6,4.624.733-.13.443-.3.886-.472,1.31-.886,2.279.173,3.5.633,5.7a1.3,1.3,0,0,1-.088,1.074,1.793,1.793,0,0,1-1.013.472c-1.186.337-.48,1.067-.817,1.843-.319.737-1.6.247-2.295.694-1.527.965.721,1.959,1.692,1.839.388-.043-.506,2.014-.664,2.214a2.839,2.839,0,0,1-2.317,1.252,10.547,10.547,0,0,1-3.235-.722" fill="#fae3cd"/>
        <path id="Trazado_875205" data-name="Trazado 875205" d="M140.552,185.783a40.765,40.765,0,0,1,6.1-2.705q-.829,1.349-1.654,2.705h12.592c-.109-1.67-.281-3.346-.29-5.016a13.754,13.754,0,0,1,1.424-6.54,62.1,62.1,0,0,0-4.54-8.818,12.664,12.664,0,0,1-4.274,2.25c-6.009,2.007-12.636,2.068-18.73,3.69-5.412,3.422-7.569,10.689-12.9,14.434Z" fill="#f46ba5"/>
        <path id="Trazado_875206" data-name="Trazado 875206" d="M150.952,156.046c-3.78-4.475-8.726-9.6-6.45-15.877a7.914,7.914,0,0,1,4.359-4.21,21.665,21.665,0,0,1,5.126-1.393c-.073.054-.142.109-.211.163-.115.1-.23.193-.337.294a10.72,10.72,0,0,0-2.05,2.806A14,14,0,0,0,150,145.5a57.08,57.08,0,0,0,1.4,6.278c.357,1.767.786,3.52,1.308,5.251,0,.174.008.345.012.512.015.744.019,1.415.007,2.025a9.335,9.335,0,0,0-1.768-3.506c0-.007-.012-.011-.016-.018" fill="#5277ec"/>
        <path id="Trazado_875207" data-name="Trazado 875207" d="M131.179,171.349a28.592,28.592,0,0,0-4.186,1.444c-2.7,1.191-5.165,2.882-8.02,3.688a14.642,14.642,0,0,1-2.187.435,33.265,33.265,0,0,0,3.2-6.013,4.481,4.481,0,0,0,1.021,1.3v0c1.2-3.76,4.485-5.288,8.411-5.85a36.584,36.584,0,0,1,5.372-.287c2.621.022,5.242.2,7.525.243a23.885,23.885,0,0,0,3.7-.152c.956-.134,1.785-.225,2.506-.323,1.5-.211,2.517-.454,3.174-1.248a4.563,4.563,0,0,0,.859-2.272c.495,1.041,1.051,2.072,1.631,3.1a12.642,12.642,0,0,1-4.275,2.25c-6.009,2.007-12.636,2.069-18.729,3.691" fill="#da518b"/>
        <path id="Trazado_875208" data-name="Trazado 875208" d="M151.877,99.1l-.376,2.352-.061.391a31.219,31.219,0,0,1-4.448-1.556,7.642,7.642,0,0,1-1.815-2.777c-.249-1.32.856-1.821,2.049-1.128s2.28,1.568,3.508,2.213a10.055,10.055,0,0,0,1.143.5" fill="#e9cdbc"/>
        <path id="Trazado_875209" data-name="Trazado 875209" d="M151.209,103.269a12.5,12.5,0,0,1,2.513.2q-1.449,5.825-3.1,11.6a53.035,53.035,0,0,0-2.379,10.829,65.628,65.628,0,0,1-9.919-22.006c.319-.058.637-.113.959-.164a5.384,5.384,0,0,0,.656-.145c2.253,7.962,10.065,7.284,10.065,7.284Z" fill="#2ae2ee"/>
        <path id="Trazado_875210" data-name="Trazado 875210" d="M146.992,100.283a31.379,31.379,0,0,0,4.447,1.557l-.23,1.43L150,110.861s-7.812.679-10.065-7.283a5.223,5.223,0,0,0,2.215-1.252,4.889,4.889,0,0,0,1.462-2.729l.134-.805c1.044.5,2.129,1.019,3.246,1.491" fill="#fae3cd"/>
        <path id="Trazado_875211" data-name="Trazado 875211" d="M137.518,77.387c.115-.232.242-.461.38-.682a12.539,12.539,0,0,0,3.538-.04l.053.268c1.482.371,3.312,1.18,3.166,2.624-.111,1.082-1.4,1.742-2.544,1.749a19.448,19.448,0,0,1-3.38-.638,7.045,7.045,0,0,0-2.291-.008,11.517,11.517,0,0,1,1.078-3.273" fill="#253375"/>
        <path id="Trazado_875212" data-name="Trazado 875212" d="M144.106,92.716l.5.842-.71,4.3a7.852,7.852,0,0,1-3.43-2.322,11.054,11.054,0,0,0,1.561-.722,5.21,5.21,0,0,0,2.076-2.1" fill="#253375"/>
        <path id="Trazado_875213" data-name="Trazado 875213" d="M144.436,91.149a2.94,2.94,0,0,1-.33,1.568l-.246-.414a4.569,4.569,0,0,0,.008-1.92c-.081-.381-.449-1.252-.76-2.213.088.163.18.326.277.486a6.166,6.166,0,0,1,1.051,2.493" fill="#253375"/>
        <path id="Trazado_875214" data-name="Trazado 875214" d="M143.861,92.3l.245.414a5.2,5.2,0,0,1-2.075,2.1,10.847,10.847,0,0,1-1.562.722,9.941,9.941,0,0,1-1.017-1.35c-.192-.3-.368-.606-.533-.921.011.014.027.029.038.043a3.184,3.184,0,0,0,3.273,1.013,2.678,2.678,0,0,0,1.631-2.018" fill="#253375"/>
        <path id="Trazado_875215" data-name="Trazado 875215" d="M145,185.783q.823-1.357,1.654-2.705a40.81,40.81,0,0,0-6.1,2.705Z" fill="#da518b"/>
        <path id="Trazado_875216" data-name="Trazado 875216" d="M137.9,76.705c-.138.221-.265.45-.38.682a19.728,19.728,0,0,0-9.036,1.383c-1.255.512-2.637,1.5-2.395,2.772.081.429.349.846.234,1.263a1.486,1.486,0,0,1-.993.828,49.7,49.7,0,0,1-5.146,1.183c-1.7.45-3.438,1.4-4,2.983-.483,1.372-.027,3.041-.947,4.195a3.51,3.51,0,0,1-2.51,1.107c-.944.069-1.9-.08-2.843-.1a11.03,11.03,0,0,0-8.549,3.723,9.77,9.77,0,0,0-2.046,8.688,7.779,7.779,0,0,1,.538,3.117,2.032,2.032,0,0,1-.327.795,9.118,9.118,0,0,1-3.384.305,13.611,13.611,0,0,1-7.6-3.706A10.911,10.911,0,0,1,85.7,102.26a5.432,5.432,0,0,1-.062-4.434c1.259-2.642,4.682-3.491,7.586-4.42a5.541,5.541,0,0,0,2.295-1.187,1.906,1.906,0,0,0,.441-2.29c-.64-1.016-2.225-.951-3.257-1.618a2.782,2.782,0,0,1-1.029-3.074,5.086,5.086,0,0,1,2.164-2.678,12.455,12.455,0,0,1,7.87-1.753,39.251,39.251,0,0,1,8.024,1.764,8.537,8.537,0,0,0,3.315.5,2.776,2.776,0,0,0,2.483-1.858c.315-1.4-1-2.642-1.239-4.054-.28-1.669,1.036-3.251,2.594-4.075,2.766-1.462,6.216-1.187,9.236-.28s5.825,2.388,8.848,3.281a18.006,18.006,0,0,0,2.928.617" fill="#3f4d8f"/>
        <path id="Trazado_875217" data-name="Trazado 875217" d="M137.518,77.387a11.517,11.517,0,0,0-1.078,3.273c-2.487.4-4.774,2.047-5.311,4.366-.276,1.176-.115,2.417-.4,3.589a2.76,2.76,0,0,1-2.54,2.294,4.706,4.706,0,0,1-2.46-1.419,5.276,5.276,0,0,0-2.751-1.249,2.892,2.892,0,0,0-2.682,1.125,3.366,3.366,0,0,0,.23,3.335,12.636,12.636,0,0,1,1.535,3.154,4.066,4.066,0,0,1-3.876,4.551c-3.476.087-6.323-3.938-9.662-3.016-1.788.494-2.824,2.265-3.319,3.963s-.66,3.52-1.6,5.044a7,7,0,0,1-4.11,2.922,2.042,2.042,0,0,0,.326-.795,7.768,7.768,0,0,0-.537-3.118,9.771,9.771,0,0,1,2.045-8.687A11.038,11.038,0,0,1,109.883,93c.947.026,1.9.175,2.843.106a3.506,3.506,0,0,0,2.509-1.107c.921-1.154.465-2.824.948-4.195.561-1.586,2.295-2.533,4-2.984a49.422,49.422,0,0,0,5.145-1.183,1.484,1.484,0,0,0,.994-.827c.115-.417-.153-.835-.234-1.263-.242-1.27,1.14-2.261,2.395-2.772a19.713,19.713,0,0,1,9.036-1.383" fill="#253375"/>
        <path id="Trazado_875218" data-name="Trazado 875218" d="M119.982,170.9c-1.566-2.693-3.887-10.292,1.021-29.108,1.584-6.075,2.862-10.658,3.89-14.11a58.309,58.309,0,0,1,8.864-9.99c-2.7,7.548-5.122,15.209-5.729,23.131-.679,8.847,1.152,18.192,6.758,25.24a36.72,36.72,0,0,0-5.372.286c-3.926.563-7.21,2.09-8.411,5.85v0a4.481,4.481,0,0,1-1.021-1.3" fill="#5277ec"/>
        <path id="Trazado_875219" data-name="Trazado 875219" d="M118.275,185.783c5.334-3.745,7.491-11.012,12.9-14.434a28.507,28.507,0,0,0-4.185,1.445c-2.7,1.19-5.166,2.881-8.021,3.687a14.442,14.442,0,0,1-2.187.435,24.462,24.462,0,0,1-3.376,4.028c-1.682,1.6-3.309,3.206-4.874,4.839Z" fill="#da518b"/>
        <path id="Trazado_875220" data-name="Trazado 875220" d="M113.512,162.335c.3,1.107,1.09,2.344.909,3.509a2.114,2.114,0,0,1-1.377,1.775c-.391.109-.537-.312-.986-.026-.369.233-.392.908-.507,1.267a3.126,3.126,0,0,1-3.242,1.909,3.994,3.994,0,0,1-3.131-2.279,5.164,5.164,0,0,1-.123-3.825c.387-1.176,1.316-2.061,1.743-3.19a13.584,13.584,0,0,0,.625-2.845c.134-1.045.214-2.025.356-2.987a8.85,8.85,0,0,0,5.311-.294,17.3,17.3,0,0,0,.422,6.986" fill="#fae3cd"/>
        <path id="Trazado_875221" data-name="Trazado 875221" d="M156.511,87.23a3.944,3.944,0,0,1-1.029-.081.567.567,0,0,0,.159.639.647.647,0,0,0,.885-.083.622.622,0,0,0,.162-.5,1.427,1.427,0,0,1-.177.022" fill="#515151"/>
        <path id="Trazado_875222" data-name="Trazado 875222" d="M155.1,84.635a5.837,5.837,0,0,1,3.242,1.9" fill="none" stroke="#a8857b" stroke-linecap="round" stroke-linejoin="round" stroke-width="0.343"/>
        <path id="Trazado_875223" data-name="Trazado 875223" d="M156.694,87.334a.626.626,0,1,1-.626-.592.61.61,0,0,1,.626.592" fill="#515151"/>
      </g>
    </g>
  </g>
</svg>
