<svg xmlns="http://www.w3.org/2000/svg" xmlns:xlink="http://www.w3.org/1999/xlink" width="393.766" height="462.846" viewBox="0 0 393.766 462.846">
  <defs>
    <clipPath id="clip-path">
      <rect id="Rectángulo_400902" data-name="Rectángulo 400902" width="132.714" height="117.657" fill="#59836b"/>
    </clipPath>
    <clipPath id="clip-path-2">
      <rect id="Rectángulo_400902-2" data-name="Rectángulo 400902" width="51.147" height="45.344" fill="#eafff3"/>
    </clipPath>
    <clipPath id="clip-path-3">
      <rect id="Rectángulo_401358" data-name="Rectángulo 401358" width="265.364" height="358.385" fill="none"/>
    </clipPath>
  </defs>
  <g id="_46" data-name="46" transform="translate(-1020 -1471.788)">
    <g id="Grupo_1099114" data-name="Grupo 1099114" transform="translate(0 -1656.789)">
      <g id="Grupo_1098752" data-name="Grupo 1098752" transform="translate(1020 3166.573)">
        <rect id="Rectángulo_400908" data-name="Rectángulo 400908" width="393.766" height="403.85" rx="19" fill="#fcf9e8"/>
        <path id="Rectángulo_400909" data-name="Rectángulo 400909" d="M0,0H392.431a0,0,0,0,1,0,0V61.088a19,19,0,0,1-19,19H19a19,19,0,0,1-19-19V0A0,0,0,0,1,0,0Z" transform="translate(1.335 344.762)" fill="#77af8f"/>
      </g>
      <path id="Rectángulo_400910" data-name="Rectángulo 400910" d="M123,0h81.026a123,123,0,0,1,123,123V376.768a0,0,0,0,1,0,0H0a0,0,0,0,1,0,0V123A123,123,0,0,1,123,0Z" transform="translate(1053.37 3133.798)" fill="#daf2e4"/>
      <g id="Grupo_1098755" data-name="Grupo 1098755" transform="translate(1020 3128.577)">
        <g id="Grupo_1098724" data-name="Grupo 1098724">
          <g id="Grupo_1098723" data-name="Grupo 1098723" clip-path="url(#clip-path)">
            <path id="Trazado_872910" data-name="Trazado 872910" d="M5.3,2.649A2.649,2.649,0,1,1,2.649,0,2.649,2.649,0,0,1,5.3,2.649" fill="#59836b"/>
            <path id="Trazado_872911" data-name="Trazado 872911" d="M34.252,2.649A2.649,2.649,0,1,1,31.6,0a2.649,2.649,0,0,1,2.649,2.649" transform="translate(-3.47)" fill="#59836b"/>
            <path id="Trazado_872912" data-name="Trazado 872912" d="M63.205,2.649A2.649,2.649,0,1,1,60.556,0a2.649,2.649,0,0,1,2.649,2.649" transform="translate(-6.941)" fill="#59836b"/>
            <path id="Trazado_872913" data-name="Trazado 872913" d="M92.158,2.649A2.649,2.649,0,1,1,89.509,0a2.649,2.649,0,0,1,2.649,2.649" transform="translate(-10.411)" fill="#59836b"/>
            <path id="Trazado_872914" data-name="Trazado 872914" d="M121.112,2.649A2.65,2.65,0,1,1,118.463,0a2.65,2.65,0,0,1,2.649,2.649" transform="translate(-13.881)" fill="#59836b"/>
            <path id="Trazado_872915" data-name="Trazado 872915" d="M150.065,2.649A2.649,2.649,0,1,1,147.416,0a2.649,2.649,0,0,1,2.649,2.649" transform="translate(-17.352)" fill="#59836b"/>
            <path id="Trazado_872916" data-name="Trazado 872916" d="M5.3,34.564a2.649,2.649,0,1,1-2.649-2.649A2.65,2.65,0,0,1,5.3,34.564" transform="translate(0 -3.825)" fill="#59836b"/>
            <path id="Trazado_872917" data-name="Trazado 872917" d="M34.252,34.564A2.649,2.649,0,1,1,31.6,31.915a2.65,2.65,0,0,1,2.649,2.649" transform="translate(-3.47 -3.825)" fill="#59836b"/>
            <path id="Trazado_872918" data-name="Trazado 872918" d="M63.205,34.564a2.649,2.649,0,1,1-2.649-2.649,2.65,2.65,0,0,1,2.649,2.649" transform="translate(-6.941 -3.825)" fill="#59836b"/>
            <path id="Trazado_872919" data-name="Trazado 872919" d="M92.158,34.564a2.649,2.649,0,1,1-2.649-2.649,2.65,2.65,0,0,1,2.649,2.649" transform="translate(-10.411 -3.825)" fill="#59836b"/>
            <path id="Trazado_872920" data-name="Trazado 872920" d="M121.112,34.564a2.65,2.65,0,1,1-2.649-2.649,2.65,2.65,0,0,1,2.649,2.649" transform="translate(-13.881 -3.825)" fill="#59836b"/>
            <path id="Trazado_872921" data-name="Trazado 872921" d="M150.065,34.564a2.649,2.649,0,1,1-2.649-2.649,2.65,2.65,0,0,1,2.649,2.649" transform="translate(-17.352 -3.825)" fill="#59836b"/>
            <path id="Trazado_872922" data-name="Trazado 872922" d="M5.3,66.479A2.649,2.649,0,1,1,2.649,63.83,2.65,2.65,0,0,1,5.3,66.479" transform="translate(0 -7.651)" fill="#59836b"/>
            <path id="Trazado_872923" data-name="Trazado 872923" d="M34.252,66.479A2.649,2.649,0,1,1,31.6,63.83a2.65,2.65,0,0,1,2.649,2.649" transform="translate(-3.47 -7.651)" fill="#59836b"/>
            <path id="Trazado_872924" data-name="Trazado 872924" d="M63.205,66.479a2.649,2.649,0,1,1-2.649-2.649,2.65,2.65,0,0,1,2.649,2.649" transform="translate(-6.941 -7.651)" fill="#59836b"/>
            <path id="Trazado_872925" data-name="Trazado 872925" d="M92.158,66.479a2.649,2.649,0,1,1-2.649-2.649,2.65,2.65,0,0,1,2.649,2.649" transform="translate(-10.411 -7.651)" fill="#59836b"/>
            <path id="Trazado_872926" data-name="Trazado 872926" d="M121.112,66.479a2.65,2.65,0,1,1-2.649-2.649,2.65,2.65,0,0,1,2.649,2.649" transform="translate(-13.881 -7.651)" fill="#59836b"/>
            <path id="Trazado_872927" data-name="Trazado 872927" d="M150.065,66.479a2.649,2.649,0,1,1-2.649-2.649,2.65,2.65,0,0,1,2.649,2.649" transform="translate(-17.352 -7.651)" fill="#59836b"/>
            <path id="Trazado_872928" data-name="Trazado 872928" d="M5.3,98.394a2.649,2.649,0,1,1-2.649-2.649A2.65,2.65,0,0,1,5.3,98.394" transform="translate(0 -11.476)" fill="#59836b"/>
            <path id="Trazado_872929" data-name="Trazado 872929" d="M34.252,98.394A2.649,2.649,0,1,1,31.6,95.745a2.65,2.65,0,0,1,2.649,2.649" transform="translate(-3.47 -11.476)" fill="#59836b"/>
            <path id="Trazado_872930" data-name="Trazado 872930" d="M63.205,98.394a2.649,2.649,0,1,1-2.649-2.649,2.65,2.65,0,0,1,2.649,2.649" transform="translate(-6.941 -11.476)" fill="#59836b"/>
            <path id="Trazado_872931" data-name="Trazado 872931" d="M92.158,98.394a2.649,2.649,0,1,1-2.649-2.649,2.65,2.65,0,0,1,2.649,2.649" transform="translate(-10.411 -11.476)" fill="#59836b"/>
            <path id="Trazado_872932" data-name="Trazado 872932" d="M121.112,98.394a2.65,2.65,0,1,1-2.649-2.649,2.65,2.65,0,0,1,2.649,2.649" transform="translate(-13.881 -11.476)" fill="#59836b"/>
            <path id="Trazado_872933" data-name="Trazado 872933" d="M150.065,98.394a2.649,2.649,0,1,1-2.649-2.649,2.65,2.65,0,0,1,2.649,2.649" transform="translate(-17.352 -11.476)" fill="#59836b"/>
            <path id="Trazado_872934" data-name="Trazado 872934" d="M5.3,130.309a2.649,2.649,0,1,1-2.649-2.649A2.65,2.65,0,0,1,5.3,130.309" transform="translate(0 -15.301)" fill="#59836b"/>
            <path id="Trazado_872935" data-name="Trazado 872935" d="M34.252,130.309A2.649,2.649,0,1,1,31.6,127.66a2.65,2.65,0,0,1,2.649,2.649" transform="translate(-3.47 -15.301)" fill="#59836b"/>
            <path id="Trazado_872936" data-name="Trazado 872936" d="M63.205,130.309a2.649,2.649,0,1,1-2.649-2.649,2.65,2.65,0,0,1,2.649,2.649" transform="translate(-6.941 -15.301)" fill="#59836b"/>
            <path id="Trazado_872937" data-name="Trazado 872937" d="M92.158,130.309a2.649,2.649,0,1,1-2.649-2.649,2.65,2.65,0,0,1,2.649,2.649" transform="translate(-10.411 -15.301)" fill="#59836b"/>
            <path id="Trazado_872938" data-name="Trazado 872938" d="M121.112,130.309a2.65,2.65,0,1,1-2.649-2.649,2.65,2.65,0,0,1,2.649,2.649" transform="translate(-13.881 -15.301)" fill="#59836b"/>
            <path id="Trazado_872939" data-name="Trazado 872939" d="M150.065,130.309a2.649,2.649,0,1,1-2.649-2.649,2.65,2.65,0,0,1,2.649,2.649" transform="translate(-17.352 -15.301)" fill="#59836b"/>
          </g>
        </g>
      </g>
      <g id="Grupo_1098756" data-name="Grupo 1098756" transform="translate(1346.474 3506.051)">
        <g id="Grupo_1098724-2" data-name="Grupo 1098724">
          <g id="Grupo_1098723-2" data-name="Grupo 1098723" clip-path="url(#clip-path-2)">
            <path id="Trazado_872910-2" data-name="Trazado 872910" d="M2.042,1.021A1.021,1.021,0,1,1,1.021,0,1.021,1.021,0,0,1,2.042,1.021" transform="translate(0 0)" fill="#eafff3"/>
            <path id="Trazado_872911-2" data-name="Trazado 872911" d="M31,1.021A1.021,1.021,0,1,1,29.975,0,1.021,1.021,0,0,1,31,1.021" transform="translate(-19.133 0)" fill="#eafff3"/>
            <path id="Trazado_872912-2" data-name="Trazado 872912" d="M59.949,1.021A1.021,1.021,0,1,1,58.928,0a1.021,1.021,0,0,1,1.021,1.021" transform="translate(-38.265 0)" fill="#eafff3"/>
            <path id="Trazado_872913-2" data-name="Trazado 872913" d="M88.9,1.021A1.021,1.021,0,1,1,87.881,0,1.021,1.021,0,0,1,88.9,1.021" transform="translate(-57.397 0)" fill="#eafff3"/>
            <path id="Trazado_872914-2" data-name="Trazado 872914" d="M117.855,1.021A1.021,1.021,0,1,1,116.834,0a1.021,1.021,0,0,1,1.021,1.021" transform="translate(-76.529 0)" fill="#eafff3"/>
            <path id="Trazado_872915-2" data-name="Trazado 872915" d="M146.809,1.021A1.021,1.021,0,1,1,145.788,0a1.021,1.021,0,0,1,1.021,1.021" transform="translate(-95.662 0)" fill="#eafff3"/>
            <path id="Trazado_872916-2" data-name="Trazado 872916" d="M2.042,32.936a1.021,1.021,0,1,1-1.021-1.021,1.021,1.021,0,0,1,1.021,1.021" transform="translate(0 -21.089)" fill="#eafff3"/>
            <path id="Trazado_872917-2" data-name="Trazado 872917" d="M31,32.936a1.021,1.021,0,1,1-1.021-1.021A1.021,1.021,0,0,1,31,32.936" transform="translate(-19.133 -21.089)" fill="#eafff3"/>
            <path id="Trazado_872918-2" data-name="Trazado 872918" d="M59.949,32.936a1.021,1.021,0,1,1-1.021-1.021,1.021,1.021,0,0,1,1.021,1.021" transform="translate(-38.265 -21.089)" fill="#eafff3"/>
            <path id="Trazado_872919-2" data-name="Trazado 872919" d="M88.9,32.936a1.021,1.021,0,1,1-1.021-1.021A1.021,1.021,0,0,1,88.9,32.936" transform="translate(-57.397 -21.089)" fill="#eafff3"/>
            <path id="Trazado_872920-2" data-name="Trazado 872920" d="M117.855,32.936a1.021,1.021,0,1,1-1.021-1.021,1.021,1.021,0,0,1,1.021,1.021" transform="translate(-76.529 -21.089)" fill="#eafff3"/>
            <path id="Trazado_872921-2" data-name="Trazado 872921" d="M146.809,32.936a1.021,1.021,0,1,1-1.021-1.021,1.021,1.021,0,0,1,1.021,1.021" transform="translate(-95.662 -21.089)" fill="#eafff3"/>
            <path id="Trazado_872922-2" data-name="Trazado 872922" d="M2.042,64.851A1.021,1.021,0,1,1,1.021,63.83a1.021,1.021,0,0,1,1.021,1.021" transform="translate(0 -42.179)" fill="#eafff3"/>
            <path id="Trazado_872923-2" data-name="Trazado 872923" d="M31,64.851a1.021,1.021,0,1,1-1.021-1.021A1.021,1.021,0,0,1,31,64.851" transform="translate(-19.133 -42.179)" fill="#eafff3"/>
            <path id="Trazado_872924-2" data-name="Trazado 872924" d="M59.949,64.851a1.021,1.021,0,1,1-1.021-1.021,1.021,1.021,0,0,1,1.021,1.021" transform="translate(-38.265 -42.179)" fill="#eafff3"/>
            <path id="Trazado_872925-2" data-name="Trazado 872925" d="M88.9,64.851a1.021,1.021,0,1,1-1.021-1.021A1.021,1.021,0,0,1,88.9,64.851" transform="translate(-57.397 -42.179)" fill="#eafff3"/>
            <path id="Trazado_872926-2" data-name="Trazado 872926" d="M117.855,64.851a1.021,1.021,0,1,1-1.021-1.021,1.021,1.021,0,0,1,1.021,1.021" transform="translate(-76.529 -42.179)" fill="#eafff3"/>
            <path id="Trazado_872927-2" data-name="Trazado 872927" d="M146.809,64.851a1.021,1.021,0,1,1-1.021-1.021,1.021,1.021,0,0,1,1.021,1.021" transform="translate(-95.662 -42.179)" fill="#eafff3"/>
            <path id="Trazado_872928-2" data-name="Trazado 872928" d="M2.042,96.766a1.021,1.021,0,1,1-1.021-1.021,1.021,1.021,0,0,1,1.021,1.021" transform="translate(0 -63.268)" fill="#eafff3"/>
            <path id="Trazado_872929-2" data-name="Trazado 872929" d="M31,96.766a1.021,1.021,0,1,1-1.021-1.021A1.021,1.021,0,0,1,31,96.766" transform="translate(-19.133 -63.268)" fill="#eafff3"/>
            <path id="Trazado_872930-2" data-name="Trazado 872930" d="M59.949,96.766a1.021,1.021,0,1,1-1.021-1.021,1.021,1.021,0,0,1,1.021,1.021" transform="translate(-38.265 -63.268)" fill="#eafff3"/>
            <path id="Trazado_872931-2" data-name="Trazado 872931" d="M88.9,96.766a1.021,1.021,0,1,1-1.021-1.021A1.021,1.021,0,0,1,88.9,96.766" transform="translate(-57.397 -63.268)" fill="#eafff3"/>
            <path id="Trazado_872932-2" data-name="Trazado 872932" d="M117.855,96.766a1.021,1.021,0,1,1-1.021-1.021,1.021,1.021,0,0,1,1.021,1.021" transform="translate(-76.529 -63.268)" fill="#eafff3"/>
            <path id="Trazado_872933-2" data-name="Trazado 872933" d="M146.809,96.766a1.021,1.021,0,1,1-1.021-1.021,1.021,1.021,0,0,1,1.021,1.021" transform="translate(-95.662 -63.268)" fill="#eafff3"/>
            <path id="Trazado_872934-2" data-name="Trazado 872934" d="M2.042,128.681a1.021,1.021,0,1,1-1.021-1.021,1.021,1.021,0,0,1,1.021,1.021" transform="translate(0 -84.357)" fill="#eafff3"/>
            <path id="Trazado_872935-2" data-name="Trazado 872935" d="M31,128.681a1.021,1.021,0,1,1-1.021-1.021A1.021,1.021,0,0,1,31,128.681" transform="translate(-19.133 -84.357)" fill="#eafff3"/>
            <path id="Trazado_872936-2" data-name="Trazado 872936" d="M59.949,128.681a1.021,1.021,0,1,1-1.021-1.021,1.021,1.021,0,0,1,1.021,1.021" transform="translate(-38.265 -84.357)" fill="#eafff3"/>
            <path id="Trazado_872937-2" data-name="Trazado 872937" d="M88.9,128.681a1.021,1.021,0,1,1-1.021-1.021,1.021,1.021,0,0,1,1.021,1.021" transform="translate(-57.397 -84.357)" fill="#eafff3"/>
            <path id="Trazado_872938-2" data-name="Trazado 872938" d="M117.855,128.681a1.021,1.021,0,1,1-1.021-1.021,1.021,1.021,0,0,1,1.021,1.021" transform="translate(-76.529 -84.357)" fill="#eafff3"/>
            <path id="Trazado_872939-2" data-name="Trazado 872939" d="M146.809,128.681a1.021,1.021,0,1,1-1.021-1.021,1.021,1.021,0,0,1,1.021,1.021" transform="translate(-95.662 -84.357)" fill="#eafff3"/>
          </g>
        </g>
      </g>
      <circle id="Elipse_11446" data-name="Elipse 11446" cx="78.753" cy="78.753" r="78.753" transform="translate(1053.37 3154.154)" fill="#e6d567"/>
    </g>
    <g id="Grupo_1099177" data-name="Grupo 1099177" transform="translate(1092 1494.788)">
      <g id="Grupo_1099176" data-name="Grupo 1099176" clip-path="url(#clip-path-3)">
        <path id="Trazado_875404" data-name="Trazado 875404" d="M245.42,43a43,43,0,1,0-43,43,43,43,0,0,0,43-43" fill="#faf6f0"/>
        <path id="Trazado_875405" data-name="Trazado 875405" d="M186.555,82.979A43.026,43.026,0,0,0,245.419,43" fill="none" stroke="#1f160f" stroke-linecap="round" stroke-linejoin="round" stroke-width="1.12"/>
        <path id="Trazado_875406" data-name="Trazado 875406" d="M172.144,69.84c-.563,12.607-15.75,24.2-15.75,24.2C178.894,92.572,188.1,77.8,188.1,77.8Z" fill="#faf6f0"/>
        <path id="Trazado_875407" data-name="Trazado 875407" d="M213.983,43l14.138,14.138a2.725,2.725,0,0,1,0,3.855L220.409,68.7a2.726,2.726,0,0,1-3.856,0L202.424,54.564,188.286,68.7a2.727,2.727,0,0,1-3.855,0l-7.712-7.713a2.725,2.725,0,0,1,0-3.855L190.857,43,176.719,28.859a2.727,2.727,0,0,1,0-3.856l7.711-7.7a2.726,2.726,0,0,1,3.855,0l14.138,14.138L216.554,17.3a2.726,2.726,0,0,1,3.855,0l7.71,7.7a2.725,2.725,0,0,1,0,3.856Z" fill="#b85e52"/>
        <path id="Trazado_875408" data-name="Trazado 875408" d="M91.619,182.764l-40.334.825V143.723H91.619Z" fill="#b86b58"/>
        <path id="Trazado_875409" data-name="Trazado 875409" d="M91.619,170.507V143.723H51.285s3.249,29.83,40.334,26.784" fill="#1f160f"/>
        <path id="Trazado_875410" data-name="Trazado 875410" d="M53.76,69.84c5.883-4.58,9.883-7.08,21.56-8.33,1.061-.114-3.186,4.525-2.08,4.386,11.435-1.449,19.18-.23,27.607,5.182,2.588,1.663-4.8,2.182-2.735,3.254,11.125,5.772,14.219,12.99,14.691,21.8a29.1,29.1,0,0,1-5.91,21.168c-1.795,7.121,2.854,8.624-2.011,17.12L43.143,133.2C32.6,109.5,30.149,89.923,37.638,78.437c.921-1.412-4.308.383-2.979-1.474,7.547-10.55,17.153-5.606,19.1-7.123" fill="#1f160f"/>
        <path id="Trazado_875411" data-name="Trazado 875411" d="M108.805,125.063c-.523,29.977-5.417,41.1-26.366,40.731-20.928-.365-36.322-11.839-35.8-41.816.522-29.954,20.032-39.7,31.781-39.494,11.77.206,30.906,10.625,30.383,40.579" fill="#b86b58"/>
        <path id="Trazado_875412" data-name="Trazado 875412" d="M33.793,121.947c1.3-9.736,8.1-12.245,15.1-4.741l-.38,21.763c-8.881,7.1-16.012-7.285-14.716-17.022" fill="#b86b58"/>
        <path id="Trazado_875413" data-name="Trazado 875413" d="M45.841,121.309c-2.431-3.51-7.139-4.257-8.7.933" fill="none" stroke="#1f160f" stroke-linecap="round" stroke-linejoin="round" stroke-width="1.12"/>
        <path id="Trazado_875414" data-name="Trazado 875414" d="M86.338,123.626c-.09,5.111,2.765,10.134,2.811,11.465s-3.224,4.146-5.8,2.98" fill="none" stroke="#1f160f" stroke-linecap="round" stroke-linejoin="round" stroke-width="1.12"/>
        <path id="Trazado_875415" data-name="Trazado 875415" d="M87.014,149.885c-5.62-3.688-13.683-2.688-13.683-2.688,5.25-7.5,14.562-3.843,13.683,2.688" fill="#1f160f"/>
        <path id="Trazado_875416" data-name="Trazado 875416" d="M96.945,121.163c-.032,1.856-1.062,3.343-2.3,3.322s-2.214-1.544-2.182-3.4,1.062-3.344,2.3-3.322,2.215,1.543,2.182,3.4" fill="#1f160f"/>
        <path id="Trazado_875417" data-name="Trazado 875417" d="M92.421,112.736c3.985-.822,6.451-.307,9.109,1.073" fill="none" stroke="#1f160f" stroke-linecap="round" stroke-linejoin="round" stroke-width="3.361"/>
        <path id="Trazado_875418" data-name="Trazado 875418" d="M71.453,120.625c-.033,1.856.944,3.378,2.181,3.4s2.267-1.465,2.3-3.321-.945-3.378-2.182-3.4-2.267,1.466-2.3,3.322" fill="#1f160f"/>
        <path id="Trazado_875419" data-name="Trazado 875419" d="M79.4,111.717c-4.8-.843-7.452-.347-10.26,1.358" fill="none" stroke="#1f160f" stroke-linecap="round" stroke-linejoin="round" stroke-width="3.361"/>
        <path id="Trazado_875420" data-name="Trazado 875420" d="M81.063,77.807c26.317.459,34.107,31.461,27.695,29.766-6.537-1.729-17.273-6.31-20.1-5.7l2.856,5.983c-3.437.43-17.825-2.813-23.062-11.719-2.871,14.155-10.916,11.226-16.467,31.04-1.149,4.1-4.407-5.4-4.623-11.448-.195-5.409.8-38.494,33.7-37.92" fill="#1f160f"/>
        <path id="Trazado_875421" data-name="Trazado 875421" d="M51.285,170.725c-12.031,1.193-40.8,4.783-49.767,23.566-2.61,5.468-2.835,27.3,7.392,49.582,0,0-2.546,70.512-2.546,114.512h116.4c-2.6-32.4-2.982-71.888-3.373-102.048,0,0,10.566,6.745,18.6,11.2,11,6.105,32.471-27.5,22.953-38.685-13.68-16.079-31.066-36.33-43.309-45.265-9.369-6.838-17.9-7.979-26.01-12.864Z" fill="#ada489"/>
        <path id="Trazado_875422" data-name="Trazado 875422" d="M45.285,177.47c.068.244.333.957.333.957.213.611,5.463,15.06,27.7,22.493l2.614.874,2.365-1.413c2.894-1.728,17.424-10.918,19.249-22.139,0,0,.056-.359.078-.478a25.372,25.372,0,0,0,.3-3.876,51.205,51.205,0,0,1-6.3-3.163H51.285c-1.852.184-4.1.425-6.613.769a22.016,22.016,0,0,0,.613,5.976" fill="#faf6f0"/>
        <path id="Trazado_875423" data-name="Trazado 875423" d="M51.285,170.385H71.452l20.167.34v6.553c-1.47,9.033-16.4,17.952-16.4,17.952-19.692-6.584-23.931-18.773-23.931-18.773Z" fill="#b86b58"/>
        <path id="Trazado_875424" data-name="Trazado 875424" d="M119.39,256.337s-1.433-18.016-2.154-28.452" fill="none" stroke="#1f160f" stroke-linecap="round" stroke-linejoin="round" stroke-width="1.12"/>
        <path id="Trazado_875425" data-name="Trazado 875425" d="M31.144,305.385c32.25,28.875,77.672,15.375,77.672,15.375" fill="none" stroke="#1f160f" stroke-linecap="round" stroke-linejoin="round" stroke-width="1.12"/>
        <path id="Trazado_875426" data-name="Trazado 875426" d="M137.986,267.54c11.989,8.346,33.406-22.607,22.952-38.686-3.637-5.594-31.075,33.031-22.952,38.686" fill="#1f160f"/>
        <path id="Trazado_875427" data-name="Trazado 875427" d="M136.734,167.4c-.26,1.88-3.95,10.82-4.21,13.84s-1.03,12.93-2.34,16.64-10.07,13.28-10.07,13.28c-3.13,3.44-25.78,55.03-56.54,85.73-5.74,5.72-16.008,1.323-20.43-2.01-2.852-2.15-17.517-27.531-17.517-27.531S51.2,255.135,55.7,247.635l2.352,5.005,43.968-49.855s3.41-24.29,3.56-25.33,2.28-12.43,2.51-14.08,3.15-17.19,3.15-17.19,3.6-.86,4.88,1.3l1.36-9.65a4.579,4.579,0,0,1,5.1,1.61l1.1-4.02s4.55.22,4.66,2.84a23.762,23.762,0,0,1-.89,5.09s2.58.42,2.48,2.63-4.16,22.64-4.27,23.38,1.36,5.41.43,7.91c.41-1.05,3.77-9.53,6.22-11.66,2.6-2.27,4.68-.08,4.42,1.79" fill="#b86b58"/>
        <path id="Trazado_875428" data-name="Trazado 875428" d="M126.051,177.388a44.466,44.466,0,0,1,.842,7.234" fill="none" stroke="#1f160f" stroke-linecap="round" stroke-linejoin="round" stroke-width="1.12"/>
        <path id="Trazado_875429" data-name="Trazado 875429" d="M114.214,169.5c-.805-4.373,2.682-19.353,1.91-22.019" fill="none" stroke="#1f160f" stroke-linecap="round" stroke-linejoin="round" stroke-width="1.12"/>
        <path id="Trazado_875430" data-name="Trazado 875430" d="M116.438,206.021c3.44-6.512.244-21.568.244-24.562" fill="none" stroke="#1f160f" stroke-linecap="round" stroke-linejoin="round" stroke-width="1.12"/>
        <path id="Trazado_875431" data-name="Trazado 875431" d="M122.587,139.443c.393,1.617-3.544,23.586-3.867,29.032" fill="none" stroke="#1f160f" stroke-linecap="round" stroke-linejoin="round" stroke-width="1.12"/>
        <path id="Trazado_875432" data-name="Trazado 875432" d="M127.453,143.354c-.234,2.215-5.643,25.387-5.643,25.387" fill="none" stroke="#1f160f" stroke-linecap="round" stroke-linejoin="round" stroke-width="1.12"/>
        <path id="Trazado_875433" data-name="Trazado 875433" d="M124.649,169.2s-7.076-1.028-10.5-.164" fill="none" stroke="#1f160f" stroke-linecap="round" stroke-linejoin="round" stroke-width="1.12"/>
        <path id="Trazado_875434" data-name="Trazado 875434" d="M58.056,252.64c-8.04,10.96-4.753,29.62-4.753,29.62" fill="none" stroke="#1f160f" stroke-linecap="round" stroke-linejoin="round" stroke-width="1.12"/>
        <path id="Trazado_875435" data-name="Trazado 875435" d="M8.911,243.874c3.267,11.238,12.133,25.337,12.133,25.337s27.069-9.736,37.239-24.625c0,0-17.59-49.352-22.8-58.026" fill="none" stroke="#1f160f" stroke-linecap="round" stroke-linejoin="round" stroke-width="1.12"/>
        <path id="Trazado_875436" data-name="Trazado 875436" d="M26.8,193.74a35.982,35.982,0,0,1,17.648,13.6" fill="none" stroke="#1f160f" stroke-linecap="round" stroke-linejoin="round" stroke-width="1.12"/>
        <path id="Trazado_875437" data-name="Trazado 875437" d="M229.122,145.419s-7.276-9.523-14.134-11c-3.745-.8-23.071,3.047-23.748,3.924-5.722,7.412-16.228,31.06-16.228,31.06s-10.369,31.727-15.593,57.705c0,0-16.48,12.38-21.433,30.033,0,0,19.78,17.6,23.532,19.114,4.119,1.666,14.569-1.322,18.354-5.441,10.181-11.076,5.959-35.933,15.627-93.432,0,0,17.056-5.353,19.269-7.439s9.489-7.313,11.494-9.188,5.344-9.683,5.344-9.683c-6.463-.442-11.435,4.971-11.435,4.971-3.9.462-6.817,2.449-8.692,2.449a9.533,9.533,0,0,1-8.088-4.73c2.455-2.038,5.315-7.428,5.315-7.428,5.859-1.032,9.448-1.975,9.448-1.975a12.541,12.541,0,0,0,5.584,2.051,10.749,10.749,0,0,0,5.384-1" fill="#b86b58"/>
        <rect id="Rectángulo_401356" data-name="Rectángulo 401356" width="48" height="6" transform="translate(209.798 148.19) rotate(-8)" fill="#faf6f0"/>
        <path id="Trazado_875438" data-name="Trazado 875438" d="M259.341,143.643c13.49-12.7-.259-8.456,2.24-30.878-12.313,17.182,2,19.3-2.24,30.878" fill="#ada489"/>
        <path id="Trazado_875439" data-name="Trazado 875439" d="M258.86,143.712a1.691,1.691,0,0,0-1.529-2.2l.835,5.941c3.031-1.754.281-2.639.694-3.739" fill="#1f160f"/>
        <rect id="Rectángulo_401357" data-name="Rectángulo 401357" width="21.958" height="6" transform="matrix(0.99, -0.139, 0.139, 0.99, 209.798, 148.19)" fill="#ef941d"/>
        <path id="Trazado_875440" data-name="Trazado 875440" d="M228.3,145.59s-4.716-4.643-5.9-5.393a21.473,21.473,0,0,0-7.437-2.125c-1.75.063-17.75,3.758-17.75,3.758" fill="none" stroke="#1f160f" stroke-linecap="round" stroke-linejoin="round" stroke-width="1.12"/>
        <path id="Trazado_875441" data-name="Trazado 875441" d="M211.478,158.5c-2.772.076-8.585-2.549-9.991-5.831" fill="none" stroke="#1f160f" stroke-linecap="round" stroke-linejoin="round" stroke-width="1.12"/>
        <path id="Trazado_875442" data-name="Trazado 875442" d="M195.5,177.388a34.627,34.627,0,0,1-5.448.872" fill="none" stroke="#1f160f" stroke-linecap="round" stroke-linejoin="round" stroke-width="1.12"/>
        <path id="Trazado_875443" data-name="Trazado 875443" d="M159.42,227.113c-3.276,14.522-1.776,32.772-1.776,32.772" fill="none" stroke="#1f160f" stroke-linecap="round" stroke-linejoin="round" stroke-width="1.12"/>
      </g>
    </g>
  </g>
</svg>
