<svg xmlns="http://www.w3.org/2000/svg" xmlns:xlink="http://www.w3.org/1999/xlink" width="164.198" height="231.389" viewBox="0 0 164.198 231.389">
  <defs>
    <clipPath id="clip-path">
      <rect id="Rectángulo_401363" data-name="Rectángulo 401363" width="125.409" height="206.137" fill="none"/>
    </clipPath>
    <clipPath id="clip-path-2">
      <rect id="Rectángulo_401364" data-name="Rectángulo 401364" width="164.198" height="59.883" fill="none"/>
    </clipPath>
  </defs>
  <g id="_47" data-name="47" transform="translate(-186 -2145.351)">
    <g id="Grupo_1099182" data-name="Grupo 1099182" transform="translate(214.853 2145.351)">
      <g id="Grupo_1099181" data-name="Grupo 1099181" clip-path="url(#clip-path)">
        <path id="Trazado_875459" data-name="Trazado 875459" d="M13.458,271.208s-1.284,5.721.117,6.889,10.508,5.02,38.646,6.422,52.073-5.839,53.824-7.707.233-10.391.233-10.391-14.127,8.29-30.239,10.158-39.7-.351-48.8-2.919-13.194-3.737-13.194-3.737Z" transform="translate(-3.827 -78.912)" fill="#92e3a9"/>
        <path id="Trazado_875460" data-name="Trazado 875460" d="M13.458,271.208s-1.284,5.721.117,6.889,10.508,5.02,38.646,6.422,52.073-5.839,53.824-7.707.233-10.391.233-10.391-14.127,8.29-30.239,10.158-39.7-.351-48.8-2.919-13.194-3.737-13.194-3.737Z" transform="translate(-3.827 -78.912)" fill="none" stroke="#263238" stroke-linecap="round" stroke-linejoin="round" stroke-width="1"/>
        <path id="Trazado_875461" data-name="Trazado 875461" d="M51.568,104.683s-22.521.437-24.27,1.968-9.183,87.241-11.151,95.55S8.931,221,10.9,223.847s33.672,8.746,52.257,8.746,37.608-7.434,41.325-11.588,1.75-9.621,1.094-12.245-4.155-20.553-3.936-21.209,6.559-22.3,6.559-22.3,15.743-35.421,13.556-39.139-24.27-15.743-24.27-15.743l-40.232-6.341Z" transform="translate(-3.1 -30.812)" fill="#92e3a9"/>
        <path id="Trazado_875462" data-name="Trazado 875462" d="M51.568,104.683s-22.521.437-24.27,1.968-9.183,87.241-11.151,95.55S8.931,221,10.9,223.847s33.672,8.746,52.257,8.746,37.608-7.434,41.325-11.588,1.75-9.621,1.094-12.245-4.155-20.553-3.936-21.209,6.559-22.3,6.559-22.3,15.743-35.421,13.556-39.139-24.27-15.743-24.27-15.743l-40.232-6.341Z" transform="translate(-3.1 -30.812)" fill="none" stroke="#263238" stroke-linecap="round" stroke-linejoin="round" stroke-width="1"/>
        <path id="Trazado_875463" data-name="Trazado 875463" d="M18.538,240.356a57.839,57.839,0,0,1,11.96-1.017,46.1,46.1,0,0,1,9.34,1.394s-6.133-7.249-9.478-7.806S19.9,234.878,19.9,234.878Z" transform="translate(-5.491 -68.967)" fill="#263238"/>
        <path id="Trazado_875464" data-name="Trazado 875464" d="M18.538,240.356a57.839,57.839,0,0,1,11.96-1.017,46.1,46.1,0,0,1,9.34,1.394s-6.133-7.249-9.478-7.806S19.9,234.878,19.9,234.878Z" transform="translate(-5.491 -68.967)" fill="none" stroke="#263238" stroke-linecap="round" stroke-linejoin="round" stroke-width="1"/>
        <path id="Trazado_875465" data-name="Trazado 875465" d="M106.308,96.851c0-7.726-8.73-13.989-19.5-13.989s-19.5,6.263-19.5,13.989,8.729,13.989,19.5,13.989,19.5-6.263,19.5-13.989" transform="translate(-19.937 -24.543)" fill="#263238"/>
        <path id="Trazado_875466" data-name="Trazado 875466" d="M106.308,96.851c0-7.726-8.73-13.989-19.5-13.989s-19.5,6.263-19.5,13.989,8.729,13.989,19.5,13.989S106.308,104.577,106.308,96.851Z" transform="translate(-19.937 -24.543)" fill="none" stroke="#263238" stroke-linecap="round" stroke-linejoin="round" stroke-width="1"/>
        <path id="Trazado_875467" data-name="Trazado 875467" d="M87.018,171.933a20.543,20.543,0,0,1,3.045-1.843" transform="translate(-25.774 -50.379)" fill="none" stroke="#263238" stroke-linecap="round" stroke-linejoin="round" stroke-width="1"/>
        <path id="Trazado_875468" data-name="Trazado 875468" d="M62.894,190.443s7.676-9.41,14.657-15.183" transform="translate(-18.629 -51.911)" fill="none" stroke="#263238" stroke-linecap="round" stroke-linejoin="round" stroke-width="1"/>
        <path id="Trazado_875469" data-name="Trazado 875469" d="M72.326,173.788S65.919,182,64.317,185" transform="translate(-19.05 -51.475)" fill="none" stroke="#263238" stroke-linecap="round" stroke-linejoin="round" stroke-width="1"/>
        <path id="Trazado_875470" data-name="Trazado 875470" d="M78.309,139.37a15.842,15.842,0,0,0,1.165,1.4" transform="translate(-23.194 -41.28)" fill="none" stroke="#263238" stroke-linecap="round" stroke-linejoin="round" stroke-width="1"/>
        <path id="Trazado_875471" data-name="Trazado 875471" d="M65.739,116.318s4.236,9.458,7.964,14.981" transform="translate(-19.471 -34.452)" fill="none" stroke="#263238" stroke-linecap="round" stroke-linejoin="round" stroke-width="1"/>
        <path id="Trazado_875472" data-name="Trazado 875472" d="M62.61,115.18s3.8,12.215,5.407,14.617" transform="translate(-18.545 -34.115)" fill="none" stroke="#263238" stroke-linecap="round" stroke-linejoin="round" stroke-width="1"/>
        <path id="Trazado_875473" data-name="Trazado 875473" d="M53.945,169.408c.193,1.185.393,2.194.6,2.956" transform="translate(-15.978 -50.177)" fill="none" stroke="#263238" stroke-linecap="round" stroke-linejoin="round" stroke-width="1"/>
        <path id="Trazado_875474" data-name="Trazado 875474" d="M50.571,133.7s.909,14.943,2.144,23.607" transform="translate(-14.979 -39.601)" fill="none" stroke="#263238" stroke-linecap="round" stroke-linejoin="round" stroke-width="1"/>
        <path id="Trazado_875475" data-name="Trazado 875475" d="M32.921,272.355c3.421,2.522,9.845,6.71,16.88,8.519" transform="translate(-9.751 -80.669)" fill="none" stroke="#263238" stroke-linecap="round" stroke-linejoin="round" stroke-width="1"/>
        <path id="Trazado_875476" data-name="Trazado 875476" d="M29.245,269.468s.561.488,1.565,1.261" transform="translate(-8.662 -79.814)" fill="none" stroke="#263238" stroke-linecap="round" stroke-linejoin="round" stroke-width="1"/>
        <path id="Trazado_875477" data-name="Trazado 875477" d="M9.852,220.768S8.133,225.6,7.488,227a3.507,3.507,0,0,0,.645,3.867c.859.752,2.578,2.578,4.3,2.9s2.256-.108,2.471-.859l.215-.752s3.438,1.5,5.8,1.289a11.567,11.567,0,0,0,4.619-1.719l3.545.429,3.653-9.775s-5.371-1.719-7.413-2.363-10.635-2.9-13-2.363a3.39,3.39,0,0,0-2.471,3.115" transform="translate(-2.126 -64.443)" fill="#fcf9e8"/>
        <path id="Trazado_875478" data-name="Trazado 875478" d="M9.852,220.768S8.133,225.6,7.488,227a3.507,3.507,0,0,0,.645,3.867c.859.752,2.578,2.578,4.3,2.9s2.256-.108,2.471-.859l.215-.752s3.438,1.5,5.8,1.289a11.567,11.567,0,0,0,4.619-1.719l3.545.429,3.653-9.775s-5.371-1.719-7.413-2.363-10.635-2.9-13-2.363A3.39,3.39,0,0,0,9.852,220.768Z" transform="translate(-2.126 -64.443)" fill="none" stroke="#263238" stroke-linecap="round" stroke-linejoin="round" stroke-width="1"/>
        <line id="Línea_584" data-name="Línea 584" x1="4.082" y1="0.967" transform="translate(8.908 166.745)" fill="none" stroke="#263238" stroke-linecap="round" stroke-linejoin="round" stroke-width="1"/>
        <path id="Trazado_875479" data-name="Trazado 875479" d="M40.551,224.151s-4.205,5.407-4.405,8.009,2,2.8,3.8,3.4,9.912-12.015,9.317-12.163-6.435-1.622-8.716.75" transform="translate(-10.702 -65.996)" fill="#263238"/>
        <path id="Trazado_875480" data-name="Trazado 875480" d="M40.551,224.151s-4.205,5.407-4.405,8.009,2,2.8,3.8,3.4,9.912-12.015,9.317-12.163S42.832,221.78,40.551,224.151Z" transform="translate(-10.702 -65.996)" fill="none" stroke="#263238" stroke-linecap="round" stroke-linejoin="round" stroke-width="1"/>
        <path id="Trazado_875481" data-name="Trazado 875481" d="M106.554,139.664S91.135,169.1,88.332,176.307s-3.4,9.411-3.4,9.411l-1,6.007s-33.64-.2-36.043.6-11.013,9.01-6.808,12.414,17.621,6.407,31.837,10.212,24.629,5.005,27.032.8,23.628-44.453,27.633-58.069,12.815-23.027,7.809-30.836-24.029-8.411-26.631-8.01" transform="translate(-11.829 -35.172)" fill="#92e3a9"/>
        <path id="Trazado_875482" data-name="Trazado 875482" d="M106.554,139.664S91.135,169.1,88.332,176.307s-3.4,9.411-3.4,9.411l-1,6.007s-33.64-.2-36.043.6-11.013,9.01-6.808,12.414,17.621,6.407,31.837,10.212,24.629,5.005,27.032.8,23.628-44.453,27.633-58.069,12.815-23.027,7.809-30.836-24.029-8.411-26.631-8.01" transform="translate(-11.829 -35.172)" fill="none" stroke="#263238" stroke-linecap="round" stroke-linejoin="round" stroke-width="1"/>
        <path id="Trazado_875483" data-name="Trazado 875483" d="M152.991,168.67c-4.782,3.9-12.993,10.189-18.852,12.593" transform="translate(-39.731 -49.959)" fill="none" stroke="#263238" stroke-linecap="round" stroke-linejoin="round" stroke-width="1"/>
        <path id="Trazado_875484" data-name="Trazado 875484" d="M165.792,163.68s-.934.8-2.463,2.058" transform="translate(-48.377 -48.481)" fill="none" stroke="#263238" stroke-linecap="round" stroke-linejoin="round" stroke-width="1"/>
        <path id="Trazado_875485" data-name="Trazado 875485" d="M141.24,183s-6.274,3.138-10.667,4.811" transform="translate(-38.675 -54.202)" fill="none" stroke="#263238" stroke-linecap="round" stroke-linejoin="round" stroke-width="1"/>
        <path id="Trazado_875486" data-name="Trazado 875486" d="M101.6,246.772a8.948,8.948,0,0,0,1.384,1.707" transform="translate(-30.094 -73.092)" fill="none" stroke="#263238" stroke-linecap="round" stroke-linejoin="round" stroke-width="1"/>
        <path id="Trazado_875487" data-name="Trazado 875487" d="M94.489,226.606a64.418,64.418,0,0,0,3.631,11.629" transform="translate(-27.987 -67.119)" fill="none" stroke="#263238" stroke-linecap="round" stroke-linejoin="round" stroke-width="1"/>
        <path id="Trazado_875488" data-name="Trazado 875488" d="M87.521,230.406s.149,7.579.892,9.362" transform="translate(-25.923 -68.244)" fill="none" stroke="#263238" stroke-linecap="round" stroke-linejoin="round" stroke-width="1"/>
        <path id="Trazado_875489" data-name="Trazado 875489" d="M106.123,228,126,236.212l2.308-3.207Z" transform="translate(-31.433 -67.533)" fill="#263238"/>
        <path id="Trazado_875490" data-name="Trazado 875490" d="M106.123,228,126,236.212l2.308-3.207Z" transform="translate(-31.433 -67.533)" fill="none" stroke="#263238" stroke-linecap="round" stroke-linejoin="round" stroke-width="1"/>
        <path id="Trazado_875491" data-name="Trazado 875491" d="M101.218,204.245s11.729-1.466,13.2-2.932,5.865-5.465,7.2-5.731,7.6,1.2,9.063,1.2,3.6-2.666,5.2-2.533,2.4,2.133,1.866,3.732-3.6,3.333-4.265,3.466a14.616,14.616,0,0,0-1.733.532,73.359,73.359,0,0,1,7.331,1.733c1.733.667,1.733,2.266,1.066,3.865A6.442,6.442,0,0,1,138,210.643a19.563,19.563,0,0,0-2.532,2.8s.666,2.266-.4,3.732a12.793,12.793,0,0,1-2.4,2.665c-.533.4.636.622-.528,2.012-.814.973-.92,1.361-4.8,1.986-1.249.2-6.4-.8-10-2s-9.863-2.666-9.863-2.666l-8.53-2Z" transform="translate(-29.309 -57.534)" fill="#fcf9e8"/>
        <path id="Trazado_875492" data-name="Trazado 875492" d="M101.218,204.245s11.729-1.466,13.2-2.932,5.865-5.465,7.2-5.731,7.6,1.2,9.063,1.2,3.6-2.666,5.2-2.533,2.4,2.133,1.866,3.732-3.6,3.333-4.265,3.466a14.616,14.616,0,0,0-1.733.532,73.359,73.359,0,0,1,7.331,1.733c1.733.667,1.733,2.266,1.066,3.865A6.442,6.442,0,0,1,138,210.643a19.563,19.563,0,0,0-2.532,2.8s.666,2.266-.4,3.732a12.793,12.793,0,0,1-2.4,2.665c-.533.4.636.622-.528,2.012-.814.973-.92,1.361-4.8,1.986-1.249.2-6.4-.8-10-2s-9.863-2.666-9.863-2.666l-8.53-2Z" transform="translate(-29.309 -57.534)" fill="none" stroke="#263238" stroke-linecap="round" stroke-linejoin="round" stroke-width="1"/>
        <path id="Trazado_875493" data-name="Trazado 875493" d="M150.385,212.77s.129,2.961-.644,3.991a6.97,6.97,0,0,1-1.931,1.674,5.032,5.032,0,0,1-.258,2.961l-.644,1.416s-1.05,1.262-.659,2.1" transform="translate(-43.292 -63.021)" fill="none" stroke="#263238" stroke-linecap="round" stroke-linejoin="round" stroke-width="1"/>
        <path id="Trazado_875494" data-name="Trazado 875494" d="M90.613,206.236l8.308,1.312-2.4,13.119-5.029-1.093Z" transform="translate(-26.839 -61.085)" fill="#263238"/>
        <path id="Trazado_875495" data-name="Trazado 875495" d="M90.613,206.236l8.308,1.312-2.4,13.119-5.029-1.093Z" transform="translate(-26.839 -61.085)" fill="none" stroke="#263238" stroke-linecap="round" stroke-linejoin="round" stroke-width="1"/>
        <path id="Trazado_875496" data-name="Trazado 875496" d="M34.842,106.031s-10.932-5.248-17.93-2.624S9.478,120.9,9.26,122.866s-7.871,51.6-8.746,59.691,40.669,12.026,50.071,11.807S64.14,191.3,64.8,188.9s3.936-12.463,1.75-13.775S25.221,165.5,25.221,165.5l-2.187-2.624s4.811-28.862,5.685-33.453" transform="translate(-0.148 -30.411)" fill="#92e3a9"/>
        <path id="Trazado_875497" data-name="Trazado 875497" d="M34.842,106.031s-10.932-5.248-17.93-2.624S9.478,120.9,9.26,122.866s-7.871,51.6-8.746,59.691,40.669,12.026,50.071,11.807S64.14,191.3,64.8,188.9s3.936-12.463,1.75-13.775S25.221,165.5,25.221,165.5l-2.187-2.624s4.811-28.862,5.685-33.453" transform="translate(-0.148 -30.411)" fill="none" stroke="#263238" stroke-linecap="round" stroke-linejoin="round" stroke-width="1"/>
        <path id="Trazado_875498" data-name="Trazado 875498" d="M16.3,193.728a10.076,10.076,0,0,0-1.494.714" transform="translate(-4.387 -57.381)" fill="none" stroke="#263238" stroke-linecap="round" stroke-linejoin="round" stroke-width="1"/>
        <path id="Trazado_875499" data-name="Trazado 875499" d="M31.134,191.893a41.887,41.887,0,0,0-10.673.532" transform="translate(-6.06 -56.799)" fill="none" stroke="#263238" stroke-linecap="round" stroke-linejoin="round" stroke-width="1"/>
        <path id="Trazado_875500" data-name="Trazado 875500" d="M12.946,185.961s7.215-.875,11.588,1.093" transform="translate(-3.834 -55.023)" fill="none" stroke="#263238" stroke-linecap="round" stroke-linejoin="round" stroke-width="1"/>
        <path id="Trazado_875501" data-name="Trazado 875501" d="M75.269,103.765s8.986,5.041,15.779,3.506S97.184,89.74,97.184,89.74l-5.478-3.726Z" transform="translate(-22.294 -25.477)" fill="#f6f0ca"/>
        <path id="Trazado_875502" data-name="Trazado 875502" d="M75.269,103.765s8.986,5.041,15.779,3.506S97.184,89.74,97.184,89.74l-5.478-3.726Z" transform="translate(-22.294 -25.477)" fill="none" stroke="#263238" stroke-linecap="round" stroke-linejoin="round" stroke-width="1"/>
        <path id="Trazado_875503" data-name="Trazado 875503" d="M91.566,93.62l-7.123,2.489-9.174,9.908a36.564,36.564,0,0,0,5.619,2.422Z" transform="translate(-22.294 -27.729)" fill="#263238"/>
        <path id="Trazado_875504" data-name="Trazado 875504" d="M91.566,93.62l-7.123,2.489-9.174,9.908a36.564,36.564,0,0,0,5.619,2.422Z" transform="translate(-22.294 -27.729)" fill="none" stroke="#263238" stroke-linecap="round" stroke-linejoin="round" stroke-width="1"/>
        <path id="Trazado_875505" data-name="Trazado 875505" d="M49.427,9.8S32.039,25.26,31.864,37.905s7.9,26.169,7.9,26.169S30.985,78.827,30.81,81.11s5.269,7.377,5.8,7.377S42.4,84.1,42.4,84.1l-2.986,6.5,8.957,4.742s4.205-15.981,6.5-21.076c0,0-9.66-17.914-10.362-24.939S44.158,35.8,46.09,32.461s11.24-8.079,11.767-8.43,12.469,9.484,14.4,17.739,8.469,22.86,8.469,22.86S77.7,80.583,76.3,84.8s-6.147,8.957-6.147,8.957a95.239,95.239,0,0,0,9.835,3.161,25.734,25.734,0,0,0,3.513.526s4.215-7.025,4.566-7.552.351,7.025.351,7.025a41.205,41.205,0,0,0,15.1-4.742,48.244,48.244,0,0,0,12.294-9.484s4.742-2.107,7.025-9.133-2.635-14.226-8.43-21.076-7.9-8.957-9.836-19.144-5.445-20.9-14.928-27.4-22.48-6.674-28.8-3.162S49.427,9.8,49.427,9.8" transform="translate(-9.124 -0.148)" fill="#12263f"/>
        <path id="Trazado_875506" data-name="Trazado 875506" d="M49.427,9.8S32.039,25.26,31.864,37.905s7.9,26.169,7.9,26.169S30.985,78.827,30.81,81.11s5.269,7.377,5.8,7.377S42.4,84.1,42.4,84.1l-2.986,6.5,8.957,4.742s4.205-15.981,6.5-21.076c0,0-9.66-17.914-10.362-24.939S44.158,35.8,46.09,32.461s11.24-8.079,11.767-8.43,12.469,9.484,14.4,17.739,8.469,22.86,8.469,22.86S77.7,80.583,76.3,84.8s-6.147,8.957-6.147,8.957a95.239,95.239,0,0,0,9.835,3.161,25.734,25.734,0,0,0,3.513.526s4.215-7.025,4.566-7.552.351,7.025.351,7.025a41.205,41.205,0,0,0,15.1-4.742,48.244,48.244,0,0,0,12.294-9.484s4.742-2.107,7.025-9.133-2.635-14.226-8.43-21.076-7.9-8.957-9.836-19.144-5.445-20.9-14.928-27.4-22.48-6.674-28.8-3.162S49.427,9.8,49.427,9.8Z" transform="translate(-9.124 -0.148)" fill="none" stroke="#263238" stroke-linecap="round" stroke-linejoin="round" stroke-width="1"/>
        <path id="Trazado_875507" data-name="Trazado 875507" d="M62.461,24.671S49.093,34.971,47.12,37.382s-.438,7.671-.876,14.465,3.068,14.025,5.04,17.751,7.232,15.34,11.177,16.217,4.164-.22,4.164-.22S81.09,78.8,85.253,71.789c0,0-2.63-15.34-3.944-21.258a53.19,53.19,0,0,0-1.973-7.451S72.1,33.437,68.816,30.369s-6.355-5.7-6.355-5.7" transform="translate(-13.65 -7.307)" fill="#f6f0ca"/>
        <path id="Trazado_875508" data-name="Trazado 875508" d="M62.461,24.671S49.093,34.971,47.12,37.382s-.438,7.671-.876,14.465,3.068,14.025,5.04,17.751,7.232,15.34,11.177,16.217,4.164-.22,4.164-.22S81.09,78.8,85.253,71.789c0,0-2.63-15.34-3.944-21.258a53.19,53.19,0,0,0-1.973-7.451S72.1,33.437,68.816,30.369,62.461,24.671,62.461,24.671Z" transform="translate(-13.65 -7.307)" fill="none" stroke="#263238" stroke-linecap="round" stroke-linejoin="round" stroke-width="1"/>
        <path id="Trazado_875509" data-name="Trazado 875509" d="M54.887,69.907s1.453-1.759,3.043-.886" transform="translate(-16.257 -20.371)" fill="none" stroke="#263238" stroke-linecap="round" stroke-linejoin="round" stroke-width="1"/>
        <path id="Trazado_875510" data-name="Trazado 875510" d="M60.55,70.845c.248,1.111-.117,2.14-.815,2.3s-1.467-.619-1.715-1.731.117-2.14.815-2.3,1.467.618,1.715,1.73" transform="translate(-17.162 -20.465)" fill="#263238"/>
        <path id="Trazado_875511" data-name="Trazado 875511" d="M81.04,70.641c.248,1.112-.117,2.14-.816,2.3s-1.466-.619-1.714-1.731.117-2.139.815-2.3,1.467.619,1.715,1.73" transform="translate(-23.231 -20.405)" fill="#263238"/>
        <path id="Trazado_875512" data-name="Trazado 875512" d="M75.011,69.128a4.129,4.129,0,0,1,3.908,0" transform="translate(-22.218 -20.33)" fill="none" stroke="#263238" stroke-linecap="round" stroke-linejoin="round" stroke-width="1"/>
        <path id="Trazado_875513" data-name="Trazado 875513" d="M69.353,24.209S74.6,38.568,86.228,42.617c0,0-11.727-7.315-13.588-19.507" transform="translate(-20.542 -6.845)" fill="#263238"/>
        <path id="Trazado_875514" data-name="Trazado 875514" d="M69.353,24.209S74.6,38.568,86.228,42.617c0,0-11.727-7.315-13.588-19.507" transform="translate(-20.542 -6.845)" fill="none" stroke="#263238" stroke-linecap="round" stroke-linejoin="round" stroke-width="1"/>
        <path id="Trazado_875515" data-name="Trazado 875515" d="M69.463,59.43s-.941.933.887,1.7,7.913,2.109,9.195,1.2-6.716-3.451-10.082-2.9" transform="translate(-20.503 -17.58)" fill="#263238"/>
        <path id="Trazado_875516" data-name="Trazado 875516" d="M69.463,59.43s-.941.933.887,1.7,7.913,2.109,9.195,1.2S72.829,58.876,69.463,59.43Z" transform="translate(-20.503 -17.58)" fill="none" stroke="#263238" stroke-linecap="round" stroke-linejoin="round" stroke-width="1"/>
        <path id="Trazado_875517" data-name="Trazado 875517" d="M55.33,59.378s-5.139,2.223-6.346,3.458,5.633-.255,6.839-1.491-.493-1.966-.493-1.966" transform="translate(-14.467 -17.587)" fill="#263238"/>
        <path id="Trazado_875518" data-name="Trazado 875518" d="M55.33,59.378s-5.139,2.223-6.346,3.458,5.633-.255,6.839-1.491S55.33,59.378,55.33,59.378Z" transform="translate(-14.467 -17.587)" fill="none" stroke="#263238" stroke-linecap="round" stroke-linejoin="round" stroke-width="1"/>
        <path id="Trazado_875519" data-name="Trazado 875519" d="M60.627,64.641A21.283,21.283,0,0,1,62.676,68.9a32.963,32.963,0,0,1,.4,3.452" transform="translate(-17.957 -19.146)" fill="none" stroke="#263238" stroke-linecap="round" stroke-linejoin="round" stroke-width="1"/>
        <path id="Trazado_875520" data-name="Trazado 875520" d="M64.649,87.117s-.265,1.859.4,2.524,2.259,1.726,5.18.265" transform="translate(-19.133 -25.803)" fill="none" stroke="#263238" stroke-linecap="round" stroke-linejoin="round" stroke-width="1"/>
        <path id="Trazado_875521" data-name="Trazado 875521" d="M68.257,98.063a3.824,3.824,0,0,0,2.789,0" transform="translate(-20.217 -29.045)" fill="none" stroke="#263238" stroke-linecap="round" stroke-linejoin="round" stroke-width="1"/>
        <path id="Trazado_875522" data-name="Trazado 875522" d="M68.5,58.721s-1.461-2.524,0-4.649" transform="translate(-20.097 -16.016)" fill="none" stroke="#263238" stroke-linecap="round" stroke-linejoin="round" stroke-width="1"/>
      </g>
    </g>
    <g id="Grupo_1099184" data-name="Grupo 1099184" transform="translate(186 2316.856)">
      <g id="Grupo_1099183" data-name="Grupo 1099183" clip-path="url(#clip-path-2)">
        <path id="Trazado_875523" data-name="Trazado 875523" d="M1,28.279s10.246-2.157,11.055-4.044-.539-7.55,3.236-8.628,10.515,1.348,12.133.809,4.584-7.01,6.2-7.819a13.915,13.915,0,0,1,4.581-.343" transform="translate(-0.598 -4.928)" fill="none" stroke="#263238" stroke-linecap="round" stroke-linejoin="round" stroke-width="2"/>
        <path id="Trazado_875524" data-name="Trazado 875524" d="M95.592,3.668,87.443,6.522,89.5,3.357,87.776,0Z" transform="translate(-52.319 0)" fill="#263238"/>
        <path id="Trazado_875525" data-name="Trazado 875525" d="M28.522,77.319s7.819-.809,8.9-2.966-1.079-5.393,1.887-8.9,5.932.539,8.9-.809,5.123-4.314,5.932-4.853,1.887.27,2.966-.539a34.473,34.473,0,0,0,3.723-4.205" transform="translate(-17.065 -32.937)" fill="none" stroke="#263238" stroke-linecap="round" stroke-linejoin="round" stroke-width="2"/>
        <path id="Trazado_875526" data-name="Trazado 875526" d="M107.617,46.052l-3.927,7.69L103,50.029l-3.568-1.237Z" transform="translate(-59.491 -27.554)" fill="#263238"/>
        <path id="Trazado_875527" data-name="Trazado 875527" d="M345.285,54.683s-7.819-.27-9.976-1.618-2.966-4.853-4.853-5.662-8.628-1.887-8.628-1.887-1.618-.27-4.044-2.7c-2.09-2.09-.98-1.78-1.837-2.17" transform="translate(-189.038 -24.321)" fill="none" stroke="#263238" stroke-linecap="round" stroke-linejoin="round" stroke-width="2"/>
        <path id="Trazado_875528" data-name="Trazado 875528" d="M302.4,36.169l8.628-.326-2.9,2.417.661,3.718Z" transform="translate(-180.93 -21.446)" fill="#263238"/>
        <path id="Trazado_875529" data-name="Trazado 875529" d="M361.592,19.482a64.375,64.375,0,0,1-6.471.539c-2.427,0-8.9-1.618-8.9-1.618l-4.853-1.887s-5.123.539-6.741.539c-.949,0-2.734.093-4.046.17" transform="translate(-197.796 -9.882)" fill="none" stroke="#263238" stroke-linecap="round" stroke-linejoin="round" stroke-width="2"/>
        <path id="Trazado_875530" data-name="Trazado 875530" d="M316.492,13.582l7.767-3.772-1.683,3.381,2.1,3.137Z" transform="translate(-189.365 -5.87)" fill="#263238"/>
        <path id="Trazado_875531" data-name="Trazado 875531" d="M325.259,116.9s-3.775-5.662-5.932-7.01a76.341,76.341,0,0,1-6.471-5.123l-1.078-6.471-1.813-2.331" transform="translate(-185.459 -57.418)" fill="none" stroke="#263238" stroke-linecap="round" stroke-linejoin="round" stroke-width="2"/>
        <path id="Trazado_875532" data-name="Trazado 875532" d="M303.067,83.642l6.839,5.27h-3.777l-1.87,3.28Z" transform="translate(-181.332 -50.045)" fill="#263238"/>
        <path id="Trazado_875533" data-name="Trazado 875533" d="M83.565,112.847s2.157-4.584,3.236-6.471,1.348-2.966,2.7-5.662a13.273,13.273,0,0,1,2.634-3.41" transform="translate(-49.999 -58.219)" fill="none" stroke="#263238" stroke-linecap="round" stroke-linejoin="round" stroke-width="2"/>
        <path id="Trazado_875534" data-name="Trazado 875534" d="M102.44,86.327,99.868,94.57l-1.311-3.542-3.725-.617Z" transform="translate(-56.741 -51.652)" fill="#263238"/>
      </g>
    </g>
  </g>
</svg>
