<svg xmlns="http://www.w3.org/2000/svg" xmlns:xlink="http://www.w3.org/1999/xlink" width="1326" height="501" viewBox="0 0 1326 501">
  <defs>
    <clipPath id="clip-path">
      <rect id="Rectángulo_400924" data-name="Rectángulo 400924" width="1326" height="501" transform="translate(137 1027)" fill="#fff"/>
    </clipPath>
    <clipPath id="clip-path-2">
      <path id="Trazado_872907" data-name="Trazado 872907" d="M24.865,0h1677.72a24.855,24.855,0,0,1,24.865,24.846V638.154A24.856,24.856,0,0,1,1702.585,663H24.865A24.856,24.856,0,0,1,0,638.154V24.846A24.855,24.855,0,0,1,24.865,0Z" fill="#f1ebe0"/>
    </clipPath>
    <linearGradient id="linear-gradient" y1="0.577" x2="0.579" y2="0.471" gradientUnits="objectBoundingBox">
      <stop offset="0" stop-color="#95dbb3"/>
      <stop offset="1" stop-color="#95dbb3" stop-opacity="0"/>
    </linearGradient>
    <linearGradient id="linear-gradient-2" x1="0.849" y1="0.827" x2="0.354" y2="0.322" gradientUnits="objectBoundingBox">
      <stop offset="0" stop-color="#e6d567"/>
      <stop offset="1" stop-color="#e6d567" stop-opacity="0"/>
    </linearGradient>
  </defs>
  <g id="f-s" transform="translate(-137 -1027)" clip-path="url(#clip-path)">
    <g id="Grupo_1098787" data-name="Grupo 1098787" transform="translate(-0.994 -141.5)">
      <g id="Grupo_1098759" data-name="Grupo 1098759" transform="translate(-248.872 1135.5)">
        <path id="Trazado_870126" data-name="Trazado 870126" d="M19.851,0h1339.4c10.963,0,19.851,11.124,19.851,24.846V638.154c0,13.722-8.888,24.846-19.851,24.846H19.851C8.887,663,0,651.876,0,638.154V24.846C0,11.124,8.887,0,19.851,0Z" transform="translate(348.351)" fill="#fcf9e8"/>
        <g id="Enmascarar_grupo_1098643" data-name="Enmascarar grupo 1098643" clip-path="url(#clip-path-2)">
          <path id="Trazado_872908" data-name="Trazado 872908" d="M348.107,0C540.362,0,696.215,155.736,696.215,347.846S540.362,695.692,348.107,695.692,0,539.956,0,347.846,155.853,0,348.107,0Z" transform="translate(1219.684 -197.462)" fill="#daf2e4"/>
          <path id="Trazado_872945" data-name="Trazado 872945" d="M229.342,0C356,0,458.685,102.6,458.685,229.17S356,458.341,229.342,458.341,0,355.738,0,229.17,102.68,0,229.342,0Z" transform="translate(1457.214 473.231)" fill="#b8aa52" opacity="0.368"/>
          <ellipse id="Elipse_11441" data-name="Elipse 11441" cx="348.261" cy="348" rx="348.261" ry="348" transform="translate(833.625 332)" fill="#e6d567" opacity="0.332"/>
          <ellipse id="Elipse_11445" data-name="Elipse 11445" cx="347.761" cy="348" rx="347.761" ry="348" transform="translate(9.007 -296)" fill="#b8aa52" opacity="0.332"/>
          <ellipse id="Elipse_11449" data-name="Elipse 11449" cx="347.761" cy="348" rx="347.761" ry="348" transform="translate(-63.993 547)" fill="#b8aa52" opacity="0.332"/>
          <path id="Trazado_872910" data-name="Trazado 872910" d="M766.141-.02h0c55.248,0,94.432,14.739,96.073,15.366l.94.359.874.5c19.514,11.139,477.732,274.685,462.485,436.289-3.816,40.454-34.747,70.928-91.933,90.575a22.026,22.026,0,0,1-7.169,1.132c-13.51,0-33.781-10.533-74.7-32.448-72.63-38.894-194.188-103.99-313.261-103.982-33.689,0-65.563,5.25-94.739,15.6-95.67,33.927-116.04,81.955-141.827,142.761-27.855,65.677-62.521,147.414-207.251,227.1-40.754,22.439-80.383,33.816-117.783,33.817C82.719,827.048,10.989,528.165,8.03,515.441-8.992,443.173-9.149,298.621,112.17,269.062a155.351,155.351,0,0,1,36.717-4.331c39.162,0,75.941,13.677,111.509,26.9,32.506,12.087,63.209,23.5,92.868,23.5,35.562,0,83.25-14.076,136.8-123.833C567.212,33.185,682.782-.018,766.141-.02Zm85.88,39.49c-5.778-2.031-40.01-13.338-85.878-13.337-75.9,0-181.324,30.648-252.553,176.631-46.109,94.508-97.055,138.525-160.327,138.527-34.371,0-68.748-12.782-102-25.145-33.4-12.42-67.931-25.262-102.381-25.261a127.33,127.33,0,0,0-30.517,3.587C65.886,307.259,35.563,346.616,28.244,411.45c-5.709,50.552,5.163,97.565,5.273,98.034.688,2.947,69.955,291.411,244.336,291.406,32.931,0,68.311-10.286,105.152-30.57C519.8,695,551.138,621.114,578.785,555.923c26.049-61.418,50.652-119.429,157.173-157.2,31.993-11.347,66.814-17.1,103.494-17.1,125.645-.009,250.829,67.031,325.624,107.084,25.2,13.493,53.69,28.752,61.884,29.329,46.025-15.994,70.751-38.866,73.5-67.99C1311.782,330.023,981.558,113.558,852.021,39.47Z" transform="matrix(0.999, 0.035, -0.035, 0.999, 1005.252, -209.819)" fill="url(#linear-gradient)"/>
          <path id="Trazado_872910-2" data-name="Trazado 872910" d="M665.977,719.021h0c48.014.012,82.062-12.793,83.488-13.338l.817-.313.76-.434c16.956-9.678,415.113-238.663,401.835-379.13-3.325-35.163-46.268-79.508-86.141-79.728s-29.355,9.149-64.913,28.188c-63.11,33.793-168.736,90.351-272.215,90.322-29.277-.008-56.979-4.576-82.335-13.574-83.146-29.507-100.858-71.256-123.28-124.111-24.219-57.09-54.36-128.141-180.151-197.431C308.422,9.962,273.982.066,241.48.058,71.9.017,9.625,259.789,7.056,270.848-7.724,333.659-7.833,459.3,97.6,485.017a135.015,135.015,0,0,0,31.91,3.771c34.033.008,65.992-11.873,96.9-23.363,28.246-10.5,54.926-20.417,80.7-20.411,30.905.007,72.35,12.251,118.909,107.659C493.094,690.122,593.534,719,665.977,719.021ZM740.6,684.712c-5.02,1.765-34.767,11.585-74.628,11.576-65.959-.016-157.583-26.672-219.511-153.572-40.089-82.153-84.37-120.422-139.356-120.435-29.869-.007-59.742,11.1-88.633,21.837-29.02,10.789-59.029,21.945-88.966,21.937a110.654,110.654,0,0,1-26.523-3.123C57.373,451.807,31.014,417.593,24.64,361.239c-4.97-43.94,4.469-84.8,4.565-85.208.6-2.562,60.738-253.276,212.28-253.239,28.619.007,59.366,8.953,91.387,26.591,118.9,65.49,146.142,129.719,170.181,186.387,22.649,53.387,44.04,103.815,136.618,136.667,27.806,9.868,58.067,14.877,89.942,14.886,109.191.032,217.968-58.215,282.96-93.015,21.893-11.723,24.359-33.888,53.774-25.481s61.493,33.8,63.885,59.11C1140.1,432.254,853.16,620.34,740.6,684.712Z" transform="translate(2246 727.63) rotate(160)" fill="url(#linear-gradient-2)"/>
        </g>
      </g>
    </g>
  </g>
</svg>
