<svg id="_14" data-name="14" xmlns="http://www.w3.org/2000/svg" xmlns:xlink="http://www.w3.org/1999/xlink" width="248.536" height="187.409" viewBox="0 0 248.536 187.409">
  <defs>
    <clipPath id="clip-path">
      <rect id="Rectángulo_401194" data-name="Rectángulo 401194" width="248.536" height="187.409" fill="none"/>
    </clipPath>
    <clipPath id="clip-path-2">
      <path id="Trazado_873994" data-name="Trazado 873994" d="M114.841,463.03a.447.447,0,0,0,.1.605l58.876,38.992a.409.409,0,0,0,.569-.161.5.5,0,0,0,.074-.268.407.407,0,0,0-.175-.336L115.41,462.869a.358.358,0,0,0-.2-.06.442.442,0,0,0-.37.221" transform="translate(-114.767 -462.809)" fill="#59836b"/>
    </clipPath>
    <clipPath id="clip-path-3">
      <path id="Trazado_873995" data-name="Trazado 873995" d="M162.644,445.517a.492.492,0,0,0-.268.578l3.941,13.156a.371.371,0,0,0,.513.242.492.492,0,0,0,.286-.456.462.462,0,0,0-.019-.121l-3.942-13.156a.371.371,0,0,0-.356-.275.4.4,0,0,0-.157.033" transform="translate(-162.358 -445.484)" fill="#59836b"/>
    </clipPath>
    <clipPath id="clip-path-4">
      <path id="Trazado_873996" data-name="Trazado 873996" d="M226.308,459.524a.485.485,0,0,0-.334.54l3.161,19.654a.373.373,0,0,0,.472.317.485.485,0,0,0,.34-.475.462.462,0,0,0-.006-.065l-3.161-19.654a.376.376,0,0,0-.368-.332.4.4,0,0,0-.1.014" transform="translate(-225.967 -459.51)" fill="#59836b"/>
    </clipPath>
    <clipPath id="clip-path-5">
      <path id="Trazado_873997" data-name="Trazado 873997" d="M130.625,504.992,116.462,509.4a.488.488,0,0,0-.319.55.373.373,0,0,0,.483.3l14.163-4.406a.487.487,0,0,0,.327-.471.5.5,0,0,0-.008-.079.376.376,0,0,0-.366-.318.388.388,0,0,0-.116.018" transform="translate(-116.135 -504.974)" fill="#59836b"/>
    </clipPath>
    <clipPath id="clip-path-6">
      <path id="Trazado_873998" data-name="Trazado 873998" d="M175.569,548.407l-18.455,6.718a.487.487,0,0,0-.3.563.371.371,0,0,0,.5.274l18.455-6.719a.489.489,0,0,0,.309-.465.463.463,0,0,0-.013-.1.373.373,0,0,0-.362-.3.393.393,0,0,0-.135.024" transform="translate(-156.805 -548.383)" fill="#59836b"/>
    </clipPath>
    <clipPath id="clip-path-7">
      <path id="Trazado_873999" data-name="Trazado 873999" d="M240.882,593.735l-18.456,6.719a.487.487,0,0,0-.3.563.371.371,0,0,0,.5.274l18.456-6.718a.489.489,0,0,0,.309-.465.451.451,0,0,0-.012-.1.373.373,0,0,0-.362-.3.4.4,0,0,0-.135.024" transform="translate(-222.117 -593.711)" fill="#59836b"/>
    </clipPath>
    <clipPath id="clip-path-8">
      <path id="Trazado_874000" data-name="Trazado 874000" d="M290.164,496.634a.484.484,0,0,0-.334.54l3.161,19.654a.374.374,0,0,0,.472.318.486.486,0,0,0,.34-.475.466.466,0,0,0-.006-.065l-3.161-19.654a.376.376,0,0,0-.368-.331.4.4,0,0,0-.1.014" transform="translate(-289.824 -496.62)" fill="#59836b"/>
    </clipPath>
    <clipPath id="clip-path-10">
      <path id="Trazado_874012" data-name="Trazado 874012" d="M773.547,258.877c-3.466,1.772-5.591,4.548-3.192,9.242a7.293,7.293,0,0,0,.9,1.332,7.452,7.452,0,0,0-1.777-.111c-5.259.366-6.541,3.618-6.271,7.5s1.99,6.927,7.249,6.562a9.282,9.282,0,0,0,3.434-1.056,8.542,8.542,0,0,0-1.267,2.58c-1.359,5.093,1.3,7.36,5.064,8.364s7.2.363,8.557-4.731a7.99,7.99,0,0,0,.219-2.309,8.463,8.463,0,0,0,1.922,2.022c4.295,3.057,7.35,1.359,9.608-1.813s2.862-6.615-1.433-9.672a9.254,9.254,0,0,0-3.287-1.349,8.263,8.263,0,0,0,2.43-.988c4.451-2.824,4.031-6.3,1.945-9.582s-5.047-5.146-9.5-2.321c-1.88,1.193-3.352,3.618-4.426,6.02.226-2.452.128-5.027-.813-6.867-1.467-2.87-3.344-3.949-5.373-3.949a8.946,8.946,0,0,0-3.987,1.124" transform="translate(-763.17 -257.753)" fill="#fcf9e8"/>
    </clipPath>
    <clipPath id="clip-path-12">
      <path id="Trazado_874045" data-name="Trazado 874045" d="M316.868,443.887l-15.774,13.74a5.723,5.723,0,0,0-1.033,8.034l12.677,16.392c-.395,10.367-.076,19.157.743,34.744h89.575c.127-16.027.861-24.871.519-35.629l11.993-15.507a5.723,5.723,0,0,0-1.033-8.034l-17.427-15.181-.007,0c-9.326-9.5-25.257-10.122-25.257-10.122l-27.12-.355s-19.172,1-27.855,11.915" transform="translate(-298.865 -431.972)" fill="#35a064"/>
    </clipPath>
    <clipPath id="clip-path-14">
      <path id="Trazado_874048" data-name="Trazado 874048" d="M468.514,507.856s-11.992-17.483-21.637-13.218a8.862,8.862,0,0,0-4.371,3.717c-7.207,12.95,27.123,44.28,27.123,44.28s37.01-36.09,22.341-48.391a8.078,8.078,0,0,0-5.3-2.047c-9.1,0-18.159,15.659-18.159,15.659" transform="translate(-441.512 -492.197)" fill="#e6d567"/>
    </clipPath>
  </defs>
  <g id="Grupo_1098946" data-name="Grupo 1098946">
    <g id="Grupo_1098945" data-name="Grupo 1098945" clip-path="url(#clip-path)">
      <path id="Trazado_873989" data-name="Trazado 873989" d="M704.434,91.066A38.776,38.776,0,1,1,665.659,52.29a38.776,38.776,0,0,1,38.776,38.776" transform="translate(-488.252 -40.726)" fill="#effaf4"/>
      <path id="Trazado_873990" data-name="Trazado 873990" d="M77.551,326.244a38.776,38.776,0,1,1-38.776-38.776,38.776,38.776,0,0,1,38.776,38.776" transform="translate(0 -223.896)" fill="#effaf4"/>
      <path id="Trazado_873991" data-name="Trazado 873991" d="M39.151,165.469a48.162,48.162,0,0,1-19.182-25.593c-5.217-16.427,4.889-38.394,35.247-67.723C72.858,55.109,59.349,14.022,104.662,2.2,143.81-8.019,164.8,19.7,180.038,37.734a54.057,54.057,0,0,0,34.214,18.855c16.452,2.148,39.593,11.62,47.69,46.555C272.615,149.2,205.765,217.3,136.927,148.71c-45.8-45.632-57.638,43.354-97.777,16.759" transform="translate(-14.534 0)" fill="#95dbb3"/>
      <path id="Trazado_873992" data-name="Trazado 873992" d="M124.288,605.07s-16.114-36.1-69.811-13.522c0,0,32.443,45.6,69.811,13.522" transform="translate(-42.43 -454.947)" fill="#effaf4"/>
      <path id="Trazado_873993" data-name="Trazado 873993" d="M144.23,484.463s-5.482-57.828-84.949-53.695c0,0,22.639,79.118,84.949,53.695" transform="translate(-46.171 -335.342)" fill="#77af8f"/>
    </g>
  </g>
  <g id="Grupo_1098948" data-name="Grupo 1098948" transform="translate(25.38 102.347)">
    <g id="Grupo_1098947" data-name="Grupo 1098947" clip-path="url(#clip-path-2)">
      <rect id="Rectángulo_401195" data-name="Rectángulo 401195" width="59.751" height="39.941" transform="translate(-0.056)" fill="#59836b"/>
    </g>
  </g>
  <g id="Grupo_1098950" data-name="Grupo 1098950" transform="translate(35.904 98.516)">
    <g id="Grupo_1098949" data-name="Grupo 1098949" clip-path="url(#clip-path-3)">
      <rect id="Rectángulo_401196" data-name="Rectángulo 401196" width="4.811" height="14.101" transform="translate(-0.048 0)" fill="#59836b"/>
    </g>
  </g>
  <g id="Grupo_1098952" data-name="Grupo 1098952" transform="translate(49.971 101.618)">
    <g id="Grupo_1098951" data-name="Grupo 1098951" clip-path="url(#clip-path-4)">
      <rect id="Rectángulo_401197" data-name="Rectángulo 401197" width="4.016" height="20.586" transform="translate(-0.033 0)" fill="#59836b"/>
    </g>
  </g>
  <g id="Grupo_1098954" data-name="Grupo 1098954" transform="translate(25.683 111.672)">
    <g id="Grupo_1098953" data-name="Grupo 1098953" clip-path="url(#clip-path-5)">
      <rect id="Rectángulo_401198" data-name="Rectángulo 401198" width="15.021" height="5.343" transform="translate(-0.036)" fill="#59836b"/>
    </g>
  </g>
  <g id="Grupo_1098956" data-name="Grupo 1098956" transform="translate(34.676 121.272)">
    <g id="Grupo_1098955" data-name="Grupo 1098955" clip-path="url(#clip-path-6)">
      <rect id="Rectángulo_401199" data-name="Rectángulo 401199" width="19.321" height="7.659" transform="translate(-0.044 0)" fill="#59836b"/>
    </g>
  </g>
  <g id="Grupo_1098958" data-name="Grupo 1098958" transform="translate(49.12 131.296)">
    <g id="Grupo_1098957" data-name="Grupo 1098957" clip-path="url(#clip-path-7)">
      <rect id="Rectángulo_401200" data-name="Rectángulo 401200" width="19.322" height="7.659" transform="translate(-0.044 0)" fill="#59836b"/>
    </g>
  </g>
  <g id="Grupo_1098960" data-name="Grupo 1098960" transform="translate(64.093 109.825)">
    <g id="Grupo_1098959" data-name="Grupo 1098959" clip-path="url(#clip-path-8)">
      <rect id="Rectángulo_401201" data-name="Rectángulo 401201" width="4.017" height="20.586" transform="translate(-0.034 0)" fill="#59836b"/>
    </g>
  </g>
  <g id="Grupo_1098962" data-name="Grupo 1098962">
    <g id="Grupo_1098961" data-name="Grupo 1098961" clip-path="url(#clip-path)">
      <path id="Trazado_874001" data-name="Trazado 874001" d="M708.784,485.08s36.646,14.822,59.665-38.686c0,0-55-10.337-59.665,38.686" transform="translate(-552.041 -346.969)" fill="#77af8f"/>
      <path id="Trazado_874002" data-name="Trazado 874002" d="M734.045,199.068c-.386-.072,1.005-21.273,29.433-19.691,0,0-9.544,23.395-29.433,19.691" transform="translate(-571.679 -139.643)" fill="#77af8f"/>
      <path id="Trazado_874003" data-name="Trazado 874003" d="M642.589,229.555c-.2.325-20.993-14.613-7.406-33.826,0,0,17.885,17.046,7.406,33.826" transform="translate(-491.13 -152.445)" fill="#59836b"/>
      <path id="Trazado_874004" data-name="Trazado 874004" d="M675.321,348.823c-.406-.254,15.078-26.389,39.03-9.414,0,0-18.109,22.507-39.03,9.414" transform="translate(-525.971 -259.889)" fill="#77af8f"/>
      <path id="Trazado_874005" data-name="Trazado 874005" d="M659.58,299.653s3.607-33.872,18.456-48.735a1.358,1.358,0,1,0-1.958-1.883c-3.861,4.108-16.629,19.535-19.244,46.3Z" transform="translate(-511.58 -193.627)" fill="#59836b"/>
      <path id="Trazado_874006" data-name="Trazado 874006" d="M340.165,793.1c0,3.732-40.51,6.758-90.482,6.758S159.2,796.828,159.2,793.1s40.51-6.758,90.482-6.758,90.482,3.025,90.482,6.758" transform="translate(-123.995 -612.444)" fill="#effaf4" fill-rule="evenodd"/>
      <path id="Trazado_874007" data-name="Trazado 874007" d="M738.628,583.032s30.448-22.619,58.64-8.327l-50.163,16.126s27.366-7.244,40.212,23.539c0,0-27.466-14.987-45.51-11.616,0,0-17.325,5.688-24.767,10.79-15.717,10.777,21.588-30.513,21.588-30.513" transform="translate(-555.461 -443.924)" fill="#77af8f"/>
      <path id="Trazado_874008" data-name="Trazado 874008" d="M997.931,474.024a4.02,4.02,0,1,1,4.021-4.02,4.025,4.025,0,0,1-4.021,4.02m0-7.138A3.118,3.118,0,1,0,1001.05,470a3.122,3.122,0,0,0-3.118-3.118" transform="translate(-774.114 -362.934)" fill="#59836b"/>
      <path id="Trazado_874009" data-name="Trazado 874009" d="M506.6,110.75a4.02,4.02,0,1,1,4.02-4.02,4.025,4.025,0,0,1-4.02,4.02m0-7.139a3.118,3.118,0,1,0,3.118,3.118,3.122,3.122,0,0,0-3.118-3.118" transform="translate(-391.437 -79.996)" fill="#59836b"/>
      <path id="Trazado_874010" data-name="Trazado 874010" d="M145.041,698.065a4.02,4.02,0,1,1,4.02-4.02,4.025,4.025,0,0,1-4.02,4.02m0-7.138a3.118,3.118,0,1,0,3.118,3.118,3.122,3.122,0,0,0-3.118-3.118" transform="translate(-109.835 -537.429)" fill="#59836b"/>
      <path id="Trazado_874011" data-name="Trazado 874011" d="M612.065,436.364a.751.751,0,0,1-.127-.011.738.738,0,0,1-.6-.853,201.811,201.811,0,0,1,10.406-35.186,176.6,176.6,0,0,1,15.606-30.885,115.188,115.188,0,0,1,24.9-28.161.738.738,0,0,1,.917,1.157A113.7,113.7,0,0,0,638.6,370.213a175.089,175.089,0,0,0-15.472,30.612,200.342,200.342,0,0,0-10.337,34.927.738.738,0,0,1-.726.612" transform="translate(-476.135 -265.675)" fill="#fff"/>
    </g>
  </g>
  <g id="Grupo_1098964" data-name="Grupo 1098964" transform="translate(168.771 57.001)">
    <g id="Grupo_1098963" data-name="Grupo 1098963" clip-path="url(#clip-path-10)">
      <rect id="Rectángulo_401203" data-name="Rectángulo 401203" width="48.297" height="49.04" transform="translate(-13.189 31.156) rotate(-67.425)" fill="#fcf9e8"/>
    </g>
  </g>
  <g id="Grupo_1098966" data-name="Grupo 1098966">
    <g id="Grupo_1098965" data-name="Grupo 1098965" clip-path="url(#clip-path)">
      <path id="Trazado_874013" data-name="Trazado 874013" d="M830.686,325.314a4.225,4.225,0,1,0,2.958-5.191,4.225,4.225,0,0,0-2.958,5.191" transform="translate(-646.867 -249.212)" fill="#fff"/>
      <path id="Trazado_874014" data-name="Trazado 874014" d="M854.478,303.273a.454.454,0,0,1-.084-.008.442.442,0,0,1-.351-.517l.562-2.939a.442.442,0,0,1,.869.166l-.562,2.939a.443.443,0,0,1-.434.359" transform="translate(-665.17 -233.228)" fill="#f6f0ca"/>
      <path id="Trazado_874015" data-name="Trazado 874015" d="M806.589,314.271a.443.443,0,0,1-.17-.034l-5.921-2.462a.442.442,0,0,1,.339-.816l5.922,2.462a.442.442,0,0,1-.17.851" transform="translate(-623.26 -242.166)" fill="#f6f0ca"/>
      <path id="Trazado_874016" data-name="Trazado 874016" d="M873.105,336.792a.442.442,0,0,1,0-.884c2.335-.012,4.937-.07,5.294-.147a.442.442,0,0,1,.338.816c-.1.047-.406.188-5.628.215Zm5.283-1.028-.025.011.025-.011" transform="translate(-679.679 -261.488)" fill="#f6f0ca"/>
      <path id="Trazado_874017" data-name="Trazado 874017" d="M860.661,364.8a.442.442,0,0,1-.42-.3l-1.651-5.043a.442.442,0,0,1,.841-.275l1.651,5.043a.443.443,0,0,1-.42.58" transform="translate(-668.7 -279.513)" fill="#f6f0ca"/>
      <path id="Trazado_874018" data-name="Trazado 874018" d="M810.947,355.015a.442.442,0,0,1-.267-.795l2.855-2.159a.442.442,0,1,1,.533.705l-2.855,2.159a.44.44,0,0,1-.266.09" transform="translate(-631.266 -274.135)" fill="#f6f0ca"/>
      <path id="Trazado_874019" data-name="Trazado 874019" d="M191.684,209.209c.43-.145-4.633-24.189-36.918-17.724,0,0,14.755,25.221,36.918,17.724" transform="translate(-120.54 -148.28)" fill="#77af8f"/>
      <path id="Trazado_874020" data-name="Trazado 874020" d="M370.593,218.347c.286.339,21.641-20.165,2.942-39.936,0,0-17.684,22.442-2.942,39.936" transform="translate(-284.068 -138.956)" fill="#77af8f"/>
      <path id="Trazado_874021" data-name="Trazado 874021" d="M248.14,370.019c.423-.357-21.581-27.743-46.223-4.389,0,0,24.416,22.8,46.223,4.389" transform="translate(-157.264 -277.438)" fill="#77af8f"/>
      <path id="Trazado_874022" data-name="Trazado 874022" d="M325.858,310.335s-9.674-38.186-29.106-52.771a1.571,1.571,0,1,1,1.933-2.476c5.092,4.071,22.235,19.642,29.608,49.85Z" transform="translate(-230.641 -198.407)" fill="#77af8f"/>
      <path id="Trazado_874023" data-name="Trazado 874023" d="M365.014,306.6a18.1,18.1,0,0,1-5.96,7.926c-4.246,3-2.782,5.8-4.843,9.836-2.9,5.674-9.164,3.893-11.544,10.959-2.305,6.844-13.784,4.079-13.784,17.112l29.622,6.086L383.97,372.7,381.4,300.059Z" transform="translate(-256.152 -233.703)" fill="#12263f"/>
      <path id="Trazado_874024" data-name="Trazado 874024" d="M567.863,300.934s6.32,10.595,10.566,13.592,2.7,5.6,4.765,9.634c2.9,5.674,16.45,7.465,16.137,14.681s12.285,1.924,12.285,14.957l-32.638,4.722L553.513,372.7l2.569-72.643Z" transform="translate(-431.107 -233.704)" fill="#12263f"/>
      <path id="Trazado_874025" data-name="Trazado 874025" d="M495.14,342.74l-9.045-31.525-23.045-9.257s-2.5,13.347-5.408,22.673c-1.293,4.146-11.846,19.655-7.569,20.409Z" transform="translate(-349.751 -235.183)" fill="#12263f"/>
      <path id="Trazado_874026" data-name="Trazado 874026" d="M723.043,503l25.928,28.671-11.326,33.288-24.414-47.8Z" transform="translate(-555.505 -391.763)" fill="#fcf9e8" fill-rule="evenodd"/>
      <path id="Trazado_874027" data-name="Trazado 874027" d="M447.372,371.771s2.323,5.874-.657,7.9-4.863,3.957-5.229,5.734.941,6.431-4.444,8.313-7.025.524-6.7.214a36.456,36.456,0,0,0,8.268-11.978l4.967-9.018Z" transform="translate(-335.144 -289.556)" fill="#12263f"/>
      <path id="Trazado_874028" data-name="Trazado 874028" d="M612.552,354.608s-1.778,3.555-.523,6.222,4.758,3.411,4.758,6.463,2.7,11,9.943,14.283c1.389.629-.876-6.486-1.3-9.159a21.685,21.685,0,0,0-4.513-9.6l-3.033-8.612Z" transform="translate(-476.333 -275.875)" fill="#12263f"/>
      <path id="Trazado_874029" data-name="Trazado 874029" d="M544.029,348.447s.589,7.406,1.077,13.54A4.439,4.439,0,0,1,543,366.093c-1.434.9-9.734,2.258-9.765-3.212-.033-5.756.645-18.845.645-18.845Z" transform="translate(-415.309 -267.954)" fill="#fcf9e8" fill-rule="evenodd"/>
      <path id="Trazado_874030" data-name="Trazado 874030" d="M608.258,317.311c-1.221-1.268-6.159-14.825-6.9-16.143-4.18-7.456-1.76-9.754.185-6.44,1.171,2,5.492,7.43,8.729,11.807a7.43,7.43,0,0,1-1.253,10.146Z" transform="translate(-466.581 -228.398)" fill="#12263f"/>
      <path id="Trazado_874031" data-name="Trazado 874031" d="M520.912,301.281c.092-1.578-.166-7.725.41-9.279a7.165,7.165,0,0,1,4.62-4.741l5.545-.316A7.076,7.076,0,0,1,537.606,292c.576,1.554.318,7.7.41,9.279.3,5.115.87,12.367-6.24,12.32l-.29,0v-1.577h-4.046V313.6l-.289,0c-7.11.047-6.537-7.2-6.24-12.32" transform="translate(-405.597 -223.49)" fill="#fcf9e8"/>
      <path id="Trazado_874032" data-name="Trazado 874032" d="M562.992,349.234a.291.291,0,0,1-.024-.58c.157-.013.2-.035.248-.076a.647.647,0,0,0,.119-.706l-1.082-2.7c0-.011-.008-.022-.011-.033-.025-.1-.612-2.341.49-3.221a.291.291,0,0,1,.362.454c-.662.528-.441,2.039-.3,2.6l1.075,2.682a1.231,1.231,0,0,1-.257,1.343.919.919,0,0,1-.6.235h-.025" transform="translate(-437.766 -266.256)" fill="#3c1c54"/>
      <path id="Trazado_874033" data-name="Trazado 874033" d="M539.1,275.665c5.017,3.622,3.226,7.895,5.185,7.752s6.741,4.989,5.837,8c-.12.4,4.484,9.654,4.132,5.669-.64-7.243-3.761-17.223-7.793-26.227-2.112-4.716-7.019-6.194-10.551-6.451s-5.349,2.854-8.594,7.753c0,0,5.013-1.388,11.784,3.5" transform="translate(-410.706 -205.927)" fill="#12263f"/>
      <path id="Trazado_874034" data-name="Trazado 874034" d="M481.8,284.264c.645-8.714,9.294-12.653,9.294-12.653l-.879-1.466s.559-4.4-4.706-3.548-7.47,6.5-8.741,10.124c-.765,2.183-3.961,8.348-6.3,13.266-.942,1.984,1.174,5.746,4.554,3.739,2.694-1.6,6.724-8.794,6.774-9.462" transform="translate(-366.252 -207.556)" fill="#12263f"/>
      <path id="Trazado_874035" data-name="Trazado 874035" d="M500.95,347.827c1.02,2.059,3.177,3.255,4.816,2.671s2.142-2.727,1.121-4.786-3.177-3.255-4.816-2.671-2.142,2.727-1.121,4.786" transform="translate(-389.756 -267.064)" fill="#fcf9e8"/>
      <path id="Trazado_874036" data-name="Trazado 874036" d="M510.214,352.709a.291.291,0,0,1-.223-.1c-.217-.258-.911-.9-1.5-.758a.291.291,0,1,1-.132-.566,1.769,1.769,0,0,1,1.345.311c-.311-.966-.973-2.411-2.19-2.618a.291.291,0,0,1,.1-.573c2.248.382,2.869,3.823,2.894,3.97a.291.291,0,0,1-.286.34" transform="translate(-395.087 -271.35)" fill="#3c1c54"/>
      <path id="Trazado_874037" data-name="Trazado 874037" d="M594.991,347.827c-1.02,2.059-3.177,3.255-4.816,2.671s-2.142-2.727-1.121-4.786,3.177-3.255,4.816-2.671,2.142,2.727,1.121,4.786" transform="translate(-458.376 -267.064)" fill="#fcf9e8"/>
      <path id="Trazado_874038" data-name="Trazado 874038" d="M598.957,352.709a.291.291,0,0,1-.286-.34c.025-.146.646-3.587,2.894-3.97a.291.291,0,1,1,.1.573c-1.217.207-1.88,1.652-2.19,2.619a1.769,1.769,0,0,1,1.345-.311.291.291,0,1,1-.132.566c-.711-.166-1.5.749-1.5.758a.291.291,0,0,1-.223.1" transform="translate(-466.275 -271.349)" fill="#3c1c54"/>
      <path id="Trazado_874039" data-name="Trazado 874039" d="M633.668,364.423a.219.219,0,0,1-.148-.057c-.389-.351-.808-.714-1.246-1.08-3.516-2.937-3.505-3.91-3.463-8.007.005-.484.01-1.014.01-1.6,0-1.908-2.086-5.541-4.521-7.061a.221.221,0,1,1,.234-.375c2.129,1.329,4.73,5.022,4.73,7.436,0,.584-.005,1.115-.011,1.6-.042,4.023-.05,4.861,3.3,7.664.442.369.865.736,1.258,1.09a.221.221,0,0,1-.148.385" transform="translate(-486.159 -269.65)" fill="#fff"/>
      <path id="Trazado_874040" data-name="Trazado 874040" d="M471.4,381.653a.217.217,0,0,1-.046,0,.221.221,0,0,1-.171-.262,21.154,21.154,0,0,0,.331-3.661c.029-.9.056-1.747.163-2.556.515-3.915,4.13-6.674,4.283-6.789a.221.221,0,1,1,.266.353c-.036.027-3.62,2.765-4.111,6.493-.1.788-.13,1.626-.159,2.513a21.5,21.5,0,0,1-.34,3.738.221.221,0,0,1-.216.175" transform="translate(-366.982 -286.88)" fill="#fff"/>
      <path id="Trazado_874041" data-name="Trazado 874041" d="M548.423,289.6a.221.221,0,0,1-.221-.221V287.31a.221.221,0,0,1,.442,0v2.064a.221.221,0,0,1-.221.221" transform="translate(-426.97 -223.601)" fill="#fff"/>
      <path id="Trazado_874042" data-name="Trazado 874042" d="M571.711,338.327h3.133a.682.682,0,1,0,0-1.364h-3.133a.682.682,0,0,0,0,1.364" transform="translate(-444.749 -262.446)" fill="#3c1c54" fill-rule="evenodd"/>
      <path id="Trazado_874043" data-name="Trazado 874043" d="M530.794,338.327h3.133a.682.682,0,0,0,0-1.364h-3.133a.682.682,0,1,0,0,1.364" transform="translate(-412.881 -262.446)" fill="#3c1c54" fill-rule="evenodd"/>
      <path id="Trazado_874044" data-name="Trazado 874044" d="M281.458,503,255.53,531.669l11.326,33.288,24.413-47.8Z" transform="translate(-199.021 -391.763)" fill="#f1ebe0" fill-rule="evenodd"/>
    </g>
  </g>
  <g id="Grupo_1098968" data-name="Grupo 1098968" transform="translate(66.092 95.528)">
    <g id="Grupo_1098967" data-name="Grupo 1098967" clip-path="url(#clip-path-12)">
      <rect id="Rectángulo_401205" data-name="Rectángulo 401205" width="146.424" height="139.087" transform="matrix(0.805, -0.593, 0.593, 0.805, -41.24, 29.822)" fill="#35a064"/>
    </g>
  </g>
  <g id="Grupo_1098970" data-name="Grupo 1098970">
    <g id="Grupo_1098969" data-name="Grupo 1098969" clip-path="url(#clip-path)">
      <path id="Trazado_874046" data-name="Trazado 874046" d="M568.355,405.119s4.008,2.413,3.995,2.248-.186-3.221-.186-3.221a6.62,6.62,0,0,1-3.809.973" transform="translate(-442.667 -314.772)" fill="#3c1c54"/>
      <path id="Trazado_874047" data-name="Trazado 874047" d="M227.53,635.561l-18.268,11.72-6.329-14.634s-11.98,14.837-14.32,25.973c-2.459,11.7,4.932,19.664,14.32,16.705,18.322-5.774,33.685-22.734,33.685-22.734Z" transform="translate(-146.53 -492.741)" fill="#f1ebe0" fill-rule="evenodd"/>
    </g>
  </g>
  <g id="Grupo_1098972" data-name="Grupo 1098972" transform="translate(97.638 108.846)">
    <g id="Grupo_1098971" data-name="Grupo 1098971" clip-path="url(#clip-path-14)">
      <rect id="Rectángulo_401207" data-name="Rectángulo 401207" width="71.34" height="52.263" transform="translate(-6.213 -1.824)" fill="#e6d567"/>
    </g>
  </g>
  <g id="Grupo_1098974" data-name="Grupo 1098974">
    <g id="Grupo_1098973" data-name="Grupo 1098973" clip-path="url(#clip-path)">
      <path id="Trazado_874049" data-name="Trazado 874049" d="M697.464,646.345s1.208,9.086,6.968,9.374c4.77.239,12.282-5.362,12.282-5.362a42.263,42.263,0,0,0-.157-15.147Z" transform="translate(-543.224 -494.737)" fill="#fcf9e8" fill-rule="evenodd"/>
      <path id="Trazado_874050" data-name="Trazado 874050" d="M704.043,559.5a8.032,8.032,0,0,0-4.178-3.8l-10.581-4.222a2.627,2.627,0,0,0-3.376,1.247c-.4.884-.293,1.942,1.426,2.867,2.173,1.17,6.038,3.493,8.966,5.279l-7.091,9.151-.872,10.667,6.214,5.3c4.244-4.236,9.277-9.239,11.644-11.522,3.222-3.107-.034-10.819-2.151-14.961" transform="translate(-534.073 -429.364)" fill="#fcf9e8"/>
      <path id="Trazado_874051" data-name="Trazado 874051" d="M681.692,561.705l-12.828-4.841a2.578,2.578,0,0,0-3.253,1.2c-.4.856-.294,1.925,1.432,2.983,3.836,2.352,16.435,9.457,16.435,9.457Z" transform="translate(-518.264 -433.58)" fill="#fcf9e8"/>
      <path id="Trazado_874052" data-name="Trazado 874052" d="M692.6,588.569l-15.45-7.106s-3.1,2.79.224,4.922,10.671,7.777,10.671,7.777Z" transform="translate(-526.376 -452.876)" fill="#fcf9e8"/>
      <path id="Trazado_874053" data-name="Trazado 874053" d="M691.583,609.922l-12.51-5.409s-3.153,2.829.171,4.961a40.473,40.473,0,0,1,4.992,4.341,35.449,35.449,0,0,1,5.322,6.762Z" transform="translate(-527.847 -470.829)" fill="#fcf9e8"/>
      <path id="Trazado_874054" data-name="Trazado 874054" d="M712.849,579.7a.29.29,0,0,1-.258-.157L711,576.484a9.131,9.131,0,0,0-4.063-3.992l-8.124-4.04a.291.291,0,0,1,.259-.52l8.124,4.04a9.709,9.709,0,0,1,4.32,4.244l1.592,3.064a.291.291,0,0,1-.258.425" transform="translate(-544.148 -442.313)" fill="#3c1c54"/>
      <path id="Trazado_874055" data-name="Trazado 874055" d="M703.782,595.628a.291.291,0,0,1-.27-.184l-.877-2.221a9.235,9.235,0,0,0-3.9-4.554L691.1,584.2a.291.291,0,1,1,.294-.5l7.629,4.47a9.817,9.817,0,0,1,4.149,4.842l.878,2.221a.291.291,0,0,1-.27.4" transform="translate(-538.158 -454.585)" fill="#3c1c54"/>
      <path id="Trazado_874056" data-name="Trazado 874056" d="M699.438,615.372a.29.29,0,0,1-.28-.213l-.637-2.285a9.227,9.227,0,0,0-3.464-4.976l-5.759-4.169a.291.291,0,1,1,.341-.471l5.759,4.169a9.81,9.81,0,0,1,3.683,5.291l.637,2.286a.291.291,0,0,1-.28.369" transform="translate(-536.771 -469.808)" fill="#3c1c54"/>
      <path id="Trazado_874057" data-name="Trazado 874057" d="M362.5,646.345s-1.209,9.086-6.968,9.374c-4.77.239-12.283-5.362-12.283-5.362a42.263,42.263,0,0,1,.158-15.147Z" transform="translate(-266.867 -494.737)" fill="#fcf9e8" fill-rule="evenodd"/>
      <path id="Trazado_874058" data-name="Trazado 874058" d="M348.94,559.5a8.031,8.031,0,0,1,4.178-3.8l10.581-4.222a2.627,2.627,0,0,1,3.376,1.247c.4.884.293,1.942-1.426,2.867-2.173,1.17-6.038,3.493-8.966,5.279l7.091,9.151.872,10.667-6.214,5.3c-4.244-4.236-9.276-9.239-11.644-11.522-3.222-3.107.034-10.819,2.152-14.961" transform="translate(-269.042 -429.364)" fill="#fcf9e8"/>
      <path id="Trazado_874059" data-name="Trazado 874059" d="M384.585,561.705l12.828-4.841a2.578,2.578,0,0,1,3.253,1.2c.4.856.294,1.925-1.433,2.983-3.836,2.352-16.435,9.457-16.435,9.457Z" transform="translate(-298.145 -433.58)" fill="#fcf9e8"/>
      <path id="Trazado_874060" data-name="Trazado 874060" d="M378.257,588.569l15.45-7.106s3.1,2.79-.224,4.922-10.671,7.777-10.671,7.777Z" transform="translate(-294.608 -452.876)" fill="#fcf9e8"/>
      <path id="Trazado_874061" data-name="Trazado 874061" d="M389.488,609.922,402,604.514s3.153,2.829-.171,4.961a40.478,40.478,0,0,0-4.992,4.341,35.449,35.449,0,0,0-5.322,6.762Z" transform="translate(-303.355 -470.829)" fill="#fcf9e8"/>
      <path id="Trazado_874062" data-name="Trazado 874062" d="M366.976,579.7a.291.291,0,0,1-.258-.425l1.592-3.064a9.71,9.71,0,0,1,4.32-4.244l8.124-4.04a.291.291,0,1,1,.259.52l-8.124,4.04a9.132,9.132,0,0,0-4.063,3.992l-1.592,3.064a.291.291,0,0,1-.258.157" transform="translate(-285.595 -442.313)" fill="#3c1c54"/>
      <path id="Trazado_874063" data-name="Trazado 874063" d="M380.89,595.628a.287.287,0,0,1-.107-.02.29.29,0,0,1-.164-.377l.878-2.221a9.815,9.815,0,0,1,4.149-4.842l7.629-4.47a.291.291,0,0,1,.294.5l-7.629,4.47a9.233,9.233,0,0,0-3.9,4.554l-.878,2.221a.291.291,0,0,1-.27.184" transform="translate(-296.432 -454.585)" fill="#3c1c54"/>
      <path id="Trazado_874064" data-name="Trazado 874064" d="M394.258,615.372a.291.291,0,0,1-.28-.369l.637-2.285a9.812,9.812,0,0,1,3.683-5.291l5.759-4.169a.291.291,0,1,1,.341.471l-5.759,4.169a9.228,9.228,0,0,0-3.464,4.977l-.637,2.285a.291.291,0,0,1-.28.213" transform="translate(-306.843 -469.808)" fill="#3c1c54"/>
      <path id="Trazado_874065" data-name="Trazado 874065" d="M532.783,356.362c-.06,0-.119,0-.179-.008a3.41,3.41,0,0,1-2.3-1.653.291.291,0,0,1,.5-.291,2.87,2.87,0,0,0,1.851,1.364,2.558,2.558,0,0,0,2.068-1.186.291.291,0,0,1,.448.371,3.212,3.212,0,0,1-2.388,1.4" transform="translate(-412.998 -275.922)" fill="#3c1c54"/>
      <path id="Trazado_874066" data-name="Trazado 874066" d="M572.468,356.362c-.06,0-.119,0-.179-.008a3.41,3.41,0,0,1-2.3-1.653.291.291,0,0,1,.5-.291,2.87,2.87,0,0,0,1.851,1.364,2.56,2.56,0,0,0,2.068-1.186.291.291,0,0,1,.448.371,3.212,3.212,0,0,1-2.388,1.4" transform="translate(-443.907 -275.922)" fill="#3c1c54"/>
      <path id="Trazado_874067" data-name="Trazado 874067" d="M552.653,380.77c-.06,0-.119,0-.179-.008a3.41,3.41,0,0,1-2.3-1.653.291.291,0,0,1,.5-.291,2.87,2.87,0,0,0,1.851,1.365A2.565,2.565,0,0,0,554.593,379a.291.291,0,0,1,.448.371,3.212,3.212,0,0,1-2.388,1.4" transform="translate(-428.474 -294.932)" fill="#3c1c54"/>
      <path id="Trazado_874068" data-name="Trazado 874068" d="M254.507,655.422a.291.291,0,0,1-.135-.548L273.6,644.836l.606-7.165a.291.291,0,1,1,.579.049l-.619,7.324a.291.291,0,0,1-.155.233l-19.37,10.111a.291.291,0,0,1-.134.033" transform="translate(-197.997 -496.447)" fill="#3c1c54"/>
      <path id="Trazado_874069" data-name="Trazado 874069" d="M529.8,359.642a.291.291,0,0,1-.23-.468l.839-1.09a.291.291,0,1,1,.46.354l-.839,1.09a.29.29,0,0,1-.23.113" transform="translate(-412.408 -278.807)" fill="#3c1c54"/>
      <path id="Trazado_874070" data-name="Trazado 874070" d="M540.489,362.926a.291.291,0,0,1-.291-.291v-.962a.291.291,0,1,1,.581,0v.962a.291.291,0,0,1-.291.291" transform="translate(-420.736 -281.465)" fill="#3c1c54"/>
      <path id="Trazado_874071" data-name="Trazado 874071" d="M547.862,360.143a.29.29,0,0,1-.237-.122L546.9,359a.291.291,0,1,1,.474-.337l.727,1.023a.291.291,0,0,1-.237.459" transform="translate(-425.912 -279.251)" fill="#3c1c54"/>
      <path id="Trazado_874072" data-name="Trazado 874072" d="M571.315,359.642a.3.3,0,0,1-.079-.011.291.291,0,0,1-.2-.358l.306-1.09a.291.291,0,0,1,.56.157l-.306,1.09a.291.291,0,0,1-.28.212" transform="translate(-444.746 -278.808)" fill="#3c1c54"/>
      <path id="Trazado_874073" data-name="Trazado 874073" d="M580.27,363.075a.291.291,0,0,1-.289-.266l-.1-1.108a.291.291,0,0,1,.265-.315.294.294,0,0,1,.315.265l.1,1.108a.291.291,0,0,1-.265.315h-.025" transform="translate(-451.646 -281.468)" fill="#3c1c54"/>
      <path id="Trazado_874074" data-name="Trazado 874074" d="M587.372,359.882a.291.291,0,0,1-.236-.12l-.55-.76a.291.291,0,0,1,.471-.341l.549.76a.291.291,0,0,1-.235.461" transform="translate(-456.824 -279.251)" fill="#3c1c54"/>
      <path id="Trazado_874075" data-name="Trazado 874075" d="M503.972,426.833s2.858,14.089,11.871,13.156,11.871-12.845,11.871-12.845l-11.105-1.77Z" transform="translate(-392.522 -331.305)" fill="#fcf9e8"/>
      <path id="Trazado_874076" data-name="Trazado 874076" d="M731.609,635.561l18.268,11.72,6.329-14.634s11.98,14.837,14.32,25.973c2.459,11.7-4.932,19.664-14.32,16.705-18.322-5.774-33.685-22.734-33.685-22.734Z" transform="translate(-562.741 -492.741)" fill="#fcf9e8" fill-rule="evenodd"/>
      <path id="Trazado_874077" data-name="Trazado 874077" d="M803.9,655.422a.29.29,0,0,1-.134-.033l-19.37-10.111a.291.291,0,0,1-.155-.233l-.62-7.324a.291.291,0,0,1,.579-.049l.606,7.165,19.229,10.037a.291.291,0,0,1-.135.548" transform="translate(-610.326 -496.447)" fill="#3c1c54"/>
      <path id="Trazado_874078" data-name="Trazado 874078" d="M564.827,565.242a.291.291,0,0,1-.232-.116l-2.235-2.968a.291.291,0,1,1,.464-.35l2.236,2.968a.291.291,0,0,1-.232.465" transform="translate(-437.951 -437.477)" fill="#12263f"/>
      <path id="Trazado_874079" data-name="Trazado 874079" d="M441.346,781.6h0l-79.073-.3a.291.291,0,0,1-.289-.276l-.471-9.514a.291.291,0,1,1,.58-.029l.458,9.239,78.8.3a.291.291,0,0,1,0,.581" transform="translate(-281.565 -600.661)" fill="#3c1c54"/>
      <path id="Trazado_874080" data-name="Trazado 874080" d="M527.658,487.6a10.566,10.566,0,0,1-1.295-.079,10.922,10.922,0,0,1-7.026-3.918.291.291,0,0,1,.466-.347,10.527,10.527,0,0,0,6.641,3.69c3.406.417,7.051-.94,10.828-4.032a.291.291,0,1,1,.368.45c-3.44,2.816-6.791,4.237-9.982,4.237" transform="translate(-404.444 -376.07)" fill="#12263f"/>
      <rect id="Rectángulo_401208" data-name="Rectángulo 401208" width="1.458" height="1.752" transform="translate(103.329 114.11) rotate(-66.989)" fill="#b8aa52"/>
      <rect id="Rectángulo_401209" data-name="Rectángulo 401209" width="1.161" height="0.966" transform="translate(102.152 112.333) rotate(-16.163)" fill="#b8aa52"/>
      <rect id="Rectángulo_401210" data-name="Rectángulo 401210" width="1.154" height="0.96" transform="translate(102.7 115.437) rotate(-26.074)" fill="#b8aa52"/>
      <rect id="Rectángulo_401211" data-name="Rectángulo 401211" width="1.153" height="0.658" transform="translate(104.125 111.643) rotate(-26.094)" fill="#b8aa52"/>
      <rect id="Rectángulo_401212" data-name="Rectángulo 401212" width="3.971" height="1.752" transform="translate(99.551 117.193) rotate(-66.989)" fill="#b8aa52"/>
      <path id="Trazado_874081" data-name="Trazado 874081" d="M375.51,334.189a.442.442,0,0,1-.374-.207c-.031-.049-3.129-4.959-3.969-5.873a.442.442,0,1,1,.651-.6c.893.972,3.936,5.795,4.065,6a.442.442,0,0,1-.373.678" transform="translate(-288.995 -254.972)" fill="#59836b"/>
      <path id="Trazado_874082" data-name="Trazado 874082" d="M683.332,320.185a.442.442,0,0,1-.406-.616l3.334-7.776a.442.442,0,0,1,.813.348l-3.333,7.776a.443.443,0,0,1-.407.268" transform="translate(-531.873 -242.633)" fill="#77af8f"/>
      <path id="Trazado_874083" data-name="Trazado 874083" d="M743.325,200.655a.442.442,0,0,1-.328-.738c.114-.127,11.586-12.732,25.349-16.686a.442.442,0,1,1,.244.85c-13.516,3.883-24.824,16.3-24.937,16.428a.441.441,0,0,1-.329.146" transform="translate(-578.599 -142.697)" fill="#59836b"/>
      <path id="Trazado_874084" data-name="Trazado 874084" d="M249.35,396a.439.439,0,0,1-.15-.026c-19.161-6.893-42.043-2.9-42.272-2.856a.442.442,0,0,1-.157-.87c.231-.041,23.339-4.081,42.728,2.894a.442.442,0,0,1-.15.858" transform="translate(-160.762 -304.571)" fill="#59836b"/>
      <path id="Trazado_874085" data-name="Trazado 874085" d="M870.335,459.108a.442.442,0,0,1-.182-.845l23.594-10.624a.442.442,0,1,1,.363.806l-23.594,10.624a.446.446,0,0,1-.181.039" transform="translate(-677.521 -348.616)" fill="#59836b"/>
      <path id="Trazado_874086" data-name="Trazado 874086" d="M567.633,630.725a.291.291,0,0,1-.206-.5c.152-.152,15.243-15.329,20.278-25.147a.291.291,0,0,1,.517.265c-5.077,9.9-20.231,25.139-20.384,25.292a.291.291,0,0,1-.206.085" transform="translate(-441.878 -471.149)" fill="#12263f"/>
      <path id="Trazado_874087" data-name="Trazado 874087" d="M360.254,444.919s7.009,3.16,11.485-3.551a104.894,104.894,0,0,1,8.154-10.811s-17.218,10.531-19.638,14.362" transform="translate(-280.586 -335.342)" fill="#12263f"/>
    </g>
  </g>
</svg>
