<svg xmlns="http://www.w3.org/2000/svg" xmlns:xlink="http://www.w3.org/1999/xlink" width="256.052" height="164.14" viewBox="0 0 256.052 164.14">
  <defs>
    <clipPath id="clip-path">
      <rect id="Rectángulo_401217" data-name="Rectángulo 401217" width="186.052" height="164.14" fill="#95dbb3"/>
    </clipPath>
  </defs>
  <g id="_15" data-name="15" transform="translate(-530.948 -434)">
    <g id="Grupo_1098977" data-name="Grupo 1098977" transform="translate(530.948 434)">
      <g id="Grupo_1098976" data-name="Grupo 1098976" clip-path="url(#clip-path)">
        <path id="Trazado_874088" data-name="Trazado 874088" d="M174.282,108.05C201.971,64.6,178.31,7.055,129.346,3.333,114.587,2.21,99.192,6.466,85.974,21.539,45.3,67.916,12.7,35.131,1.688,64.049s33.848,73.4,77.185,42.876c31.676-22.312,63.779,50.762,95.409,1.125" transform="translate(0 -2.394)" fill="#95dbb3"/>
        <path id="Trazado_874089" data-name="Trazado 874089" d="M262.371,617.256c0,4.458-32.061,8.072-71.611,8.072s-71.611-3.614-71.611-8.072,32.061-8.072,71.611-8.072,71.611,3.614,71.611,8.072" transform="translate(-90.202 -461.188)" fill="#fff" fill-rule="evenodd"/>
        <path id="Trazado_874090" data-name="Trazado 874090" d="M172.212,154.09l54.271.371c-1.978-14.588-2.843-19.78-2.324-34.993,1.084-20.715,36.949-38.5,27.147-80.645C243.886,6.916,211.053-6.813,173.5,3.244,156.473,7.8,143.653,17.67,140.04,34.924c-.077.366-.5,4.557-.573,4.931-.874,4.5,1.5,19.138-.7,22.66-5.326,8.54-9.618,12.521-11.1,13.531-3.94,2.695-4.078,9.435,2.375,11.854,5.038,1.889,4.441,1.065,4.464,4.854a8.336,8.336,0,0,1-1.279,4.707c-.883,1.645-1.242,1.9-.418,3.743.843,1.883,3.7,3.106,3.7,3.106s-3.267,2.3.075,6.95c.736,1.024,2.183,1.575,2.375,2.39,1.026,4.346.713,4.168.694,5.8-.023,2.095.289,10.359,10.623,12.15,1.929.335,10.094.277,18.281-.171,1.446,10.547,1.32,13.689,3.652,22.659" transform="translate(-94.57 0)" fill="#fcf9e8"/>
        <circle id="Elipse_11484" data-name="Elipse 11484" cx="2.68" cy="2.68" r="2.68" transform="translate(31.322 10.765)" fill="none" stroke="#e6d567" stroke-linecap="round" stroke-linejoin="round" stroke-width="2.027"/>
        <circle id="Elipse_11485" data-name="Elipse 11485" cx="2.68" cy="2.68" r="2.68" transform="translate(171.513 49.336)" fill="none" stroke="#59836b" stroke-linecap="round" stroke-linejoin="round" stroke-width="2.027"/>
        <circle id="Elipse_11486" data-name="Elipse 11486" cx="2.68" cy="2.68" r="2.68" transform="translate(19.454 120.543)" fill="none" stroke="#95dbb3" stroke-linecap="round" stroke-linejoin="round" stroke-width="2.027"/>
        <path id="Trazado_874091" data-name="Trazado 874091" d="M329.151,100.235a35.37,35.37,0,1,1-35.37-35.37,35.37,35.37,0,0,1,35.37,35.37" transform="translate(-195.632 -49.107)" fill="#082952"/>
        <path id="Trazado_874092" data-name="Trazado 874092" d="M350.47,148.706c-30.3-5.839-6.854-47.56,5.651-33.153s1.562,28.751-2.607,21.4c-9.316-16.434-29.759-32.5-21.593-18.564S316.865,134.316,327.335,143s16.622,16.664,23.135,5.709,5.824,4.709,13.685-9-2.543-25.821-8.263-20.549-22.736,19.383-15.377,21.421,13.584-34.012-.23-33.153-20.906,14.165-13.718,20.023,27.223,3.387,24.146,10.505-17.673,17.427-24.559,10.717S317.441,127.8,337.729,122.9" transform="translate(-243.327 -81.315)" fill="none" stroke="#e6d567" stroke-linecap="round" stroke-linejoin="round" stroke-width="2"/>
        <path id="Trazado_874093" data-name="Trazado 874093" d="M441.027,277.395c5.855.348,21.169,21.477,29.9,25.876,9.579,4.826,25.1-9.519,31.37,3.956,3.38,7.26,10.137,25.838,14.588,46.236" transform="translate(-333.883 -210.004)" fill="none" stroke="#e6d567" stroke-linecap="round" stroke-linejoin="round" stroke-width="2"/>
        <path id="Trazado_874094" data-name="Trazado 874094" d="M695.79,344.34a1.591,1.591,0,0,0-2.468,1.667c1.23,4.7,3.306,11.777,4.637,11.74h.879a1.729,1.729,0,0,0,1.7-2.141l-2.077-8.09A4.223,4.223,0,0,0,696.742,345Z" transform="translate(-524.845 -260.465)" fill="#c95836" fill-rule="evenodd"/>
        <path id="Trazado_874095" data-name="Trazado 874095" d="M678.08,392.078c.348,2.047-.588,3.6-2.888,4.321l-11.673,1.159.725-2.361,8.548-2.279Z" transform="translate(-502.323 -296.826)" fill="#c95836" fill-rule="evenodd"/>
        <path id="Trazado_874096" data-name="Trazado 874096" d="M574.819,651.723c.015.776,8.473,1.4,18.891,1.4s18.851-.629,18.836-1.4-8.473-1.4-18.891-1.4-18.851.629-18.836,1.4" transform="translate(-435.172 -492.329)" fill="#d2e6fa" fill-rule="evenodd"/>
        <path id="Trazado_874097" data-name="Trazado 874097" d="M671.4,501.922s.685-17.069-3.352-23.822l-1.989-17.546-9.457-4.865,12.349,46.367Z" transform="translate(-497.09 -344.983)" fill="#e3633d" fill-rule="evenodd"/>
        <path id="Trazado_874098" data-name="Trazado 874098" d="M692.4,643.234l-1.971,1.56a13.068,13.068,0,0,1-2.6,1.135c-.177.479.3.731.686.794l6.765-.142s1.53-.325-.189-3.344c-1.175.545-2.271.935-2.695,0" transform="translate(-520.702 -486.966)" fill="#4a2a1a" fill-rule="evenodd"/>
        <path id="Trazado_874099" data-name="Trazado 874099" d="M654.847,462.646l4.247,19.609,5.039,19.658h7.9a29.167,29.167,0,0,1-1.052-4.5c-.01-1.085-.641-11.372-3.47-16.1L665.33,460.1Z" transform="translate(-495.757 -348.322)" fill="#12263f" fill-rule="evenodd"/>
        <path id="Trazado_874100" data-name="Trazado 874100" d="M622.675,500.012s5.525-17.217,3.4-24.03l5.832-23.357-10.922.751-.8,46.771Z" transform="translate(-469.518 -342.664)" fill="#e3633d" fill-rule="evenodd"/>
        <path id="Trazado_874101" data-name="Trazado 874101" d="M659.3,311.032l.826,3.862a1.347,1.347,0,0,0,.888,1,1.274,1.274,0,0,0,1.278-.276l.323-.3a1.673,1.673,0,0,0,.435-1.738l-1.456-4.5Z" transform="translate(-499.126 -233.984)" fill="#effaf4" fill-rule="evenodd"/>
        <path id="Trazado_874102" data-name="Trazado 874102" d="M659.915,321.71l.367,1.248.956-1.327Z" transform="translate(-499.594 -243.494)" fill="#873b24" fill-rule="evenodd"/>
        <path id="Trazado_874103" data-name="Trazado 874103" d="M657.754,300.582a1.165,1.165,0,0,0-.817-1.4l-2.1-.578a1.177,1.177,0,0,0-1.372.8,12.216,12.216,0,0,0-.609,3.3,1.414,1.414,0,0,0,.9,1.474c.645.177,2.735.09,3.214-1.02a16.328,16.328,0,0,0,.787-2.571" transform="translate(-494.245 -226.03)" fill="#f6f0ca" fill-rule="evenodd"/>
        <path id="Trazado_874104" data-name="Trazado 874104" d="M662.907,300.48s-.272-3.229-1.125-4.234c-1.147-1.351-2.776-2.2-4.757-.848a8.31,8.31,0,0,0,2.95,5.471Z" transform="translate(-497.407 -223.115)" fill="#12263f" fill-rule="evenodd"/>
        <path id="Trazado_874105" data-name="Trazado 874105" d="M661.208,310.042a.844.844,0,0,1-1.156.318.88.88,0,0,1-.114-1.214.844.844,0,0,1,1.156-.318.879.879,0,0,1,.114,1.214" transform="translate(-499.47 -233.709)" fill="#c95836" fill-rule="evenodd"/>
        <path id="Trazado_874106" data-name="Trazado 874106" d="M636.168,405.394l-14.728,1.124c-2.382.881-1.149,14.714-1.149,14.714l9.708.449c4.624-.073,9.042.942,9.157-3.745.211-8.6-2.987-12.542-2.987-12.542" transform="translate(-469.355 -306.907)" fill="#12263f" fill-rule="evenodd"/>
        <path id="Trazado_874107" data-name="Trazado 874107" d="M625.141,329.049l5.35-.955,1.485-.03,3.966,1.118c1.969.827,3.36,2.213,2.794,4.254l.617,7.813c-.154,5.338-2.069,9.655-1.926,14.678-7.744,3.443-17.158,2.873-19.968-.644-.37-10.05,4.308-19.551,7.682-26.234" transform="translate(-467.437 -248.364)" fill="#daf2e4" fill-rule="evenodd"/>
        <path id="Trazado_874108" data-name="Trazado 874108" d="M677.95,303.354a1.357,1.357,0,0,1,.229-1.092c1.768-2.59-2.2-4.329-3.364-5.144-1.22-.851.1-2.94-2.469-3.744s-3.337.541-3.46.5a12.227,12.227,0,0,0,.4,2.449s1.279.385,1.351,2.92-.549,3.863,1.088,5.827,7.744-.716,7.744-.716a1.351,1.351,0,0,1-1.52-1" transform="translate(-506.359 -221.907)" fill="#12263f" fill-rule="evenodd"/>
        <path id="Trazado_874109" data-name="Trazado 874109" d="M603.48,644.893l-2.414,1.574a17.475,17.475,0,0,1-2.917,1.145c-.312.483.092.737.46.8l6.805-.143s1.622-.328.759-3.372c-1.329.549-2.536.943-2.694,0" transform="translate(-452.749 -488.222)" fill="#4a2a1a" fill-rule="evenodd"/>
        <line id="Línea_575" data-name="Línea 575" x1="3.444" y2="0.113" transform="translate(162.228 114.781)" fill="none" stroke="#244165" stroke-miterlimit="10" stroke-width="2.263"/>
        <path id="Trazado_874110" data-name="Trazado 874110" d="M615.062,452.573l-1.47,24.194-.138,19.829h7.9a27.348,27.348,0,0,1,.134-4.542c.276-1.094,2.354-11.47.771-16.244l3.547-19.442Z" transform="translate(-464.42 -342.624)" fill="#12263f" fill-rule="evenodd"/>
        <path id="Trazado_874111" data-name="Trazado 874111" d="M621.778,345.838a1.591,1.591,0,0,0-2.917-.6c-2.5,4.16-2.4,4.929-6.142,11.89l1.587.254a1.729,1.729,0,0,0,2.719-.277l4.343-7.134a4.224,4.224,0,0,0,.6-2.988Z" transform="translate(-463.864 -260.799)" fill="#c95836" fill-rule="evenodd"/>
        <path id="Trazado_874112" data-name="Trazado 874112" d="M699.808,340.827l3.529,8.405-6.152,1.254-.307-8.691Z" transform="translate(-527.577 -258.026)" fill="#effaf4" fill-rule="evenodd"/>
        <path id="Trazado_874113" data-name="Trazado 874113" d="M635.212,335.583l-5.254,8.124-3.7-3.851s2.839-7.6,5.559-7.754,3.392,3.481,3.392,3.481" transform="translate(-474.116 -251.417)" fill="#effaf4" fill-rule="evenodd"/>
        <path id="Trazado_874114" data-name="Trazado 874114" d="M702.789,359.763l-1.446-6.27.158-.353" transform="translate(-530.957 -267.348)" fill="none" stroke="#95dbb3" stroke-linecap="round" stroke-linejoin="round" stroke-width="1"/>
        <line id="Línea_576" data-name="Línea 576" y1="5.605" x2="2.444" transform="translate(155.564 86.375)" fill="none" stroke="#95dbb3" stroke-linecap="round" stroke-linejoin="round" stroke-width="1"/>
        <path id="Trazado_874115" data-name="Trazado 874115" d="M583.813,384.991a3.927,3.927,0,0,1-4.3,3.375l-11.327-3.048,1.514-1.951,8.8.894Z" transform="translate(-430.148 -290.231)" fill="#c95836" fill-rule="evenodd"/>
        <path id="Trazado_874116" data-name="Trazado 874116" d="M559.4,383.322l-2,.788a1.835,1.835,0,0,1-1.255.031l-1.659-.556a.853.853,0,0,1-.4-1.355l2.574-.85a2.766,2.766,0,0,1,1.853.084l1.039.4Z" transform="translate(-419.327 -288.634)" fill="#c95836"/>
        <path id="Trazado_874117" data-name="Trazado 874117" d="M304.559,539.954l11.44-.336-9.89,11.374Z" transform="translate(-230.569 -408.523)" fill="#f6f0ca"/>
      </g>
    </g>
    <g id="XMLID_123_" transform="translate(719.933 428.214)">
      <circle id="XMLID_195_" cx="26.684" cy="26.684" r="26.684" transform="translate(13.7 14.993)" fill="#e6d567"/>
      <path id="XMLID_1355_" d="M57.769,58.209V55.585A19.79,19.79,0,0,0,38.085,35.9h0A19.79,19.79,0,0,0,18.4,55.585v2.625Z" transform="translate(2.153 10.589)" fill="#77af8f"/>
      <line id="XMLID_1368_" y2="6.999" transform="translate(30.031 61.799)" fill="none" stroke="#414042" stroke-miterlimit="10" stroke-width="1"/>
      <line id="XMLID_1367_" y2="6.999" transform="translate(51.611 61.799)" fill="none" stroke="#414042" stroke-miterlimit="10" stroke-width="1"/>
      <path id="XMLID_193_" d="M23.633,32.932H22.9a1.618,1.618,0,0,1-1.6-1.6V28.7a1.618,1.618,0,0,1,1.6-1.6h.729Z" transform="translate(3.482 6.557)" fill="#fff"/>
      <path id="XMLID_192_" d="M40.2,32.932h.729a1.618,1.618,0,0,0,1.6-1.6V28.7a1.618,1.618,0,0,0-1.6-1.6H40.2Z" transform="translate(12.14 6.557)" fill="#fff"/>
      <path id="XMLID_191_" d="M23.633,32.932H22.9a1.618,1.618,0,0,1-1.6-1.6V28.7a1.618,1.618,0,0,1,1.6-1.6h.729Z" transform="translate(3.482 6.557)" fill="none" stroke="#414042" stroke-linecap="round" stroke-miterlimit="10" stroke-width="1"/>
      <path id="XMLID_190_" d="M40.2,32.932h.729a1.618,1.618,0,0,0,1.6-1.6V28.7a1.618,1.618,0,0,0-1.6-1.6H40.2Z" transform="translate(12.14 6.557)" fill="none" stroke="#414042" stroke-linecap="round" stroke-miterlimit="10" stroke-width="1"/>
      <path id="XMLID_189_" d="M22.4,27.075V38.3A13.317,13.317,0,0,0,35.669,51.571h0A13.317,13.317,0,0,0,48.938,38.3V27.658A14.2,14.2,0,0,0,34.794,15.7C31.149,15.848,23.712,19.784,22.4,27.075Z" transform="translate(3.986 1.333)" fill="#fff"/>
      <path id="XMLID_120_" d="M22.7,25.2v8.749A12.85,12.85,0,0,0,35.531,46.78h0A12.85,12.85,0,0,0,48.363,33.949V25.2" transform="translate(4.123 5.687)" fill="none" stroke="#414042" stroke-miterlimit="10" stroke-width="1"/>
      <path id="XMLID_113_" d="M49.371,27.971H23.562L20.5,16.452c6.707-4.666,25.08-5.1,31.787,0Z" transform="translate(3.115)" fill="#77af8f"/>
      <path id="XMLID_117_" d="M49.371,27.971H23.562L20.5,16.452c6.707-4.666,25.08-5.1,31.787,0Z" transform="translate(3.115)" fill="none" stroke="#414042" stroke-miterlimit="10" stroke-width="1"/>
      <path id="XMLID_118_" d="M35.187,17.7h-1.6V16.1H31.1v1.6H29.5v2.333h1.6v1.6h2.479v-1.6h1.6Z" transform="translate(7.238 1.518)" fill="#fff"/>
      <rect id="XMLID_122_" width="1.312" height="2.916" transform="translate(44.904 60.341)" fill="#414042"/>
      <rect id="XMLID_121_" width="8.02" height="4.374" transform="translate(41.55 62.82)" fill="#fff"/>
    </g>
  </g>
</svg>
