<svg xmlns="http://www.w3.org/2000/svg" xmlns:xlink="http://www.w3.org/1999/xlink" width="505" height="326.128" viewBox="0 0 505 326.128">
  <defs>
    <clipPath id="clip-path">
      <rect id="Rectángulo_401143" data-name="Rectángulo 401143" width="348.955" height="316.475" fill="none"/>
    </clipPath>
    <clipPath id="clip-path-2">
      <path id="Trazado_873888" data-name="Trazado 873888" d="M164.57,291.592a24.37,24.37,0,0,0-5.445-.623c-14.947,0-28.35,13.363-33.006,31.417H290.96c-2.343-18.054-14.035-31.417-28.982-31.417a25.394,25.394,0,0,0-5.053.515c-4.7-25.35-21.8-43.681-43.363-43.681-21.6,0-41.069,18.383-48.993,43.789" transform="translate(-126.119 -247.803)" fill="#daf2e4"/>
    </clipPath>
    <clipPath id="clip-path-3">
      <path id="Trazado_873889" data-name="Trazado 873889" d="M347.328,135.68a24.365,24.365,0,0,0-5.445-.623c-14.946,0-28.35,13.364-33.006,31.418H473.718c-2.343-18.054-14.035-31.418-28.982-31.418a25.39,25.39,0,0,0-5.052.515c-4.7-25.349-21.8-43.68-43.363-43.68-21.6,0-41.07,18.382-48.994,43.788" transform="translate(-308.877 -91.892)" fill="#35a064"/>
    </clipPath>
    <clipPath id="clip-path-5">
      <path id="Trazado_873891" data-name="Trazado 873891" d="M262.181,396.528c-7.2,11.547-13,16.928-15,18.294-5.328,3.643-5.513,12.756,3.211,16.027,6.812,2.554,6,1.44,6.035,6.563.019,3.165,5.755,27.15,6.015,28.252,1.388,5.876.963,5.635.939,7.845-.031,2.832.391,14.006,14.363,16.428,2.609.452,13.647.375,24.717-.232.691,15.751,2.292,30.636,2.292,30.636l87.8-.428c-2.674-19.723-1.456-42.539-.753-63.107,1.4-26.811,31.726-33.269,23.9-85.192l-.007-10-152.76-18.31s1.566,49.51-.748,53.221" transform="translate(-243.453 -343.307)" fill="#fcf9e8"/>
    </clipPath>
    <clipPath id="clip-path-6">
      <path id="Trazado_873892" data-name="Trazado 873892" d="M508.487,451.142c12.69,10.295,31.763,3.436,35.191-12.541,4.2-19.59,8.471-47.062,8.1-76.787l-97.471-7.988c.373,28.851,21.053,70.442,54.178,97.316" transform="translate(-454.309 -353.826)" fill="#95dbb3"/>
    </clipPath>
    <clipPath id="clip-path-8">
      <path id="Trazado_873900" data-name="Trazado 873900" d="M524.41,483.312c-5.99,12.977-3.264,28.171,6.089,33.937s21.789-.081,27.779-13.057,3.263-28.171-6.089-33.936a14.7,14.7,0,0,0-7.8-2.221c-7.617,0-15.558,5.695-19.981,15.278" transform="translate(-521.232 -468.034)" fill="#fcf9e8"/>
    </clipPath>
    <clipPath id="clip-path-9">
      <path id="Trazado_873901" data-name="Trazado 873901" d="M345.53,244.87c-70.449,2.652-56.6,48.772-56.6,48.772l66.162-.578,93.133.578c1.5-40.634-22.2-49.414-73.995-49.414-8.759,0-18.323.251-28.7.642" transform="translate(-287.83 -244.228)" fill="#95dbb3"/>
    </clipPath>
  </defs>
  <g id="_2" data-name="2" transform="translate(-915 -702.872)">
    <g id="Grupo_1098896" data-name="Grupo 1098896" transform="translate(966.045 702.872)">
      <g id="Grupo_1098877" data-name="Grupo 1098877">
        <g id="Grupo_1098876" data-name="Grupo 1098876" clip-path="url(#clip-path)">
          <path id="Trazado_873886" data-name="Trazado 873886" d="M643.369,490.1a69.433,69.433,0,1,1-69.433-69.433A69.433,69.433,0,0,1,643.369,490.1" transform="translate(-313.809 -261.662)" fill="#082952"/>
          <path id="Trazado_873887" data-name="Trazado 873887" d="M348.849,154.419s-3.9,62.288-58.013,73.26-100.679,8.9-141.979,43.614C89.191,321.446-11.159,272.524,1.013,170.826S102.973,18.841,142.454,7.384c99.766-28.951,210.4,28.709,206.4,147.035" transform="translate(0 0)" fill="#77af8f" fill-rule="evenodd"/>
        </g>
      </g>
      <g id="Grupo_1098879" data-name="Grupo 1098879" transform="translate(47.671 93.666)">
        <g id="Grupo_1098878" data-name="Grupo 1098878" clip-path="url(#clip-path-2)">
          <rect id="Rectángulo_401144" data-name="Rectángulo 401144" width="164.841" height="74.583" transform="translate(0 0)" fill="#daf2e4"/>
        </g>
      </g>
      <g id="Grupo_1098881" data-name="Grupo 1098881" transform="translate(116.751 34.734)">
        <g id="Grupo_1098880" data-name="Grupo 1098880" clip-path="url(#clip-path-3)">
          <rect id="Rectángulo_401145" data-name="Rectángulo 401145" width="164.841" height="74.583" transform="translate(0 0)" fill="#35a064"/>
        </g>
      </g>
      <g id="Grupo_1098883" data-name="Grupo 1098883">
        <g id="Grupo_1098882" data-name="Grupo 1098882" clip-path="url(#clip-path)">
          <circle id="Elipse_11466" data-name="Elipse 11466" cx="6.391" cy="6.391" r="6.391" transform="translate(297.819 170.479)" fill="none" stroke="#95dbb3" stroke-linecap="round" stroke-linejoin="round" stroke-width="2"/>
          <circle id="Elipse_11467" data-name="Elipse 11467" cx="6.391" cy="6.391" r="6.391" transform="translate(170.702 13.33)" fill="none" stroke="#95dbb3" stroke-linecap="round" stroke-linejoin="round" stroke-width="2"/>
          <circle id="Elipse_11468" data-name="Elipse 11468" cx="6.391" cy="6.391" r="6.391" transform="translate(80.906 254.509)" fill="none" stroke="#95dbb3" stroke-linecap="round" stroke-linejoin="round" stroke-width="2"/>
          <path id="Trazado_873890" data-name="Trazado 873890" d="M449.328,790.439c0,6.027-43.348,10.914-96.821,10.913s-96.821-4.886-96.821-10.913,43.348-10.913,96.821-10.913,96.821,4.886,96.821,10.913" transform="translate(-159.041 -484.878)" fill="#082952" fill-rule="evenodd"/>
        </g>
      </g>
      <g id="Grupo_1098885" data-name="Grupo 1098885" transform="translate(92.021 129.765)">
        <g id="Grupo_1098884" data-name="Grupo 1098884" clip-path="url(#clip-path-5)">
          <rect id="Rectángulo_401147" data-name="Rectángulo 401147" width="181.859" height="177.034" transform="translate(-1.788 0)" fill="#fcf9e8"/>
        </g>
      </g>
      <g id="Grupo_1098887" data-name="Grupo 1098887" transform="translate(171.721 133.741)">
        <g id="Grupo_1098886" data-name="Grupo 1098886" clip-path="url(#clip-path-6)">
          <rect id="Rectángulo_401148" data-name="Rectángulo 401148" width="97.84" height="107.611" transform="translate(0 0)" fill="#95dbb3"/>
        </g>
      </g>
      <g id="Grupo_1098889" data-name="Grupo 1098889">
        <g id="Grupo_1098888" data-name="Grupo 1098888" clip-path="url(#clip-path)">
          <path id="Trazado_873893" data-name="Trazado 873893" d="M399.561,729.442l15.467-.454-14.5,16.444Z" transform="translate(-248.533 -453.443)" fill="#3c1c54"/>
          <rect id="Rectángulo_401149" data-name="Rectángulo 401149" width="7.677" height="3.04" transform="matrix(0.683, -0.731, 0.731, 0.683, 102.912, 197.144)" fill="#082952"/>
          <path id="Trazado_873894" data-name="Trazado 873894" d="M283.41,536.241l-2.844,1.091-1.616-4.189,2.844-1.09Z" transform="translate(-173.511 -330.945)" fill="#082952"/>
          <rect id="Rectángulo_401150" data-name="Rectángulo 401150" width="3.046" height="2.413" transform="translate(153.817 206.348) rotate(-21.04)" fill="#082952"/>
          <rect id="Rectángulo_401151" data-name="Rectángulo 401151" width="4.068" height="2.612" transform="translate(151.526 204.268) rotate(-51.349)" fill="#082952"/>
          <path id="Trazado_873895" data-name="Trazado 873895" d="M427.732,526.642l-2.68,1.47-.836-1.58,2.68-1.47Z" transform="translate(-263.869 -326.597)" fill="#082952"/>
          <path id="Trazado_873896" data-name="Trazado 873896" d="M404.433,556.023l-3.043-.12.159-4.484,3.043.121Z" transform="translate(-249.671 -342.991)" fill="#082952"/>
          <rect id="Rectángulo_401152" data-name="Rectángulo 401152" width="1.978" height="3.046" transform="translate(149.73 208.729) rotate(-65.604)" fill="#082952"/>
          <path id="Trazado_873897" data-name="Trazado 873897" d="M415.878,529.75,413,528.762l1.447-4.25,2.881.988Z" transform="translate(-256.891 -326.255)" fill="#082952"/>
          <rect id="Rectángulo_401153" data-name="Rectángulo 401153" width="3.029" height="3.295" transform="translate(110.119 197.769) rotate(-12.613)" fill="#082952"/>
          <path id="Trazado_873898" data-name="Trazado 873898" d="M303.055,495.754l-2.955.667-1.114-5.016,2.955-.667Z" transform="translate(-185.974 -305.247)" fill="#082952"/>
          <path id="Trazado_873899" data-name="Trazado 873899" d="M302.421,465.959l-3.023.24-.392-5.122,3.023-.24Z" transform="translate(-185.987 -286.648)" fill="#082952"/>
          <rect id="Rectángulo_401154" data-name="Rectángulo 401154" width="1.706" height="1.856" transform="translate(109.898 189.364) rotate(-12.635)" fill="#082952"/>
          <rect id="Rectángulo_401155" data-name="Rectángulo 401155" width="1.856" height="1.705" transform="translate(111.753 183.07) rotate(-40.983)" fill="#082952"/>
          <rect id="Rectángulo_401156" data-name="Rectángulo 401156" width="1.856" height="1.705" transform="translate(111.815 194.018) rotate(-60.657)" fill="#082952"/>
          <rect id="Rectángulo_401157" data-name="Rectángulo 401157" width="1.856" height="1.705" transform="translate(101.787 207.205) rotate(-60.657)" fill="#082952"/>
        </g>
      </g>
      <g id="Grupo_1098891" data-name="Grupo 1098891" transform="translate(197.017 176.909)">
        <g id="Grupo_1098890" data-name="Grupo 1098890" clip-path="url(#clip-path-8)">
          <rect id="Rectángulo_401159" data-name="Rectángulo 401159" width="45.847" height="54.981" transform="translate(-2.812 0)" fill="#fcf9e8"/>
        </g>
      </g>
      <g id="Grupo_1098893" data-name="Grupo 1098893" transform="translate(108.795 92.314)">
        <g id="Grupo_1098892" data-name="Grupo 1098892" clip-path="url(#clip-path-9)">
          <rect id="Rectángulo_401160" data-name="Rectángulo 401160" width="174.649" height="49.414" transform="translate(-12.748 0)" fill="#95dbb3"/>
        </g>
      </g>
      <g id="Grupo_1098895" data-name="Grupo 1098895">
        <g id="Grupo_1098894" data-name="Grupo 1098894" clip-path="url(#clip-path)">
          <path id="Trazado_873902" data-name="Trazado 873902" d="M375.14,472.246s-9.685-2.979-21.342,6.982" transform="translate(-220.068 -293.485)" fill="none" stroke="#082952" stroke-linecap="round" stroke-linejoin="round" stroke-width="2"/>
          <path id="Trazado_873903" data-name="Trazado 873903" d="M559.516,494.975c-17.747.95-20.58,21.717-20.58,21.717s8.477-9.562,16.759-8.261" transform="translate(-335.227 -307.882)" fill="none" stroke="#082952" stroke-linecap="round" stroke-linejoin="round" stroke-width="2"/>
          <path id="Trazado_873904" data-name="Trazado 873904" d="M260.322,207.178c-4.656-18.054-18.059-31.418-33.006-31.418a24.368,24.368,0,0,0-5.445.623c-7.924-25.406-27.4-43.788-48.994-43.788-21.567,0-38.665,18.331-43.363,43.68a25.39,25.39,0,0,0-5.053-.515c-14.947,0-26.638,13.364-28.982,31.418Z" transform="translate(-59.391 -82.476)" fill="#082952"/>
          <path id="Trazado_873905" data-name="Trazado 873905" d="M245.961,221.016l27.452-.375a.261.261,0,0,1,.249.35l-12.938,35.617a.261.261,0,0,0,.251.35l24.571-.57a.261.261,0,0,1,.2.432l-43.43,50.155a.261.261,0,0,1-.454-.222l7.478-37.143a.261.261,0,0,0-.257-.313l-17.87.087a.261.261,0,0,1-.251-.338L245.715,221.2a.261.261,0,0,1,.246-.184" transform="translate(-143.658 -137.242)" fill="#fff"/>
          <path id="Trazado_873906" data-name="Trazado 873906" d="M632.392,190.046l21.8-.3a.207.207,0,0,1,.2.278l-10.275,28.286a.207.207,0,0,0,.2.278l19.513-.452a.207.207,0,0,1,.161.343L629.5,258.312a.207.207,0,0,1-.36-.177l5.939-29.5a.207.207,0,0,0-.2-.248l-14.192.069a.207.207,0,0,1-.2-.268l11.713-38a.207.207,0,0,1,.2-.146" transform="translate(-385.945 -118.026)" fill="#082952"/>
          <path id="Trazado_873907" data-name="Trazado 873907" d="M130.744,495.216l17.589-.24a.167.167,0,0,1,.16.224l-8.29,22.822a.167.167,0,0,0,.161.224l15.743-.365a.168.168,0,0,1,.13.277l-27.827,32.137a.167.167,0,0,1-.291-.143l4.791-23.8a.167.167,0,0,0-.165-.2l-11.45.056a.167.167,0,0,1-.161-.217l9.449-30.657a.168.168,0,0,1,.158-.118" transform="translate(-75.345 -307.883)" fill="#fff"/>
          <path id="Trazado_873908" data-name="Trazado 873908" d="M340.6,606.293s4.8-10.857,15.659-5.22" transform="translate(-211.861 -372.868)" fill="none" stroke="#082952" stroke-linecap="round" stroke-linejoin="round" stroke-width="2"/>
          <path id="Trazado_873909" data-name="Trazado 873909" d="M279.2,325.795,239.757,370.6l7.478-37.143-19.671.183,2.923-10.352" transform="translate(-141.549 -201.093)" fill="none" stroke="#082952" stroke-linecap="round" stroke-linejoin="round" stroke-width="2"/>
        </g>
      </g>
    </g>
    <rect id="Rectángulo_401162" data-name="Rectángulo 401162" width="505" height="326" transform="translate(915 703)" fill="none"/>
  </g>
</svg>
