<svg xmlns="http://www.w3.org/2000/svg" xmlns:xlink="http://www.w3.org/1999/xlink" width="557.59" height="396.952" viewBox="0 0 557.59 396.952">
  <defs>
    <clipPath id="clip-path">
      <rect id="Rectángulo_400902" data-name="Rectángulo 400902" width="100.626" height="89.21" fill="#59836b"/>
    </clipPath>
    <clipPath id="clip-path-2">
      <rect id="Rectángulo_400902-2" data-name="Rectángulo 400902" width="63.738" height="56.507" fill="#59836b"/>
    </clipPath>
    <clipPath id="clip-path-3">
      <rect id="Rectángulo_401271" data-name="Rectángulo 401271" width="557.59" height="385.28" transform="translate(0 0)" fill="none"/>
    </clipPath>
  </defs>
  <g id="_20" data-name="20" transform="translate(-147.41 -521)">
    <path id="Rectángulo_400930" data-name="Rectángulo 400930" d="M123,0h1.362a123,123,0,0,1,123,123V381.735a0,0,0,0,1,0,0H0a0,0,0,0,1,0,0V123A123,123,0,0,1,123,0Z" transform="translate(288.486 524.71)" fill="#95dbb3"/>
    <g id="Grupo_1098804" data-name="Grupo 1098804" transform="translate(265 521)">
      <g id="Grupo_1098724" data-name="Grupo 1098724" transform="translate(0 0)">
        <g id="Grupo_1098723" data-name="Grupo 1098723" clip-path="url(#clip-path)">
          <path id="Trazado_872910" data-name="Trazado 872910" d="M4.017,2.009A2.009,2.009,0,1,1,2.009,0,2.009,2.009,0,0,1,4.017,2.009" fill="#59836b"/>
          <path id="Trazado_872911" data-name="Trazado 872911" d="M32.971,2.009A2.009,2.009,0,1,1,30.963,0a2.009,2.009,0,0,1,2.009,2.009" transform="translate(-9.632)" fill="#59836b"/>
          <path id="Trazado_872912" data-name="Trazado 872912" d="M61.924,2.009A2.009,2.009,0,1,1,59.916,0a2.009,2.009,0,0,1,2.009,2.009" transform="translate(-19.263)" fill="#59836b"/>
          <path id="Trazado_872913" data-name="Trazado 872913" d="M90.877,2.009A2.009,2.009,0,1,1,88.869,0a2.009,2.009,0,0,1,2.009,2.009" transform="translate(-28.895)" fill="#59836b"/>
          <path id="Trazado_872914" data-name="Trazado 872914" d="M119.831,2.009A2.009,2.009,0,1,1,117.822,0a2.009,2.009,0,0,1,2.009,2.009" transform="translate(-38.527)" fill="#59836b"/>
          <path id="Trazado_872915" data-name="Trazado 872915" d="M148.784,2.009A2.009,2.009,0,1,1,146.776,0a2.009,2.009,0,0,1,2.009,2.009" transform="translate(-48.158)" fill="#59836b"/>
          <path id="Trazado_872916" data-name="Trazado 872916" d="M4.017,33.924a2.009,2.009,0,1,1-2.009-2.009,2.009,2.009,0,0,1,2.009,2.009" transform="translate(0 -10.617)" fill="#59836b"/>
          <path id="Trazado_872917" data-name="Trazado 872917" d="M32.971,33.924a2.009,2.009,0,1,1-2.009-2.009,2.009,2.009,0,0,1,2.009,2.009" transform="translate(-9.632 -10.617)" fill="#59836b"/>
          <path id="Trazado_872918" data-name="Trazado 872918" d="M61.924,33.924a2.009,2.009,0,1,1-2.009-2.009,2.009,2.009,0,0,1,2.009,2.009" transform="translate(-19.263 -10.617)" fill="#59836b"/>
          <path id="Trazado_872919" data-name="Trazado 872919" d="M90.877,33.924a2.009,2.009,0,1,1-2.009-2.009,2.009,2.009,0,0,1,2.009,2.009" transform="translate(-28.895 -10.617)" fill="#59836b"/>
          <path id="Trazado_872920" data-name="Trazado 872920" d="M119.831,33.924a2.009,2.009,0,1,1-2.009-2.009,2.009,2.009,0,0,1,2.009,2.009" transform="translate(-38.527 -10.617)" fill="#59836b"/>
          <path id="Trazado_872921" data-name="Trazado 872921" d="M148.784,33.924a2.009,2.009,0,1,1-2.009-2.009,2.009,2.009,0,0,1,2.009,2.009" transform="translate(-48.158 -10.617)" fill="#59836b"/>
          <path id="Trazado_872922" data-name="Trazado 872922" d="M4.017,65.839A2.009,2.009,0,1,1,2.009,63.83a2.009,2.009,0,0,1,2.009,2.009" transform="translate(0 -21.234)" fill="#59836b"/>
          <path id="Trazado_872923" data-name="Trazado 872923" d="M32.971,65.839a2.009,2.009,0,1,1-2.009-2.009,2.009,2.009,0,0,1,2.009,2.009" transform="translate(-9.632 -21.234)" fill="#59836b"/>
          <path id="Trazado_872924" data-name="Trazado 872924" d="M61.924,65.839a2.009,2.009,0,1,1-2.009-2.009,2.009,2.009,0,0,1,2.009,2.009" transform="translate(-19.263 -21.234)" fill="#59836b"/>
          <path id="Trazado_872925" data-name="Trazado 872925" d="M90.877,65.839a2.009,2.009,0,1,1-2.009-2.009,2.009,2.009,0,0,1,2.009,2.009" transform="translate(-28.895 -21.234)" fill="#59836b"/>
          <path id="Trazado_872926" data-name="Trazado 872926" d="M119.831,65.839a2.009,2.009,0,1,1-2.009-2.009,2.009,2.009,0,0,1,2.009,2.009" transform="translate(-38.527 -21.234)" fill="#59836b"/>
          <path id="Trazado_872927" data-name="Trazado 872927" d="M148.784,65.839a2.009,2.009,0,1,1-2.009-2.009,2.009,2.009,0,0,1,2.009,2.009" transform="translate(-48.158 -21.234)" fill="#59836b"/>
          <path id="Trazado_872928" data-name="Trazado 872928" d="M4.017,97.754a2.009,2.009,0,1,1-2.009-2.009,2.009,2.009,0,0,1,2.009,2.009" transform="translate(0 -31.851)" fill="#59836b"/>
          <path id="Trazado_872929" data-name="Trazado 872929" d="M32.971,97.754a2.009,2.009,0,1,1-2.009-2.009,2.009,2.009,0,0,1,2.009,2.009" transform="translate(-9.632 -31.851)" fill="#59836b"/>
          <path id="Trazado_872930" data-name="Trazado 872930" d="M61.924,97.754a2.009,2.009,0,1,1-2.009-2.009,2.009,2.009,0,0,1,2.009,2.009" transform="translate(-19.263 -31.851)" fill="#59836b"/>
          <path id="Trazado_872931" data-name="Trazado 872931" d="M90.877,97.754a2.009,2.009,0,1,1-2.009-2.009,2.009,2.009,0,0,1,2.009,2.009" transform="translate(-28.895 -31.851)" fill="#59836b"/>
          <path id="Trazado_872932" data-name="Trazado 872932" d="M119.831,97.754a2.009,2.009,0,1,1-2.009-2.009,2.009,2.009,0,0,1,2.009,2.009" transform="translate(-38.527 -31.851)" fill="#59836b"/>
          <path id="Trazado_872933" data-name="Trazado 872933" d="M148.784,97.754a2.009,2.009,0,1,1-2.009-2.009,2.009,2.009,0,0,1,2.009,2.009" transform="translate(-48.158 -31.851)" fill="#59836b"/>
          <path id="Trazado_872934" data-name="Trazado 872934" d="M4.017,129.669a2.009,2.009,0,1,1-2.009-2.009,2.009,2.009,0,0,1,2.009,2.009" transform="translate(0 -42.468)" fill="#59836b"/>
          <path id="Trazado_872935" data-name="Trazado 872935" d="M32.971,129.669a2.009,2.009,0,1,1-2.009-2.009,2.009,2.009,0,0,1,2.009,2.009" transform="translate(-9.632 -42.468)" fill="#59836b"/>
          <path id="Trazado_872936" data-name="Trazado 872936" d="M61.924,129.669a2.009,2.009,0,1,1-2.009-2.009,2.009,2.009,0,0,1,2.009,2.009" transform="translate(-19.263 -42.468)" fill="#59836b"/>
          <path id="Trazado_872937" data-name="Trazado 872937" d="M90.877,129.669a2.009,2.009,0,1,1-2.009-2.009,2.009,2.009,0,0,1,2.009,2.009" transform="translate(-28.895 -42.468)" fill="#59836b"/>
          <path id="Trazado_872938" data-name="Trazado 872938" d="M119.831,129.669a2.009,2.009,0,1,1-2.009-2.009,2.009,2.009,0,0,1,2.009,2.009" transform="translate(-38.527 -42.468)" fill="#59836b"/>
          <path id="Trazado_872939" data-name="Trazado 872939" d="M148.784,129.669a2.009,2.009,0,1,1-2.009-2.009,2.009,2.009,0,0,1,2.009,2.009" transform="translate(-48.158 -42.468)" fill="#59836b"/>
        </g>
      </g>
    </g>
    <circle id="Elipse_11458" data-name="Elipse 11458" cx="59.531" cy="59.531" r="59.531" transform="translate(290.539 540.106)" fill="#e6d567"/>
    <g id="Grupo_1098806" data-name="Grupo 1098806" transform="translate(492.622 861.445)">
      <g id="Grupo_1098724-2" data-name="Grupo 1098724" transform="translate(0 0)">
        <g id="Grupo_1098723-2" data-name="Grupo 1098723" clip-path="url(#clip-path-2)">
          <path id="Trazado_872910-2" data-name="Trazado 872910" d="M2.545,1.272A1.272,1.272,0,1,1,1.272,0,1.272,1.272,0,0,1,2.545,1.272" fill="#59836b"/>
          <path id="Trazado_872911-2" data-name="Trazado 872911" d="M31.5,1.272A1.272,1.272,0,1,1,30.226,0,1.272,1.272,0,0,1,31.5,1.272" transform="translate(-16.715)" fill="#59836b"/>
          <path id="Trazado_872912-2" data-name="Trazado 872912" d="M60.452,1.272A1.272,1.272,0,1,1,59.179,0a1.272,1.272,0,0,1,1.272,1.272" transform="translate(-33.43)" fill="#59836b"/>
          <path id="Trazado_872913-2" data-name="Trazado 872913" d="M89.4,1.272A1.272,1.272,0,1,1,88.132,0,1.272,1.272,0,0,1,89.4,1.272" transform="translate(-50.144)" fill="#59836b"/>
          <path id="Trazado_872914-2" data-name="Trazado 872914" d="M118.358,1.272A1.273,1.273,0,1,1,117.086,0a1.273,1.273,0,0,1,1.272,1.272" transform="translate(-66.859)" fill="#59836b"/>
          <path id="Trazado_872915-2" data-name="Trazado 872915" d="M147.312,1.272A1.272,1.272,0,1,1,146.039,0a1.272,1.272,0,0,1,1.272,1.272" transform="translate(-83.574)" fill="#59836b"/>
          <path id="Trazado_872916-2" data-name="Trazado 872916" d="M2.545,33.187a1.272,1.272,0,1,1-1.272-1.272,1.273,1.273,0,0,1,1.272,1.272" transform="translate(0 -18.425)" fill="#59836b"/>
          <path id="Trazado_872917-2" data-name="Trazado 872917" d="M31.5,33.187a1.272,1.272,0,1,1-1.272-1.272A1.273,1.273,0,0,1,31.5,33.187" transform="translate(-16.715 -18.425)" fill="#59836b"/>
          <path id="Trazado_872918-2" data-name="Trazado 872918" d="M60.452,33.187a1.272,1.272,0,1,1-1.272-1.272,1.273,1.273,0,0,1,1.272,1.272" transform="translate(-33.43 -18.425)" fill="#59836b"/>
          <path id="Trazado_872919-2" data-name="Trazado 872919" d="M89.4,33.187a1.272,1.272,0,1,1-1.272-1.272A1.273,1.273,0,0,1,89.4,33.187" transform="translate(-50.144 -18.425)" fill="#59836b"/>
          <path id="Trazado_872920-2" data-name="Trazado 872920" d="M118.358,33.187a1.273,1.273,0,1,1-1.272-1.272,1.273,1.273,0,0,1,1.272,1.272" transform="translate(-66.859 -18.425)" fill="#59836b"/>
          <path id="Trazado_872921-2" data-name="Trazado 872921" d="M147.312,33.187a1.272,1.272,0,1,1-1.272-1.272,1.273,1.273,0,0,1,1.272,1.272" transform="translate(-83.574 -18.425)" fill="#59836b"/>
          <path id="Trazado_872922-2" data-name="Trazado 872922" d="M2.545,65.1A1.272,1.272,0,1,1,1.272,63.83,1.273,1.273,0,0,1,2.545,65.1" transform="translate(0 -36.849)" fill="#59836b"/>
          <path id="Trazado_872923-2" data-name="Trazado 872923" d="M31.5,65.1a1.272,1.272,0,1,1-1.272-1.272A1.273,1.273,0,0,1,31.5,65.1" transform="translate(-16.715 -36.849)" fill="#59836b"/>
          <path id="Trazado_872924-2" data-name="Trazado 872924" d="M60.452,65.1a1.272,1.272,0,1,1-1.272-1.272A1.273,1.273,0,0,1,60.452,65.1" transform="translate(-33.43 -36.849)" fill="#59836b"/>
          <path id="Trazado_872925-2" data-name="Trazado 872925" d="M89.4,65.1a1.272,1.272,0,1,1-1.272-1.272A1.273,1.273,0,0,1,89.4,65.1" transform="translate(-50.144 -36.849)" fill="#59836b"/>
          <path id="Trazado_872926-2" data-name="Trazado 872926" d="M118.358,65.1a1.273,1.273,0,1,1-1.272-1.272,1.273,1.273,0,0,1,1.272,1.272" transform="translate(-66.859 -36.849)" fill="#59836b"/>
          <path id="Trazado_872927-2" data-name="Trazado 872927" d="M147.312,65.1a1.272,1.272,0,1,1-1.272-1.272,1.273,1.273,0,0,1,1.272,1.272" transform="translate(-83.574 -36.849)" fill="#59836b"/>
          <path id="Trazado_872928-2" data-name="Trazado 872928" d="M2.545,97.017a1.272,1.272,0,1,1-1.272-1.272,1.273,1.273,0,0,1,1.272,1.272" transform="translate(0 -55.274)" fill="#59836b"/>
          <path id="Trazado_872929-2" data-name="Trazado 872929" d="M31.5,97.017a1.272,1.272,0,1,1-1.272-1.272A1.273,1.273,0,0,1,31.5,97.017" transform="translate(-16.715 -55.274)" fill="#59836b"/>
          <path id="Trazado_872930-2" data-name="Trazado 872930" d="M60.452,97.017a1.272,1.272,0,1,1-1.272-1.272,1.273,1.273,0,0,1,1.272,1.272" transform="translate(-33.43 -55.274)" fill="#59836b"/>
          <path id="Trazado_872931-2" data-name="Trazado 872931" d="M89.4,97.017a1.272,1.272,0,1,1-1.272-1.272A1.273,1.273,0,0,1,89.4,97.017" transform="translate(-50.144 -55.274)" fill="#59836b"/>
          <path id="Trazado_872932-2" data-name="Trazado 872932" d="M118.358,97.017a1.273,1.273,0,1,1-1.272-1.272,1.273,1.273,0,0,1,1.272,1.272" transform="translate(-66.859 -55.274)" fill="#59836b"/>
          <path id="Trazado_872933-2" data-name="Trazado 872933" d="M147.312,97.017a1.272,1.272,0,1,1-1.272-1.272,1.273,1.273,0,0,1,1.272,1.272" transform="translate(-83.574 -55.274)" fill="#59836b"/>
          <path id="Trazado_872934-2" data-name="Trazado 872934" d="M2.545,128.932a1.272,1.272,0,1,1-1.272-1.272,1.273,1.273,0,0,1,1.272,1.272" transform="translate(0 -73.698)" fill="#59836b"/>
          <path id="Trazado_872935-2" data-name="Trazado 872935" d="M31.5,128.932a1.272,1.272,0,1,1-1.272-1.272,1.273,1.273,0,0,1,1.272,1.272" transform="translate(-16.715 -73.698)" fill="#59836b"/>
          <path id="Trazado_872936-2" data-name="Trazado 872936" d="M60.452,128.932a1.272,1.272,0,1,1-1.272-1.272,1.273,1.273,0,0,1,1.272,1.272" transform="translate(-33.43 -73.698)" fill="#59836b"/>
          <path id="Trazado_872937-2" data-name="Trazado 872937" d="M89.4,128.932a1.272,1.272,0,1,1-1.272-1.272,1.273,1.273,0,0,1,1.272,1.272" transform="translate(-50.144 -73.698)" fill="#59836b"/>
          <path id="Trazado_872938-2" data-name="Trazado 872938" d="M118.358,128.932a1.273,1.273,0,1,1-1.272-1.272,1.273,1.273,0,0,1,1.272,1.272" transform="translate(-66.859 -73.698)" fill="#59836b"/>
          <path id="Trazado_872939-2" data-name="Trazado 872939" d="M147.312,128.932a1.272,1.272,0,1,1-1.272-1.272,1.273,1.273,0,0,1,1.272,1.272" transform="translate(-83.574 -73.698)" fill="#59836b"/>
        </g>
      </g>
    </g>
    <g id="_20-2" data-name="20" transform="translate(147.41 521.163)">
      <g id="Grupo_1099064" data-name="Grupo 1099064" transform="translate(0 0.002)" clip-path="url(#clip-path-3)">
        <path id="Trazado_874164" data-name="Trazado 874164" d="M1297.908,445.254c-.763-7.91-7.262-11.853-11.04-8.238-2.046,1.958-2.6,7.413-2.123,12.446-31.181,5.365-41.945,23.859-45.352,42.54a244.571,244.571,0,0,0-4.984,34.155c-.856,11.927-12.2,22.116-12.2,22.116,2.63-.8,12.229-10.508,13.4-18.73l2.375-16.714c.173,9.372,1.067,17.281.464,21.527-1.611,11.337-8.344,19.966-16.578,29.554-22.3,21.406-19.614,28-19.614,28,.605-6.622,10.785-17.676,10.785-17.676-11.861,14.325-4.631,32.592-4.631,32.592.426-11.983,10.624-21.244,14.96-24.653-9.269,11.776-8.387,16.979-8.387,16.979.51-5.282,6.04-11.416,9.143-14.476l-5.281,17.749c4.232-6.952,10.056-10.818,16.844-14.076-2.071,2.683-3.711,5.152-4.787,6.866,4.2-5.486,13.987-10.913,13.987-10.913h0a134.414,134.414,0,0,0,13.7-6.534c9.984-5.627,16.367-22.926,18.967-37.854h0s1.967,4.09.635,13.8-8.675,23.413-8.675,23.413,4.366-6.411,10.124-19.684c4.856-11.193.3-31.541-1.253-37.645a12.956,12.956,0,0,0-.472-1.777c-3.663-10.341-5.879-28.758-1.651-43.728a27.065,27.065,0,0,1,11.378-15.584,3.106,3.106,0,0,0,.274.252c3.521,2.787,6.064,6.047,8.45,1.2s1.55-14.9,1.55-14.9" transform="translate(-1048.002 -379.801)" fill="#12263f"/>
        <path id="Trazado_874165" data-name="Trazado 874165" d="M1416.524,1679.9a10.892,10.892,0,0,0-1.441,2.4s.51-.919,1.441-2.4" transform="translate(-1233.629 -1464.491)" fill="#00002d"/>
        <path id="Trazado_874166" data-name="Trazado 874166" d="M2398.832,853.988a14.03,14.03,0,0,1-2.41,10.566c-3.708,5.561-17.054,12.976-17.8,18.908s1.112,26.693,3.337,38.557,4.819,51.162,4.819,51.162-31.554,1.483-43.211,0c0,0,4.284-57.465,5.025-68.216s-.742-24.469,1.854-32.255,48.382-18.722,48.382-18.722" transform="translate(-2043.059 -744.483)" fill="#e89f9c"/>
        <path id="Trazado_874167" data-name="Trazado 874167" d="M1764.27,1219.911s32.715,5.561,48.427,0c0,0,6.015-1.376,3.634,6.541s-.582,10.518.558,19.6,3.935,58.545-12.478,71.814-36.062,26.986-54.6,6.6-53.016-69.7-66.734-82.3c0,0,.371-60.142,17.61-97.917,0,0,20.02,11.719,28.918,24.7s18.908,40.04,33.737,60.8c0,0-.371-6.3.927-9.825" transform="translate(-1467.26 -997.515)" fill="#e6d567"/>
        <path id="Trazado_874168" data-name="Trazado 874168" d="M1806.263,273.635s-3.337-27.531,0-37.864a28.4,28.4,0,0,1,12.42-15.151s9.971,15.758,15.459,17.7,12.207-6.236,14.756-9.919a103.636,103.636,0,0,1,6.423-8.346c1.279,1.439,5.152,1.816,6.183.19,1.569-2.477,1.96-6.517,2.6-9.268,1.112-4.82,8.527-9.268,14.088-12.235s12.234-9.639,15.942-15.571,12.605-19.649,1.854-34.85-34.479-44.118-66.733-40.04-47.084,20.02-48.938,37.816,4.449,39.669-5.932,50.792-23.357,26.693-23.357,26.693,40.782,19.279,55.24,50.05" transform="translate(-1526.492 -94.06)" fill="#e89f9c"/>
        <path id="Trazado_874169" data-name="Trazado 874169" d="M1993.475,82.443s-7.044,16.683-12.605,20.02l3.337,3.707s6.673-2.3,9.268-4.859a17.007,17.007,0,0,1-4.726,7.138s9.174-4.133,13.623-9.323,14.459-26.323,7.786-41.152A51.347,51.347,0,0,0,1991.251,36.1s-7.415-24.84-28.918-31.513-44.118-6.673-60.431,4.078-27.435,26.323-31.884,42.635S1881.511,88,1881.511,88s-4.078,2.224-8.156-2.6c0,0,.371,3.707,7.044,4.82,0,0-2.224,3.337-4.82,3.707a10.589,10.589,0,0,0,7.195-2.649s2.815-3.653,10.6-3.653,13.717,1.854,17.054.371a10.477,10.477,0,0,0,4.82-4.82s-6.673-6.3-6.3-14.459,2.224-10.01,8.156-11.122,12.177,3.461,12.021,11.926-3.864,13.655-6.459,15.138c0,0,3.337,1.483,7.786-2.6,0,0,1.854,6.673-10.381,10.01,0,0,4.078,8.527,17.054-5.932,0,0,2.6-14.088,2.966-21.5,0,0,4.078,3.337,11.493,3.337s15.2-2.966,20.391-2.225,17.054,6.3,19.649,9.269c0,0-2.6,7.044-5.932,8.9,0,0,5.932-2.225,8.9-6.3a15.253,15.253,0,0,1-1.112,4.82" transform="translate(-1629.546 -0.002)" fill="#12263f"/>
        <path id="Trazado_874170" data-name="Trazado 874170" d="M2301.663,451.876c-3.554-2.133-9.268,5.561-11.493,16.683s-2.6,29.659-2.225,39.669-7.785,86.754-9.268,100.471c0,0,15.942,2.966,44.86,1.112,0,0-3.893-45.416-5.005-55.426s-3.336-24.469-2.966-31.884,2.224-14.088,9.269-20.02,15.571-10.751,17.425-15.571,2.224-8.156-.741-12.235c0,0,7.7-20.035,2.181-25.589,0,0,3.381-10.744.044-13.339s-6.3,2.225-8.527,7.415c0,0,2.966-7.044-.371-9.639s-8.156,3.707-9.639,8.156-10.751,27.806-23.728,34.85c0,0-1.112-7.415.741-11.122s4.078-10.752-.556-13.532" transform="translate(-1986.486 -377.405)" fill="#ffbcc4"/>
        <path id="Trazado_874171" data-name="Trazado 874171" d="M1431.368,1072.031s-6.117-17.93-7.971-28.311-4.449-25.21-16.683-41.523-25.77-23.891-38.375-27.228-17.236-2.384-17.421,1.932-7.427,14.355-10.55,18.026c-7.537,8.858-13.706,18.338-15.93,27.236s-10.707,21.413-14.044,39.209-5.384,28.771-1.677,53.24,4.2,84.449,4.941,106.693l-.661,12.178h114.235s-2.723-41.837-2.352-57.038,16.313-35.591,16.313-55.611-9.825-48.8-9.825-48.8" transform="translate(-1139.177 -848.203)" fill="#fcf9e8"/>
        <path id="Trazado_874172" data-name="Trazado 874172" d="M2700.207,557.744s-6.856,21.3-12.417,28.348c0,0,3.707-2.966,8.9-15.2s3.52-13.147,3.52-13.147" transform="translate(-2343.138 -486.226)" fill="#e89f9c"/>
        <path id="Trazado_874173" data-name="Trazado 874173" d="M2620.032,512.82s-7.229,18.352-14.645,28.362c0,0,6.3-9.16,10.566-17.185s4.078-11.176,4.078-11.176" transform="translate(-2271.303 -447.062)" fill="#e89f9c"/>
        <path id="Trazado_874174" data-name="Trazado 874174" d="M2719.039,757.131a76,76,0,0,1-6.673,10.381s6.875-7.713,7.516-9.788Z" transform="translate(-2364.563 -660.045)" fill="#e89f9c"/>
        <path id="Trazado_874175" data-name="Trazado 874175" d="M2255.547,531.613s2.966,1.112,2.224,6.3h2.6s.738-5.932-4.823-6.3" transform="translate(-1966.322 -463.445)" fill="#00002d"/>
        <path id="Trazado_874176" data-name="Trazado 874176" d="M1693.027,1269.359s34.568,8.156,50.28,2.6c0,0,6.015-1.376,3.634,6.541s1.67,14.408,2.809,23.489,1.683,54.655-14.73,67.924-40.881,24.391-59.418,4-48.2-67.1-61.914-79.709c0,0,.371-60.142,17.61-97.917,0,0,20.02,11.719,28.918,24.7s19.093,33.552,33.923,54.314a5.786,5.786,0,0,1-1.112-5.932" transform="translate(-1406.767 -1042.885)" fill="#e6d567"/>
        <path id="Trazado_874177" data-name="Trazado 874177" d="M1694.88,1257.5s32.715,5.561,48.427,0c0,0,6.015-1.376,3.634,6.541s-.582,10.518.557,19.6,3.934,58.545-12.478,71.814-36.062,26.986-54.6,6.6-53.016-69.7-66.733-82.3c0,0,.371-60.142,17.61-97.917,0,0,20.02,11.719,28.918,24.7s18.908,40.04,33.737,60.8c0,0-.371-6.3.927-9.825" transform="translate(-1406.767 -1030.282)" fill="#fcf9e8"/>
        <path id="Trazado_874178" data-name="Trazado 874178" d="M1651.275,1049.147s24.469,2.224,51.9,31.142c0,0-24.1-23.356-51.9-31.142" transform="translate(-1439.535 -914.617)" fill="#404067"/>
        <path id="Trazado_874179" data-name="Trazado 874179" d="M2270,1847.134a87.977,87.977,0,0,0,43.377,2.224s-22.986,7.786-43.377-2.224" transform="translate(-1978.924 -1610.279)" fill="#404067"/>
        <path id="Trazado_874180" data-name="Trazado 874180" d="M2294.472,1893.732s-14.83-.163-24.469-6.755c0,0,2.595,8.238,24.469,6.755" transform="translate(-1978.924 -1645.013)" fill="#404067"/>
        <path id="Trazado_874181" data-name="Trazado 874181" d="M2211.484,1886.977s-1.682,20.26-3.055,27.04c0,0,4.518-5.618,3.055-27.04" transform="translate(-1925.246 -1645.013)" fill="#404067"/>
        <path id="Trazado_874182" data-name="Trazado 874182" d="M1704.505,935.744s2.66,25.268,11.432,41.827c0,0-11.619-20.144-13.161-32.29,0,0-2.231,8.4,0,16.255a45.546,45.546,0,0,1-4.3-13.729c-.943-7.371-2.795-7.29-2.795-7.29s1.153-3.889,4.192-3.959a12.57,12.57,0,0,0,4.633-.814" transform="translate(-1478.246 -815.755)" fill="#00002d"/>
        <path id="Trazado_874183" data-name="Trazado 874183" d="M71.914,1754.255s-11.3,31.793,126.466,46.277c0,0-26.671-5.475-41.154-12.541,0,0,5.652-10.245-2.473-16.25s-8.125-10.245-7.772-13.424,1.542-13.759-11.947-15.711-6.07-7.6-10.662-15.729-13.777-9.891-21.9-4.593-17.663,14.13-22.962,18.369-7.595,13.6-7.595,13.6" transform="translate(-12.021 -1498.807)" fill="#e8e8e8"/>
        <path id="Trazado_874184" data-name="Trazado 874184" d="M69.238,1376.036s-2.473-12.011,2.473-16.6c6.043-5.612,12.011-6.005,12.364-13.777s10.6-13.07,20.136-15.19,10.835-14.295,12.717-21.2c3.179-11.658,11.3-10.245,16.6-12.011,5.2-1.734,6.707-15.9,19.782-15.9,10.6,0,14.13,7.772,16.6,10.951s8.125-2.473,17.31,2.826c6.035,3.482,7.418,12.011,13.424,12.011s14.837-.707,20.489,12.364c0,0,46.1-3,87.784-1.236,0,0-219.019,7.418-239.685,57.757" transform="translate(-9.346 -1117.056)" fill="#abb4c0"/>
        <path id="Trazado_874187" data-name="Trazado 874187" d="M.775,300.774s-2.661,7.484,29.768,10.893a52.977,52.977,0,0,1-9.687-2.952s1.33-2.411-.582-3.825-1.913-2.411-1.829-3.16a2.985,2.985,0,0,0-2.812-3.7c-3.175-.46-1.429-1.79-2.51-3.7a3.445,3.445,0,0,0-5.155-1.081c-1.913,1.247-4.158,3.326-5.4,4.324a6.893,6.893,0,0,0-1.788,3.2" transform="translate(-0.63 -255.027)" fill="#eaeaea"/>
        <path id="Trazado_874188" data-name="Trazado 874188" d="M.146,211.746s-.582-2.827.582-3.908c1.423-1.321,2.827-1.413,2.91-3.243s2.495-3.077,4.74-3.576,2.55-3.365,2.993-4.989c.748-2.744,2.661-2.411,3.908-2.827,1.225-.408,1.579-3.742,4.656-3.742,2.495,0,3.326,1.829,3.908,2.578s1.912-.582,4.074.665c1.421.82,1.746,2.827,3.16,2.827s3.492-.166,4.823,2.91c0,0,10.851-.707,20.663-.291,0,0-51.553,1.746-56.418,13.6" transform="translate(0 -165.168)" fill="#fff"/>
      </g>
    </g>
  </g>
</svg>
