<svg id="_40" data-name="40" xmlns="http://www.w3.org/2000/svg" xmlns:xlink="http://www.w3.org/1999/xlink" width="274.56" height="195.059" viewBox="0 0 274.56 195.059">
  <defs>
    <clipPath id="clip-path">
      <rect id="Rect치ngulo_401329" data-name="Rect치ngulo 401329" width="274.56" height="195.059" fill="none"/>
    </clipPath>
  </defs>
  <rect id="Rect치ngulo_401328" data-name="Rect치ngulo 401328" width="274.56" height="195.059" fill="#082952"/>
  <g id="Grupo_1099149" data-name="Grupo 1099149">
    <g id="Grupo_1099148" data-name="Grupo 1099148" clip-path="url(#clip-path)">
      <path id="Trazado_875138" data-name="Trazado 875138" d="M175.779,168.243c6.438-4.1,12.809-11,16.362-22.593,4.569-14.9,3.551-33.946,5.66-50.951,2.237-18.035,8.263-34.018,16.274-43.168C220.69,43.976,228.454,41,234.816,32.6c4.246-5.606,7.645-14.321,10.2-23.252h-24.34a32.178,32.178,0,0,1-7.591,7.085c-6.38,4.306-13.112,6.122-19.527,10.2s-12.762,10.959-16.3,22.511C172.7,64,173.715,82.969,171.613,99.913c-2.229,17.969-8.233,33.894-16.215,43.011-6.591,7.527-14.327,10.5-20.665,18.863-4.333,5.719-7.782,14.686-10.345,23.807h24.175a32.269,32.269,0,0,1,7.618-7.111c6.4-4.321,13.16-6.144,19.6-10.24" fill="#fcf9e8"/>
      <path id="Trazado_875139" data-name="Trazado 875139" d="M263.207,9.465H10.267V185.6H122.824c15.161-9.115,35.568-18.076,61.2-23.792,24.289-5.416,52.046-8.569,79.185-12.162Z" fill="#0f1f33"/>
      <path id="Trazado_875140" data-name="Trazado 875140" d="M233.773,8.823c-.1.214-.2.428-.295.642h30.816V8.823Z" fill="#00467d"/>
      <path id="Trazado_875141" data-name="Trazado 875141" d="M234.816,32.6c-6.362,8.4-14.126,11.377-20.741,18.932-8.011,9.15-14.037,25.133-16.273,43.167-2.11,17.006-1.091,36.047-5.66,50.951-3.554,11.594-9.925,18.5-16.363,22.593s-13.2,5.919-19.6,10.241a32.246,32.246,0,0,0-7.619,7.11H264.294V9.348h-19.28C242.461,18.28,239.063,27,234.816,32.6" fill="#f6f0ca"/>
      <path id="Trazado_875142" data-name="Trazado 875142" d="M211.871,91.8c-5.122-4.443-14.379-11-19.808-15.419v-.005a21.649,21.649,0,0,0-.469-2.618,14.79,14.79,0,0,0-4.686-7.445c-.073-.058-.134-.116-.2-.164-.073-.069-.151-.127-.223-.19a.442.442,0,0,1,.245-.142c.352-2.175,4.252-3.842,6.193-3.942a7.524,7.524,0,0,1,6.925,3.868c.658,1.282.9,2.77,1.763,3.936,1.774,2.375,5.451,2.6,8.437,1.895s5.841-2.079,8.916-2.069a9.826,9.826,0,0,1,8.074,4.322c1.551,2.422,2.019,5.667,4.547,7.177,2.182,1.3,5.044.765,7.5,1.493a8.217,8.217,0,0,1,5.58,6.828,12.153,12.153,0,0,1-2.612,8.575,12.637,12.637,0,0,1-5.836,4.565,8.3,8.3,0,0,1-7.337-.734c-2.913-2.026-3.911-6.195-7.293-7.4a10.492,10.492,0,0,0-7.041,0,28.555,28.555,0,0,0-2.673-2.538" fill="#f46ba5"/>
      <path id="Trazado_875143" data-name="Trazado 875143" d="M217.735,100.186c.167,4.992-12.722,18.633-15.556,22.839-4.1,6.078-6.266,12.163-8.52,18.606-2.221-2.5-3.3-6.111-3.711-9.979a39.948,39.948,0,0,1,7.237-10.4c4.687-5.129,10.06-9.888,13.146-16.01a19.833,19.833,0,0,0,2.142-10.1,14.487,14.487,0,0,0-.6-3.335,28.68,28.68,0,0,1,2.673,2.538c.178.2.334.391.468.565,1.216,1.609,2.651,3.309,2.723,5.282" fill="#e9cdbc"/>
      <path id="Trazado_875144" data-name="Trazado 875144" d="M208.225,186.414c-1.33-6.9-2.937-12.254-4.885-15.19a62.091,62.091,0,0,1-3.309-5.572l-.005,0q.663,10.369.793,20.767Z" fill="#755ced"/>
      <path id="Trazado_875145" data-name="Trazado 875145" d="M212.474,95.136a19.834,19.834,0,0,1-2.143,10.1c-3.085,6.122-8.458,10.881-13.145,16.01a39.924,39.924,0,0,0-7.237,10.4c-.692-6.453.48-13.635,1.306-17.619a29.263,29.263,0,0,0,2.951-2.454c2.1-1.926,9.207-8.717,9.519-10.633a6.1,6.1,0,0,0-1.478-4.628c-1.479-1.852-5.424-5.282-9.469-8.57-1.122-.9-2.243-1.794-3.325-2.643-1.948-1.525-3.761-2.887-5.151-3.884-.909-.655-1.635-1.151-2.1-1.43-2.321-1.393-4.977-.707-6.991-2.327-.469-.386-4.6-4.871-3.365-5.467,1.987-.961,3.153,2.623,5.1,2.216,3.532-.739-3.381-6.248-4.274-7.108-.39-.38-.82-.865-.664-1.377s.8-.723,1.356-.8A15.369,15.369,0,0,1,184.492,68.4c.184.164.368.343.541.517,1.233,1.283,2.193,2.792,3.354,4.137a32.092,32.092,0,0,0,3.677,3.32v.005c5.429,4.417,14.685,10.976,19.807,15.419a14.488,14.488,0,0,1,.6,3.335" fill="#fae3cd"/>
      <path id="Trazado_875146" data-name="Trazado 875146" d="M160.706,186.414h40.113q-.138-10.392-.794-20.767c-6.957-13.3-5.976-23.593-5.976-23.593-.111-.122-.223-.243-.335-.359-.043.042-.082.084-.127.127-3.476,3.424-6.853,7.044-11.4,8.817-4.827,1.884-10.273,1.4-15.468.882a97.959,97.959,0,0,1-12.788-1.863c.407.279.832.554,1.283.823,0,0,11.113,11.739,5.491,35.933" fill="#5b42d3"/>
      <path id="Trazado_875147" data-name="Trazado 875147" d="M150.824,131.12c1-2.686,1.964-5.515,2.84-8.232v0c1.289-4.006,2.388-7.742,3.147-10.4a37.6,37.6,0,0,0,7.611,2.9l.295,28.59a1.456,1.456,0,0,0,2.745.565c1.289-2.628,10.87-20.886,15.651-29.366h.006a7.482,7.482,0,0,0,4.123.6,9.41,9.41,0,0,0,4.012-1.731c-.826,3.984-2,11.166-1.306,17.62.408,3.868,1.49,7.477,3.711,9.979l-.067.179s0,0-.006.01c-3.476,3.425-6.852,7.045-11.4,8.818-4.826,1.884-10.272,1.4-15.467.881a97.764,97.764,0,0,1-12.788-1.862c0-.005-.006-.005-.006-.005-.061-.038-.117-.08-.178-.122a12.11,12.11,0,0,1-4.414-14.57c.5-1.224,1-2.511,1.49-3.841" fill="#755ced"/>
      <path id="Trazado_875148" data-name="Trazado 875148" d="M178.795,100.825a4.1,4.1,0,0,1-.781-4.744c.887-1.894,2.717-3.2,4.285-4.654a4.882,4.882,0,0,0,1.691-2.533,1.964,1.964,0,0,0-1.518-2.317c-1.534-.184-2.472,1.715-3.989,1.99a2.727,2.727,0,0,1-2.556-1.2,8.088,8.088,0,0,1-1.077-2.649,13.432,13.432,0,0,0-2.511-5.135,6.579,6.579,0,0,0-5.211-2.406c-1.573.1-2.991.9-4.52,1.288a8.843,8.843,0,0,1-5.9-.628c.151-.655.324-1.3.5-1.947l-.613-1-2.327,1.282a7.412,7.412,0,0,1-1.886-2.855,7.661,7.661,0,0,1,.5-5.857v0c1.841-3.837,6.283-6.675,10.607-4.491,1.222.612,2.3,1.594,3.672,1.747a8.237,8.237,0,0,0,3.855-1.019,15.953,15.953,0,0,1,12.738.528,14.617,14.617,0,0,1,2.729,1.741c.072.064.151.122.223.19.067.048.128.106.2.164A14.8,14.8,0,0,1,191.6,73.76a22.03,22.03,0,0,1,.469,2.617,32.314,32.314,0,0,1-3.678-3.319c-1.16-1.346-2.12-2.855-3.353-4.137-.173-.174-.357-.354-.541-.517a15.365,15.365,0,0,0-11.126-3.478c-.558.079-1.205.29-1.356.8s.274,1,.664,1.378c.893.86,7.806,6.369,4.274,7.108-1.947.406-3.113-3.177-5.1-2.217-1.233.6,2.9,5.082,3.365,5.467,2.014,1.62,4.67.934,6.991,2.327.463.28,1.189.776,2.1,1.43,1.389,1,3.2,2.359,5.15,3.884,1.083.85,2.2,1.741,3.326,2.644-.882,2.169-2.79,3.652-4.207,5.662-1.6,2.264-2.9,5.061-5.061,6.907a4.128,4.128,0,0,1-3.761,1.014,2.631,2.631,0,0,1-.954-.507" fill="#da518b"/>
      <path id="Trazado_875149" data-name="Trazado 875149" d="M171.391,100.656a19.128,19.128,0,0,1-4.48,2.781,10.42,10.42,0,0,1-2.606.712,7.708,7.708,0,0,1-4.737-.712c-3.17-1.71-4.045-5.583-4.28-9a54.849,54.849,0,0,1,1.417-16.6,8.846,8.846,0,0,0,5.9.629c1.529-.391,2.946-1.188,4.519-1.288a6.579,6.579,0,0,1,5.212,2.406,13.446,13.446,0,0,1,2.511,5.135,8.117,8.117,0,0,0,1.076,2.649,2.728,2.728,0,0,0,2.556,1.2c1.517-.275,2.455-2.175,3.989-1.99a1.964,1.964,0,0,1,1.518,2.317,4.876,4.876,0,0,1-1.691,2.533c-1.568,1.451-3.4,2.759-4.285,4.654a4.1,4.1,0,0,0,.781,4.744c-.083.227-.167.459-.245.691a12.4,12.4,0,0,0,.262,9.625,9.014,9.014,0,0,0,4.3,4.026c-4.782,8.48-14.362,26.739-15.651,29.366a1.456,1.456,0,0,1-2.745-.564l-.3-28.59-.045-4.364a30.007,30.007,0,0,0,9.4-6.533,3.03,3.03,0,0,0,1.16-2.481,2.363,2.363,0,0,0-2.566-1.551,4.018,4.018,0,0,0-.977.206" fill="#fae3cd"/>
      <path id="Trazado_875150" data-name="Trazado 875150" d="M174.934,102a3.025,3.025,0,0,1-1.161,2.48,29.97,29.97,0,0,1-9.4,6.533l-.072-6.865a10.4,10.4,0,0,0,2.605-.713,19.077,19.077,0,0,0,4.481-2.78,4.02,4.02,0,0,1,.976-.206A2.363,2.363,0,0,1,174.934,102" fill="#e9cdbc"/>
      <path id="Trazado_875151" data-name="Trazado 875151" d="M156.594,74.889l.614,1c-.179.643-.353,1.292-.5,1.947a9.286,9.286,0,0,1-2.437-1.668Z" fill="#da518b"/>
      <path id="Trazado_875152" data-name="Trazado 875152" d="M156.811,112.481c-.759,2.66-1.858,6.4-3.147,10.4a53.192,53.192,0,0,0-9.05-8.7c-5.167-4.069-10.735-7.721-15.322-12.359a30.583,30.583,0,0,1-7.159-10.77c-1.021-4.918.5-10.037,5.285-12.185l25.465-11.414a7.663,7.663,0,0,0-.5,5.858,7.42,7.42,0,0,0,1.886,2.855l-17.721,9.762a4.419,4.419,0,0,0-1.568,6.4c3.716,5.393,11.276,14.807,21.833,20.147" fill="#fae3cd"/>
      <path id="Trazado_875153" data-name="Trazado 875153" d="M153.664,122.882v0c-.876,2.718-1.841,5.546-2.84,8.232L124.549,96.708a15.392,15.392,0,0,1-2.416-5.651,30.583,30.583,0,0,0,7.159,10.77c4.586,4.638,10.155,8.29,15.322,12.359a53.192,53.192,0,0,1,9.05,8.7" fill="#e9cdbc"/>
      <path id="Trazado_875154" data-name="Trazado 875154" d="M158.082,96.985a.513.513,0,0,1-.049-.081c-.393-.823,1.519-1.768,2.1-1.906a4.671,4.671,0,0,1,3.552.748c.6.393,2.552,1.993.872,2.457-.869.239-1.969-.7-2.758-.919a10.143,10.143,0,0,0-3.081-.021.782.782,0,0,1-.639-.278" fill="#fff"/>
      <path id="Trazado_875155" data-name="Trazado 875155" d="M161.986,84.285a8.644,8.644,0,0,1-1.463,5.479c-1.19,2.124-.158,2.069,1.7,2.7" fill="none" stroke="#a8857b" stroke-linecap="round" stroke-linejoin="round" stroke-width="0.517"/>
      <path id="Trazado_875156" data-name="Trazado 875156" d="M168.316,87.178a6.372,6.372,0,0,0-1.647-.35.986.986,0,0,1,.611-.917,1.023,1.023,0,0,1,1.33.538.985.985,0,0,1-.031.846,2.326,2.326,0,0,0-.263-.117" fill="#515151"/>
      <path id="Trazado_875157" data-name="Trazado 875157" d="M158.626,85.653a7.36,7.36,0,0,0-1.994.092.968.968,0,0,1-.024-.27,1,1,0,0,1,1.082-.923,1.014,1.014,0,0,1,.941,1.074l0,.027" fill="#515151"/>
      <path id="Trazado_875158" data-name="Trazado 875158" d="M160.808,81.49a5.485,5.485,0,0,0-6.1-.171c2.116.166,3.987.006,6.1.171" fill="#a8857b"/>
      <path id="Trazado_875159" data-name="Trazado 875159" d="M161.208,81.605a5.485,5.485,0,0,0-6.1-.171c2.117.166,3.987.006,6.1.171" fill="#a8857b"/>
      <path id="Trazado_875160" data-name="Trazado 875160" d="M171.627,83.27a5.455,5.455,0,0,0-5.982-1.162c2.055.508,3.927.654,5.982,1.162" fill="#a8857b"/>
    </g>
  </g>
</svg>
